<?xml version="1.0" encoding="UTF-8" standalone="no"?>
<!-- Created with Inkscape (http://www.inkscape.org/) -->

<svg
   xmlns:dc="http://purl.org/dc/elements/1.1/"
   xmlns:cc="http://creativecommons.org/ns#"
   xmlns:rdf="http://www.w3.org/1999/02/22-rdf-syntax-ns#"
   xmlns:svg="http://www.w3.org/2000/svg"
   xmlns="http://www.w3.org/2000/svg"
   xmlns:xlink="http://www.w3.org/1999/xlink"
   xmlns:sodipodi="http://sodipodi.sourceforge.net/DTD/sodipodi-0.dtd"
   xmlns:inkscape="http://www.inkscape.org/namespaces/inkscape"
   width="2048"
   height="512"
   id="svg2"
   version="1.1"
   inkscape:version="0.48.4 r9939"
   sodipodi:docname="logo_catraeus_text.svg"
   inkscape:export-filename="/srv/dev/svn/SW/libraries/particles/icon/src/logo_catraeus_text.png"
   inkscape:export-xdpi="90"
   inkscape:export-ydpi="90">
  <defs
     id="defs4">
    <linearGradient
       id="linearGradient3760">
      <stop
         style="stop-color:#ffffff;stop-opacity:1;"
         offset="0"
         id="stop3762" />
      <stop
         style="stop-color:#6c3417;stop-opacity:1;"
         offset="1"
         id="stop3764" />
    </linearGradient>
    <linearGradient
       id="linearGradient3898">
      <stop
         style="stop-color:#ffffff;stop-opacity:0.85384613;"
         offset="0"
         id="stop3900" />
      <stop
         id="stop3906"
         offset="1"
         style="stop-color:#a16e00;stop-opacity:0;" />
    </linearGradient>
    <radialGradient
       inkscape:collect="always"
       xlink:href="#linearGradient3898"
       id="radialGradient3904"
       cx="373.14017"
       cy="403.60306"
       fx="373.14017"
       fy="403.60306"
       r="290.93832"
       gradientTransform="matrix(0.47613778,-0.5012377,0.5313916,0.5047817,-210.80242,705.09943)"
       gradientUnits="userSpaceOnUse" />
    <radialGradient
       inkscape:collect="always"
       xlink:href="#linearGradient3898"
       id="radialGradient3792"
       cx="165.43185"
       cy="227.50676"
       fx="165.43185"
       fy="227.50676"
       r="206.57895"
       gradientTransform="matrix(0.91405073,-0.65343786,0.57831571,0.67582704,-112.62527,179.82621)"
       gradientUnits="userSpaceOnUse" />
  </defs>
  <sodipodi:namedview
     id="base"
     pagecolor="#ffffff"
     bordercolor="#666666"
     borderopacity="1.0"
     inkscape:pageopacity="0.0"
     inkscape:pageshadow="2"
     inkscape:zoom="0.84863281"
     inkscape:cx="1024.1739"
     inkscape:cy="254.97025"
     inkscape:document-units="px"
     inkscape:current-layer="layer1"
     showgrid="false"
     inkscape:window-width="1871"
     inkscape:window-height="1176"
     inkscape:window-x="49"
     inkscape:window-y="24"
     inkscape:window-maximized="1" />
  <metadata
     id="metadata7">
    <rdf:RDF>
      <cc:Work
         rdf:about="">
        <dc:format>image/svg+xml</dc:format>
        <dc:type
           rdf:resource="http://purl.org/dc/dcmitype/StillImage" />
        <dc:title></dc:title>
      </cc:Work>
    </rdf:RDF>
  </metadata>
  <g
     inkscape:label="Layer 1"
     inkscape:groupmode="layer"
     id="layer1"
     transform="translate(0,-540.36218)">
    <path
       sodipodi:type="arc"
       style="fill:#6c3417;fill-opacity:1;stroke:none"
       id="path2990"
       sodipodi:cx="243.42105"
       sodipodi:cy="283.71054"
       sodipodi:rx="206.57895"
       sodipodi:ry="188.8158"
       d="m 450,283.71054 c 0,104.28009 -92.48855,188.8158 -206.57895,188.8158 -114.0904,0 -206.578948,-84.53571 -206.578948,-188.8158 0,-104.28008 92.488548,-188.815795 206.578948,-188.815795 C 357.51145,94.894745 450,179.43046 450,283.71054 z"
       transform="matrix(1.2392357,0,0,1.3558188,-45.656047,411.7021)" />
    <path
       style="fill:#36c200;fill-opacity:1;stroke:none"
       d="M 204.99323,1021.672 C 187.36788,865.56965 96.753751,831.84229 184.91792,691.83111 c 62.51946,-99.28548 279.08272,-10.4004 279.08272,-10.4004 0,0 -84.20157,-97.33558 -183.31202,-101.23383 C 186.44526,576.49006 62.088754,674.4088 57.924494,840.23467 53.884264,1001.1211 204.99323,1021.672 204.99323,1021.672 z"
       id="path3082"
       inkscape:connector-curvature="0"
       sodipodi:nodetypes="cscssc" />
    <path
       style="fill:#1057fe;fill-opacity:1;stroke:none"
       d="m 300.06063,998.18767 c -2.73652,-72.7249 -44.20033,-125.71887 -21.5957,-215.65761 23.7567,-94.52255 182.33687,-45.17658 182.33687,-45.17658 0,0 -55.09173,-56.34395 -125.7419,-62.45394 -132.36912,-11.44758 -158.43615,79.13318 -151.61426,172.44983 9.28972,127.07423 116.61499,150.8383 116.61499,150.8383 z"
       id="path3082-4"
       inkscape:connector-curvature="0"
       sodipodi:nodetypes="cscssc" />
    <path
       style="fill:#e10000;fill-opacity:1;stroke:none"
       d="M 450.22882,963.81845 C 437.2548,933.72382 349.53256,912.8045 359.9522,847.89713 c 8.65494,-53.91449 109.7487,16.07453 139.93092,-14.73927 0.21467,-46.74376 -66.97014,-69.22118 -108.54631,-64.95255 -40.03938,5.50202 -75.60412,26.68442 -77.81275,90.72227 -2.1959,63.66881 49.68642,117.5195 118.22564,123.10225 5.71312,-4.24251 11.58585,-8.09364 18.47912,-18.21138 z"
       id="path3082-4-8"
       inkscape:connector-curvature="0"
       sodipodi:nodetypes="csccscc" />
    <path
       sodipodi:type="arc"
       style="fill:url(#radialGradient3792);fill-opacity:1;stroke:none"
       id="ShineGradient"
       sodipodi:cx="243.42105"
       sodipodi:cy="283.71054"
       sodipodi:rx="206.57895"
       sodipodi:ry="188.8158"
       d="m 450,283.71054 c 0,104.28009 -92.48855,188.8158 -206.57895,188.8158 -114.0904,0 -206.578948,-84.53571 -206.578948,-188.8158 0,-104.28008 92.488548,-188.815795 206.578948,-188.815795 C 357.51145,94.894745 450,179.43046 450,283.71054 z"
       transform="matrix(1.2392357,0,0,1.3558188,-45.656048,411.70209)"
       inkscape:label="#path2990-6"
       sodipodi:insensitive="true" />
    <text
       xml:space="preserve"
       style="font-size:384px;font-style:normal;font-variant:normal;font-weight:500;font-stretch:normal;text-align:start;line-height:125%;letter-spacing:0px;word-spacing:0px;writing-mode:lr-tb;text-anchor:start;fill:#000000;fill-opacity:1;stroke:none;font-family:URW Palladio L;-inkscape-font-specification:URW Palladio L Medium"
       x="514.94592"
       y="1041.7568"
       id="text3014"
       sodipodi:linespacing="125%"><tspan
         sodipodi:role="line"
         id="tspan3016"
         x="514.94592"
         y="1041.7568">Catraeus</tspan></text>
  </g>
</svg>
