<?xml version="1.0" encoding="UTF-8" standalone="no"?>
<!-- Created with Inkscape (http://www.inkscape.org/) -->

<svg
   xmlns:dc="http://purl.org/dc/elements/1.1/"
   xmlns:cc="http://creativecommons.org/ns#"
   xmlns:rdf="http://www.w3.org/1999/02/22-rdf-syntax-ns#"
   xmlns:svg="http://www.w3.org/2000/svg"
   xmlns="http://www.w3.org/2000/svg"
   xmlns:sodipodi="http://sodipodi.sourceforge.net/DTD/sodipodi-0.dtd"
   xmlns:inkscape="http://www.inkscape.org/namespaces/inkscape"
   width="512"
   height="512"
   id="svg2"
   version="1.1"
   inkscape:version="0.48.3.1 r9886"
   sodipodi:docname="op_file_open_bright.svg">
  <defs
     id="defs4" />
  <sodipodi:namedview
     id="base"
     pagecolor="#ffffff"
     bordercolor="#ff00ff"
     borderopacity="1"
     inkscape:pageopacity="0.0"
     inkscape:pageshadow="2"
     inkscape:zoom="1.9472656"
     inkscape:cx="256"
     inkscape:cy="256.00006"
     inkscape:document-units="px"
     inkscape:current-layer="layer1"
     showgrid="false"
     inkscape:showpageshadow="false"
     inkscape:window-width="1920"
     inkscape:window-height="1176"
     inkscape:window-x="0"
     inkscape:window-y="24"
     inkscape:window-maximized="1" />
  <metadata
     id="metadata7">
    <rdf:RDF>
      <cc:Work
         rdf:about="">
        <dc:format>image/svg+xml</dc:format>
        <dc:type
           rdf:resource="http://purl.org/dc/dcmitype/StillImage" />
        <dc:title></dc:title>
      </cc:Work>
    </rdf:RDF>
  </metadata>
  <g
     inkscape:label="Layer 1"
     inkscape:groupmode="layer"
     id="layer1"
     transform="translate(0,-540.36218)">
    <rect
       style="fill:#c0c0c0;fill-opacity:1;stroke:none"
       id="rect2997"
       width="512"
       height="512"
       x="0"
       y="540.36212"
       sodipodi:insensitive="true" />
    <rect
       style="fill:#a8a8a8;fill-opacity:1;stroke:#000000;stroke-width:4;stroke-opacity:1;stroke-miterlimit:4;stroke-dasharray:none;stroke-linejoin:round"
       id="rect3786"
       width="383.00259"
       height="383.00259"
       x="64.498703"
       y="604.8609" />
    <path
       style="fill:#a8a8a8;fill-opacity:1;stroke:#000000;stroke-width:4;stroke-linecap:butt;stroke-linejoin:round;stroke-miterlimit:4;stroke-opacity:1;stroke-dasharray:none"
       d="m 65,64 34.626881,61 c 7.302229,12.86387 19.392049,17.29251 28.244739,19 8.3747,1.6153 172.0361,23.41424 172.0361,23.41424 0,0 148.37764,-21.72456 157.14344,-23.41424 9.40381,-1.81266 14.01914,-10.40545 11.81143,-19 C 468.00066,121.64452 448,64 448,64 z"
       id="path3806"
       inkscape:connector-curvature="0"
       transform="translate(0,540.36218)"
       sodipodi:nodetypes="csscsscc" />
    <path
       style="fill:none;stroke:#000000;stroke-width:6;stroke-linecap:round;stroke-linejoin:round;stroke-miterlimit:4;stroke-opacity:1;stroke-dasharray:none"
       d="m 295.80655,149.3258 c -16.73812,11.26286 13.32475,34.20748 -11.46467,41.26878 -21.38756,6.09228 -46.65092,-16.65442 -63.91512,-5.8967 -24.43483,15.2259 -73.16385,140.7879 8.11705,131.30368"
       id="path3828"
       inkscape:connector-curvature="0"
       transform="translate(0,540.36218)"
       sodipodi:nodetypes="cssc" />
    <path
       sodipodi:type="arc"
       style="fill:#770000;fill-opacity:1;stroke:#000000;stroke-linejoin:round;stroke-opacity:1"
       id="path3808"
       sodipodi:cx="290.40723"
       sodipodi:cy="139.16951"
       sodipodi:rx="15.662989"
       sodipodi:ry="8.21665"
       d="m 306.07022,139.16951 a 15.662989,8.21665 0 1 1 -31.32598,0 15.662989,8.21665 0 1 1 31.32598,0 z"
       transform="matrix(1.3920077,0.17689094,0,1.3959954,-103.45535,435.58979)" />
    <path
       sodipodi:type="arc"
       style="fill:#000000;fill-opacity:1;stroke:#ffff00;stroke-width:5.38020039;stroke-linejoin:round;stroke-miterlimit:4;stroke-opacity:1;stroke-dasharray:none"
       id="path3808-7"
       sodipodi:cx="290.40723"
       sodipodi:cy="139.16951"
       sodipodi:rx="15.662989"
       sodipodi:ry="8.21665"
       d="m 306.07022,139.16951 a 15.662989,8.21665 0 1 1 -31.32598,0 15.662989,8.21665 0 1 1 31.32598,0 z"
       transform="matrix(0.55680306,0.07075637,0,0.55839818,139.91522,582.78624)" />
    <path
       sodipodi:type="arc"
       style="fill:#770000;fill-opacity:1;stroke:#000000;stroke-linejoin:round;stroke-opacity:1"
       id="path3808-72"
       sodipodi:cx="290.40723"
       sodipodi:cy="139.16951"
       sodipodi:rx="15.662989"
       sodipodi:ry="8.21665"
       d="m 306.07022,139.16951 a 15.662989,8.21665 0 1 1 -31.32598,0 15.662989,8.21665 0 1 1 31.32598,0 z"
       transform="matrix(1.3453027,0.03608904,0,2.5635419,-134.68563,405.11479)" />
    <path
       sodipodi:type="arc"
       style="fill:#000000;fill-opacity:1;stroke:#ffff00;stroke-width:5.38020039;stroke-linejoin:round;stroke-miterlimit:4;stroke-opacity:1;stroke-dasharray:none"
       id="path3808-7-6"
       sodipodi:cx="290.40723"
       sodipodi:cy="139.16951"
       sodipodi:rx="15.662989"
       sodipodi:ry="8.21665"
       d="m 306.07022,139.16951 a 15.662989,8.21665 0 1 1 -31.32598,0 15.662989,8.21665 0 1 1 31.32598,0 z"
       transform="matrix(0.51609047,0.01384461,0,0.98343632,106.1236,631.47725)" />
  </g>
  <g
     inkscape:groupmode="layer"
     id="layer2"
     inkscape:label="Layer"
     transform="translate(0,-540.36218)" />
</svg>
