<?xml version="1.0" encoding="UTF-8" standalone="no"?>
<!-- Created with Inkscape (http://www.inkscape.org/) -->

<svg
   xmlns:dc="http://purl.org/dc/elements/1.1/"
   xmlns:cc="http://creativecommons.org/ns#"
   xmlns:rdf="http://www.w3.org/1999/02/22-rdf-syntax-ns#"
   xmlns:svg="http://www.w3.org/2000/svg"
   xmlns="http://www.w3.org/2000/svg"
   xmlns:sodipodi="http://sodipodi.sourceforge.net/DTD/sodipodi-0.dtd"
   xmlns:inkscape="http://www.inkscape.org/namespaces/inkscape"
   width="512"
   height="512"
   id="svg2"
   version="1.1"
   inkscape:version="0.48.3.1 r9886"
   sodipodi:docname="op_file_close_bright.svg">
  <defs
     id="defs4" />
  <sodipodi:namedview
     id="base"
     pagecolor="#ffffff"
     bordercolor="#ff00ff"
     borderopacity="1"
     inkscape:pageopacity="0.0"
     inkscape:pageshadow="2"
     inkscape:zoom="1.9472656"
     inkscape:cx="165.61685"
     inkscape:cy="256.00006"
     inkscape:document-units="px"
     inkscape:current-layer="layer1"
     showgrid="false"
     inkscape:showpageshadow="false"
     inkscape:window-width="1920"
     inkscape:window-height="1176"
     inkscape:window-x="0"
     inkscape:window-y="24"
     inkscape:window-maximized="1" />
  <metadata
     id="metadata7">
    <rdf:RDF>
      <cc:Work
         rdf:about="">
        <dc:format>image/svg+xml</dc:format>
        <dc:type
           rdf:resource="http://purl.org/dc/dcmitype/StillImage" />
        <dc:title></dc:title>
      </cc:Work>
    </rdf:RDF>
  </metadata>
  <g
     inkscape:label="Layer 1"
     inkscape:groupmode="layer"
     id="layer1"
     transform="translate(0,-540.36218)">
    <rect
       style="fill:#c0c0c0;fill-opacity:1;stroke:none"
       id="rect2997"
       width="512"
       height="512"
       x="0"
       y="540.36212"
       sodipodi:insensitive="true" />
    <rect
       style="fill:#a8a8a8;fill-opacity:1;stroke:#000000;stroke-width:4;stroke-opacity:1;stroke-miterlimit:4;stroke-dasharray:none;stroke-linejoin:round"
       id="rect3786"
       width="383.00259"
       height="383.00259"
       x="64.498703"
       y="604.8609" />
    <path
       style="fill:#a8a8a8;fill-opacity:1;stroke:#000000;stroke-width:4;stroke-linecap:butt;stroke-linejoin:round;stroke-miterlimit:4;stroke-opacity:1;stroke-dasharray:none"
       d="m 65,64 9.976931,60 c 1.526111,9.17784 8.480852,13.12242 14.892682,14 L 256,160.738 421.61685,137.48646 C 428.6534,136.49857 433.67021,132.68655 435.48245,124 L 448,64 z"
       id="path3806"
       inkscape:connector-curvature="0"
       transform="translate(0,540.36218)"
       sodipodi:nodetypes="csscsscc" />
    <path
       style="fill:none;stroke:#000000;stroke-width:6;stroke-linecap:round;stroke-linejoin:round;stroke-miterlimit:4;stroke-opacity:1;stroke-dasharray:none"
       d="m 273.21076,672.74114 c -10.16263,25.62892 -18.8962,63.56422 -29.77427,96.83424"
       id="path3828"
       inkscape:connector-curvature="0"
       sodipodi:nodetypes="cc" />
    <path
       style="fill:none;stroke:#000000;stroke-width:6;stroke-linecap:round;stroke-linejoin:round;stroke-miterlimit:4;stroke-opacity:1;stroke-dasharray:none"
       d="m 241.61531,672.45453 c 7.29776,23.57476 20.64643,67.159 29.28291,100.94256"
       id="path3828-3"
       inkscape:connector-curvature="0"
       sodipodi:nodetypes="cc" />
    <path
       style="fill:none;stroke:#000000;stroke-width:6;stroke-linecap:round;stroke-linejoin:round;stroke-miterlimit:4;stroke-opacity:1;stroke-dasharray:none"
       d="m 243.41272,768.74345 c -26.59593,27.16955 13.9704,29.157 22.60687,54.21037"
       id="path3828-38"
       inkscape:connector-curvature="0"
       sodipodi:nodetypes="cc" />
    <path
       sodipodi:type="arc"
       style="fill:#770000;fill-opacity:1;stroke:#000000;stroke-linejoin:round;stroke-opacity:1"
       id="path3808-72"
       sodipodi:cx="290.40723"
       sodipodi:cy="139.16951"
       sodipodi:rx="15.662989"
       sodipodi:ry="8.21665"
       d="m 306.07022,139.16951 c 0,4.53793 -7.01256,8.21665 -15.66299,8.21665 -8.65043,0 -15.66299,-3.67872 -15.66299,-8.21665 0,-4.53793 7.01256,-8.21665 15.66299,-8.21665 8.65043,0 15.66299,3.67872 15.66299,8.21665 z"
       transform="matrix(1.3453027,0.03608904,0,2.5635419,-134.68563,405.11479)" />
    <path
       sodipodi:type="arc"
       style="fill:#000000;fill-opacity:1;stroke:#ffff00;stroke-width:5.38020039;stroke-linejoin:round;stroke-miterlimit:4;stroke-opacity:1;stroke-dasharray:none"
       id="path3808-7-6"
       sodipodi:cx="290.40723"
       sodipodi:cy="139.16951"
       sodipodi:rx="15.662989"
       sodipodi:ry="8.21665"
       d="m 306.07022,139.16951 c 0,4.53793 -7.01256,8.21665 -15.66299,8.21665 -8.65043,0 -15.66299,-3.67872 -15.66299,-8.21665 0,-4.53793 7.01256,-8.21665 15.66299,-8.21665 8.65043,0 15.66299,3.67872 15.66299,8.21665 z"
       transform="matrix(0.51609047,0.01384461,0,0.98343632,106.1236,631.47725)" />
    <path
       sodipodi:type="arc"
       style="fill:#770000;fill-opacity:1;stroke:#000000;stroke-linejoin:round;stroke-opacity:1"
       id="path3808-72-1"
       sodipodi:cx="290.40723"
       sodipodi:cy="139.16951"
       sodipodi:rx="15.662989"
       sodipodi:ry="8.21665"
       d="m 306.07022,139.16951 a 15.662989,8.21665 0 1 1 -31.32598,0 15.662989,8.21665 0 1 1 31.32598,0 z"
       transform="matrix(1.3453027,0.03608904,0,2.5635419,-134.68563,303.11479)" />
    <path
       sodipodi:type="arc"
       style="fill:#000000;fill-opacity:1;stroke:#ffff00;stroke-width:5.38020039;stroke-linejoin:round;stroke-miterlimit:4;stroke-opacity:1;stroke-dasharray:none"
       id="path3808-7-6-6"
       sodipodi:cx="290.40723"
       sodipodi:cy="139.16951"
       sodipodi:rx="15.662989"
       sodipodi:ry="8.21665"
       d="m 306.07022,139.16951 a 15.662989,8.21665 0 1 1 -31.32598,0 15.662989,8.21665 0 1 1 31.32598,0 z"
       transform="matrix(0.51609047,0.01384461,0,0.98343632,106.1236,529.47725)" />
  </g>
  <g
     inkscape:groupmode="layer"
     id="layer2"
     inkscape:label="Layer"
     transform="translate(0,-540.36218)" />
</svg>
