/* XPM */
/* $Id: ana_scope_032.xpm 1012 2012-11-02 01:07:33Z  $ */
static char * ana_scope_032_xpm[] = {
(char *)"32 32 248 2",
(char *)"  	c None",
(char *)". 	c #FFFFFF",
(char *)"+ 	c #FEFEFE",
(char *)"@ 	c #FCFCFC",
(char *)"# 	c #FBFBFB",
(char *)"$ 	c #F9F9F9",
(char *)"% 	c #F8F8F8",
(char *)"& 	c #F7F7F7",
(char *)"* 	c #F5F5F5",
(char *)"= 	c #F4F4F4",
(char *)"- 	c #F2F2F2",
(char *)"; 	c #F1F1F1",
(char *)"> 	c #EFEFEF",
(char *)", 	c #EEEEEE",
(char *)"' 	c #EDEDED",
(char *)") 	c #EBEBEB",
(char *)"! 	c #EAEAEA",
(char *)"~ 	c #E9E9E9",
(char *)"{ 	c #E7E7E7",
(char *)"] 	c #E6E6E6",
(char *)"^ 	c #E4E4E4",
(char *)"/ 	c #E3E3E3",
(char *)"( 	c #E1E1E1",
(char *)"_ 	c #E0E0E0",
(char *)": 	c #DFDFDF",
(char *)"< 	c #DDDDDD",
(char *)"[ 	c #DCDCDC",
(char *)"} 	c #DADADA",
(char *)"| 	c #FDFDFD",
(char *)"1 	c #FAFAFA",
(char *)"2 	c #F6F6F6",
(char *)"3 	c #F3F3F3",
(char *)"4 	c #F0F0F0",
(char *)"5 	c #ECECEC",
(char *)"6 	c #E8E8E8",
(char *)"7 	c #E5E5E5",
(char *)"8 	c #E2E2E2",
(char *)"9 	c #DEDEDE",
(char *)"0 	c #DBDBDB",
(char *)"a 	c #D8D8D8",
(char *)"b 	c #CECECE",
(char *)"c 	c #CDCDCD",
(char *)"d 	c #CCCCCC",
(char *)"e 	c #CBCBCB",
(char *)"f 	c #C9C9C9",
(char *)"g 	c #C7C7C7",
(char *)"h 	c #C6C6C6",
(char *)"i 	c #CACACA",
(char *)"j 	c #C4C4C4",
(char *)"k 	c #C3C3C3",
(char *)"l 	c #C1C1C1",
(char *)"m 	c #C2C2C2",
(char *)"n 	c #BEBEBE",
(char *)"o 	c #BDBDBD",
(char *)"p 	c #BCBCBC",
(char *)"q 	c #B9B9B9",
(char *)"r 	c #B8B8B8",
(char *)"s 	c #B7B7B7",
(char *)"t 	c #B5B5B5",
(char *)"u 	c #B3B3B3",
(char *)"v 	c #B1B1B1",
(char *)"w 	c #D1D1D1",
(char *)"x 	c #D6D6D6",
(char *)"y 	c #000000",
(char *)"z 	c #181818",
(char *)"A 	c #7F7F7F",
(char *)"B 	c #989898",
(char *)"C 	c #585858",
(char *)"D 	c #3F3F3F",
(char *)"E 	c #AFAFAF",
(char *)"F 	c #D4D4D4",
(char *)"G 	c #003400",
(char *)"H 	c #002100",
(char *)"I 	c #ADADAD",
(char *)"J 	c #D3D3D3",
(char *)"K 	c #D2D2D2",
(char *)"L 	c #7C827C",
(char *)"M 	c #009B00",
(char *)"N 	c #00FF00",
(char *)"O 	c #00FE00",
(char *)"P 	c #5DC05D",
(char *)"Q 	c #ABABAB",
(char *)"R 	c #D0D0D0",
(char *)"S 	c #191919",
(char *)"T 	c #39C539",
(char *)"U 	c #00E500",
(char *)"V 	c #003800",
(char *)"W 	c #006E00",
(char *)"X 	c #05FB05",
(char *)"Y 	c #001C00",
(char *)"Z 	c #595959",
(char *)"` 	c #3E3E3E",
(char *)" .	c #AAAAAA",
(char *)"..	c #CFCFCF",
(char *)"+.	c #96A996",
(char *)"@.	c #09FD09",
(char *)"#.	c #64BC64",
(char *)"$.	c #979997",
(char *)"%.	c #28F728",
(char *)"&.	c #3AD73A",
(char *)"*.	c #D5D5D5",
(char *)"=.	c #B2B2B2",
(char *)"-.	c #C5C5C5",
(char *)";.	c #0C8D0C",
(char *)">.	c #12ED12",
(char *)",.	c #000300",
(char *)"'.	c #70B370",
(char *)").	c #00FC00",
(char *)"!.	c #002A00",
(char *)"~.	c #A6A6A6",
(char *)"{.	c #000C00",
(char *)"].	c #02F002",
(char *)"^.	c #4CB14C",
(char *)"/.	c #00B500",
(char *)"(.	c #00B000",
(char *)"_.	c #A5A5A5",
(char *)":.	c #C8C8C8",
(char *)"<.	c #007100",
(char *)"[.	c #03E803",
(char *)"}.	c #7A817A",
(char *)"|.	c #00FD00",
(char *)"1.	c #001D00",
(char *)"2.	c #5A5A5A",
(char *)"3.	c #3D3D3D",
(char *)"4.	c #A3A3A3",
(char *)"5.	c #1BEC1B",
(char *)"6.	c #51D151",
(char *)"7.	c #17F017",
(char *)"8.	c #4FC94F",
(char *)"9.	c #ACACAC",
(char *)"0.	c #BFBFBF",
(char *)"a.	c #002B00",
(char *)"b.	c #163B16",
(char *)"c.	c #7D7D7D",
(char *)"d.	c #007A00",
(char *)"e.	c #00D900",
(char *)"f.	c #A2A2A2",
(char *)"g.	c #008500",
(char *)"h.	c #00C900",
(char *)"i.	c #1B1B1B",
(char *)"j.	c #7C7C7C",
(char *)"k.	c #001E00",
(char *)"l.	c #478047",
(char *)"m.	c #3C3C3C",
(char *)"n.	c #BBBBBB",
(char *)"o.	c #00DE00",
(char *)"p.	c #00C100",
(char *)"q.	c #27BA27",
(char *)"r.	c #00AA00",
(char *)"s.	c #77BA77",
(char *)"t.	c #2B682B",
(char *)"u.	c #01FD01",
(char *)"v.	c #334933",
(char *)"w.	c #4E4E4E",
(char *)"x.	c #999999",
(char *)"y.	c #393939",
(char *)"z.	c #3A3A3A",
(char *)"A.	c #3B3B3B",
(char *)"B.	c #228D22",
(char *)"C.	c #0CF30C",
(char *)"D.	c #696B69",
(char *)"E.	c #326832",
(char *)"F.	c #8BB48B",
(char *)"G.	c #25C125",
(char *)"H.	c #18D718",
(char *)"I.	c #5F5F5F",
(char *)"J.	c #707070",
(char *)"K.	c #5E5E5E",
(char *)"L.	c #5D5D5D",
(char *)"M.	c #5C5C5C",
(char *)"N.	c #546B54",
(char *)"O.	c #02FE02",
(char *)"P.	c #61A061",
(char *)"Q.	c #5B5B5B",
(char *)"R.	c #23BD23",
(char *)"S.	c #19D119",
(char *)"T.	c #A8A8A8",
(char *)"U.	c #8FC58F",
(char *)"V.	c #004A00",
(char *)"W.	c #1C1C1C",
(char *)"X.	c #7B7B7B",
(char *)"Y.	c #18D418",
(char *)"Z.	c #18AE18",
(char *)"`.	c #000B00",
(char *)" +	c #00F200",
(char *)".+	c #005400",
(char *)"++	c #B3B4B3",
(char *)"@+	c #389D38",
(char *)"#+	c #05EE05",
(char *)"$+	c #006300",
(char *)"%+	c #00E900",
(char *)"&+	c #000500",
(char *)"*+	c #1D1D1D",
(char *)"=+	c #7A7A7A",
(char *)"-+	c #566956",
(char *)";+	c #01FC01",
(char *)">+	c #004600",
(char *)",+	c #00C700",
(char *)"'+	c #008B00",
(char *)")+	c #BABABA",
(char *)"!+	c #A4A4A4",
(char *)"~+	c #3DE33D",
(char *)"{+	c #2AE22A",
(char *)"]+	c #7EA97E",
(char *)"^+	c #81A881",
(char *)"/+	c #D9D9D9",
(char *)"(+	c #2F5E2F",
(char *)"_+	c #003000",
(char *)":+	c #009500",
(char *)"<+	c #00C200",
(char *)"[+	c #D7D7D7",
(char *)"}+	c #AEAEAE",
(char *)"|+	c #1E1E1E",
(char *)"1+	c #797979",
(char *)"2+	c #00A800",
(char *)"3+	c #87A387",
(char *)"4+	c #00F800",
(char *)"5+	c #004E00",
(char *)"6+	c #003C00",
(char *)"7+	c #002300",
(char *)"8+	c #3ED53E",
(char *)"9+	c #787878",
(char *)"0+	c #898989",
(char *)"a+	c #1DE11D",
(char *)"b+	c #33CA33",
(char *)"c+	c #7E7E7E",
(char *)"d+	c #5BA25B",
(char *)"e+	c #04FE04",
(char *)"f+	c #5CA05C",
(char *)"g+	c #1F1F1F",
(char *)"h+	c #383838",
(char *)"i+	c #145A14",
(char *)"j+	c #69C369",
(char *)"k+	c #1A1A1A",
(char *)"l+	c #134C13",
(char *)"m+	c #01F601",
(char *)"n+	c #4FD24F",
(char *)"o+	c #A7A7A7",
(char *)"p+	c #007000",
(char *)"q+	c #02FD02",
(char *)"r+	c #00B400",
(char *)"s+	c #00F000",
(char *)"t+	c #009700",
(char *)"u+	c #6AB76A",
(char *)"v+	c #009C00",
(char *)"w+	c #006D00",
(char *)"x+	c #000200",
(char *)"y+	c #A9A9A9",
(char *)". . . . . . + @ # $ % & * = - ; > , ' ) ! ~ { ] ^ / ( _ : < [ } ",
(char *)". . . . + | @ 1 $ & 2 = 3 - 4 > ' 5 ) ~ 6 ] 7 ^ 8 ( : 9 [ 0 } a ",
(char *)". . 2 b c d e b f g h i j k l j m n o p m q r s n t u u v w a x ",
(char *)". . c y y y z A y y y B y y y C D y y y B y y y B y y y y E x F ",
(char *)"+ @ d y y y z A y G H B y y y C D y y y B y y y B y y y y I J K ",
(char *)"@ 1 i y y y z L M N O P y y y C D y y y B y y y B y y y y Q w R ",
(char *)"1 % f y y y S T U V W X Y y y Z ` y y y B y y y B y y y y  ...b ",
(char *)"% 2 c B B B +.@.#.B $.%.&.B B p v B B B *.B B B *.B B B B =.c d ",
(char *)"2 = -.y y y ;.>.,.y y '.).!.y Z ` y y y B y y y B y y y y ~.e i ",
(char *)"= - j y y {.].^.y y y B /.(.y Z ` y y y B y y y B y y y y _.f :.",
(char *)"; 4 m y y <.[.}.y y y B V |.1.2.3.y y y B y y y B y y y y 4.:.:.",
(char *)"> , g B B 5.6.i B B B *.B 7.8.p v B B B *.B B B *.B B B B 9.:.:.",
(char *)"' 5 0.y a.N b.c.y y y B y d.e.2.3.y y y B y y y B y y y y f.:.:.",
(char *)") ! p y g.h.i.j.y y y B y k.O l.m.y y y B y y y B y y y y f.:.:.",
(char *)"~ 6 n.y o.W i.j.y y y B y y p.q.m.y y y B y y y B y y y r.s.:.:.",
(char *)"{ ] p t.u.v.w.x.y.y.z.E z.A.B.C.D.m.m.3.v 3.` ` v ` D E.|.F.:.:.",
(char *)"7 ^ p G.H.I.J.9.K.K.L.n L.M.N.O.P.Q.Q.2.p 2.Z Z p Z C R.S.T.:.:.",
(char *)"/ 8 U.|.V.y W.X.y y y B y y y Y.Z.y y y B y y y B y `. +.+f.:.:.",
(char *)"( _ ++!.y y W.X.y y y B y y y @+#+,.y y B y y y B y $+%+&+f.:.:.",
(char *)": 9 u y y y *+=+y y y B y y y -+;+>+y y B y y y B y ,+'+y f.:.:.",
(char *)"< 0 )+B B B !+f B B B *.B B B n ~+{+B B *.B B B *.]+N ^+B 9.:.:.",
(char *)"0 /+E y y y *+=+y y y B y y y L.(+O _+y B y y y B :+<+y y f.:.:.",
(char *)"/+[+}+y y y |+1+y y y B y y y K.y./.2+y B y y y 3+4+5+y y f.:.:.",
(char *)"[+*.9.y y y |+1+y y y B y y y K.y.6+).7+B y y y 8+h.y y y f.:.:.",
(char *)"*.J v 9+9+9+0+q 1+1+=+f =+X.X.9.x.j.a+b+i c.c+d+e+f+A A A Q :.:.",
(char *)"J w Q g+g+g+h+0+|+|+*+!+*+W.W.J.w.i.i+).j+k+l+m+n+S z z z 4.:.:.",
(char *)"R ..o+y y y g+9+y y y B y y y I.h+y y p+q+r+s+t+B y y y y f.:.:.",
(char *)"b c ~.y y y g+9+y y y B y y y I.h+y y y u+v+w+x+B y y y y f.:.:.",
(char *)"d e !+y y y g+9+y y y B y y y I.h+y y y B y y y B y y y y f.:.:.",
(char *)"i f l f.f.f.!+ .f.f.f.9.f.f.f.y+~.f.f.f.9.f.f.f.9.f.f.f.f.l :.:.",
(char *)":.:.:.:.:.:.:.:.:.:.:.:.:.:.:.:.:.:.:.:.:.:.:.:.:.:.:.:.:.:.:.:.",
(char *)":.:.:.:.:.:.:.:.:.:.:.:.:.:.:.:.:.:.:.:.:.:.:.:.:.:.:.:.:.:.:.:."};
