/* XPM */
/* $Id: ana_scope_048.xpm 1012 2012-11-02 01:07:33Z  $ */
static char * ana_scope_048_xpm[] = {
(char *)"45 45 317 2",
(char *)"  	c None",
(char *)". 	c #FFFFFF",
(char *)"+ 	c #FDFDFD",
(char *)"@ 	c #FCFCFC",
(char *)"# 	c #FAFAFA",
(char *)"$ 	c #F9F9F9",
(char *)"% 	c #F7F7F7",
(char *)"& 	c #F6F6F6",
(char *)"* 	c #F4F4F4",
(char *)"= 	c #F2F2F2",
(char *)"- 	c #F1F1F1",
(char *)"; 	c #EFEFEF",
(char *)"> 	c #EEEEEE",
(char *)", 	c #ECECEC",
(char *)"' 	c #EBEBEB",
(char *)") 	c #E9E9E9",
(char *)"! 	c #E7E7E7",
(char *)"~ 	c #E6E6E6",
(char *)"{ 	c #E4E4E4",
(char *)"] 	c #E3E3E3",
(char *)"^ 	c #E1E1E1",
(char *)"/ 	c #E0E0E0",
(char *)"( 	c #DEDEDE",
(char *)"_ 	c #DDDDDD",
(char *)": 	c #DCDCDC",
(char *)"< 	c #DBDBDB",
(char *)"[ 	c #DADADA",
(char *)"} 	c #FEFEFE",
(char *)"| 	c #FBFBFB",
(char *)"1 	c #F8F8F8",
(char *)"2 	c #F5F5F5",
(char *)"3 	c #F3F3F3",
(char *)"4 	c #F0F0F0",
(char *)"5 	c #EDEDED",
(char *)"6 	c #EAEAEA",
(char *)"7 	c #E8E8E8",
(char *)"8 	c #E5E5E5",
(char *)"9 	c #E2E2E2",
(char *)"0 	c #DFDFDF",
(char *)"a 	c #D9D9D9",
(char *)"b 	c #D8D8D8",
(char *)"c 	c #D7D7D7",
(char *)"d 	c #D6D6D6",
(char *)"e 	c #D5D5D5",
(char *)"f 	c #D4D4D4",
(char *)"g 	c #D3D3D3",
(char *)"h 	c #000000",
(char *)"i 	c #484848",
(char *)"j 	c #898989",
(char *)"k 	c #202020",
(char *)"l 	c #AFAFAF",
(char *)"m 	c #D0D0D0",
(char *)"n 	c #A8A8A8",
(char *)"o 	c #272727",
(char *)"p 	c #D1D1D1",
(char *)"q 	c #878787",
(char *)"r 	c #CFCFCF",
(char *)"s 	c #000F00",
(char *)"t 	c #004E00",
(char *)"u 	c #003800",
(char *)"v 	c #202220",
(char *)"w 	c #CECECE",
(char *)"x 	c #D2D2D2",
(char *)"y 	c #494949",
(char *)"z 	c #868686",
(char *)"A 	c #005C00",
(char *)"B 	c #00F300",
(char *)"C 	c #00FF00",
(char *)"D 	c #09C409",
(char *)"E 	c #A6B1A6",
(char *)"F 	c #A9A9A9",
(char *)"G 	c #262626",
(char *)"H 	c #CCCCCC",
(char *)"I 	c #6D9C6D",
(char *)"J 	c #00F900",
(char *)"K 	c #00EE00",
(char *)"L 	c #007F00",
(char *)"M 	c #00BC00",
(char *)"N 	c #42E042",
(char *)"O 	c #CBCBCB",
(char *)"P 	c #181818",
(char *)"Q 	c #191919",
(char *)"R 	c #5C5C5C",
(char *)"S 	c #2DDC2D",
(char *)"T 	c #135B13",
(char *)"U 	c #1C1C1C",
(char *)"V 	c #1B211B",
(char *)"W 	c #08E208",
(char *)"X 	c #01FE01",
(char *)"Y 	c #184518",
(char *)"Z 	c #1E1E1E",
(char *)"` 	c #1F1F1F",
(char *)" .	c #212121",
(char *)"..	c #222222",
(char *)"+.	c #232323",
(char *)"@.	c #242424",
(char *)"#.	c #B6B6B6",
(char *)"$.	c #454545",
(char *)"%.	c #C9C9C9",
(char *)"&.	c #CDCDCD",
(char *)"*.	c #B7B7B7",
(char *)"=.	c #A8D3A8",
(char *)"-.	c #01FF01",
(char *)";.	c #2EEC2E",
(char *)">.	c #B4B4B4",
(char *)",.	c #B3B3B3",
(char *)"'.	c #81D281",
(char *)").	c #34E934",
(char *)"!.	c #B1B1B1",
(char *)"~.	c #B0B0B0",
(char *)"{.	c #AEAEAE",
(char *)"].	c #ADADAD",
(char *)"^.	c #ACACAC",
(char *)"/.	c #ABABAB",
(char *)"(.	c #CACACA",
(char *)"_.	c #1BBE1B",
(char *)":.	c #004600",
(char *)"<.	c #29EB29",
(char *)"[.	c #004000",
(char *)"}.	c #C7C7C7",
(char *)"|.	c #002100",
(char *)"1.	c #01FC01",
(char *)"2.	c #1AE71A",
(char *)"3.	c #88BE88",
(char *)"4.	c #00FE00",
(char *)"5.	c #00CA00",
(char *)"6.	c #000100",
(char *)"7.	c #C6C6C6",
(char *)"8.	c #009700",
(char *)"9.	c #57AC57",
(char *)"0.	c #00A600",
(char *)"a.	c #005400",
(char *)"b.	c #C4C4C4",
(char *)"c.	c #C8C8C8",
(char *)"d.	c #001900",
(char *)"e.	c #00F800",
(char *)"f.	c #0BE50B",
(char *)"g.	c #828482",
(char *)"h.	c #002400",
(char *)"i.	c #00BD00",
(char *)"j.	c #C3C3C3",
(char *)"k.	c #007800",
(char *)"l.	c #2D952D",
(char *)"m.	c #838383",
(char *)"n.	c #00C000",
(char *)"o.	c #001E00",
(char *)"p.	c #C2C2C2",
(char *)"q.	c #23F723",
(char *)"r.	c #05FE05",
(char *)"s.	c #CFE0CF",
(char *)"t.	c #80E280",
(char *)"u.	c #6CE76C",
(char *)"v.	c #002F00",
(char *)"w.	c #00AE00",
(char *)"x.	c #4D4D4D",
(char *)"y.	c #828282",
(char *)"z.	c #252525",
(char *)"A.	c #AAAAAA",
(char *)"B.	c #000D00",
(char *)"C.	c #00F600",
(char *)"D.	c #00DA00",
(char *)"E.	c #008A00",
(char *)"F.	c #005200",
(char *)"G.	c #4E4E4E",
(char *)"H.	c #818181",
(char *)"I.	c #00A500",
(char *)"J.	c #003900",
(char *)"K.	c #000200",
(char *)"L.	c #00E300",
(char *)"M.	c #00EF00",
(char *)"N.	c #000700",
(char *)"O.	c #004700",
(char *)"P.	c #009500",
(char *)"Q.	c #009B00",
(char *)"R.	c #4F4F4F",
(char *)"S.	c #808080",
(char *)"T.	c #00E500",
(char *)"U.	c #00E900",
(char *)"V.	c #CED1CE",
(char *)"W.	c #00F500",
(char *)"X.	c #96D096",
(char *)"Y.	c #009A00",
(char *)"Z.	c #003F00",
(char *)"`.	c #009000",
(char *)" +	c #99DC99",
(char *)".+	c #00D100",
(char *)"++	c #00FA00",
(char *)"@+	c #9DCE9D",
(char *)"#+	c #C5C9C5",
(char *)"$+	c #0FFB0F",
(char *)"%+	c #14FA14",
(char *)"&+	c #C7C9C7",
(char *)"*+	c #A0DAA0",
(char *)"=+	c #61FB61",
(char *)"-+	c #A4DAA4",
(char *)";+	c #45F045",
(char *)">+	c #046504",
(char *)",+	c #039403",
(char *)"'+	c #060606",
(char *)")+	c #535353",
(char *)"!+	c #040404",
(char *)"~+	c #030303",
(char *)"{+	c #2B2B2B",
(char *)"]+	c #020202",
(char *)"^+	c #010101",
(char *)"/+	c #00E200",
(char *)"(+	c #000400",
(char *)"_+	c #B8DFB8",
(char *)":+	c #00F700",
(char *)"<+	c #505050",
(char *)"[+	c #7F7F7F",
(char *)"}+	c #282828",
(char *)"|+	c #A7A7A7",
(char *)"1+	c #008C00",
(char *)"2+	c #004800",
(char *)"3+	c #000C00",
(char *)"4+	c #00DF00",
(char *)"5+	c #009300",
(char *)"6+	c #515151",
(char *)"7+	c #7E7E7E",
(char *)"8+	c #292929",
(char *)"9+	c #A6A6A6",
(char *)"0+	c #013701",
(char *)"a+	c #009F00",
(char *)"b+	c #006400",
(char *)"c+	c #007C00",
(char *)"d+	c #1BF91B",
(char *)"e+	c #000600",
(char *)"f+	c #00C900",
(char *)"g+	c #00FC00",
(char *)"h+	c #001B00",
(char *)"i+	c #525252",
(char *)"j+	c #7D7D7D",
(char *)"k+	c #2A2A2A",
(char *)"l+	c #A5A5A5",
(char *)"m+	c #60E860",
(char *)"n+	c #004F00",
(char *)"o+	c #B2B2B2",
(char *)"p+	c #1D1D1D",
(char *)"q+	c #002E00",
(char *)"r+	c #00B200",
(char *)"s+	c #A0A0A0",
(char *)"t+	c #A1A1A1",
(char *)"u+	c #C0C0C0",
(char *)"v+	c #A3A3A3",
(char *)"w+	c #A4A4A4",
(char *)"x+	c #C0F1C0",
(char *)"y+	c #30E630",
(char *)"z+	c #4ADC4A",
(char *)"A+	c #7AC77A",
(char *)"B+	c #2F2F2F",
(char *)"C+	c #2E2E2E",
(char *)"D+	c #717171",
(char *)"E+	c #939393",
(char *)"F+	c #2C2C2C",
(char *)"G+	c #08D108",
(char *)"H+	c #00FD00",
(char *)"I+	c #214121",
(char *)"J+	c #BDBDBD",
(char *)"K+	c #384038",
(char *)"L+	c #02F002",
(char *)"M+	c #03E803",
(char *)"N+	c #202320",
(char *)"O+	c #7C7C7C",
(char *)"P+	c #006000",
(char *)"Q+	c #008600",
(char *)"R+	c #117611",
(char *)"S+	c #008400",
(char *)"T+	c #000900",
(char *)"U+	c #00E800",
(char *)"V+	c #000800",
(char *)"W+	c #AFB5AF",
(char *)"X+	c #03E303",
(char *)"Y+	c #001A00",
(char *)"Z+	c #545454",
(char *)"`+	c #7B7B7B",
(char *)" @	c #008700",
(char *)".@	c #007600",
(char *)"+@	c #6BD36B",
(char *)"@@	c #008F00",
(char *)"#@	c #001000",
(char *)"$@	c #00ED00",
(char *)"%@	c #001200",
(char *)"&@	c #14F714",
(char *)"*@	c #01F601",
(char *)"=@	c #001700",
(char *)"-@	c #787878",
(char *)";@	c #797979",
(char *)">@	c #BABABA",
(char *)",@	c #47B947",
(char *)"'@	c #3AC73A",
(char *)")@	c #848484",
(char *)"!@	c #3FC53F",
(char *)"~@	c #43CC43",
(char *)"{@	c #575757",
(char *)"]@	c #565656",
(char *)"^@	c #8E8E8E",
(char *)"/@	c #4C534C",
(char *)"(@	c #0AE90A",
(char *)"_@	c #02FC02",
(char *)":@	c #9EE89E",
(char *)"<@	c #4C4C4C",
(char *)"[@	c #357F35",
(char *)"}@	c #1EF71E",
(char *)"|@	c #586458",
(char *)"1@	c #07FE07",
(char *)"2@	c #004B00",
(char *)"3@	c #93C493",
(char *)"4@	c #004900",
(char *)"5@	c #00F000",
(char *)"6@	c #004200",
(char *)"7@	c #070707",
(char *)"8@	c #A0DBA0",
(char *)"9@	c #00AC00",
(char *)"0@	c #00D500",
(char *)"a@	c #00A300",
(char *)"b@	c #002A00",
(char *)". . . . . . . . . + + @ # # $ % % & * * = - - ; > > , , ' ) ) ! ~ ~ { ] ] ^ / / ( _ : < [ ",
(char *)". . . . . . . } + @ | # $ 1 % & 2 * 3 = - 4 ; > 5 , ' 6 ) 7 ! ~ 8 { ] 9 ^ / 0 ( _ : < [ a ",
(char *)". . . . . . } + @ | # $ 1 % & 2 * = = - ; ; > 5 , ' 6 ) ! ! ~ { { ] ^ ^ / ( ( : < < a a b ",
(char *)". . . . & 2 * 3 = - 4 ; > 5 , ' 6 ) 7 7 ! ~ ~ { ] 9 ^ / / ( _ : < [ [ b c d e f g a b c d ",
(char *)". . . & h h h h h i j h h h h k l h h h h h m h h h h h m h h h h h n o h h h h h p c d e ",
(char *)". } + * h h h h h i q h h h h k l h h h h h m h h h h h m h h h h h n o h h h h h r e f g ",
(char *)"} + @ 3 h h h h h i q h s t u v l h h h h h m h h h h h m h h h h h n o h h h h h w f g x ",
(char *)"@ | # - h h h h h y z A B C C D E h h h h h m h h h h h m h h h h h F G h h h h h H x p m ",
(char *)"| # $ 4 h h h h h y I J K L M C N h h h h h m h h h h h m h h h h h F G h h h h h O p m r ",
(char *)"$ 1 % > P P P Q Q R S C T U V W X Y Z Z ` ` d k k  . ...d +.+.+.@.@.#.$.G G o o o %.r w &.",
(char *)"1 % & 5 *.*.*.#.#.=.-.;.>.,.,.'.C ).!.!.~.~.4 l l {.{.].4 ^.^.^././.] #.F F n n n (.w &.H ",
(char *)"& & * ' h h h h h _.C :.h h h +.<.C [.h h h m h h h h h m h h h h h /.@.h h h h h }.H O (.",
(char *)"2 * 3 6 h h h h |.1.2.h h h h +.3.4.5.6.h h m h h h h h m h h h h h /.@.h h h h h 7.O (.%.",
(char *)"* = - ) h h h h 8.C 9.h h h h @./.0.C a.h h m h h h h h m h h h h h ^.+.h h h h h b.%.c.c.",
(char *)"= - 4 7 h h h d.e.f.g.h h h h @./.h.4.i.h h m h h h h h m h h h h h ^.+.h h h h h j.c.c.c.",
(char *)"- ; ; ! h h h k.C l.m.h h h h @./.h n.4.o.h m h h h h h m h h h h h ^.+.h h h h h p.c.c.c.",
(char *)"; > 5 ~ m m m q.r.s.7 m m m m c ; m t.C u.m & m m m m m & m m m m m 4 d m m m m m j.c.c.c.",
(char *)"> 5 , { h h v.C w.x.y.h h h h z.A.h B.C.D.h m h h h h h m h h h h h ]...h h h h h p.c.c.c.",
(char *)", ' 6 9 h h E.C F.G.H.h h h h G F h h I.C J.m h h h h h m h h h h h {. .h h h h h p.c.c.c.",
(char *)"' 6 ) ^ h K.L.M.N.G.H.h h h h G F h h O.C P.m h h h h h m h h h h h {. .h h h h d.p.c.c.c.",
(char *)") 7 ! 0 h [.C Q.h R.S.h h h h o n h h K.T.U.V.h h h h h m h h h h h l k h h h a.W.X.c.c.c.",
(char *)"7 ! ~ ( h Y.C Z.h R.S.h h h h o n h h h `.C  +h h h h h m h h h h h l k h h h .+++@+c.c.c.",
(char *)"~ 8 { _ #+$+%+&+%.< { O O H H f > &.w w *+C =+m m m m m & m m m m m 4 d m m -+C ;+j.c.c.c.",
(char *)"8 { ] < >+C ,+'+'+)+y.!+!+~+~+{+n ]+^+^+6./+$+(+h h h h m h h h h h ~.` h h Q.C :.p.c.c.c.",
(char *)"] 9 ^ _+C :+h.h h <+[+h h h h }+|+h h h h 1+C 2+h h h h m h h h h h ~.` h 3+B 4+6.p.c.c.c.",
(char *)"9 ^ / b 5+Z.h h h 6+7+h h h h 8+9+h h h h 0+C a+h h h h m h h h h h !.Z h b+C c+h p.c.c.c.",
(char *)"/ / ( d h h h h h 6+7+h h h h 8+9+h h h h ^+d+M.e+h h h m h h h h h !.Z h f+g+h+h p.c.c.c.",
(char *)"0 ( _ e h h h h h i+j+h h h h k+l+h h h h ]+m+C n+h h h m h h h h h o+p+q+C r+h h p.c.c.c.",
(char *)"( : < e s+s+s+t+t+u+m v+v+w+w+,.0 l+9+9+|+n x+C y+F F A.; /././.^.^.~ #.z+C A+l l j.c.c.c.",
(char *)": < [ x B+B+B+C+C+D+E+F+F+{+{+R.,.k+8+8+}+{+f G+H+I+G z.c @.@.@.+.+.J+K+L+M+N+k k p.c.c.c.",
(char *)"< [ a p h h h h h )+O+h h h h {+w+h h h h ~+H P+C Q+h h m h h h h h ,.R+C S+h h h p.c.c.c.",
(char *)"a b c r h h h h h )+O+h h h h {+w+h h h h ~+H T+K U+V+h m h h h h h W+X+:+Y+h h h p.c.c.c.",
(char *)"b c d w h h h h h Z+`+h h h h F+v+h h h h !+O h  @C .@h m h h h h h +@C @@h h h h p.c.c.c.",
(char *)"d e f H h h h h h Z+`+h h h h F+v+h h h h !+O h #@$@M.%@m h h h h N.&@*@=@h h h h p.c.c.c.",
(char *)"e f g H -@-@-@;@;@9+>@`+`+O+O+E+m j+7+7+[+y.{ S.S.,@C '@7 m.m.m.)@!@C ~@z z q q j j.c.c.c.",
(char *)"g x p %.{@{@{@]@]@^@9+Z+Z+)+)+D+u+i+6+6+<+)+< R.R./@(@_@:@<@<@<@[@X }@|@y y i i i p.c.c.c.",
(char *)"x p m %.h h h h h ]@;@h h h h C+t+h h h h '+%.h h h [.:+1@2@K.b+++e.3@Q h h h h h p.c.c.c.",
(char *)"m r w }.h h h h h ]@;@h h h h C+t+h h h h '+%.h h h h 4@r.C :+C 5@6@#.Q h h h h h p.c.c.c.",
(char *)"r w &.7.h h h h h {@-@h h h h B+s+h h h h 7@c.h h h h h 8@9@0@a@b@h *.P h h h h h p.c.c.c.",
(char *)"&.H O b.h h h h h {@-@h h h h B+s+h h h h 7@c.h h h h h m h h h h h *.P h h h h h p.c.c.c.",
(char *)"H O (.j.h h h h h {@-@h h h h B+s+h h h h 7@c.h h h h h m h h h h h *.P h h h h h p.c.c.c.",
(char *)"(.(.c.c.p.p.p.p.p.p.j.p.p.p.p.p.j.p.p.p.p.p.j.p.p.p.p.p.j.p.p.p.p.p.j.p.p.p.p.p.p.c.c.c.c.",
(char *)"%.c.c.c.c.c.c.c.c.c.c.c.c.c.c.c.c.c.c.c.c.c.c.c.c.c.c.c.c.c.c.c.c.c.c.c.c.c.c.c.c.c.c.c.c.",
(char *)"c.c.c.c.c.c.c.c.c.c.c.c.c.c.c.c.c.c.c.c.c.c.c.c.c.c.c.c.c.c.c.c.c.c.c.c.c.c.c.c.c.c.c.c.c.",
(char *)"c.c.c.c.c.c.c.c.c.c.c.c.c.c.c.c.c.c.c.c.c.c.c.c.c.c.c.c.c.c.c.c.c.c.c.c.c.c.c.c.c.c.c.c.c."};
