/* XPM */
/* $Id: ana_spec_048.xpm 1012 2012-11-02 01:07:33Z  $ */
static char * ana_spec_048_xpm[] = {
(char *)"48 48 406 2",
(char *)"  	c None",
(char *)". 	c #FFFFFF",
(char *)"+ 	c #FEFEFE",
(char *)"@ 	c #FDFDFD",
(char *)"# 	c #FCFCFC",
(char *)"$ 	c #FBFBFB",
(char *)"% 	c #FAFAFA",
(char *)"& 	c #F9F9F9",
(char *)"* 	c #F8F8F8",
(char *)"= 	c #F7F7F7",
(char *)"- 	c #F6F6F6",
(char *)"; 	c #F5F5F5",
(char *)"> 	c #F4F4F4",
(char *)", 	c #F3F3F3",
(char *)"' 	c #F2F2F2",
(char *)") 	c #F1F1F1",
(char *)"! 	c #F0F0F0",
(char *)"~ 	c #EFEFEF",
(char *)"{ 	c #EEEEEE",
(char *)"] 	c #EDEDED",
(char *)"^ 	c #ECECEC",
(char *)"/ 	c #EBEBEB",
(char *)"( 	c #E9E9E9",
(char *)"_ 	c #E8E8E8",
(char *)": 	c #E7E7E7",
(char *)"< 	c #E6E6E6",
(char *)"[ 	c #E5E5E5",
(char *)"} 	c #E4E4E4",
(char *)"| 	c #E3E3E3",
(char *)"1 	c #E2E2E2",
(char *)"2 	c #E1E1E1",
(char *)"3 	c #E0E0E0",
(char *)"4 	c #DFDFDF",
(char *)"5 	c #DEDEDE",
(char *)"6 	c #DDDDDD",
(char *)"7 	c #DCDCDC",
(char *)"8 	c #DBDBDB",
(char *)"9 	c #DADADA",
(char *)"0 	c #EAEAEA",
(char *)"a 	c #D9D9D9",
(char *)"b 	c #D8D8D8",
(char *)"c 	c #D7D7D7",
(char *)"d 	c #D6D6D6",
(char *)"e 	c #626262",
(char *)"f 	c #363636",
(char *)"g 	c #353535",
(char *)"h 	c #343434",
(char *)"i 	c #484848",
(char *)"j 	c #ABABAB",
(char *)"k 	c #333333",
(char *)"l 	c #323232",
(char *)"m 	c #454545",
(char *)"n 	c #313131",
(char *)"o 	c #A9A9A9",
(char *)"p 	c #303030",
(char *)"q 	c #777777",
(char *)"r 	c #2F2F2F",
(char *)"s 	c #9F9F9F",
(char *)"t 	c #4D4D4D",
(char *)"u 	c #545454",
(char *)"v 	c #D5D5D5",
(char *)"w 	c #000000",
(char *)"x 	c #202020",
(char *)"y 	c #BFBFBF",
(char *)"z 	c #C0C0C0",
(char *)"A 	c #1F1F1F",
(char *)"B 	c #707070",
(char *)"C 	c #6F6F6F",
(char *)"D 	c #B0B0B0",
(char *)"E 	c #2E2E2E",
(char *)"F 	c #D4D4D4",
(char *)"G 	c #91CF91",
(char *)"H 	c #001200",
(char *)"I 	c #D3D3D3",
(char *)"J 	c #D2D2D2",
(char *)"K 	c #1B4C1B",
(char *)"L 	c #00FF00",
(char *)"M 	c #009F00",
(char *)"N 	c #C1C1C1",
(char *)"O 	c #1E1E1E",
(char *)"P 	c #212121",
(char *)"Q 	c #BEBEBE",
(char *)"R 	c #717171",
(char *)"S 	c #6E6E6E",
(char *)"T 	c #B1B1B1",
(char *)"U 	c #D1D1D1",
(char *)"V 	c #147514",
(char *)"W 	c #00CF00",
(char *)"X 	c #D0D0D0",
(char *)"Y 	c #109610",
(char *)"Z 	c #00F300",
(char *)"` 	c #C2C2C2",
(char *)" .	c #1D1D1D",
(char *)"..	c #222222",
(char *)"+.	c #BDBDBD",
(char *)"@.	c #727272",
(char *)"#.	c #6D6D6D",
(char *)"$.	c #B2B2B2",
(char *)"%.	c #2D2D2D",
(char *)"&.	c #CFCFCF",
(char *)"*.	c #CECECE",
(char *)"=.	c #7A7A7A",
(char *)"-.	c #737373",
(char *)";.	c #747474",
(char *)">.	c #2CD82C",
(char *)",.	c #6B836B",
(char *)"'.	c #767676",
(char *)").	c #787878",
(char *)"!.	c #797979",
(char *)"~.	c #888888",
(char *)"{.	c #7B7B7B",
(char *)"].	c #8D8D8D",
(char *)"^.	c #7C7C7C",
(char *)"/.	c #7D7D7D",
(char *)"(.	c #B7B7B7",
(char *)"_.	c #B5B5B5",
(char *)":.	c #7E7E7E",
(char *)"<.	c #969696",
(char *)"[.	c #7F7F7F",
(char *)"}.	c #CDCDCD",
(char *)"|.	c #6C6C6C",
(char *)"1.	c #6B6B6B",
(char *)"2.	c #16E816",
(char *)"3.	c #508C50",
(char *)"4.	c #696969",
(char *)"5.	c #686868",
(char *)"6.	c #676767",
(char *)"7.	c #666666",
(char *)"8.	c #656565",
(char *)"9.	c #646464",
(char *)"0.	c #636363",
(char *)"a.	c #A8A8A8",
(char *)"b.	c #A5A5A5",
(char *)"c.	c #616161",
(char *)"d.	c #CCCCCC",
(char *)"e.	c #CBCBCB",
(char *)"f.	c #03EC03",
(char *)"g.	c #005200",
(char *)"h.	c #C3C3C3",
(char *)"i.	c #1C1C1C",
(char *)"j.	c #232323",
(char *)"k.	c #BCBCBC",
(char *)"l.	c #B3B3B3",
(char *)"m.	c #2C2C2C",
(char *)"n.	c #CACACA",
(char *)"o.	c #01F601",
(char *)"p.	c #005700",
(char *)"q.	c #C9C9C9",
(char *)"r.	c #000200",
(char *)"s.	c #005D00",
(char *)"t.	c #C4C4C4",
(char *)"u.	c #1B1B1B",
(char *)"v.	c #242424",
(char *)"w.	c #BBBBBB",
(char *)"x.	c #B4B4B4",
(char *)"y.	c #2B2B2B",
(char *)"z.	c #C8C8C8",
(char *)"A.	c #000D00",
(char *)"B.	c #006300",
(char *)"C.	c #001A00",
(char *)"D.	c #006800",
(char *)"E.	c #BFE5BF",
(char *)"F.	c #7FED7F",
(char *)"G.	c #003200",
(char *)"H.	c #007300",
(char *)"I.	c #C5C5C5",
(char *)"J.	c #1A1A1A",
(char *)"K.	c #252525",
(char *)"L.	c #BABABA",
(char *)"M.	c #757575",
(char *)"N.	c #6A6A6A",
(char *)"O.	c #2A2A2A",
(char *)"P.	c #003E00",
(char *)"Q.	c #007900",
(char *)"R.	c #C6C6C6",
(char *)"S.	c #191919",
(char *)"T.	c #262626",
(char *)"U.	c #B9B9B9",
(char *)"V.	c #B6B6B6",
(char *)"W.	c #292929",
(char *)"X.	c #004B00",
(char *)"Y.	c #07FD07",
(char *)"Z.	c #007F00",
(char *)"`.	c #14F814",
(char *)" +	c #008400",
(char *)".+	c #1FF31F",
(char *)"++	c #008900",
(char *)"@+	c #C7C7C7",
(char *)"#+	c #181818",
(char *)"$+	c #272727",
(char *)"%+	c #B8B8B8",
(char *)"&+	c #282828",
(char *)"*+	c #505050",
(char *)"=+	c #515151",
(char *)"-+	c #525252",
(char *)";+	c #535353",
(char *)">+	c #309E30",
(char *)",+	c #30F430",
(char *)"'+	c #26B326",
(char *)")+	c #565656",
(char *)"!+	c #575757",
(char *)"~+	c #585858",
(char *)"{+	c #595959",
(char *)"]+	c #5A5A5A",
(char *)"^+	c #5B5B5B",
(char *)"/+	c #5C5C5C",
(char *)"(+	c #5D5D5D",
(char *)"_+	c #5E5E5E",
(char *)":+	c #8B8B8B",
(char *)"<+	c #8F8F8F",
(char *)"[+	c #8E8E8E",
(char *)"}+	c #8C8C8C",
(char *)"|+	c #48C248",
(char *)"1+	c #40F540",
(char *)"2+	c #3BCC3B",
(char *)"3+	c #898989",
(char *)"4+	c #878787",
(char *)"5+	c #868686",
(char *)"6+	c #919191",
(char *)"7+	c #858585",
(char *)"8+	c #848484",
(char *)"9+	c #979797",
(char *)"0+	c #838383",
(char *)"a+	c #828282",
(char *)"b+	c #818181",
(char *)"c+	c #939393",
(char *)"d+	c #008600",
(char *)"e+	c #41E641",
(char *)"f+	c #009500",
(char *)"g+	c #171717",
(char *)"h+	c #009200",
(char *)"i+	c #4CE14C",
(char *)"j+	c #009A00",
(char *)"k+	c #161616",
(char *)"l+	c #009D00",
(char *)"m+	c #57DC57",
(char *)"n+	c #009E00",
(char *)"o+	c #003F00",
(char *)"p+	c #004100",
(char *)"q+	c #00A900",
(char *)"r+	c #62D862",
(char *)"s+	c #00A200",
(char *)"t+	c #152315",
(char *)"u+	c #00F500",
(char *)"v+	c #00FB00",
(char *)"w+	c #002600",
(char *)"x+	c #00B500",
(char *)"y+	c #6DD36D",
(char *)"z+	c #00A600",
(char *)"A+	c #0C740C",
(char *)"B+	c #009700",
(char *)"C+	c #30F130",
(char *)"D+	c #9EF49E",
(char *)"E+	c #42EC42",
(char *)"F+	c #3FF03F",
(char *)"G+	c #1AF81A",
(char *)"H+	c #434343",
(char *)"I+	c #05D205",
(char *)"J+	c #88CE88",
(char *)"K+	c #08B608",
(char *)"L+	c #07D807",
(char *)"M+	c #03DF03",
(char *)"N+	c #345534",
(char *)"O+	c #131313",
(char *)"P+	c #121212",
(char *)"Q+	c #111111",
(char *)"R+	c #005800",
(char *)"S+	c #003700",
(char *)"T+	c #00E400",
(char *)"U+	c #01F901",
(char *)"V+	c #93C293",
(char *)"W+	c #00B200",
(char *)"X+	c #01F101",
(char *)"Y+	c #00EE00",
(char *)"Z+	c #008C00",
(char *)"`+	c #1A811A",
(char *)" @	c #002A00",
(char *)".@	c #00EC00",
(char *)"+@	c #000B00",
(char *)"@@	c #000500",
(char *)"#@	c #00FD00",
(char *)"$@	c #06E106",
(char *)"%@	c #96C096",
(char *)"&@	c #00B600",
(char *)"*@	c #BECEBE",
(char *)"=@	c #00D000",
(char *)"-@	c #0CC10C",
(char *)";@	c #007000",
(char *)">@	c #001C00",
(char *)",@	c #007B00",
(char *)"'@	c #004600",
(char *)")@	c #002100",
(char *)"!@	c #0BC80B",
(char *)"~@	c #98BE98",
(char *)"{@	c #00BA00",
(char *)"]@	c #002D00",
(char *)"^@	c #93DA93",
(char *)"/@	c #00AD00",
(char *)"(@	c #000400",
(char *)"_@	c #ABB6AB",
(char *)":@	c #00E000",
(char *)"<@	c #00FE00",
(char *)"[@	c #00E300",
(char *)"}@	c #002400",
(char *)"|@	c #00DE00",
(char *)"1@	c #00FC00",
(char *)"2@	c #10B010",
(char *)"3@	c #9BBD9B",
(char *)"4@	c #00D500",
(char *)"5@	c #00B800",
(char *)"6@	c #008100",
(char *)"7@	c #00A400",
(char *)"8@	c #7ACB7A",
(char *)"9@	c #4B4B4B",
(char *)"0@	c #0CC90C",
(char *)"a@	c #09DA09",
(char *)"b@	c #10BD10",
(char *)"c@	c #02F602",
(char *)"d@	c #0DCA0D",
(char *)"e@	c #2CAE2C",
(char *)"f@	c #ABC9AB",
(char *)"g@	c #01FB01",
(char *)"h@	c #0ECF0E",
(char *)"i@	c #287828",
(char *)"j@	c #3A3A3A",
(char *)"k@	c #277D27",
(char *)"l@	c #35EF35",
(char *)"m@	c #3B403B",
(char *)"n@	c #3C3C3C",
(char *)"o@	c #3D3D3D",
(char *)"p@	c #9C9C9C",
(char *)"q@	c #3E3E3E",
(char *)"r@	c #86AC86",
(char *)"s@	c #01FE01",
(char *)"t@	c #60D260",
(char *)"u@	c #91BB91",
(char *)"v@	c #02FE02",
(char *)"w@	c #35E535",
(char *)"x@	c #AAADAA",
(char *)"y@	c #85BD85",
(char *)"z@	c #11F711",
(char *)"A@	c #73D373",
(char *)"B@	c #CEE8CE",
(char *)"C@	c #01FF01",
(char *)"D@	c #5BD05B",
(char *)"E@	c #96B296",
(char *)"F@	c #39E239",
(char *)"G@	c #06FC06",
(char *)"H@	c #10F710",
(char *)"I@	c #6BF76B",
(char *)"J@	c #54D654",
(char *)"K@	c #A4A6A4",
(char *)"L@	c #9CA99C",
(char *)"M@	c #14F714",
(char *)"N@	c #45D845",
(char *)"O@	c #54CF54",
(char *)"P@	c #53CF53",
(char *)"Q@	c #A1A1A1",
(char *)"R@	c #ADADAD",
(char *)"S@	c #CFD0CF",
(char *)"T@	c #004D00",
(char *)"U@	c #006700",
(char *)"V@	c #000800",
(char *)"W@	c #001800",
(char *)"X@	c #005900",
(char *)"Y@	c #2C2F2C",
(char *)"Z@	c #B1B3B1",
(char *)"`@	c #002B00",
(char *)" #	c #005F00",
(char *)".#	c #001500",
(char *)"+#	c #284528",
(char *)"@#	c #0FF90F",
(char *)"##	c #4BB04B",
(char *)"$#	c #597059",
(char *)"%#	c #000100",
(char *)"&#	c #12A812",
(char *)"*#	c #009C00",
(char *)"=#	c #8FC08F",
(char *)"-#	c #00D200",
(char *)";#	c #00D800",
(char *)">#	c #00E200",
(char *)",#	c #00F800",
(char *)"'#	c #BEE0BE",
(char *)")#	c #212221",
(char *)"!#	c #004900",
(char *)"~#	c #2AD32A",
(char *)"{#	c #09F109",
(char *)"]#	c #BEFFBE",
(char *)"^#	c #219021",
(char *)"/#	c #264626",
(char *)"(#	c #101010",
(char *)"_#	c #5D655D",
(char *)":#	c #001D00",
(char *)"<#	c #003100",
(char *)"[#	c #BFFDBF",
(char *)"}#	c #20FF20",
(char *)"|#	c #08DA08",
(char *)"1#	c #606060",
(char *)"2#	c #BFCDBF",
(char *)"3#	c #20B620",
(char *)"4#	c #11AB11",
(char *)"5#	c #4E4E4E",
(char *)"6#	c #4A4A4A",
(char *)"7#	c #9D9D9D",
(char *)"8#	c #A7A7A7",
(char *)"9#	c #404040",
(char *)". . . . . . . . . + @ # $ % & & * = - ; > , ' ) ! ~ { ] ^ / / ( ( _ : < [ } | 1 2 3 4 5 6 7 8 9 ",
(char *)". . . . . . . . + @ # $ % & * = - ; > , ' ) ) ! ~ { ] ^ / 0 ( _ : < [ } | | 2 2 3 4 5 6 7 8 9 a ",
(char *)". . . . . . + @ # $ % % & * = - ; > , ' ) ! ~ { ] ^ / / 0 ( _ : < [ } | 1 2 3 4 5 6 7 8 8 9 a b ",
(char *)". . . . . + @ # $ % & * = - ; > , ' ' ) ! ~ { ] ^ / 0 ( _ : < [ } | | 1 2 3 4 5 6 7 8 9 a b c d ",
(char *)". . . + e f f f f f g g g g g h h i j h k k k k k l l j m l n n m o n p p q q r r s t u b c d v ",
(char *)". . + @ f w w w w w w w w w w w w x y w w w w w w w w z A w w w x y w w w B C w w D r E d d v F ",
(char *)"+ @ # # f w w w w w w w w w w w w x G H w w w w w w w z A w w w x y w w w B C w w D r E v F I J ",
(char *)"@ # $ % f w w w w w w w w w w w w K L M w w w w w w w N O w w w P Q w w w R S w w T E E F I J U ",
(char *)"# $ % & g w w w w w w w w w w w w V L W w w w w w w w N O w w w P Q w w w R S w w T E E J U X X ",
(char *)"% & * = g w w w w w w w w w w w w Y L Z w w w w w w w `  .w w w ..+.w w w @.#.w w $.%.%.U X &.*.",
(char *)"& * = - =.B B R R @.@.@.-.-.;.;.;.>.L L ,.'.q q ).).!.4 ~.=.=.{.].6 ^.^./.(._.:.:.b <.[.X &.*.}.",
(char *)"= = - ; =.C C S S #.#.#.|.|.1.1.1.2.L L 3.4.5.5.6.6.7.9 q 8.8.9.!.c 0.0.e a.b.c.c.&.^.1.*.}.d.e.",
(char *)"- ; > , h w w w w w w w w w w w w f.L L g.w w w w w w h.i.w w w j.k.w w w -.|.w w l.m.m.}.d.e.n.",
(char *)"; > , ' h w w w w w w w w w w w w o.L L p.w w w w w w h.i.w w w j.k.w w w -.|.w w l.m.m.e.n.n.q.",
(char *)", ' ) ) h w w w w w w w w w w w r.L L L s.w w w w w w t.u.w w w v.w.w w w ;.1.w w x.y.m.n.q.z.z.",
(char *)"' ) ! ~ k w w w w w w w w w w w A.L L L B.w w w w w w t.u.w w w v.w.w w w ;.1.w w x.y.m.q.z.z.z.",
(char *)") ! ~ { k w w w w w w w w w w w C.L L L D.w w w w w w t.u.w w w v.w.w w w ;.1.w w x.y.y.z.z.z.z.",
(char *)"~ { ] ^ y 3 3 3 3 3 3 3 3 3 3 3 E.L L L F.3 3 3 3 3 3 * | 3 3 3 } = 3 3 3 { ] 3 3 - [ k.z.z.z.z.",
(char *)"{ ] ^ / l w w w w w w w w w w w G.L L L H.w w w w w w I.J.w w w K.L.w w w M.N.w w _.O.y.z.z.z.z.",
(char *)"^ ^ / 0 l w w w w w w w w w w w P.L L L Q.w w w w w w R.S.w w w T.U.w w w '.4.w w V.W.y.z.z.z.z.",
(char *)"/ 0 ( _ l w w w w w w w w w w w X.L Y.L Z.w w w w w w R.S.w w w T.U.w w w '.4.w w V.W.y.z.z.z.z.",
(char *)"0 ( _ : l w w w w w w w w w w w p.L `.L  +w w w w w w R.S.w w w T.U.w w w '.4.w w V.W.y.z.z.z.z.",
(char *)"_ : : < n w w w w w w w w w w w B.L .+L ++w w w w w w @+#+w w w $+%+w w w q 5.w w (.&+y.z.z.z.z.",
(char *)": < [ } 0.*+*+=+=+-+-+-+;+;+u u >+L ,+L '+)+!+!+~+~+{+8 4.]+]+^+;.U /+/+(+o s _+_+J ).4.z.z.z.z.",
(char *)"< [ } | :+<+<+[+[+].].].}+}+:+:+|+L 1+L 2+3+~.~.4+4+5+[ 6+7+7+8+9+7 0+0+a++.x.b+b+7 c+:.z.z.z.z.",
(char *)"} | 1 2 n w w w w w w w w w w w d+L e+L f+w w w w w w z.g+w w w &+(.w w w ).6.w w %+$+y.z.z.z.z.",
(char *)"| 1 2 3 p w w w w w w w w w w w h+L i+L j+w w w w w w q.k+w w w W.V.w w w !.7.w w U.T.y.z.z.z.z.",
(char *)"2 2 3 4 p w w w w w w w w w w w l+L m+L n+w w w w w w q.k+o+p+w W.V.w w w !.7.w w U.T.y.z.z.z.z.",
(char *)"3 4 5 6 r w w w w w w w w w w w q+L r+L s+w w w w w w q.t+u+v+w+W.V.w w w !.7.w w U.T.y.z.z.z.z.",
(char *)"4 5 6 7 r w w w w w w w w w w w x+L y+L z+w w w w w w n.A+L L B+O._.w w w =.8.w w L.K.y.z.z.z.z.",
(char *)"6 7 8 8 o z z N N ` ` ` h.h.t.t.C+L D+L E+R.@+@+z.z.q.> F+L L G+F ! d.d.}.[ 2 *.*.' d $.z.z.z.z.",
(char *)"7 8 9 a H+A A O O  . . .i.i.u.u.I+L J+L K+S.#+#+g+g+k+&.L+L M+L N+L.O+O+P+8+C Q+Q+y l g z.z.z.z.",
(char *)"8 9 a b E w w w R+S+w w w w w w T+U+V+L W+w w w w w w e.X+Y+Z+L `+x.w w w {.9.w w w.v.y.z.z.z.z.",
(char *)"a b b d E w w  @L .@+@w w w w @@#@$@%@L &@w w w w w w *@L =@p+L -@x.w w w {.9.w w w.v.y.z.z.z.z.",
(char *)"b c d v E w w Z.L L ;@w >@,@'@)@L !@~@L {@w p+]@w w w ^@L /@(@Y+U+_@w w w ^.0.w w k.j.y.z.z.z.z.",
(char *)"d d v F E G.x+:@L <@[@}@|@L 1@M L 2@3@L 4@5@L Y+A.w ;@L L 6@w 7@L 8@w w w ^.0.w w k.j.y.z.z.z.z.",
(char *)"v F I J 9@0@L L a@b@L c@L d@U+L L e@f@L L L g@L c@h@#@L L i@j@k@L l@m@n@o@p@~.q@q@}.{+u z.z.z.z.",
(char *)"F I J U r@s@L L t@u@v@L w@x@y@z@L A@B@L C@D@E@F@G@L H@I@J@K@b.L@M@L N@O@P@X R.Q@Q@< R@c+z.z.z.z.",
(char *)"J U U S@$@L n+T@(@w U@f+V@w w W@X@Y@Z@W+d+w w w `@ #.#}.P+w w w +#@#L L L ##$#w %#+...y.z.z.z.z.",
(char *)"U X &.*.&#*#r.w w w w w w w w w w E T w w w w w w w w *.Q+w w w E =#-#;#L L L >#,#'#)#y.z.z.z.z.",
(char *)"X &.*.}.m.w w w w w w w w w w w w E T w w w w w w w w *.Q+w w w E T w w !#~#{#L ,#]#^#/#z.z.z.z.",
(char *)"*.}.d.e.m.w w w w w w w w w w w w r D w w w w w w w w &.(#w w w r D w w w [._#:#<#[#}#|#z.z.z.z.",
(char *)"}.d.e.n.y.w w w w w w w w w w w w r D w w w w w w w w &.(#w w w r D w w w [.1#w w 2#3#4#z.z.z.z.",
(char *)"e.e.n.q.5#y.y.y.y.y.y.y.y.y.y.y.y.6#7#y.y.y.y.y.y.y.y.$.g y.y.y.6#7#y.y.y./.4.y.y.8#9#5#z.z.z.z.",
(char *)"n.q.z.z.z.z.z.z.z.z.z.z.z.z.z.z.z.z.z.z.z.z.z.z.z.z.z.z.z.z.z.z.z.z.z.z.z.z.z.z.z.z.z.z.z.z.z.z.",
(char *)"q.z.z.z.z.z.z.z.z.z.z.z.z.z.z.z.z.z.z.z.z.z.z.z.z.z.z.z.z.z.z.z.z.z.z.z.z.z.z.z.z.z.z.z.z.z.z.z.",
(char *)"z.z.z.z.z.z.z.z.z.z.z.z.z.z.z.z.z.z.z.z.z.z.z.z.z.z.z.z.z.z.z.z.z.z.z.z.z.z.z.z.z.z.z.z.z.z.z.z.",
(char *)"z.z.z.z.z.z.z.z.z.z.z.z.z.z.z.z.z.z.z.z.z.z.z.z.z.z.z.z.z.z.z.z.z.z.z.z.z.z.z.z.z.z.z.z.z.z.z.z."};
