/* XPM */
/* $Id: ana_spec_016.xpm 1012 2012-11-02 01:07:33Z  $ */
static char * ana_spec_016_xpm[] = {
(char *)"16 16 136 2",
(char *)"  	c None",
(char *)". 	c #FFFFFF",
(char *)"+ 	c #FCFCFC",
(char *)"@ 	c #F9F9F9",
(char *)"# 	c #F6F6F6",
(char *)"$ 	c #F3F3F3",
(char *)"% 	c #F1F1F1",
(char *)"& 	c #EEEEEE",
(char *)"* 	c #EBEBEB",
(char *)"= 	c #E8E8E8",
(char *)"- 	c #E5E5E5",
(char *)"; 	c #E3E3E3",
(char *)"> 	c #E0E0E0",
(char *)", 	c #DDDDDD",
(char *)"' 	c #DADADA",
(char *)") 	c #A4A4A4",
(char *)"! 	c #656565",
(char *)"~ 	c #646464",
(char *)"{ 	c #636363",
(char *)"] 	c #787878",
(char *)"^ 	c #5F5F5F",
(char *)"/ 	c #737373",
(char *)"( 	c #757575",
(char *)"_ 	c #6E6E6E",
(char *)": 	c #909090",
(char *)"< 	c #D6D6D6",
(char *)"[ 	c #000000",
(char *)"} 	c #081208",
(char *)"| 	c #2D762D",
(char *)"1 	c #484848",
(char *)"2 	c #080808",
(char *)"3 	c #3F3F3F",
(char *)"4 	c #383838",
(char *)"5 	c #606060",
(char *)"6 	c #D2D2D2",
(char *)"7 	c #F8F8F8",
(char *)"8 	c #7D7D7D",
(char *)"9 	c #436643",
(char *)"0 	c #2CCA2C",
(char *)"a 	c #7C7C7C",
(char *)"b 	c #4E4E4E",
(char *)"c 	c #747474",
(char *)"d 	c #717171",
(char *)"e 	c #CECECE",
(char *)"f 	c #F4F4F4",
(char *)"g 	c #616161",
(char *)"h 	c #073F07",
(char *)"i 	c #14C114",
(char *)"j 	c #090909",
(char *)"k 	c #3E3E3E",
(char *)"l 	c #393939",
(char *)"m 	c #5B5B5B",
(char *)"n 	c #CACACA",
(char *)"o 	c #F0F0F0",
(char *)"p 	c #7A7A7A",
(char *)"q 	c #378437",
(char *)"r 	c #1EDA1E",
(char *)"s 	c #4F4F4F",
(char *)"t 	c #727272",
(char *)"u 	c #C8C8C8",
(char *)"v 	c #ECECEC",
(char *)"w 	c #5E5E5E",
(char *)"x 	c #076807",
(char *)"y 	c #0CD70C",
(char *)"z 	c #0B0B0B",
(char *)"A 	c #3C3C3C",
(char *)"B 	c #3B3B3B",
(char *)"C 	c #595959",
(char *)"D 	c #E7E7E7",
(char *)"E 	c #181818",
(char *)"F 	c #191919",
(char *)"G 	c #138813",
(char *)"H 	c #11DC11",
(char *)"I 	c #1B1B1B",
(char *)"J 	c #1C1C1C",
(char *)"K 	c #5C5C5C",
(char *)"L 	c #272727",
(char *)"M 	c #535353",
(char *)"N 	c #6D6D6D",
(char *)"O 	c #2F2F2F",
(char *)"P 	c #2E2E2E",
(char *)"Q 	c #1AA21A",
(char *)"R 	c #1AD11A",
(char *)"S 	c #2C2C2C",
(char *)"T 	c #2B2B2B",
(char *)"U 	c #676767",
(char *)"V 	c #343434",
(char *)"W 	c #686868",
(char *)"X 	c #DFDFDF",
(char *)"Y 	c #059F05",
(char *)"Z 	c #15BB15",
(char *)"` 	c #387138",
(char *)" .	c #094A09",
(char *)"..	c #DBDBDB",
(char *)"+.	c #1FBC1F",
(char *)"@.	c #2ACC2A",
(char *)"#.	c #3AC23A",
(char *)"$.	c #1DC21D",
(char *)"%.	c #D7D7D7",
(char *)"&.	c #555955",
(char *)"*.	c #009400",
(char *)"=.	c #007F00",
(char *)"-.	c #006900",
(char *)";.	c #05AD05",
(char *)">.	c #14B814",
(char *)",.	c #005300",
(char *)"'.	c #001000",
(char *)").	c #17C317",
(char *)"!.	c #05A405",
(char *)"~.	c #374237",
(char *)"{.	c #575757",
(char *)"].	c #D3D3D3",
(char *)"^.	c #3DB03D",
(char *)"/.	c #22A822",
(char *)"(.	c #1EB41E",
(char *)"_.	c #2B932B",
(char *)":.	c #28AA28",
(char *)"<.	c #35BD35",
(char *)"[.	c #269D26",
(char *)"}.	c #16C616",
(char *)"|.	c #57A357",
(char *)"1.	c #3B823B",
(char *)"2.	c #2CC72C",
(char *)"3.	c #5F9A5F",
(char *)"4.	c #CFCFCF",
(char *)"5.	c #476847",
(char *)"6.	c #0F0F0F",
(char *)"7.	c #2D5F2D",
(char *)"8.	c #23A723",
(char *)"9.	c #3FC23F",
(char *)"0.	c #408540",
(char *)"a.	c #CBCBCB",
(char *)"b.	c #818181",
(char *)"c.	c #515151",
(char *)"d.	c #696D69",
(char *)"e.	c #709570",
(char *)". . . + @ # $ % & * = - ; > , ' ",
(char *)". ) ! ~ { ~ ] ^ ^ ] ^ / ( _ : < ",
(char *)"+ ! [ [ [ } | [ [ 1 2 3 1 4 5 6 ",
(char *)"7 8 1 1 1 9 0 1 1 a b c a d ] e ",
(char *)"f g [ [ [ h i [ [ 1 j k 1 l m n ",
(char *)"o p 1 1 1 q r 1 1 a s c a t ( u ",
(char *)"v w [ [ [ x y [ [ 1 z A 1 B C u ",
(char *)"D ! E F F G H I J K L M w M ! u ",
(char *)"; N O P P Q R S T U V m ! m W u ",
(char *)"X C [ [ [ Y Z [ [ `  .B 1 A C u ",
(char *)"../ 1 1 1 +.@.1 1 #.$.t a c c u ",
(char *)"%.&.*.=.-.;.>.,.'.).!.~.1 k {.u ",
(char *)"].^./.(._.:.<.[.}.|.1.2.3.c / u ",
(char *)"4.5.[ [ [ 6.4 [ [ 1 6.7.8.9.0.u ",
(char *)"a.b.c.c.c.{.W c.c._ {.W _ d.e.u ",
(char *)"u u u u u u u u u u u u u u u u "};
