/* XPM */
/* $Id: ana_spec_064.xpm 1012 2012-11-02 01:07:33Z  $ */
static char * ana_spec_064_xpm[] = {
(char *)"64 64 420 2",
(char *)"  	c None",
(char *)". 	c #FFFFFF",
(char *)"+ 	c #FEFEFE",
(char *)"@ 	c #FDFDFD",
(char *)"# 	c #FCFCFC",
(char *)"$ 	c #FBFBFB",
(char *)"% 	c #FAFAFA",
(char *)"& 	c #F9F9F9",
(char *)"* 	c #F8F8F8",
(char *)"= 	c #F7F7F7",
(char *)"- 	c #F6F6F6",
(char *)"; 	c #F5F5F5",
(char *)"> 	c #F4F4F4",
(char *)", 	c #F3F3F3",
(char *)"' 	c #F2F2F2",
(char *)") 	c #F1F1F1",
(char *)"! 	c #F0F0F0",
(char *)"~ 	c #EFEFEF",
(char *)"{ 	c #EEEEEE",
(char *)"] 	c #EDEDED",
(char *)"^ 	c #ECECEC",
(char *)"/ 	c #EBEBEB",
(char *)"( 	c #EAEAEA",
(char *)"_ 	c #E9E9E9",
(char *)": 	c #E8E8E8",
(char *)"< 	c #E7E7E7",
(char *)"[ 	c #E6E6E6",
(char *)"} 	c #E5E5E5",
(char *)"| 	c #E4E4E4",
(char *)"1 	c #E3E3E3",
(char *)"2 	c #E2E2E2",
(char *)"3 	c #E1E1E1",
(char *)"4 	c #E0E0E0",
(char *)"5 	c #DFDFDF",
(char *)"6 	c #DEDEDE",
(char *)"7 	c #DDDDDD",
(char *)"8 	c #DCDCDC",
(char *)"9 	c #DBDBDB",
(char *)"0 	c #DADADA",
(char *)"a 	c #D9D9D9",
(char *)"b 	c #D8D8D8",
(char *)"c 	c #D7D7D7",
(char *)"d 	c #D6D6D6",
(char *)"e 	c #9E9E9E",
(char *)"f 	c #9D9D9D",
(char *)"g 	c #9C9C9C",
(char *)"h 	c #9B9B9B",
(char *)"i 	c #9A9A9A",
(char *)"j 	c #999999",
(char *)"k 	c #989898",
(char *)"l 	c #979797",
(char *)"m 	c #BEBEBE",
(char *)"n 	c #969696",
(char *)"o 	c #959595",
(char *)"p 	c #949494",
(char *)"q 	c #939393",
(char *)"r 	c #929292",
(char *)"s 	c #919191",
(char *)"t 	c #ACACAC",
(char *)"u 	c #A6A6A6",
(char *)"v 	c #909090",
(char *)"w 	c #8F8F8F",
(char *)"x 	c #8E8E8E",
(char *)"y 	c #B9B9B9",
(char *)"z 	c #8D8D8D",
(char *)"A 	c #8C8C8C",
(char *)"B 	c #8B8B8B",
(char *)"C 	c #B2B2B2",
(char *)"D 	c #8A8A8A",
(char *)"E 	c #898989",
(char *)"F 	c #B1B1B1",
(char *)"G 	c #888888",
(char *)"H 	c #BABABA",
(char *)"I 	c #D5D5D5",
(char *)"J 	c #000000",
(char *)"K 	c #282828",
(char *)"L 	c #A8A8A8",
(char *)"M 	c #7F7F7F",
(char *)"N 	c #3F3F3F",
(char *)"O 	c #878787",
(char *)"P 	c #D4D4D4",
(char *)"Q 	c #868686",
(char *)"R 	c #D3D3D3",
(char *)"S 	c #292929",
(char *)"T 	c #F9FEF9",
(char *)"U 	c #000900",
(char *)"V 	c #A9A9A9",
(char *)"W 	c #7E7E7E",
(char *)"X 	c #3E3E3E",
(char *)"Y 	c #858585",
(char *)"Z 	c #D2D2D2",
(char *)"` 	c #244524",
(char *)" .	c #0FFF0F",
(char *)"..	c #00DE00",
(char *)"+.	c #001300",
(char *)"@.	c #D1D1D1",
(char *)"#.	c #149614",
(char *)"$.	c #00FF00",
(char *)"%.	c #006600",
(char *)"&.	c #848484",
(char *)"*.	c #D0D0D0",
(char *)"=.	c #0ACA0A",
(char *)"-.	c #00AE00",
(char *)";.	c #AAAAAA",
(char *)">.	c #7D7D7D",
(char *)",.	c #2A2A2A",
(char *)"'.	c #3D3D3D",
(char *)").	c #CFCFCF",
(char *)"!.	c #06E006",
(char *)"~.	c #00CF00",
(char *)"{.	c #838383",
(char *)"].	c #CECECE",
(char *)"^.	c #02F502",
(char *)"/.	c #00E300",
(char *)"(.	c #ABABAB",
(char *)"_.	c #7C7C7C",
(char *)":.	c #2B2B2B",
(char *)"<.	c #3C3C3C",
(char *)"[.	c #828282",
(char *)"}.	c #CDCDCD",
(char *)"|.	c #BCBCBC",
(char *)"1.	c #E4F0E4",
(char *)"2.	c #08FF08",
(char *)"3.	c #CCCCCC",
(char *)"4.	c #A2A2A2",
(char *)"5.	c #3B3B3B",
(char *)"6.	c #3A3A3A",
(char *)"7.	c #393939",
(char *)"8.	c #383838",
(char *)"9.	c #305330",
(char *)"0.	c #333F33",
(char *)"a.	c #353535",
(char *)"b.	c #343434",
(char *)"c.	c #333333",
(char *)"d.	c #323232",
(char *)"e.	c #303030",
(char *)"f.	c #2F2F2F",
(char *)"g.	c #525252",
(char *)"h.	c #2D2D2D",
(char *)"i.	c #2C2C2C",
(char *)"j.	c #5B5B5B",
(char *)"k.	c #5A5A5A",
(char *)"l.	c #CBCBCB",
(char *)"m.	c #003100",
(char *)"n.	c #001900",
(char *)"o.	c #7B7B7B",
(char *)"p.	c #808080",
(char *)"q.	c #CACACA",
(char *)"r.	c #003E00",
(char *)"s.	c #001F00",
(char *)"t.	c #ADADAD",
(char *)"u.	c #7A7A7A",
(char *)"v.	c #C9C9C9",
(char *)"w.	c #004A00",
(char *)"x.	c #002400",
(char *)"y.	c #C8C8C8",
(char *)"z.	c #005600",
(char *)"A.	c #002A00",
(char *)"B.	c #AEAEAE",
(char *)"C.	c #797979",
(char *)"D.	c #2E2E2E",
(char *)"E.	c #006200",
(char *)"F.	c #002F00",
(char *)"G.	c #006F00",
(char *)"H.	c #003400",
(char *)"I.	c #AFAFAF",
(char *)"J.	c #787878",
(char *)"K.	c #189318",
(char *)"L.	c #266026",
(char *)"M.	c #C0C0C0",
(char *)"N.	c #373737",
(char *)"O.	c #5D5D5D",
(char *)"P.	c #686868",
(char *)"Q.	c #696969",
(char *)"R.	c #75FC75",
(char *)"S.	c #B9F8B9",
(char *)"T.	c #009300",
(char *)"U.	c #004500",
(char *)"V.	c #B0B0B0",
(char *)"W.	c #777777",
(char *)"X.	c #00A000",
(char *)"Y.	c #00AC00",
(char *)"Z.	c #005000",
(char *)"`.	c #767676",
(char *)" +	c #313131",
(char *)".+	c #363636",
(char *)"++	c #00B800",
(char *)"@+	c #0CFF0C",
(char *)"#+	c #005500",
(char *)"$+	c #00C400",
(char *)"%+	c #1CFE1C",
(char *)"&+	c #005A00",
(char *)"*+	c #757575",
(char *)"=+	c #00D100",
(char *)"-+	c #2DFD2D",
(char *)";+	c #005F00",
(char *)">+	c #00DD00",
(char *)",+	c #3AFC3A",
(char *)"'+	c #006100",
(char *)")+	c #B3B3B3",
(char *)"!+	c #747474",
(char *)"~+	c #9F9F9F",
(char *)"{+	c #6A6A6A",
(char *)"]+	c #6B6B6B",
(char *)"^+	c #6C6C6C",
(char *)"/+	c #6D6D6D",
(char *)"(+	c #6E6E6E",
(char *)"_+	c #6F6F6F",
(char *)":+	c #0AF30A",
(char *)"<+	c #48FD48",
(char *)"[+	c #46A846",
(char *)"}+	c #727272",
(char *)"|+	c #737373",
(char *)"1+	c #B4B4B4",
(char *)"2+	c #BFBFBF",
(char *)"3+	c #BDBDBD",
(char *)"4+	c #BBBBBB",
(char *)"5+	c #B8B8B8",
(char *)"6+	c #06FC06",
(char *)"7+	c #57FE57",
(char *)"8+	c #6FD26F",
(char *)"9+	c #B5B5B5",
(char *)"0+	c #000300",
(char *)"a+	c #60FA60",
(char *)"b+	c #006400",
(char *)"c+	c #000F00",
(char *)"d+	c #6CF96C",
(char *)"e+	c #006500",
(char *)"f+	c #001B00",
(char *)"g+	c #79F879",
(char *)"h+	c #006700",
(char *)"i+	c #002700",
(char *)"j+	c #85F785",
(char *)"k+	c #006800",
(char *)"l+	c #B6B6B6",
(char *)"m+	c #717171",
(char *)"n+	c #002800",
(char *)"o+	c #92F692",
(char *)"p+	c #006900",
(char *)"q+	c #004100",
(char *)"r+	c #00FC00",
(char *)"s+	c #00F900",
(char *)"t+	c #003C00",
(char *)"u+	c #004000",
(char *)"v+	c #9EF59E",
(char *)"w+	c #006A00",
(char *)"x+	c #B7B7B7",
(char *)"y+	c #707070",
(char *)"z+	c #00CC00",
(char *)"A+	c #00C700",
(char *)"B+	c #004C00",
(char *)"C+	c #ABF4AB",
(char *)"D+	c #006B00",
(char *)"E+	c #6A786A",
(char *)"F+	c #00FD00",
(char *)"G+	c #002900",
(char *)"H+	c #A5A5A5",
(char *)"I+	c #72CB72",
(char *)"J+	c #BFFBBF",
(char *)"K+	c #66D266",
(char *)"L+	c #A2E0A2",
(char *)"M+	c #69D769",
(char *)"N+	c #48AD48",
(char *)"O+	c #C9F8C9",
(char *)"P+	c #43B143",
(char *)"Q+	c #6ECD6E",
(char *)"R+	c #04FA04",
(char *)"S+	c #21D421",
(char *)"T+	c #007300",
(char *)"U+	c #D1F1D1",
(char *)"V+	c #38B638",
(char *)"W+	c #00FE00",
(char *)"X+	c #00A500",
(char *)"Y+	c #00F300",
(char *)"Z+	c #373B37",
(char *)"`+	c #000D00",
(char *)" @	c #008F00",
(char *)".@	c #02F702",
(char *)"+@	c #E2EFE2",
(char *)"@@	c #2AC72A",
(char *)"#@	c #00E700",
(char *)"$@	c #2B6B2B",
(char *)"%@	c #007F00",
(char *)"&@	c #09E009",
(char *)"*@	c #EBEEEB",
(char *)"=@	c #007B00",
(char *)"-@	c #1CD91C",
(char *)";@	c #00C900",
(char *)">@	c #001200",
(char *)",@	c #19A819",
(char *)"'@	c #00D700",
(char *)")@	c #008400",
(char *)"!@	c #001000",
(char *)"~@	c #00CA00",
(char *)"{@	c #10C810",
(char *)"]@	c #00FA00",
(char *)"^@	c #0DEE0D",
(char *)"/@	c #00AB00",
(char *)"(@	c #00C000",
(char *)"_@	c #08E508",
(char *)":@	c #003200",
(char *)"<@	c #00E500",
(char *)"[@	c #00EE00",
(char *)"}@	c #007200",
(char *)"|@	c #17B017",
(char *)"1@	c #00F000",
(char *)"2@	c #008D00",
(char *)"3@	c #000600",
(char *)"4@	c #007600",
(char *)"5@	c #005E00",
(char *)"6@	c #67D967",
(char *)"7@	c #C4F0C4",
(char *)"8@	c #005800",
(char *)"9@	c #00AA00",
(char *)"0@	c #004900",
(char *)"a@	c #00A400",
(char *)"b@	c #1F991F",
(char *)"c@	c #00E600",
(char *)"d@	c #00DC00",
(char *)"e@	c #00F400",
(char *)"f@	c #001100",
(char *)"g@	c #005100",
(char *)"h@	c #7BF57B",
(char *)"i@	c #000400",
(char *)"j@	c #00E900",
(char *)"k@	c #00BA00",
(char *)"l@	c #00F500",
(char *)"m@	c #268126",
(char *)"n@	c #00F800",
(char *)"o@	c #00A300",
(char *)"p@	c #00D500",
(char *)"q@	c #002200",
(char *)"r@	c #00D600",
(char *)"s@	c #2BFB2B",
(char *)"t@	c #000800",
(char *)"u@	c #A6EEA6",
(char *)"v@	c #80F480",
(char *)"w@	c #D9ECD9",
(char *)"x@	c #16FD16",
(char *)"y@	c #0CFE0C",
(char *)"z@	c #A5F3A5",
(char *)"A@	c #CCEFCC",
(char *)"B@	c #55F955",
(char *)"C@	c #01FF01",
(char *)"D@	c #BAF7BA",
(char *)"E@	c #29FC29",
(char *)"F@	c #0FFE0F",
(char *)"G@	c #88F888",
(char *)"H@	c #47FB47",
(char *)"I@	c #4FFC4F",
(char *)"J@	c #4DFD4D",
(char *)"K@	c #F9FAF9",
(char *)"L@	c #DDFBDD",
(char *)"M@	c #D6FCD6",
(char *)"N@	c #839783",
(char *)"O@	c #0CDA0C",
(char *)"P@	c #05F005",
(char *)"Q@	c #384D38",
(char *)"R@	c #1E9F1E",
(char *)"S@	c #277D27",
(char *)"T@	c #228722",
(char *)"U@	c #04F104",
(char *)"V@	c #607060",
(char *)"W@	c #0DD20D",
(char *)"X@	c #04F204",
(char *)"Y@	c #2F4B2F",
(char *)"Z@	c #343534",
(char *)"`@	c #266D26",
(char *)" #	c #0EC90E",
(char *)".#	c #189C18",
(char *)"+#	c #A7D2A7",
(char *)"@#	c #66A566",
(char *)"##	c #2F332F",
(char *)"$#	c #2C3C2C",
(char *)"%#	c #13DF13",
(char *)"&#	c #10B710",
(char *)"*#	c #01FD01",
(char *)"=#	c #01FA01",
(char *)"-#	c #215C21",
(char *)";#	c #4E4E4E",
(char *)">#	c #4C4C4C",
(char *)",#	c #37C937",
(char *)"'#	c #009400",
(char *)")#	c #002600",
(char *)"!#	c #008700",
(char *)"~#	c #001A00",
(char *)"{#	c #001400",
(char *)"]#	c #005200",
(char *)"^#	c #00CD00",
(char *)"/#	c #004E00",
(char *)"(#	c #000200",
(char *)"_#	c #003F00",
(char *)":#	c #394839",
(char *)"<#	c #23FC23",
(char *)"[#	c #BFFDBF",
(char *)"}#	c #264026",
(char *)"|#	c #000500",
(char *)"1#	c #669966",
(char *)"2#	c #00B400",
(char *)"3#	c #C9EDC9",
(char *)"4#	c #00D000",
(char *)"5#	c #00E000",
(char *)"6#	c #FDFEFD",
(char *)"7#	c #003700",
(char *)"8#	c #000100",
(char *)"9#	c #00A800",
(char *)"0#	c #FEFFFE",
(char *)"a#	c #295B29",
(char *)"b#	c #B1FEB1",
(char *)"c#	c #0DBB0D",
(char *)"d#	c #00DA00",
(char *)"e#	c #00A100",
(char *)"f#	c #00F700",
(char *)"g#	c #29EC29",
(char *)"h#	c #008900",
(char *)"i#	c #609B60",
(char *)"j#	c #29FF29",
(char *)"k#	c #45B845",
(char *)"l#	c #28E728",
(char *)"m#	c #45B745",
(char *)". . . . . . . . . . . . . + @ # # $ % % & * = = - ; ; > , ' ' ) ! ! ~ { { ] ^ / / ( _ _ : < [ [ } | | 1 2 2 3 4 4 5 6 7 7 8 9 9 ",
(char *)". . . . . . . . . . . + @ @ # $ $ % & & * = - - ; > > , ' ) ) ! ~ ~ { ] ^ ^ / / ( _ : < < [ [ } | 1 1 2 3 3 4 5 6 6 7 8 8 9 0 a ",
(char *)". . . . . . . . . . + @ # # $ % % & * = = - ; ; > , ' ' ) ! ! ~ { { ] ^ ^ / ( _ _ : < < [ } | | 1 2 2 3 4 4 5 6 7 7 8 9 9 0 a b ",
(char *)". . . . . . . . + @ @ # $ $ % & & * = - - ; > > , ' ) ) ! ~ ~ { ] ] ^ / / ( _ : : < [ [ } | 1 1 2 3 3 4 5 6 6 7 8 8 9 0 a a b b ",
(char *)". . . . . . . + @ # # $ % % & * = = - ; ; > , ' ' ) ) ! ~ { { ] ^ ^ / ( _ _ : < < [ } | | 1 2 2 3 4 4 5 6 7 7 8 9 9 0 a a b c d ",
(char *)". . . . . 0 e e f f f g h h h i i j j k k k l f m n o o p p p q q q r s t u v w w w x o y z A A A B C o D E E F q G H b b c d I ",
(char *)". . . . + e J J J J J J J J J J J J J J J J J K . J J J J J J J J J J J L M J J J J J K . J J J J J : N J J J : N J O c d d I P ",
(char *)". . + + @ f J J J J J J J J J J J J J J J J J K . J J J J J J J J J J J L M J J J J J K . J J J J J : N J J J : N J Q d I I P R ",
(char *)". + @ @ # f J J J J J J J J J J J J J J J J J S T U J J J J J J J J J J V W J J J J J S + J J J J J _ X J J J _ X J Y I I P R Z ",
(char *)"+ @ # # $ g J J J J J J J J J J J J J J J J J `  ...+.J J J J J J J J J V W J J J J J S + J J J J J _ X J J J _ X J Y P R R Z @.",
(char *)"@ # $ % % h J J J J J J J J J J J J J J J J J #.$.$.%.J J J J J J J J J V W J J J J J S + J J J J J _ X J J J _ X J &.R Z Z @.*.",
(char *)"# $ % & & h J J J J J J J J J J J J J J J J J =.$.$.-.J J J J J J J J J ;.>.J J J J J ,.@ J J J J J ( '.J J J ( '.J &.Z @.@.*.).",
(char *)"% % & & * i J J J J J J J J J J J J J J J J J !.$.$.~.J J J J J J J J J ;.>.J J J J J ,.@ J J J J J ( '.J J J ( '.J {.@.*.*.).].",
(char *)"% & * = = j J J J J J J J J J J J J J J J J J ^.$.$./.J J J J J J J J J (._.J J J J J :.# J J J J J / <.J J J / <.J [.*.).].].}.",
(char *)"& * = - - |.: : _ _ _ ( ( / / ^ ^ ] ] { { ~ 1.$.$.$.2.) ' ' , , > > ; ; # % = = = * * % . % % $ $ # . @ @ + + . . . F ).].}.}.3.",
(char *)"= = - ; ; 4.N N X X X '.'.<.<.5.5.6.6.7.7.8.9.$.$.$.$.0.a.a.b.b.c.c.d.d.|.p e.e.e.f.f.g.# h.h.i.i.:.~ j.,.S S ~ k.K G ].}.}.3.l.",
(char *)"- - ; > > k J J J J J J J J J J J J J J J J m.$.$.$.$.n.J J J J J J J J t o.J J J J J i.$ J J J J J ^ 5.J J J ^ 5.J p.}.3.l.l.q.",
(char *)"; ; > , ' l J J J J J J J J J J J J J J J J r.$.$.$.$.s.J J J J J J J J t.u.J J J J J h.% J J J J J ] 6.J J J ] 6.J p.3.l.q.q.v.",
(char *)"> > , ' ' n J J J J J J J J J J J J J J J J w.$.$.$.$.x.J J J J J J J J t.u.J J J J J h.% J J J J J ] 6.J J J ] 6.J M l.q.v.v.y.",
(char *)", , ' ) ) n J J J J J J J J J J J J J J J J z.$.$.$.$.A.J J J J J J J J B.C.J J J J J D.& J J J J J { 7.J J J { 7.J W q.v.y.y.y.",
(char *)"' ' ) ! ~ o J J J J J J J J J J J J J J J J E.$.$.$.$.F.J J J J J J J J B.C.J J J J J D.& J J J J J { 7.J J J { 7.J W v.y.y.y.y.",
(char *)") ) ! ~ { p J J J J J J J J J J J J J J J J G.$.$.$.$.H.J J J J J J J J I.J.J J J J J f.* J J J J J ~ 8.J J J ~ 8.J >.y.y.y.y.y.",
(char *)"! ~ ~ { ] i K K S S S ,.,.:.:.i.i.h.h.D.D.f.K.$.$.$.$.L.d.d.c.c.b.b.a.a.M.o N.N.N.8.8.O.% 6.6.5.5.<., P.'.X X , Q.N E y.y.y.y.y.",
(char *)"~ { { ] ^ |.. . + + + @ @ # # $ $ % % & & * R.$.$.$.$.S.; ; > > , , ' ' $ * ! ! ! ~ ~ ) + ] ] ^ ^ / + ~ ( _ _ + ] : V y.y.y.y.y.",
(char *)"{ { ] ^ / q J J J J J J J J J J J J J J J J T.$.$.$.$.U.J J J J J J J J V.W.J J J J J e.= J J J J J ! N.J J J ! N.J >.y.y.y.y.y.",
(char *)"] ^ ^ / ( r J J J J J J J J J J J J J J J J X.$.$.$.$.w.J J J J J J J J V.W.J J J J J e.= J J J J J ! N.J J J ! N.J >.y.y.y.y.y.",
(char *)"^ / / ( _ s J J J J J J J J J J J J J J J J Y.$.$.$.$.Z.J J J J J J J J F `.J J J J J  +- J J J J J ) .+J J J ) .+J >.y.y.y.y.y.",
(char *)"/ / ( _ : v J J J J J J J J J J J J J J J J ++$.@+$.$.#+J J J J J J J J F `.J J J J J  +- J J J J J ) .+J J J ) .+J >.y.y.y.y.y.",
(char *)"( _ _ : < v J J J J J J J J J J J J J J J J $+$.%+$.$.&+J J J J J J J J C *+J J J J J d.; J J J J J ' a.J J J ' a.J >.y.y.y.y.y.",
(char *)"_ : : < [ w J J J J J J J J J J J J J J J J =+$.-+$.$.;+J J J J J J J J C *+J J J J J d.; J J J J J ' a.J J J ' a.J >.y.y.y.y.y.",
(char *)": < < [ } x J J J J J J J J J J J J J J J J >+$.,+$.$.'+J J J J J J J J )+!+J J J J J c.> J J J J J , b.J J J , b.J >.y.y.y.y.y.",
(char *)"< [ [ } | ~+P.P.Q.Q.Q.{+{+]+]+^+^+/+/+(+(+_+:+$.<+$.$.[+}+}+|+|+!+!+*+*+d 1+W.W.W.J.J.p & u.u.o.o._.& k >.W W & j M o y.y.y.y.y.",
(char *)"[ } | | 1 t.2+2+m m m 3+3+|.|.4+4+H H y y 5+6+$.7+$.$.8+9+9+1+1+)+)+C C : P V.V.V.I.I.2+$ t.t.t t (.$ 4+;.V V $ y L f y.y.y.y.y.",
(char *)"} | 1 1 2 A J J J J J J J J J J J J J J J 0+$.$.a+$.$.b+J J J J J J J J 1+|+J J J J J b., J J J J J > c.J J J > c.J >.y.y.y.y.y.",
(char *)"| 1 1 2 3 A J J J J J J J J J J J J J J J c+$.$.d+$.$.e+J J J J J J J J 9+}+J J J J J a.' J J J J J ; d.J J J ; d.J >.y.y.y.y.y.",
(char *)"1 2 3 3 4 B J J J J J J J J J J J J J J J f+$.$.g+$.$.h+J J J J J J J J 9+}+J J J J J a.' J J J J J ; d.J J J ; d.J >.y.y.y.y.y.",
(char *)"2 3 4 4 5 D J J J J J J J J J J J J J J J i+$.$.j+$.$.k+J J J J J J J J l+m+J s.n+J J .+) J J J J J -  +J J J -  +J >.y.y.y.y.y.",
(char *)"3 4 5 5 6 D J J J J J J J J J J J J J J J H.$.$.o+$.$.p+J J J J J J J J l+m+q+r+s+t+J .+) J J J J J -  +J J J -  +J >.y.y.y.y.y.",
(char *)"4 5 6 6 7 E J J J J J J J J J J J J J J J u+$.$.v+$.$.w+J J J J J J J J x+y+z+$.$.A+J N.! J J J J J = e.J J J = e.J >.y.y.y.y.y.",
(char *)"5 6 7 8 8 E J J J J J J J J J J J J J J J B+$.$.C+$.$.D+J J J J J J J J x+E+F+$.$.$.G+N.! J J J J J = e.J J J = e.J >.y.y.y.y.y.",
(char *)"6 7 8 8 9 H+L L V V V ;.;.(.(.t t t.t.B.B.I+$.$.J+$.$.K+C C )+)+1+1+9+9+( L+$.$.$.$.M+y.$ H H 4+4+|.@ v.3+m m @ l.2+4.y.y.y.y.y.",
(char *)"7 8 9 9 0 e M M W W W >.>._._.o.o.u.u.C.C.N+$.$.O+$.$.P+*+*+!+!+|+|+}+}+c Q+$.$.R+$.S+x - /+/+^+^+]+$ Y {+Q.Q.$ &.P.s y.y.y.y.y.",
(char *)"8 9 0 a a O J J J J J J J J J J J J J J J T+$.$.U+$.$.G.J J J J J J J J 5+V+$.W+X+$.Y+Z+~ J J J J J * f.J J J * f.J >.y.y.y.y.y.",
(char *)"9 0 a a b Q J J J J `+T.'+J J J J J J J J  @$..@+@$.$.T+J J J J J J J J y @@$.#@&+$.$.$@{ J J J J J & D.J J J & D.J >.y.y.y.y.y.",
(char *)"0 a b b c Y J J J J %@$.$.n+J J J J J J J Y.$.&@*@$.$.=@J J J J J J J J y -@$.;@>@r+$.,@{ J J J J J & D.J J J & D.J >.y.y.y.y.y.",
(char *)"a b c d d Y J J J J '@$.$.)@J J J !@n+J J ~@$.{@] ]@$.)@J J J J J J J J H ^@$./@J (@$._@] J J J J J % h.J J J % h.J >.y.y.y.y.y.",
(char *)"b c d I I &.J J `+:@$.$.$.<@c+J H.[@W+}@J #@$.|@] 1@$.2@3@4@z+5@J J J n.6@$.$.%@J }@$.$.7@J J J J J % h.J J J % h.J >.y.y.y.y.y.",
(char *)"d d I P P &.J 8@]@Y+$.$.$.$.9@0@1@$.$.F+a@W+$.b@^ c@$.A+d@$.$.e@f@J J Y.$.$.$.g@J x.$.$.h@J J J J J $ i.J J J $ i.J >.y.y.y.y.y.",
(char *)"I I P R R {.i@j@$.$.$.;@k@$.$.$.$.r+l@$.$.$.$.m@^ >+$.$.$.$.$.$.n@o@p@$.$.$.$.q@J J r@$.s@t@J J J J $ i.J J J $ i.J >.y.y.y.y.y.",
(char *)"I P R Z Z t.u@$.$.$.$.v@w@x@$.$.y@z@A@B@C@$.$.D@+ E@$.$.F@G@H@$.$.$.$.$.$.$.I@= = * R.$.$.J@K@L@M@# . @ @ + + . . . B.y.y.y.y.y.",
(char *)"R R Z @.@.N@O@$.$.$.P@Q@'.R@$.$.S@6.6.7.T@F+U@V@~ W@$.X@Y@a.Z@`@ #$.W+.#+#@###e.e.f.$#%#$.$.&#*#=#-#@ ;#,.S S # >#K Y y.y.y.y.y.",
(char *)"Z Z @.*.*.,#$.$.'#5@)#J J 3@!#e+J J J J J ~#{#'.( ]#^#/#J J J J (#w._#J 3+{+J J J J J :#<#$.$.$.$.=+[#}#J |#J @ ,.J >.y.y.y.y.y.",
(char *)"@.@.*.).].1#$.2#0+J J J J J J J J J J J J J J '.( J J J J J J J J J J J 3+{+J J J J J '.3#4#$.$.$.$.$.W+4#F+5#6#,.J >.y.y.y.y.y.",
(char *)"*.*.).].}.p.7#8#J J J J J J J J J J J J J J J X _ J J J J J J J J J J J m Q.J J J J J X _ |#B+B+9#F+$.$.$.$.$.0#a#J >.y.y.y.y.y.",
(char *)").].].}.}.M J J J J J J J J J J J J J J J J J X _ J J J J J J J J J J J m Q.J J J J J X _ J J J J n.b#c#d#e#f#0#g#h#i#y.y.y.y.y.",
(char *)"].].}.3.l.M J J J J J J J J J J J J J J J J J X _ J J J J J J J J J J J m Q.J J J J J X _ J J J J J + S J J k+0#j#$.k#y.y.y.y.y.",
(char *)"}.}.3.l.q.W J J J J J J J J J J J J J J J J J N : J J J J J J J J J J J 2+P.J J J J J N : J J J J J . K J J J . l#n@m#y.y.y.y.y.",
(char *)"3.l.l.q.v.>.J J J J J J J J J J J J J J J J J N : J J J J J J J J J J J 2+P.J J J J J N : J J J J J . K J J J . K J >.y.y.y.y.y.",
(char *)"l.q.q.v.y.t >.>.>.>.>.>.>.>.>.>.>.>.>.>.>.>.>.E V >.>.>.>.>.>.>.>.>.>.>.4.s >.>.>.>.>.E V >.>.>.>.>.B.Y >.>.>.B.Y >.t y.y.y.y.y.",
(char *)"q.v.v.y.y.y.y.y.y.y.y.y.y.y.y.y.y.y.y.y.y.y.y.y.y.y.y.y.y.y.y.y.y.y.y.y.y.y.y.y.y.y.y.y.y.y.y.y.y.y.y.y.y.y.y.y.y.y.y.y.y.y.y.y.",
(char *)"v.y.y.y.y.y.y.y.y.y.y.y.y.y.y.y.y.y.y.y.y.y.y.y.y.y.y.y.y.y.y.y.y.y.y.y.y.y.y.y.y.y.y.y.y.y.y.y.y.y.y.y.y.y.y.y.y.y.y.y.y.y.y.y.",
(char *)"y.y.y.y.y.y.y.y.y.y.y.y.y.y.y.y.y.y.y.y.y.y.y.y.y.y.y.y.y.y.y.y.y.y.y.y.y.y.y.y.y.y.y.y.y.y.y.y.y.y.y.y.y.y.y.y.y.y.y.y.y.y.y.y.",
(char *)"y.y.y.y.y.y.y.y.y.y.y.y.y.y.y.y.y.y.y.y.y.y.y.y.y.y.y.y.y.y.y.y.y.y.y.y.y.y.y.y.y.y.y.y.y.y.y.y.y.y.y.y.y.y.y.y.y.y.y.y.y.y.y.y.",
(char *)"y.y.y.y.y.y.y.y.y.y.y.y.y.y.y.y.y.y.y.y.y.y.y.y.y.y.y.y.y.y.y.y.y.y.y.y.y.y.y.y.y.y.y.y.y.y.y.y.y.y.y.y.y.y.y.y.y.y.y.y.y.y.y.y."};
