/* XPM */
/* $Id: ana_scope_064.xpm 1012 2012-11-02 01:07:33Z  $ */
static char * ana_scope_064_xpm[] = {
(char *)"64 64 399 2",
(char *)"  	c None",
(char *)". 	c #FFFFFF",
(char *)"+ 	c #FEFEFE",
(char *)"@ 	c #FDFDFD",
(char *)"# 	c #FCFCFC",
(char *)"$ 	c #FBFBFB",
(char *)"% 	c #FAFAFA",
(char *)"& 	c #F9F9F9",
(char *)"* 	c #F8F8F8",
(char *)"= 	c #F7F7F7",
(char *)"- 	c #F6F6F6",
(char *)"; 	c #F5F5F5",
(char *)"> 	c #F4F4F4",
(char *)", 	c #F3F3F3",
(char *)"' 	c #F2F2F2",
(char *)") 	c #F1F1F1",
(char *)"! 	c #F0F0F0",
(char *)"~ 	c #EFEFEF",
(char *)"{ 	c #EEEEEE",
(char *)"] 	c #EDEDED",
(char *)"^ 	c #ECECEC",
(char *)"/ 	c #EBEBEB",
(char *)"( 	c #EAEAEA",
(char *)"_ 	c #E9E9E9",
(char *)": 	c #E8E8E8",
(char *)"< 	c #E7E7E7",
(char *)"[ 	c #E6E6E6",
(char *)"} 	c #E5E5E5",
(char *)"| 	c #E4E4E4",
(char *)"1 	c #E3E3E3",
(char *)"2 	c #E2E2E2",
(char *)"3 	c #E1E1E1",
(char *)"4 	c #E0E0E0",
(char *)"5 	c #DFDFDF",
(char *)"6 	c #DEDEDE",
(char *)"7 	c #DDDDDD",
(char *)"8 	c #DCDCDC",
(char *)"9 	c #DBDBDB",
(char *)"0 	c #DADADA",
(char *)"a 	c #D9D9D9",
(char *)"b 	c #D8D8D8",
(char *)"c 	c #D7D7D7",
(char *)"d 	c #D6D6D6",
(char *)"e 	c #9E9E9E",
(char *)"f 	c #9D9D9D",
(char *)"g 	c #9C9C9C",
(char *)"h 	c #9B9B9B",
(char *)"i 	c #A1A1A1",
(char *)"j 	c #C1C1C1",
(char *)"k 	c #9A9A9A",
(char *)"l 	c #999999",
(char *)"m 	c #989898",
(char *)"n 	c #A7A7A7",
(char *)"o 	c #B4B4B4",
(char *)"p 	c #969696",
(char *)"q 	c #959595",
(char *)"r 	c #949494",
(char *)"s 	c #AEAEAE",
(char *)"t 	c #939393",
(char *)"u 	c #929292",
(char *)"v 	c #919191",
(char *)"w 	c #909090",
(char *)"x 	c #8F8F8F",
(char *)"y 	c #B5B5B5",
(char *)"z 	c #8E8E8E",
(char *)"A 	c #8D8D8D",
(char *)"B 	c #8C8C8C",
(char *)"C 	c #B7B7B7",
(char *)"D 	c #8A8A8A",
(char *)"E 	c #898989",
(char *)"F 	c #888888",
(char *)"G 	c #BABABA",
(char *)"H 	c #D5D5D5",
(char *)"I 	c #000000",
(char *)"J 	c #282828",
(char *)"K 	c #686868",
(char *)"L 	c #BFBFBF",
(char *)"M 	c #A8A8A8",
(char *)"N 	c #7F7F7F",
(char *)"O 	c #3F3F3F",
(char *)"P 	c #878787",
(char *)"Q 	c #D4D4D4",
(char *)"R 	c #868686",
(char *)"S 	c #D3D3D3",
(char *)"T 	c #292929",
(char *)"U 	c #696969",
(char *)"V 	c #BEBEBE",
(char *)"W 	c #A9A9A9",
(char *)"X 	c #7E7E7E",
(char *)"Y 	c #3E3E3E",
(char *)"Z 	c #858585",
(char *)"` 	c #D2D2D2",
(char *)" .	c #000900",
(char *)"..	c #006000",
(char *)"+.	c #008500",
(char *)"@.	c #006500",
(char *)"#.	c #002000",
(char *)"$.	c #D1D1D1",
(char *)"%.	c #005100",
(char *)"&.	c #00ED00",
(char *)"*.	c #00FF00",
(char *)"=.	c #00F800",
(char *)"-.	c #499649",
(char *)";.	c #848484",
(char *)">.	c #D0D0D0",
(char *)",.	c #2A2A2A",
(char *)"'.	c #003300",
(char *)").	c #00F700",
(char *)"!.	c #00FE00",
(char *)"~.	c #02FC02",
(char *)"{.	c #8ACF8A",
(char *)"].	c #AAAAAA",
(char *)"^.	c #7D7D7D",
(char *)"/.	c #3D3D3D",
(char *)"(.	c #CFCFCF",
(char *)"_.	c #F9FDF9",
(char *)":.	c #00D800",
(char *)"<.	c #00FC00",
(char *)"[.	c #005F00",
(char *)"}.	c #000700",
(char *)"|.	c #16F716",
(char *)"1.	c #000C00",
(char *)"2.	c #838383",
(char *)"3.	c #CECECE",
(char *)"4.	c #2B2B2B",
(char *)"5.	c #95FD95",
(char *)"6.	c #007800",
(char *)"7.	c #006400",
(char *)"8.	c #008F00",
(char *)"9.	c #ABABAB",
(char *)"0.	c #7C7C7C",
(char *)"a.	c #3C3C3C",
(char *)"b.	c #828282",
(char *)"c.	c #CDCDCD",
(char *)"d.	c #BCBCBC",
(char *)"e.	c #E4EFE4",
(char *)"f.	c #18FF18",
(char *)"g.	c #20FC20",
(char *)"h.	c #E8EDE8",
(char *)"i.	c #EEEFEE",
(char *)"j.	c #3CFD3C",
(char *)"k.	c #03FF03",
(char *)"l.	c #BFF3BF",
(char *)"m.	c #B1B1B1",
(char *)"n.	c #CCCCCC",
(char *)"o.	c #A2A2A2",
(char *)"p.	c #30AC30",
(char *)"q.	c #267F26",
(char *)"r.	c #3A3A3A",
(char *)"s.	c #393939",
(char *)"t.	c #383838",
(char *)"u.	c #769E76",
(char *)"v.	c #05FE05",
(char *)"w.	c #0CD20C",
(char *)"x.	c #363636",
(char *)"y.	c #353535",
(char *)"z.	c #343434",
(char *)"A.	c #BDBDBD",
(char *)"B.	c #333333",
(char *)"C.	c #323232",
(char *)"D.	c #313131",
(char *)"E.	c #303030",
(char *)"F.	c #5F5F5F",
(char *)"G.	c #2F2F2F",
(char *)"H.	c #2E2E2E",
(char *)"I.	c #2D2D2D",
(char *)"J.	c #2C2C2C",
(char *)"K.	c #505050",
(char *)"L.	c #CBCBCB",
(char *)"M.	c #001300",
(char *)"N.	c #02F402",
(char *)"O.	c #00D000",
(char *)"P.	c #000100",
(char *)"Q.	c #6C6C6C",
(char *)"R.	c #5ADE5A",
(char *)"S.	c #004000",
(char *)"T.	c #ACACAC",
(char *)"U.	c #7B7B7B",
(char *)"V.	c #3B3B3B",
(char *)"W.	c #808080",
(char *)"X.	c #CACACA",
(char *)"Y.	c #979797",
(char *)"Z.	c #007600",
(char *)"`.	c #004800",
(char *)" +	c #6D6D6D",
(char *)".+	c #ADBFAD",
(char *)"++	c #00F400",
(char *)"@+	c #00B900",
(char *)"#+	c #ADADAD",
(char *)"$+	c #7A7A7A",
(char *)"%+	c #C9C9C9",
(char *)"&+	c #000200",
(char *)"*+	c #00DE00",
(char *)"=+	c #2EFE2E",
(char *)"-+	c #009000",
(char *)";+	c #003200",
(char *)">+	c #C8C8C8",
(char *)",+	c #004B00",
(char *)"'+	c #94FB94",
(char *)")+	c #6E6E6E",
(char *)"!+	c #B9B9B9",
(char *)"~+	c #001D00",
(char *)"{+	c #00FA00",
(char *)"]+	c #00A400",
(char *)"^+	c #797979",
(char *)"/+	c #00B500",
(char *)"(+	c #03F403",
(char *)"_+	c #EDF9ED",
(char *)":+	c #00A700",
(char *)"<+	c #00F600",
(char *)"[+	c #000F00",
(char *)"}+	c #001E00",
(char *)"|+	c #00FD00",
(char *)"1+	c #14A814",
(char *)"2+	c #6F6F6F",
(char *)"3+	c #B8B8B8",
(char *)"4+	c #004600",
(char *)"5+	c #006600",
(char *)"6+	c #AFAFAF",
(char *)"7+	c #787878",
(char *)"8+	c #168D16",
(char *)"9+	c #437343",
(char *)"0+	c #C5C5C5",
(char *)"a+	c #303230",
(char *)"b+	c #05E905",
(char *)"c+	c #0BD10B",
(char *)"d+	c #373737",
(char *)"e+	c #646464",
(char *)"f+	c #2DFF2D",
(char *)"g+	c #2AFF2A",
(char *)"h+	c #74FB74",
(char *)"i+	c #D0F6D0",
(char *)"j+	c #002D00",
(char *)"k+	c #007B00",
(char *)"l+	c #707070",
(char *)"m+	c #002800",
(char *)"n+	c #008600",
(char *)"o+	c #B0B0B0",
(char *)"p+	c #777777",
(char *)"q+	c #008800",
(char *)"r+	c #002100",
(char *)"s+	c #00C800",
(char *)"t+	c #00E400",
(char *)"u+	c #00E100",
(char *)"v+	c #00C500",
(char *)"w+	c #717171",
(char *)"x+	c #B6B6B6",
(char *)"y+	c #006900",
(char *)"z+	c #767676",
(char *)"A+	c #003D00",
(char *)"B+	c #006B00",
(char *)"C+	c #001100",
(char *)"D+	c #000B00",
(char *)"E+	c #009800",
(char *)"F+	c #00FB00",
(char *)"G+	c #001400",
(char *)"H+	c #727272",
(char *)"I+	c #00A800",
(char *)"J+	c #00F100",
(char *)"K+	c #ADB4AD",
(char *)"L+	c #757575",
(char *)"M+	c #003400",
(char *)"N+	c #00EC00",
(char *)"O+	c #629962",
(char *)"P+	c #000600",
(char *)"Q+	c #004E00",
(char *)"R+	c #7ACA7A",
(char *)"S+	c #00D400",
(char *)"T+	c #29D429",
(char *)"U+	c #005B00",
(char *)"V+	c #737373",
(char *)"W+	c #3EE53E",
(char *)"X+	c #747474",
(char *)"Y+	c #003E00",
(char *)"Z+	c #3EBF3E",
(char *)"`+	c #9F9F9F",
(char *)" @	c #26C826",
(char *)".@	c #05F805",
(char *)"+@	c #656E65",
(char *)"@@	c #6A6A6A",
(char *)"#@	c #2ACB2A",
(char *)"$@	c #09FD09",
(char *)"%@	c #ACB6AC",
(char *)"&@	c #2DD02D",
(char *)"*@	c #03FB03",
(char *)"=@	c #8A9D8A",
(char *)"-@	c #BAC1BA",
(char *)";@	c #0AFB0A",
(char *)">@	c #42E942",
(char *)",@	c #BBBBBB",
(char *)"'@	c #80CB80",
(char *)")@	c #8EE38E",
(char *)"!@	c #B3B3B3",
(char *)"~@	c #B2B2B2",
(char *)"{@	c #9EAE9E",
(char *)"]@	c #05FC05",
(char *)"^@	c #3AE13A",
(char *)"/@	c #005200",
(char *)"(@	c #000500",
(char *)"_@	c #00EE00",
(char *)":@	c #25D125",
(char *)"<@	c #006C00",
(char *)"[@	c #004300",
(char *)"}@	c #42C942",
(char *)"|@	c #00DF00",
(char *)"1@	c #009E00",
(char *)"2@	c #04FA04",
(char *)"3@	c #00D100",
(char *)"4@	c #00DC00",
(char *)"5@	c #5EB05E",
(char *)"6@	c #004700",
(char *)"7@	c #005A00",
(char *)"8@	c #003600",
(char *)"9@	c #007900",
(char *)"0@	c #868D86",
(char *)"a@	c #007E00",
(char *)"b@	c #000400",
(char *)"c@	c #0EFA0E",
(char *)"d@	c #00B100",
(char *)"e@	c #009B00",
(char *)"f@	c #001800",
(char *)"g@	c #48E248",
(char *)"h@	c #00F300",
(char *)"i@	c #00AF00",
(char *)"j@	c #86CA86",
(char *)"k@	c #005E00",
(char *)"l@	c #004A00",
(char *)"m@	c #B5B8B5",
(char *)"n@	c #09F309",
(char *)"o@	c #00BA00",
(char *)"p@	c #00CA00",
(char *)"q@	c #00E200",
(char *)"r@	c #A5A5A5",
(char *)"s@	c #5DED5D",
(char *)"t@	c #01FF01",
(char *)"u@	c #9CBF9C",
(char *)"v@	c #9AC99A",
(char *)"w@	c #5EDF5E",
(char *)"x@	c #94BC94",
(char *)"y@	c #35BE35",
(char *)"z@	c #6B6B6B",
(char *)"A@	c #2DC02D",
(char *)"B@	c #01FE01",
(char *)"C@	c #5D7B5D",
(char *)"D@	c #00BF00",
(char *)"E@	c #00EA00",
(char *)"F@	c #00EF00",
(char *)"G@	c #00B700",
(char *)"H@	c #005600",
(char *)"I@	c #005900",
(char *)"J@	c #006E00",
(char *)"K@	c #00E800",
(char *)"L@	c #00C200",
(char *)"M@	c #E5EFE5",
(char *)"N@	c #00DA00",
(char *)"O@	c #000300",
(char *)"P@	c #008400",
(char *)"Q@	c #7FF57F",
(char *)"R@	c #005C00",
(char *)"S@	c #00F200",
(char *)"T@	c #00CC00",
(char *)"U@	c #374537",
(char *)"V@	c #12FE12",
(char *)"W@	c #00D600",
(char *)"X@	c #007D00",
(char *)"Y@	c #1E9D1E",
(char *)"Z@	c #00DD00",
(char *)"`@	c #8FFA8F",
(char *)" #	c #8CFA8C",
(char *)".#	c #F9FAF9",
(char *)"+#	c #46FE46",
(char *)"@#	c #B0FDB0",
(char *)"##	c #303530",
(char *)"$#	c #07E407",
(char *)"%#	c #02F702",
(char *)"&#	c #C0FDC0",
(char *)"*#	c #525252",
(char *)"=#	c #188D18",
(char *)"-#	c #5AF95A",
(char *)";#	c #818181",
(char *)">#	c #004900",
(char *)",#	c #0DFF0D",
(char *)"'#	c #215721",
(char *)")#	c #007F00",
(char *)"!#	c #09E409",
(char *)"~#	c #DFEBDF",
(char *)"{#	c #03F103",
(char *)"]#	c #005400",
(char *)"^#	c #00AB00",
(char *)"/#	c #316231",
(char *)"(#	c #006200",
(char *)"_#	c #002500",
(char *)":#	c #A5FEA5",
(char *)"<#	c #06DE06",
(char *)"[#	c #00B000",
(char *)"}#	c #001200",
(char *)"|#	c #002E00",
(char *)"1#	c #003A00",
(char *)"2#	c #000A00",
(char *)". . . . . . . . . . . . . + @ # # $ % % & * = = - ; ; > , ' ' ) ! ! ~ { { ] ^ / / ( _ _ : < [ [ } | | 1 2 2 3 4 4 5 6 7 7 8 9 9 ",
(char *)". . . . . . . . . . . + @ @ # $ $ % & & * = - - ; > > , ' ) ) ! ~ ~ { ] ^ ^ / / ( _ : < < [ [ } | 1 1 2 3 3 4 5 6 6 7 8 8 9 0 a ",
(char *)". . . . . . . . . . + @ # # $ % % & * = = - ; ; > , ' ' ) ! ! ~ { { ] ^ ^ / ( _ _ : < < [ } | | 1 2 2 3 4 4 5 6 7 7 8 9 9 0 a b ",
(char *)". . . . . . . . + @ @ # $ $ % & & * = - - ; > > , ' ) ) ! ~ ~ { ] ] ^ / / ( _ : : < [ [ } | 1 1 2 3 3 4 5 6 6 7 8 8 9 0 a a b b ",
(char *)". . . . . . . + @ # # $ % % & * = = - ; ; > , ' ' ) ) ! ~ { { ] ^ ^ / ( _ _ : < < [ } | | 1 2 2 3 4 4 5 6 7 7 8 9 9 0 a a b c d ",
(char *)". . . . . 0 e e f f f g h i j k k l l m m m n o p p q q r r r s n t u v v v w x y k z z z A B B t C D D D E E E F F G b b c d H ",
(char *)". . . . + e I I I I I I I J . I I I I I I I K L I I I I I I I M N I I I I I I I : O I I I I I I J . I I I I I I I I P c d d H Q ",
(char *)". . + + @ f I I I I I I I J . I I I I I I I K L I I I I I I I M N I I I I I I I : O I I I I I I J . I I I I I I I I R d H H Q S ",
(char *)". + @ @ # f I I I I I I I T + I I I I I I I U V I I I I I I I W X I I I I I I I _ Y I I I I I I T + I I I I I I I I Z H H Q S ` ",
(char *)"+ @ # # $ g I I I I I I I T + I I  ...+.@.#.U V I I I I I I I W X I I I I I I I _ Y I I I I I I T + I I I I I I I I Z Q S S ` $.",
(char *)"@ # $ % % h I I I I I I I T + I %.&.*.*.*.=.-.V I I I I I I I W X I I I I I I I _ Y I I I I I I T + I I I I I I I I ;.S ` ` $.>.",
(char *)"# $ % & & h I I I I I I I ,.@ '.).*.*.!.*.*.~.{.I I I I I I I ].^.I I I I I I I ( /.I I I I I I ,.@ I I I I I I I I ;.` $.$.>.(.",
(char *)"% % & & * k I I I I I I I ,._.:.*.<.[.}.%.=.*.|.1.I I I I I I ].^.I I I I I I I ( /.I I I I I I ,.@ I I I I I I I I 2.$.>.>.(.3.",
(char *)"% & * = = l I I I I I I I 4.5.*.*.6.I I I 7.*.*.8.I I I I I I 9.0.I I I I I I I / a.I I I I I I 4.# I I I I I I I I b.>.(.3.3.c.",
(char *)"& * = - - d.: : _ _ _ ( ( e.f.*.g.h.] { { i.j.*.k.l.) ) ' ' , $ & > ; ; - - = = + % * & & % % $ # . # @ @ + + + . . m.(.3.c.c.n.",
(char *)"= = - ; ; o.O O Y Y Y /./.p.*.*.q.r.r.s.s.t.u.v.*.w.x.x.y.y.z.A.q B.C.C.D.D.E.E.! F.G.H.H.I.I.J.K.# 4.,.,.T T T J J F 3.c.c.n.L.",
(char *)"- - ; > > m I I I I I I M.N.*.O.P.I I I I I Q.R.*.*.S.I I I I T.U.I I I I I I I ^ V.I I I I I I J.$ I I I I I I I I W.c.n.L.L.X.",
(char *)"; ; > , ' Y.I I I I I I Z.*.*.`.I I I I I I  +.+++*.@+I I I I #+$+I I I I I I I ] r.I I I I I I I.% I I I I I I I I W.n.L.X.X.%+",
(char *)"> > , ' ' p I I I I I &+*+*.=+I I I I I I I  +G -+*.*.;+I I I #+$+I I I I I I I ] r.I I I I I I I.% I I I I I I I I N L.X.%+%+>+",
(char *)", , ' ) ) p I I I I I ,+*.*.'+I I I I I I I )+!+~+{+*.]+I I I s ^+I I I I I I I { s.I I I I I I H.& I I I I I I I I X X.%+>+>+>+",
(char *)"' ' ) ! ~ q I I I I I /+*.(+_+I I I I I I I )+!+I :+*.<+[+I I s ^+I I I I I I I { s.I I I I I I H.& I I I I I I I I X %+>+>+>+>+",
(char *)") ) ! ~ { r I I I I }+|+*.1+* I I I I I I I 2+3+I 4+*.*.5+I I 6+7+I I I I I I I ~ t.I I I I I I G.* I I I I I I I I ^.>+>+>+>+>+",
(char *)"! ~ ~ { ] k J J T T 8+*.*.9+& J.J.I.I.H.H.G.D 0+E.a+b+*.c+C.B.L r z.y.y.x.x.d+d+' e+t.s.s.r.r.V.F.% a././.Y Y Y O O E >+>+>+>+>+",
(char *)"~ { { ] ^ d.. . + + f+*.g+@ . $ $ % % & & * $ @ = = h+*.*.i+> # & , ' ' ) ) ! ! + ' ~ { { ] ] ^ ! + / ( ( _ _ _ : : W >+>+>+>+>+",
(char *)"{ { ] ^ / t I I I j+*.*.k+E.= I I I I I I I l+C I I m+*.*.n+I o+p+I I I I I I I ! d+I I I I I I E.= I I I I I I I I ^.>+>+>+>+>+",
(char *)"] ^ ^ / ( u I I I q+*.*.r+E.= I I I I I I I l+C I I I s+*.t+&+o+p+I I I I I I I ! d+I I I I I I E.= I I I I I I I I ^.>+>+>+>+>+",
(char *)"^ / / ( _ v I I P.u+*.v+I D.- I I I I I I I w+x+I I I y+*.*.4+m.z+I I I I I I I ) x.I I I I I I D.- I I I I I I I I ^.>+>+>+>+>+",
(char *)"/ / ( _ : w I I A+*.*.B+I D.- I I I I I I I w+x+I I I C+=.*.]+m.z+I I I I I I I ) x.I I I I I I D.- I I I I I I I D+^.>+>+>+>+>+",
(char *)"( _ _ : < w I I E+*.F+G+I C.; I I I I I I I H+y I I I I I+*.J+K+L+I I I I I I I ' y.I I I I I I C.; I I I I I I M+N+O+>+>+>+>+>+",
(char *)"_ : : < [ x I P+&.*./+I I C.; I I I I I I I H+y I I I I Q+*.*.R+L+I I I I I I I ' y.I I I I I I C.; I I I I I I S+*.T+>+>+>+>+>+",
(char *)": < < [ } z I ,+*.*.U+I I B.> I I I I I I I V+o I I I I }.J+*.W+X+I I I I I I I , z.I I I I I I B.> I I I I I Y+*.*.Z+>+>+>+>+>+",
(char *)"< [ [ } | `+K  @*..@+@@@@@E & Q.Q. + +)+)+2+o+H l+l+w+w+H+#@*.$@%@X+L+L+z+z+p+p+& r 7+^+^+$+$+U.q & 0.^.^.X X &@*.*@=@>+>+>+>+>+",
(char *)"[ } | | 1 #+-@;@*.>@V A.A.X.# ,@,@G G !+!+3+b ( C C x+x+y '@*.*.)@!@~@~@m.m.o+o+# L 6+s s #+#+T.A.$ 9.].].W {@]@*.^@f >+>+>+>+>+",
(char *)"} | 1 1 2 B y+*.*./@I I I z., I I I I I I I X+!@I I I I I (@_@*.:@I I I I I I I > B.I I I I I I z., I I I I <@*.*.[@^.>+>+>+>+>+",
(char *)"| 1 1 2 3 }@*.*.|@}.I I I y.' I I I I I I I L+~@I I I I I I 1@*.2@1.I I I I I I ; C.I I I I I I y.' I I I I 3@*.4@P.^.>+>+>+>+>+",
(char *)"1 2 3 3 4 5@*.).S.I I I I y.' I I I I I I I L+~@I I I I I I 6@*.*.7@I I I I I I ; C.I I I I I I y.' I I I 8@*.*.9@I ^.>+>+>+>+>+",
(char *)"2 3 4 4 5 0@a@r+I I I I I x.) I I I I I I I z+m.I I I I I I b@c@*.d@I I I I I I - D.I I I I I I x.) I I I e@*.F+f@I ^.>+>+>+>+>+",
(char *)"3 4 5 5 6 D I I I I I I I x.) I I I I I I I z+m.I I I I I I I g@*.=.[+I I I I I - D.I I I I I I x.) I I 1.h@*.i@I I ^.>+>+>+>+>+",
(char *)"4 5 6 6 7 E I I I I I I I d+! I I I I I I I p+o+I I I I I I I j@*.*.k@I I I I I = E.I I I I I I d+! I I @.*.*.l@I I ^.>+>+>+>+>+",
(char *)"5 6 7 8 8 E I I I I I I I d+! I I I I I I I p+o+I I I I I I I m@n@*.o@I I I I I = E.I I I I I I d+! I I p@*.q@&+I I ^.>+>+>+>+>+",
(char *)"6 7 8 8 9 r@M M W W W ].].A.% T.T.#+#+s s 6+Q < o+o+m.m.~@~@!@( s@*.t@u@x+x+C C @ 0+3+!+!+G G ,@X.$ d.v@*.*.w@V L L o.>+>+>+>+>+",
(char *)"7 8 9 9 0 e N N X X X ^.^.l = U.U.$+$+^+^+7+3+Q p+p+z+z+L+L+X+b x@*.*.y@w+w+l+l+$ D 2+)+)+ + +Q.B - z@A@*.B@C@U K K v >+>+>+>+>+",
(char *)"8 9 0 a a P I I I I I I I t.~ I I I I I I I 7+6+I I I I I I I 3+2+D@*.E@P+I I I * G.I I I I I I t.~  .F@*.G@I I I I ^.>+>+>+>+>+",
(char *)"9 0 a a b R I I I I I I I s.{ I I I I I I I ^+s I I I I I I I !+)+H@*.*.I@I I I & H.I I I I I I s.{ J@*.*./@I I I I ^.>+>+>+>+>+",
(char *)"0 a b b c Z I I I I I I I s.{ I I I I I I I ^+s I I I I I I I !+)+(@K@*.L@I I I & H.I I I I I I s.M@K@*.N@O@I I I I ^.>+>+>+>+>+",
(char *)"a b c d d Z I I I I I I I r.] I I I I I I I $+#+I I I I I I I G  +I P@*.*.[@I I % I.I I I I I I r.Q@*.*.R@I I I I I ^.>+>+>+>+>+",
(char *)"b c d H H ;.I I I I I I I r.] I I I I I I I $+#+I I I I I I I G  +I G+S@*.T@P.I % I.I I I I I I U@V@*.W@&+I I I I I ^.>+>+>+>+>+",
(char *)"d d H Q Q ;.I I I I I I I V.^ I I I I I I I U.T.I I I I I I I ,@Q.I I X@*.*.I@I $ J.I I I I I I Y@*.*.H@I I I I I I ^.>+>+>+>+>+",
(char *)"H H Q S S 2.I I I I I I I V.^ I I I I I I I U.T.I I I I I I I ,@Q.I I D+K@*.Z@P+$ J.I I I I I f@(+*.3@P.I I I I I I ^.>+>+>+>+>+",
(char *)"H Q S ` ` #+: : _ _ _ ( ( ! @ ^ ^ ] ] { { ~ = % ! ! ) ) ' ' , # & > ; ; `@*.*. #. & * & & % .#+#*.*.@#@ @ + + + . . s >+>+>+>+>+",
(char *)"S S ` $.$.z O O Y Y Y /./.@@! V.V.r.r.s.s.t.l A.d+d+x.x.y.y.z.X.E B.C.C.##$#*.%#&#*#G.H.H.I.=#*.*.-#4.,.,.T T T J J Z >+>+>+>+>+",
(char *)"` ` $.>.>.;#I I I I I I I /.( I I I I I I I ^.].I I I I I I I A.@@I I I I >#<.*.,#'#I I I )#*.*.!#~#I I I I I I I I ^.>+>+>+>+>+",
(char *)"$.$.>.(.3.W.I I I I I I I /.( I I I I I I I ^.].I I I I I I I A.@@I I I I I 7@|+*.{#Z.]#^#*.*.N+/#( I I I I I I I I ^.>+>+>+>+>+",
(char *)">.>.(.3.c.W.I I I I I I I Y _ I I I I I I I X W I I I I I I I V U I I I I I I (#t@*.*.*.*.*.N@_#Y _ I I I I I I I I ^.>+>+>+>+>+",
(char *)"(.3.3.c.c.N I I I I I I I Y _ I I I I I I I X W I I I I I I I V U I I I I I I I :#<#*.*.F+[#}#I Y _ I I I I I I I I ^.>+>+>+>+>+",
(char *)"3.3.c.n.L.N I I I I I I I Y _ I I I I I I I X W I I I I I I I V U I I I I I I I + T |#1#2#I I I Y _ I I I I I I I I ^.>+>+>+>+>+",
(char *)"c.c.n.L.X.X I I I I I I I O : I I I I I I I N M I I I I I I I L K I I I I I I I . J I I I I I I O : I I I I I I I I ^.>+>+>+>+>+",
(char *)"n.L.L.X.%+^.I I I I I I I O : I I I I I I I N M I I I I I I I L K I I I I I I I . J I I I I I I O : I I I I I I I I ^.>+>+>+>+>+",
(char *)"L.X.X.%+>+T.^.^.^.^.^.^.^.E W ^.^.^.^.^.^.^.q f ^.^.^.^.^.^.^.o.v ^.^.^.^.^.^.^.s Z ^.^.^.^.^.^.E W ^.^.^.^.^.^.^.^.T.>+>+>+>+>+",
(char *)"X.%+%+>+>+>+>+>+>+>+>+>+>+>+>+>+>+>+>+>+>+>+>+>+>+>+>+>+>+>+>+>+>+>+>+>+>+>+>+>+>+>+>+>+>+>+>+>+>+>+>+>+>+>+>+>+>+>+>+>+>+>+>+>+",
(char *)"%+>+>+>+>+>+>+>+>+>+>+>+>+>+>+>+>+>+>+>+>+>+>+>+>+>+>+>+>+>+>+>+>+>+>+>+>+>+>+>+>+>+>+>+>+>+>+>+>+>+>+>+>+>+>+>+>+>+>+>+>+>+>+>+",
(char *)">+>+>+>+>+>+>+>+>+>+>+>+>+>+>+>+>+>+>+>+>+>+>+>+>+>+>+>+>+>+>+>+>+>+>+>+>+>+>+>+>+>+>+>+>+>+>+>+>+>+>+>+>+>+>+>+>+>+>+>+>+>+>+>+",
(char *)">+>+>+>+>+>+>+>+>+>+>+>+>+>+>+>+>+>+>+>+>+>+>+>+>+>+>+>+>+>+>+>+>+>+>+>+>+>+>+>+>+>+>+>+>+>+>+>+>+>+>+>+>+>+>+>+>+>+>+>+>+>+>+>+",
(char *)">+>+>+>+>+>+>+>+>+>+>+>+>+>+>+>+>+>+>+>+>+>+>+>+>+>+>+>+>+>+>+>+>+>+>+>+>+>+>+>+>+>+>+>+>+>+>+>+>+>+>+>+>+>+>+>+>+>+>+>+>+>+>+>+"};
