/* XPM */
/* $Id: ana_spec_032.xpm 1012 2012-11-02 01:07:33Z  $ */
static char * ana_spec_032_xpm[] = {
(char *)"32 32 273 2",
(char *)"  	c None",
(char *)". 	c #FFFFFF",
(char *)"+ 	c #FEFEFE",
(char *)"@ 	c #FCFCFC",
(char *)"# 	c #FBFBFB",
(char *)"$ 	c #F9F9F9",
(char *)"% 	c #F8F8F8",
(char *)"& 	c #F7F7F7",
(char *)"* 	c #F5F5F5",
(char *)"= 	c #F4F4F4",
(char *)"- 	c #F2F2F2",
(char *)"; 	c #F1F1F1",
(char *)"> 	c #EFEFEF",
(char *)", 	c #EEEEEE",
(char *)"' 	c #EDEDED",
(char *)") 	c #EBEBEB",
(char *)"! 	c #EAEAEA",
(char *)"~ 	c #E9E9E9",
(char *)"{ 	c #E7E7E7",
(char *)"] 	c #E6E6E6",
(char *)"^ 	c #E4E4E4",
(char *)"/ 	c #E3E3E3",
(char *)"( 	c #E1E1E1",
(char *)"_ 	c #E0E0E0",
(char *)": 	c #DFDFDF",
(char *)"< 	c #DDDDDD",
(char *)"[ 	c #DCDCDC",
(char *)"} 	c #DADADA",
(char *)"| 	c #FDFDFD",
(char *)"1 	c #FAFAFA",
(char *)"2 	c #F6F6F6",
(char *)"3 	c #F3F3F3",
(char *)"4 	c #F0F0F0",
(char *)"5 	c #ECECEC",
(char *)"6 	c #E8E8E8",
(char *)"7 	c #E5E5E5",
(char *)"8 	c #E2E2E2",
(char *)"9 	c #DEDEDE",
(char *)"0 	c #DBDBDB",
(char *)"a 	c #D8D8D8",
(char *)"b 	c #CECECE",
(char *)"c 	c #CDCDCD",
(char *)"d 	c #CCCCCC",
(char *)"e 	c #CACACA",
(char *)"f 	c #C9C9C9",
(char *)"g 	c #C7C7C7",
(char *)"h 	c #C6C6C6",
(char *)"i 	c #C5C5C5",
(char *)"j 	c #C3C3C3",
(char *)"k 	c #C1C1C1",
(char *)"l 	c #C0C0C0",
(char *)"m 	c #BFBFBF",
(char *)"n 	c #BEBEBE",
(char *)"o 	c #C4C4C4",
(char *)"p 	c #BCBCBC",
(char *)"q 	c #BBBBBB",
(char *)"r 	c #BABABA",
(char *)"s 	c #B7B7B7",
(char *)"t 	c #B6B6B6",
(char *)"u 	c #BDBDBD",
(char *)"v 	c #B3B3B3",
(char *)"w 	c #D1D1D1",
(char *)"x 	c #D6D6D6",
(char *)"y 	c #000000",
(char *)"z 	c #181818",
(char *)"A 	c #7F7F7F",
(char *)"B 	c #989898",
(char *)"C 	c #787878",
(char *)"D 	c #1F1F1F",
(char *)"E 	c #AFAFAF",
(char *)"F 	c #D4D4D4",
(char *)"G 	c #181D18",
(char *)"H 	c #44BA44",
(char *)"I 	c #000300",
(char *)"J 	c #ADADAD",
(char *)"K 	c #D3D3D3",
(char *)"L 	c #D2D2D2",
(char *)"M 	c #134913",
(char *)"N 	c #00FF00",
(char *)"O 	c #002C00",
(char *)"P 	c #ABABAB",
(char *)"Q 	c #D0D0D0",
(char *)"R 	c #106D10",
(char *)"S 	c #005100",
(char *)"T 	c #191919",
(char *)"U 	c #7E7E7E",
(char *)"V 	c #797979",
(char *)"W 	c #1E1E1E",
(char *)"X 	c #AAAAAA",
(char *)"Y 	c #CFCFCF",
(char *)"Z 	c #4ED24E",
(char *)"` 	c #52C752",
(char *)" .	c #D5D5D5",
(char *)"..	c #A2A2A2",
(char *)"+.	c #CBCBCB",
(char *)"@.	c #A4A4A4",
(char *)"#.	c #B2B2B2",
(char *)"$.	c #0AA20A",
(char *)"%.	c #009100",
(char *)"&.	c #A6A6A6",
(char *)"*.	c #09AF09",
(char *)"=.	c #009600",
(char *)"-.	c #A5A5A5",
(char *)";.	c #C8C8C8",
(char *)">.	c #C2C2C2",
(char *)",.	c #08BB08",
(char *)"'.	c #009B00",
(char *)").	c #1A1A1A",
(char *)"!.	c #7D7D7D",
(char *)"~.	c #7A7A7A",
(char *)"{.	c #1D1D1D",
(char *)"].	c #A3A3A3",
(char *)"^.	c #28E928",
(char *)"/.	c #39D939",
(char *)"(.	c #ACACAC",
(char *)"_.	c #05D305",
(char *)":.	c #00A500",
(char *)"<.	c #04E004",
(char *)"[.	c #02FC02",
(char *)"}.	c #00AA00",
(char *)"|.	c #1B1B1B",
(char *)"1.	c #7C7C7C",
(char *)"2.	c #7B7B7B",
(char *)"3.	c #1C1C1C",
(char *)"4.	c #03E803",
(char *)"5.	c #0CF30C",
(char *)"6.	c #00AE00",
(char *)"7.	c #383838",
(char *)"8.	c #393939",
(char *)"9.	c #3A3A3A",
(char *)"0.	c #03F803",
(char *)"a.	c #1CED1C",
(char *)"b.	c #12C412",
(char *)"c.	c #3B3B3B",
(char *)"d.	c #3C3C3C",
(char *)"e.	c #B0B0B0",
(char *)"f.	c #3D3D3D",
(char *)"g.	c #525252",
(char *)"h.	c #9C9C9C",
(char *)"i.	c #3E3E3E",
(char *)"j.	c #B1B1B1",
(char *)"k.	c #3F3F3F",
(char *)"l.	c #545454",
(char *)"m.	c #5F5F5F",
(char *)"n.	c #5E5E5E",
(char *)"o.	c #5A615A",
(char *)"p.	c #2DE92D",
(char *)"q.	c #1AD01A",
(char *)"r.	c #5C5C5C",
(char *)"s.	c #5B5B5B",
(char *)"t.	c #5A5A5A",
(char *)"u.	c #6C6C6C",
(char *)"v.	c #A9A9A9",
(char *)"w.	c #595959",
(char *)"x.	c #585858",
(char *)"y.	c #6A6A6A",
(char *)"z.	c #A8A8A8",
(char *)"A.	c #001A00",
(char *)"B.	c #2BD12B",
(char *)"C.	c #00B900",
(char *)"D.	c #B4B4B4",
(char *)"E.	c #002D00",
(char *)"F.	c #36C636",
(char *)"G.	c #00BD00",
(char *)"H.	c #004E00",
(char *)"I.	c #005000",
(char *)"J.	c #003F00",
(char *)"K.	c #00FB00",
(char *)"L.	c #3EBC3E",
(char *)"M.	c #00C000",
(char *)"N.	c #979897",
(char *)"O.	c #00DE00",
(char *)"P.	c #00DA00",
(char *)"Q.	c #67B967",
(char *)"R.	c #0EF80E",
(char *)"S.	c #69E369",
(char *)"T.	c #23E723",
(char *)"U.	c #B2DCB2",
(char *)"V.	c #83B783",
(char *)"W.	c #D9D9D9",
(char *)"X.	c #002800",
(char *)"Y.	c #001700",
(char *)"Z.	c #006500",
(char *)"`.	c #04DC04",
(char *)" +	c #42B842",
(char *)".+	c #00C700",
(char *)"++	c #6CB56C",
(char *)"@+	c #00F800",
(char *)"#+	c #0D9B0D",
(char *)"$+	c #D7D7D7",
(char *)"%+	c #AEAEAE",
(char *)"&+	c #00D300",
(char *)"*+	c #00B500",
(char *)"=+	c #007800",
(char *)"-+	c #07CD07",
(char *)";+	c #43B543",
(char *)">+	c #00CB00",
(char *)",+	c #59C259",
(char *)"'+	c #00DC00",
(char *)")+	c #007500",
(char *)"!+	c #04E304",
(char *)"~+	c #001100",
(char *)"{+	c #006400",
(char *)"]+	c #004100",
(char *)"^+	c #00C600",
(char *)"/+	c #00E700",
(char *)"(+	c #00B600",
(char *)"_+	c #09BD09",
(char *)":+	c #45B345",
(char *)"<+	c #009500",
(char *)"[+	c #001000",
(char *)"}+	c #003400",
(char *)"|+	c #24E624",
(char *)"1+	c #00B200",
(char *)"2+	c #002700",
(char *)"3+	c #649064",
(char *)"4+	c #2BCF2B",
(char *)"5+	c #16E716",
(char *)"6+	c #25D725",
(char *)"7+	c #02FD02",
(char *)"8+	c #14E914",
(char *)"9+	c #29D229",
(char *)"0+	c #32D432",
(char *)"a+	c #6BD66B",
(char *)"b+	c #11ED11",
(char *)"c+	c #12EC12",
(char *)"d+	c #13EA13",
(char *)"e+	c #0AF50A",
(char *)"f+	c #03FE03",
(char *)"g+	c #45B745",
(char *)"h+	c #15EE15",
(char *)"i+	c #51E251",
(char *)"j+	c #8C8C8C",
(char *)"k+	c #8DB98D",
(char *)"l+	c #00FC00",
(char *)"m+	c #0F8F0F",
(char *)"n+	c #185018",
(char *)"o+	c #1A3F1A",
(char *)"p+	c #0CA50C",
(char *)"q+	c #1B381B",
(char *)"r+	c #136E13",
(char *)"s+	c #314F31",
(char *)"t+	c #63A963",
(char *)"u+	c #06CC06",
(char *)"v+	c #1A2E1A",
(char *)"w+	c #0C950C",
(char *)"x+	c #0E860E",
(char *)"y+	c #9CA79C",
(char *)"z+	c #1A1B1A",
(char *)"A+	c #266D26",
(char *)"B+	c #03FC03",
(char *)"C+	c #03E603",
(char *)"D+	c #07C107",
(char *)"E+	c #9AA69A",
(char *)"F+	c #181918",
(char *)"G+	c #8A8A8A",
(char *)"H+	c #2F2F2F",
(char *)"I+	c #9EAB9E",
(char *)"J+	c #5A995A",
(char *)"K+	c #009400",
(char *)"L+	c #06FB06",
(char *)"M+	c #00ED00",
(char *)"N+	c #7FE37F",
(char *)"O+	c #182918",
(char *)"P+	c #000500",
(char *)"Q+	c #68B868",
(char *)"R+	c #006300",
(char *)"S+	c #7FE57F",
(char *)"T+	c #18E418",
(char *)"U+	c #87B287",
(char *)"V+	c #7F897F",
(char *)"W+	c #188318",
(char *)"X+	c #91AB91",
(char *)". . . . . . + @ # $ % & * = - ; > , ' ) ! ~ { ] ^ / ( _ : < [ } ",
(char *)". . . . + | @ 1 $ & 2 = 3 - 4 > ' 5 ) ~ 6 ] 7 ^ 8 ( : 9 [ 0 } a ",
(char *)". . 2 b c d e f f g h i e j k l m n o p q r m s t u v r v w a x ",
(char *)". . c y y y y y y y y z A y y y y y B y y z A y y B y C D E x F ",
(char *)"+ @ d y y y y y y y y G H I y y y y B y y z A y y B y C D J K L ",
(char *)"@ 1 e y y y y y y y y M N O y y y y B y y z A y y B y C D P w Q ",
(char *)"1 % f y y y y y y y y R N S y y y y B y y T U y y B y V W X Y b ",
(char *)"% 2 c B B B B B B B B Z N ` B B B B  .B B ..+.B B  .B f @.#.c d ",
(char *)"2 = i y y y y y y y y $.N %.y y y y B y y T U y y B y V W &.+.e ",
(char *)"= - o y y y y y y y y *.N =.y y y y B y y T U y y B y V W -.f ;.",
(char *)"; 4 >.y y y y y y y y ,.N '.y y y y B y y ).!.y y B y ~.{.].;.;.",
(char *)"> , g B B B B B B B B ^.N /.B B B B  .B B ].e B B  .B f @.(.;.;.",
(char *)"' 5 m y y y y y y y y _.N :.y y y y B y y ).!.y y B y ~.{...;.;.",
(char *)") ! p y y y y y y y y <.[.}.y y y y B y y |.1.y y B y 2.3...;.;.",
(char *)"~ 6 q y y y y y y y y 4.5.6.y y y y B y y |.1.y y B y 2.3...;.;.",
(char *)"{ ] p 7.7.7.8.8.8.8.9.0.a.b.c.c.d.d.e.f.f.g.h.i.i.j.k.h.l.&.;.;.",
(char *)"7 ^ p m.m.m.n.n.n.n.o.N p.q.r.r.s.s.u t.t.u.v.w.w.p x.v.y.z.;.;.",
(char *)"/ 8 t y y y y y y y A.N B.C.y y y y B y y 3.2.y y B y 1.|...;.;.",
(char *)"( _ D.y y y y y y y E.N F.G.y y y y B H.I.3.2.y y B y 1.|...;.;.",
(char *)": 9 v y y y y y y y J.K.L.M.y y y y N.O.P.{.~.y y B y !.)...;.;.",
(char *)"< 0 r B B B B B B B Q.R.S.T.B B B B U.N N V.f B B  .B e ].(.;.;.",
(char *)"0 W.E y y X.Y.y y y Z.`. +.+y y y y ++@+.+#+~.y y B y !.)...;.;.",
(char *)"W.$+%+y y &+*+y y y =+-+;+>+y y y y ,+'+)+!+V y y B y U T ..;.;.",
(char *)"$+ .(.~+{+N N ]+^+/+(+_+:+P.<+G.[+}+|+1+2+N 3+y y B y U T ..;.;.",
(char *)" .K j.4+N 5+6+7+8+9+N 0+a+N b+c+d+e+f+g+!.h+i+U U +.A n j+P ;.;.",
(char *)"K w k+l+m+n+o+p+q+W r+s+t+u+v+v+w+x+y+z+).A+B+C+D+E+F+G+H+].;.;.",
(char *)"Q Y I+=+y y y y y y y D C y y y y y B y y D J+K+/+L+M+N+O+..;.;.",
(char *)"b c &.y y y y y y y y D C y y y y y B y y D C y P+Q+R+S+T+U+;.;.",
(char *)"d +.@.y y y y y y y y D C y y y y y B y y D C y y B y V+W+X+;.;.",
(char *)"e f k ................@.X ..........(.....@.X ....(...P ].k ;.;.",
(char *)";.;.;.;.;.;.;.;.;.;.;.;.;.;.;.;.;.;.;.;.;.;.;.;.;.;.;.;.;.;.;.;.",
(char *)";.;.;.;.;.;.;.;.;.;.;.;.;.;.;.;.;.;.;.;.;.;.;.;.;.;.;.;.;.;.;.;."};
