/* XPM */
/* $Id: ana_scope_016.xpm 1012 2012-11-02 01:07:33Z  $ */
static char * ana_scope_016_xpm[] = {
(char *)"16 16 124 2",
(char *)"  	c None",
(char *)". 	c #FFFFFF",
(char *)"+ 	c #FCFCFC",
(char *)"@ 	c #F9F9F9",
(char *)"# 	c #F6F6F6",
(char *)"$ 	c #F3F3F3",
(char *)"% 	c #F1F1F1",
(char *)"& 	c #EEEEEE",
(char *)"* 	c #EBEBEB",
(char *)"= 	c #E8E8E8",
(char *)"- 	c #E5E5E5",
(char *)"; 	c #E3E3E3",
(char *)"> 	c #E0E0E0",
(char *)", 	c #DDDDDD",
(char *)"' 	c #DADADA",
(char *)") 	c #A4A4A4",
(char *)"! 	c #656565",
(char *)"~ 	c #7E7E7E",
(char *)"{ 	c #636363",
(char *)"] 	c #7C7C7C",
(char *)"^ 	c #616161",
(char *)"/ 	c #6D6D6D",
(char *)"( 	c #6A6A6A",
(char *)"_ 	c #5D5D5D",
(char *)": 	c #777777",
(char *)"< 	c #5B5B5B",
(char *)"[ 	c #757575",
(char *)"} 	c #595959",
(char *)"| 	c #8C8C8C",
(char *)"1 	c #D6D6D6",
(char *)"2 	c #000000",
(char *)"3 	c #474947",
(char *)"4 	c #007000",
(char *)"5 	c #327F32",
(char *)"6 	c #282828",
(char *)"7 	c #1F1F1F",
(char *)"8 	c #484848",
(char *)"9 	c #565656",
(char *)"0 	c #D2D2D2",
(char *)"a 	c #F8F8F8",
(char *)"b 	c #7D7D7D",
(char *)"c 	c #4EAD4E",
(char *)"d 	c #2C902C",
(char *)"e 	c #2FCD2F",
(char *)"f 	c #3E613E",
(char *)"g 	c #5E5E5E",
(char *)"h 	c #707070",
(char *)"i 	c #CECECE",
(char *)"j 	c #F4F4F4",
(char *)"k 	c #18C318",
(char *)"l 	c #000200",
(char *)"m 	c #3E603E",
(char *)"n 	c #009100",
(char *)"o 	c #292929",
(char *)"p 	c #1E1E1E",
(char *)"q 	c #525252",
(char *)"r 	c #CACACA",
(char *)"s 	c #F0F0F0",
(char *)"t 	c #7A7A7A",
(char *)"u 	c #396D39",
(char *)"v 	c #41BA41",
(char *)"w 	c #1BB91B",
(char *)"x 	c #5E715E",
(char *)"y 	c #6E6E6E",
(char *)"z 	c #C8C8C8",
(char *)"A 	c #ECECEC",
(char *)"B 	c #009800",
(char *)"C 	c #425842",
(char *)"D 	c #003200",
(char *)"E 	c #169216",
(char *)"F 	c #1C1C1C",
(char *)"G 	c #515151",
(char *)"H 	c #E7E7E7",
(char *)"I 	c #5F6E5F",
(char *)"J 	c #09A609",
(char *)"K 	c #5A5A5A",
(char *)"L 	c #191919",
(char *)"M 	c #1B1B1B",
(char *)"N 	c #15C015",
(char *)"O 	c #353635",
(char *)"P 	c #1E2A1E",
(char *)"Q 	c #2CB22C",
(char *)"R 	c #39B239",
(char *)"S 	c #246124",
(char *)"T 	c #696969",
(char *)"U 	c #2E2E2E",
(char *)"V 	c #686868",
(char *)"W 	c #2C2C2C",
(char *)"X 	c #2C9E2C",
(char *)"Y 	c #326B32",
(char *)"Z 	c #2B2B2B",
(char *)"` 	c #666666",
(char *)" .	c #187C18",
(char *)"..	c #488B48",
(char *)"+.	c #DFDFDF",
(char *)"@.	c #585C58",
(char *)"#.	c #274427",
(char *)"$.	c #0C9A0C",
(char *)"%.	c #00A700",
(char *)"&.	c #515251",
(char *)"*.	c #DBDBDB",
(char *)"=.	c #737373",
(char *)"-.	c #20C520",
(char *)";.	c #455145",
(char *)">.	c #659565",
(char *)",.	c #26A026",
(char *)"'.	c #D7D7D7",
(char *)").	c #135113",
(char *)"!.	c #007300",
(char *)"~.	c #1BBC1B",
(char *)"{.	c #001500",
(char *)"].	c #D3D3D3",
(char *)"^.	c #18C118",
(char *)"/.	c #728772",
(char *)"(.	c #2F872F",
(char *)"_.	c #44B744",
(char *)":.	c #CFCFCF",
(char *)"<.	c #2F2F2F",
(char *)"[.	c #181818",
(char *)"}.	c #001C00",
(char *)"|.	c #007C00",
(char *)"1.	c #CBCBCB",
(char *)"2.	c #818181",
(char *)"3.	c #646464",
(char *)". . . + @ # $ % & * = - ; > , ' ",
(char *)". ) ! ~ { ] ^ / ( _ : < [ } | 1 ",
(char *)"+ ! 2 3 4 5 2 6 7 2 8 2 8 2 9 0 ",
(char *)"a b 8 c d e f ! g 8 ] 8 ] 8 h i ",
(char *)"j ^ 2 k l m n o p 2 8 2 8 2 q r ",
(char *)"s t u v 8 ] w x _ 8 ] 8 ] 8 y z ",
(char *)"A g B C 2 8 D E F 2 8 2 8 2 G z ",
(char *)"H I J K L < M N O F _ p g P Q z ",
(char *)"; R S T U V W X Y Z ` o !  ...z ",
(char *)"+.@.2 8 2 8 2 #.$.2 8 2 8 %.&.z ",
(char *)"*.=.8 ] 8 ] 8 V -.;.] 8 >.,.y z ",
(char *)"'.9 2 8 2 8 2 U ).!.8 2 ~.{.G z ",
(char *)"].h 8 ] 8 ] 8 T K ^./.(._.8 y z ",
(char *)":.q 2 8 2 8 2 <.[.}.~.|.8 2 G z ",
(char *)"1.2.G y G y G 3.< G y G y G 2.z ",
(char *)"z z z z z z z z z z z z z z z z "};
