/* XPM */
/* $Id: logo_at_016.xpm 955 2012-10-22 02:26:18Z  $ */
static char * logo_at_016_xpm[] = {
(char *)"16 16 85 1",
(char *)" 	c None",
(char *)".	c #B39586",
(char *)"+	c #A37F6D",
(char *)"@	c #A37E6D",
(char *)"#	c #B49789",
(char *)"$	c #C8B3A9",
(char *)"%	c #A07C6A",
(char *)"&	c #8C604A",
(char *)"*	c #6C3317",
(char *)"=	c #B19384",
(char *)"-	c #966D59",
(char *)";	c #875942",
(char *)">	c #AD3D2D",
(char *)",	c #885841",
(char *)"'	c #7A462D",
(char *)")	c #865740",
(char *)"!	c #87563F",
(char *)"~	c #F20907",
(char *)"{	c #A8402F",
(char *)"]	c #875841",
(char *)"^	c #7C4930",
(char *)"/	c #9F3523",
(char *)"(	c #E2100B",
(char *)"_	c #D21910",
(char *)":	c #7D4A31",
(char *)"<	c #7D4B32",
(char *)"[	c #84543C",
(char *)"}	c #83533B",
(char *)"|	c #C8241A",
(char *)"1	c #934632",
(char *)"2	c #FB0302",
(char *)"3	c #8A4B35",
(char *)"4	c #815038",
(char *)"5	c #804F37",
(char *)"6	c #804E36",
(char *)"7	c #9B6855",
(char *)"8	c #CE332A",
(char *)"9	c #E31D17",
(char *)"0	c #C33E33",
(char *)"a	c #936A55",
(char *)"b	c #8A5C46",
(char *)"c	c #906550",
(char *)"d	c #BA4235",
(char *)"e	c #DB251E",
(char *)"f	c #CE2C22",
(char *)"g	c #DE1812",
(char *)"h	c #FE2801",
(char *)"i	c #CCA30D",
(char *)"j	c #D4AA07",
(char *)"k	c #F4D002",
(char *)"l	c #BA8C0B",
(char *)"m	c #EBC603",
(char *)"n	c #A9790D",
(char *)"o	c #C51409",
(char *)"p	c #7A3815",
(char *)"q	c #FD0700",
(char *)"r	c #882913",
(char *)"s	c #9F6E0F",
(char *)"t	c #E7C104",
(char *)"u	c #8C5812",
(char *)"v	c #B3850C",
(char *)"w	c #AB1D0D",
(char *)"x	c #F30402",
(char *)"y	c #932611",
(char *)"z	c #903311",
(char *)"A	c #EE0F03",
(char *)"B	c #E50904",
(char *)"C	c #AA610D",
(char *)"D	c #6D3417",
(char *)"E	c #9A6710",
(char *)"F	c #8E2712",
(char *)"G	c #912611",
(char *)"H	c #852A13",
(char *)"I	c #A8640E",
(char *)"J	c #A06F0F",
(char *)"K	c #936011",
(char *)"L	c #C59909",
(char *)"M	c #D8AF06",
(char *)"N	c #B0810C",
(char *)"O	c #6F3716",
(char *)"P	c #A88676",
(char *)"Q	c #98705C",
(char *)"R	c #A27E6C",
(char *)"S	c #85573F",
(char *)"T	c #9F7967",
(char *)" .++++++++++++@ ",
(char *)"#$%%%%%%%%%%%%&*",
(char *)"=-;;;>,;;;;;;;'*",
(char *)"=-))!~{]]];;;;'*",
(char *)"=-^^/(_^^::::<'*",
(char *)"=-[}|123445566'*",
(char *)"=--78-90-ab)]c'*",
(char *)"=-6defghijklmn'*",
(char *)"=-*o**pqrst*uv'*",
(char *)"=-wxy*zABCt*DE'*",
(char *)"=-FGH*HGGIt***'*",
(char *)"=-*******st***'*",
(char *)"=-*******Jt***'*",
(char *)"=-******KLMNO*'*",
(char *)"PQR+++++++++++**",
(char *)" ST%%%%%%%%%%%* "};
