/* XPM */
/* $Id: logo_mx_016.xpm 955 2012-10-22 02:26:18Z  $ */
static const char * logo_mx_016_xpm[] = {
(char *)"16 16 213 2",
(char *)"  	c #131314",
(char *)". 	c #232423",
(char *)"+ 	c #2E3434",
(char *)"@ 	c #404242",
(char *)"# 	c #4F4F4F",
(char *)"$ 	c #5C5C5B",
(char *)"% 	c #636B6B",
(char *)"& 	c #6D7475",
(char *)"* 	c #747D7C",
(char *)"= 	c #7A7C7C",
(char *)"- 	c #7A7A7A",
(char *)"; 	c #757575",
(char *)"> 	c #6C6C6C",
(char *)", 	c #616161",
(char *)"' 	c #555555",
(char *)") 	c #474747",
(char *)"! 	c #1A1A1A",
(char *)"~ 	c #4A2323",
(char *)"{ 	c #CA0F0F",
(char *)"] 	c #A72121",
(char *)"^ 	c #5E5555",
(char *)"/ 	c #676666",
(char *)"( 	c #E01818",
(char *)"_ 	c #DC2120",
(char *)": 	c #F10F0F",
(char *)"< 	c #E42222",
(char *)"[ 	c #888F8F",
(char *)"} 	c #858485",
(char *)"| 	c #6D6D6D",
(char *)"1 	c #5F5F5F",
(char *)"2 	c #505050",
(char *)"3 	c #1E1E1E",
(char *)"4 	c #392C2C",
(char *)"5 	c #FB0101",
(char *)"6 	c #FF0000",
(char *)"7 	c #765253",
(char *)"8 	c #6C7172",
(char *)"9 	c #DA2323",
(char *)"0 	c #FD0303",
(char *)"a 	c #FE0000",
(char *)"b 	c #C65B5B",
(char *)"c 	c #9B9C9C",
(char *)"d 	c #919191",
(char *)"e 	c #858585",
(char *)"f 	c #767676",
(char *)"g 	c #676767",
(char *)"h 	c #575757",
(char *)"i 	c #202020",
(char *)"j 	c #2D3333",
(char *)"k 	c #F50303",
(char *)"l 	c #924848",
(char *)"m 	c #707878",
(char *)"n 	c #F10E0E",
(char *)"o 	c #D63D3E",
(char *)"p 	c #F80B0B",
(char *)"q 	c #E33E3E",
(char *)"r 	c #A8ADAC",
(char *)"s 	c #9C9C9C",
(char *)"t 	c #8C8C8C",
(char *)"u 	c #7C7C7C",
(char *)"v 	c #6B6B6B",
(char *)"w 	c #5A5A5A",
(char *)"x 	c #212121",
(char *)"y 	c #2E3334",
(char *)"z 	c #F60303",
(char *)"A 	c #EF0606",
(char *)"B 	c #D41D1D",
(char *)"C 	c #886363",
(char *)"D 	c #9E8D8E",
(char *)"E 	c #D74A4A",
(char *)"F 	c #F51C1C",
(char *)"G 	c #AEB5B5",
(char *)"H 	c #9F9F9F",
(char *)"I 	c #8E8E8E",
(char *)"J 	c #7D7D7D",
(char *)"K 	c #5B5B5B",
(char *)"L 	c #1F1F1F",
(char *)"M 	c #353030",
(char *)"N 	c #A12C2C",
(char *)"O 	c #E11818",
(char *)"P 	c #E71A1A",
(char *)"Q 	c #8E9798",
(char *)"R 	c #B47C7D",
(char *)"S 	c #A6A4A4",
(char *)"T 	c #999999",
(char *)"U 	c #8A8A8B",
(char *)"V 	c #817D75",
(char *)"W 	c #82765B",
(char *)"X 	c #625E54",
(char *)"Y 	c #1D1D1D",
(char *)"Z 	c #452828",
(char *)"` 	c #644545",
(char *)" .	c #EC0A0A",
(char *)"..	c #CE4230",
(char *)"+.	c #C49F46",
(char *)"@.	c #BDA25C",
(char *)"#.	c #A38584",
(char *)"$.	c #8E8D8E",
(char *)"%.	c #7D7F86",
(char *)"&.	c #E4A517",
(char *)"*.	c #FFB400",
(char *)"=.	c #907435",
(char *)"-.	c #181818",
(char *)";.	c #731919",
(char *)">.	c #4C4545",
(char *)",.	c #D61314",
(char *)"'.	c #DC2D1D",
(char *)").	c #ECAD10",
(char *)"!.	c #FDB602",
(char *)"~.	c #F11D0F",
(char *)"{.	c #B25555",
(char *)"].	c #808081",
(char *)"^.	c #928260",
(char *)"/.	c #FEB001",
(char *)"(.	c #A78330",
(char *)"_.	c #4A4C50",
(char *)":.	c #0F1212",
(char *)"<.	c #A40C0C",
(char *)"[.	c #F60101",
(char *)"}.	c #3A4040",
(char *)"|.	c #6E3D3D",
(char *)"1.	c #774848",
(char *)"2.	c #7D5454",
(char *)"3.	c #747168",
(char *)"4.	c #EFAC0D",
(char *)"5.	c #F74507",
(char *)"6.	c #CC2B2B",
(char *)"7.	c #727570",
(char *)"8.	c #F4AC09",
(char *)"9.	c #C49222",
(char *)"0.	c #4F5154",
(char *)"a.	c #454545",
(char *)"b.	c #060A0B",
(char *)"c.	c #EF0202",
(char *)"d.	c #303535",
(char *)"e.	c #404141",
(char *)"f.	c #4C4C4C",
(char *)"g.	c #575657",
(char *)"h.	c #5F5F5E",
(char *)"i.	c #6F6B5C",
(char *)"j.	c #F24808",
(char *)"k.	c #F0050A",
(char *)"l.	c #DFA315",
(char *)"m.	c #C29120",
(char *)"n.	c #515152",
(char *)"o.	c #3A3A3A",
(char *)"p.	c #410101",
(char *)"q.	c #352726",
(char *)"r.	c #353535",
(char *)"s.	c #3F3F3F",
(char *)"t.	c #484848",
(char *)"u.	c #4E5656",
(char *)"v.	c #D61115",
(char *)"w.	c #FF0700",
(char *)"x.	c #EE2F08",
(char *)"y.	c #454C4E",
(char *)"z.	c #434344",
(char *)"A.	c #393939",
(char *)"B.	c #2E2E2E",
(char *)"C.	c #060000",
(char *)"D.	c #210404",
(char *)"E.	c #470D0D",
(char *)"F.	c #1D1C1D",
(char *)"G.	c #282828",
(char *)"H.	c #313131",
(char *)"I.	c #393C40",
(char *)"J.	c #726033",
(char *)"K.	c #FC8702",
(char *)"L.	c #A8601E",
(char *)"M.	c #EE9005",
(char *)"N.	c #DD9D0B",
(char *)"O.	c #5A4C2B",
(char *)"P.	c #27292D",
(char *)"Q.	c #212222",
(char *)"R.	c #000000",
(char *)"S.	c #050505",
(char *)"T.	c #101010",
(char *)"U.	c #222222",
(char *)"V.	c #3E3625",
(char *)"W.	c #C78E0E",
(char *)"X.	c #FFB200",
(char *)"Y.	c #665226",
(char *)"Z.	c #2F3134",
(char *)"`.	c #514429",
(char *)" +	c #F8AD01",
(char *)".+	c #FBAE00",
(char *)"++	c #C38909",
(char *)"@+	c #543F10",
(char *)"#+	c #030303",
(char *)"$+	c #0B0B0B",
(char *)"%+	c #131313",
(char *)"&+	c #302817",
(char *)"*+	c #7F5D10",
(char *)"=+	c #6F5315",
(char *)"-+	c #1F2023",
(char *)";+	c #1F1F20",
(char *)">+	c #5D4714",
(char *)",+	c #FCAF00",
(char *)"'+	c #8D6201",
(char *)")+	c #030403",
(char *)"!+	c #0A0A0A",
(char *)"~+	c #0E0E0E",
(char *)"{+	c #101011",
(char *)"]+	c #121212",
(char *)"^+	c #111111",
(char *)"/+	c #0F1010",
(char *)"(+	c #05070C",
(char *)"_+	c #B57E02",
(char *)":+	c #E8A100",
(char *)"<+	c #0D0900",
(char *)"[+	c #010101",
(char *)"}+	c #020202",
(char *)"|+	c #020102",
(char *)"  . + @ # $ % & * = - ; > , ' ) ",
(char *)"! ~ { ] ^ / ( _ : < [ } - | 1 2 ",
(char *)"3 4 5 6 7 8 9 0 a b c d e f g h ",
(char *)"i j k 6 l m n o p q r s t u v w ",
(char *)"x y z A B C 6 D E F G H I J > K ",
(char *)"L M 6 N 6 O P Q R 6 S T U V W X ",
(char *)"Y Z 6 `  .6 ..+.@.6 #.$.%.&.*.=.",
(char *)"-.;.6 >.,.6 '.).!.~.{.].^./.(._.",
(char *)":.<.[.}.|.1.2.3.4.5.6.7.8.9.0.a.",
(char *)"b.c.[.d.e.f.g.h.i.j.k.l.m.n.) o.",
(char *)"p.6 6 q.r.s.t.# u.v.w.x.y.z.A.B.",
(char *)"C.D.E.F.G.H.A.I.J.K.L.M.N.O.P.Q.",
(char *)"R.R.S.T.! U.V.W.X.Y.Z.`. +.+++@+",
(char *)"R.R.R.#+$+%+&+*+=+-+U.;+>+*.,+'+",
(char *)"R.R.R.R.R.)+!+~+{+]+^+/+(+_+:+<+",
(char *)"R.R.R.R.R.R.R.R.[+}+|+[+R.R.R.R."};
