/* XPM */
/* $Id: logo_at_048.xpm 955 2012-10-22 02:26:18Z  $ */
static char * logo_at_048_xpm[] = {
(char *)"48 48 296 2",
(char *)"  	c None",
(char *)". 	c #9E7865",
(char *)"+ 	c #A17C6B",
(char *)"@ 	c #A07C6A",
(char *)"# 	c #B39587",
(char *)"$ 	c #9C7764",
(char *)"% 	c #A27D6B",
(char *)"& 	c #B5998B",
(char *)"* 	c #BBA194",
(char *)"= 	c #A37F6D",
(char *)"- 	c #C3ACA0",
(char *)"; 	c #A78575",
(char *)"> 	c #8C5F49",
(char *)", 	c #71381D",
(char *)"' 	c #A37E6C",
(char *)") 	c #BDA396",
(char *)"! 	c #CEBBB2",
(char *)"~ 	c #D0BEB5",
(char *)"{ 	c #C1A99D",
(char *)"] 	c #A68372",
(char *)"^ 	c #BDA497",
(char *)"/ 	c #A48170",
(char *)"( 	c #895C45",
(char *)"_ 	c #6E351A",
(char *)": 	c #6C3317",
(char *)"< 	c #B69A8C",
(char *)"[ 	c #CFBCB3",
(char *)"} 	c #E6DDD8",
(char *)"| 	c #D8C9C1",
(char *)"1 	c #C0A79B",
(char *)"2 	c #A88676",
(char *)"3 	c #AD8D7D",
(char *)"4 	c #9A7360",
(char *)"5 	c #82513A",
(char *)"6 	c #9E7967",
(char *)"7 	c #BCA295",
(char *)"8 	c #D7C8C0",
(char *)"9 	c #C8B3A9",
(char *)"0 	c #B29586",
(char *)"a 	c #8C604A",
(char *)"b 	c #784329",
(char *)"c 	c #A17D6C",
(char *)"d 	c #C0A89C",
(char *)"e 	c #BEA599",
(char *)"f 	c #B19384",
(char *)"g 	c #9F7967",
(char *)"h 	c #906550",
(char *)"i 	c #875942",
(char *)"j 	c #7C4930",
(char *)"k 	c #A98877",
(char *)"l 	c #9F7A68",
(char *)"m 	c #966D59",
(char *)"n 	c #8E543E",
(char *)"o 	c #8F533D",
(char *)"p 	c #764127",
(char *)"q 	c #7A462D",
(char *)"r 	c #7E4D34",
(char *)"s 	c #723B20",
(char *)"t 	c #E31510",
(char *)"u 	c #F00B08",
(char *)"v 	c #895841",
(char *)"w 	c #994C38",
(char *)"x 	c #FE0101",
(char *)"y 	c #FF0000",
(char *)"z 	c #A84030",
(char *)"A 	c #C42C21",
(char *)"B 	c #D61E17",
(char *)"C 	c #865740",
(char *)"D 	c #87563F",
(char *)"E 	c #EE0C09",
(char *)"F 	c #FB0302",
(char *)"G 	c #90513C",
(char *)"H 	c #875841",
(char *)"I 	c #82523A",
(char *)"J 	c #A13E2C",
(char *)"K 	c #B73022",
(char *)"L 	c #83533B",
(char *)"M 	c #84543C",
(char *)"N 	c #84553D",
(char *)"O 	c #7F4D35",
(char *)"P 	c #804D35",
(char *)"Q 	c #CD1E15",
(char *)"R 	c #FD0101",
(char *)"S 	c #DD150E",
(char *)"T 	c #E6100B",
(char *)"U 	c #804E36",
(char *)"V 	c #804F37",
(char *)"W 	c #815038",
(char *)"X 	c #82462E",
(char *)"Y 	c #F70503",
(char *)"Z 	c #DC140D",
(char *)"` 	c #9F3623",
(char *)" .	c #FE0000",
(char *)"..	c #943C27",
(char *)"+.	c #7D4A31",
(char *)"@.	c #7D4B32",
(char *)"#.	c #7A472E",
(char *)"$.	c #A82E1E",
(char *)"%.	c #FE0100",
(char *)"&.	c #AA2D1D",
(char *)"*.	c #7C452C",
(char *)"=.	c #EE0906",
(char *)"-.	c #C51E14",
(char *)";.	c #7B462D",
(char *)">.	c #79452C",
(char *)",.	c #B19283",
(char *)"'.	c #7E4C33",
(char *)").	c #7F4C33",
(char *)"!.	c #DA150E",
(char *)"~.	c #F80403",
(char *)"{.	c #84472F",
(char *)"].	c #7E4B32",
(char *)"^.	c #C02418",
(char *)"/.	c #F40604",
(char *)"(.	c #814930",
(char *)"_.	c #904A35",
(char *)":.	c #FC0201",
(char *)"<.	c #D11E15",
(char *)"[.	c #954531",
(char *)"}.	c #AB3626",
(char *)"|.	c #815139",
(char *)"1.	c #8B5E48",
(char *)"2.	c #8F634E",
(char *)"3.	c #8E624D",
(char *)"4.	c #8D614C",
(char *)"5.	c #C13529",
(char *)"6.	c #AC4737",
(char *)"7.	c #8D614B",
(char *)"8.	c #E51611",
(char *)"9.	c #DD1C16",
(char *)"0.	c #8B5D47",
(char *)"a.	c #8A5D46",
(char *)"b.	c #EC1410",
(char *)"c.	c #F30C0A",
(char *)"d.	c #986B58",
(char *)"e.	c #C04135",
(char *)"f.	c #FD0202",
(char *)"g.	c #A2614F",
(char *)"h.	c #956C58",
(char *)"i.	c #946B57",
(char *)"j.	c #946A56",
(char *)"k.	c #AA5848",
(char *)"l.	c #CF3229",
(char *)"m.	c #9D6553",
(char *)"n.	c #FB0403",
(char *)"o.	c #C8392F",
(char *)"p.	c #926853",
(char *)"q.	c #916651",
(char *)"r.	c #8F644F",
(char *)"s.	c #8D604A",
(char *)"t.	c #B09283",
(char *)"u.	c #D03027",
(char *)"v.	c #976C58",
(char *)"w.	c #DC251E",
(char *)"x.	c #EF110E",
(char *)"y.	c #926854",
(char *)"z.	c #8A5C46",
(char *)"A.	c #78432A",
(char *)"B.	c #6F371C",
(char *)"C.	c #6F371B",
(char *)"D.	c #79452B",
(char *)"E.	c #986A57",
(char *)"F.	c #F50B09",
(char *)"G.	c #F10E0C",
(char *)"H.	c #F80806",
(char *)"I.	c #FF0100",
(char *)"J.	c #FAA204",
(char *)"K.	c #F8D504",
(char *)"L.	c #F8D403",
(char *)"M.	c #F7D302",
(char *)"N.	c #F6D201",
(char *)"O.	c #F6D101",
(char *)"P.	c #905C11",
(char *)"Q.	c #936955",
(char *)"R.	c #B54D3F",
(char *)"S.	c #EE120E",
(char *)"T.	c #FF5400",
(char *)"U.	c #FFDB00",
(char *)"V.	c #F2CD02",
(char *)"W.	c #C99E08",
(char *)"X.	c #AC7C0D",
(char *)"Y.	c #D5AC07",
(char *)"Z.	c #FFDC00",
(char *)"`.	c #EFCA03",
(char *)" +	c #B1820C",
(char *)".+	c #B88A0B",
(char *)"++	c #DFB705",
(char *)"@+	c #FDDA00",
(char *)"#+	c #FEDB00",
(char *)"$+	c #9A6810",
(char *)"%+	c #6F381C",
(char *)"&+	c #84543D",
(char *)"*+	c #D82019",
(char *)"=+	c #A45E4D",
(char *)"-+	c #966B57",
(char *)";+	c #91644F",
(char *)">+	c #8B5C46",
(char *)",+	c #85543E",
(char *)"'+	c #7D482F",
(char *)")+	c #72381E",
(char *)"!+	c #BF180A",
(char *)"~+	c #FF0C00",
(char *)"{+	c #AC700D",
(char *)"]+	c #6D3417",
(char *)"^+	c #7E4814",
(char *)"/+	c #FEDC00",
(char *)"(+	c #B7890B",
(char *)"_+	c #814B14",
(char *)":+	c #F1CC02",
(char *)"<+	c #A3720E",
(char *)"[+	c #B09182",
(char *)"}+	c #762F15",
(char *)"|+	c #F90201",
(char *)"1+	c #DB0C06",
(char *)"2+	c #6E3418",
(char *)"3+	c #70381D",
(char *)"4+	c #6C3318",
(char *)"5+	c #923611",
(char *)"6+	c #A5200E",
(char *)"7+	c #794215",
(char *)"8+	c #B2840C",
(char *)"9+	c #6D3317",
(char *)"0+	c #8A5612",
(char *)"a+	c #F8D401",
(char *)"b+	c #AC7D0D",
(char *)"c+	c #AA1E0D",
(char *)"d+	c #A91E0E",
(char *)"e+	c #824D13",
(char *)"f+	c #FF2B00",
(char *)"g+	c #DC0C06",
(char *)"h+	c #C0940A",
(char *)"i+	c #B5870C",
(char *)"j+	c #703216",
(char *)"k+	c #EC0703",
(char *)"l+	c #892912",
(char *)"m+	c #8C5812",
(char *)"n+	c #FE7D00",
(char *)"o+	c #842B13",
(char *)"p+	c #976510",
(char *)"q+	c #BE920A",
(char *)"r+	c #A71E0E",
(char *)"s+	c #9F210F",
(char *)"t+	c #966211",
(char *)"u+	c #FEC400",
(char *)"v+	c #CD1108",
(char *)"w+	c #733B16",
(char *)"x+	c #FBD701",
(char *)"y+	c #C79B09",
(char *)"z+	c #8F2711",
(char *)"A+	c #BD170A",
(char *)"B+	c #FC0100",
(char *)"C+	c #B51A0C",
(char *)"D+	c #962410",
(char *)"E+	c #6F3216",
(char *)"F+	c #6E3217",
(char *)"G+	c #912611",
(char *)"H+	c #B6450B",
(char *)"I+	c #F55302",
(char *)"J+	c #BC170B",
(char *)"K+	c #9A2310",
(char *)"L+	c #7D4014",
(char *)"M+	c #CA9E08",
(char *)"N+	c #BF930A",
(char *)"O+	c #FD0100",
(char *)"P+	c #7C2E15",
(char *)"Q+	c #743016",
(char *)"R+	c #8B3912",
(char *)"S+	c #AF9081",
(char *)"T+	c #7D4714",
(char *)"U+	c #7B4415",
(char *)"V+	c #885313",
(char *)"W+	c #BE910A",
(char *)"X+	c #E9C304",
(char *)"Y+	c #8E5A12",
(char *)"Z+	c #804A14",
(char *)"`+	c #763F15",
(char *)" @	c #6D3517",
(char *)".@	c #E2BA05",
(char *)"+@	c #895512",
(char *)"@@	c #915D11",
(char *)"#@	c #713816",
(char *)"$@	c #A58271",
(char *)"%@	c #B89D8F",
(char *)"&@	c #A4816F",
(char *)"*@	c #9A725E",
(char *)"=@	c #AE8E7F",
(char *)"-@	c #B39688",
(char *)";@	c #98705C",
(char *)">@	c #A78574",
(char *)",@	c #A27E6D",
(char *)"'@	c #976F5B",
(char *)")@	c #895B44",
(char *)"!@	c #AA8979",
(char *)"~@	c #AA8978",
(char *)"{@	c #7A472C",
(char *)"]@	c #764126",
(char *)"        . + @ @ @ @ @ @ @ @ @ @ @ @ @ @ @ @ @ @ @ @ @ @ @ @ @ @ @ @ @ @ @ @ @ @ @ @ # $         ",
(char *)"    % & * & = = = = = = = = = = = = = = = = = = = = = = = = = = = = = = = = = = = = - ; > ,     ",
(char *)"  ' ) ! ~ { ] ] ] ] ] ] ] ] ] ] ] ] ] ] ] ] ] ] ] ] ] ] ] ] ] ] ] ] ] ] ] ] ] ] ] ] ^ / ( _ :   ",
(char *)"  < [ } | 1 2 2 2 2 2 2 2 2 2 2 2 2 2 2 2 2 2 2 2 2 2 2 2 2 2 2 2 2 2 2 2 2 2 2 2 2 3 4 5 : :   ",
(char *)"6 7 ~ 8 9 0 @ @ @ @ @ @ @ @ @ @ @ @ @ @ @ @ @ @ @ @ @ @ @ @ @ @ @ @ @ @ @ @ @ @ @ @ 4 a b : : : ",
(char *)"c & d e f g h h h h h h h h h h h h h h h h h h h h h h h h h h h h h h h h h h h h i j : : : : ",
(char *)"f f k l m > i i i i i i i i i i n o i i i i i i i i i i i i i i i i i i i i i i i i p q r s : : ",
(char *)"f f k l m > i i i i i i i i i i t u v i i i i i i i i i i i i i i i i i i i i i i i p q r s : : ",
(char *)"f f k l m > i i i i i i i i i w x y z i i i i i i i i i i i i i i i i i i i i i i i p q r s : : ",
(char *)"f f k l m > i i i i i i i i i A y y B i i i i i i i i i i i i i i i i i i i i i i i p q r s : : ",
(char *)"f f k l m > C C C C C C C C D E y y F G H H H H H H H H H i i i i i i i i i i i i i p q r s : : ",
(char *)"f f k l m > I I I I I I I I J y y y y K L L L L L L L L L M M M M M M M M M M M M N p q r s : : ",
(char *)"f f k l m > O O O O O O O P Q R S y y T U U U U U U U U V V V V V V V V V V V V V W p q r s : : ",
(char *)"f f k l m > j j j j j j j X Y Z `  .y  ...j j j j j j +.+.+.+.+.+.+.+.+.+.+.+.+.@.@.p q r s : : ",
(char *)"f f k l m > #.#.#.#.#.#.#.$.%.&.*.=.y  .-.;.q q q q >.>.>.>.>.>.>.>.>.>.>.>.>.q q q p q r s : : ",
(char *)",.f k l m > '.'.'.'.'.'.).!.~.{.].^. .y /.(.@.@.@.+.+.+.+.+.+.+.+.+.+.+.+.+.j j j j p q r s : : ",
(char *)",.f k l m > M M M L L L _.:.<.I 5 [.%.y y }.|.|.|.W W W W V V V V V V V V U U U U U p q r s : : ",
(char *)",.f k l m 1.2.3.3.3.3.4.5.x 6.7.7.7.8.y y 9.a > > > > 1.1.1.1.0.0.0.0.a.a.a.a.( ( ( p q r s : : ",
(char *)",.f k l m 1.m m m m m m b.c.d.m m m e.y y f.g.m m m m m m m m m m h.h.h.h.h.i.i.i.j.p q r s : : ",
(char *)",.f k l m 1.m m m m m k.x l.m m m m m.n.y y o.m m m m m m m m m p.q.r.3.s.2.m m m m p q r s : : ",
(char *)"t.f k l m 1.m m m m m u.x k.v.v.v.v.v.w.y y x.v.m m m y.z.W A.B.: : : : : : C.D.L 7.p q r s : : ",
(char *)"t.f k l m 1.s.m m m E.F.y G.G.G.G.G.G.H.y y I.J.K.L.M.N.N.N.N.N.N.N.N.N.N.N.N.O.P.: p q r s : : ",
(char *)"t.f k l m 1.: +.Q.m R.y c.S.S.S.S.S.S.S.n.y y T.U.V.W.X.Y.Z.Z.Z.`. +.+++@+Z.Z.#+$+: p q r s : : ",
(char *)"t.f k l m 1.: : %+&+*+x =+v.-+;+>+,+'+)+!+I.y ~+{+]+: : ^+#+Z./+(+]+: : _+:+Z.#+<+: p q r s : : ",
(char *)"[+f k l m 1.: : : }+|+1+2+3+4+: : : : : 5+I.y I.6+: : : 7+#+Z.#+8+9+: : : 0+a+#+b+9+p q r s : : ",
(char *)"[+f k l m 1.: : 9+c+ .d+: : : : : : : : e+f+y y g+9+: : 7+#+Z.#+8+9+: : : ]+h+#+i+9+p q r s : : ",
(char *)"[+f k l m 1.: : j+k+ .l+: : : : : : : : m+n+I.y  .o+: : 7+#+Z.#+8+9+: : : : p+#+q+]+p q r s : : ",
(char *)"[+f k l m 1.9+9+r+ . .s+9+9+: : : : : 9+t+u+%.y y v+9+9+7+#+Z.#+8+9+: : : : w+x+y+]+p q r s : : ",
(char *)"[+f k l m 1.z+A+B+y y k+C+D+E+: : : F+G+H+I+ .y y  .J+K+L+#+Z.#+8+9+: : : : ]+M+N+]+p q r s : : ",
(char *)"[+f k l m 1.1+O+ . . . .O+O+P+: : : Q+B+O+O+ . . . .O+O+R+#+Z.#+8+9+: : : : : : : : p q r s : : ",
(char *)"[+f k l m 1.l+G+G+G+G+G+G+G+E+: : : F+G+G+G+G+G+G+G+G+G+L+#+Z.#+8+9+: : : : : : : : p q r s : : ",
(char *)"[+f k l m 1.: 9+9+9+9+9+9+9+: : : : : 9+9+9+9+9+9+9+9+9+7+#+Z.#+8+9+: : : : : : : : p q r s : : ",
(char *)"[+f k l m 1.: : : : : : : : : : : : : : : : : : : : : : 7+#+Z.#+8+9+: : : : : : : : p q r s : : ",
(char *)"[+f k l m 1.: : : : : : : : : : : : : : : : : : : : : : 7+#+Z.#+8+9+: : : : : : : : p q r s : : ",
(char *)"[+f k l m 1.: : : : : : : : : : : : : : : : : : : : : : 7+#+Z.#+8+9+: : : : : : : : p q r s : : ",
(char *)"[+f k l m 1.: : : : : : : : : : : : : : : : : : : : : : 7+#+Z.#+8+9+: : : : : : : : p q r s : : ",
(char *)"[+f k l m 1.: : : : : : : : : : : : : : : : : : : : : : 7+#+Z.#+8+9+: : : : : : : : p q r s : : ",
(char *)"[+f k l m 1.: : : : : : : : : : : : : : : : : : : : : : 7+#+Z.#+8+9+: : : : : : : : p q r s : : ",
(char *)"S+f k l m 1.: : : : : : : : : : : : : : : : : : : : : : T+#+Z./+(+]+: : : : : : : : p q r s : : ",
(char *)"S+f k l m 1.: : : : : : : : : : : : : : : : : : : w+U+V+W+/+Z.Z.X+Y+Z+`+ @: : : : : p q r s : : ",
(char *)"S+f k l m 1.: : : : : : : : : : : : : : : : : : ]+.@Z.Z.Z.Z.Z.Z.Z.Z.Z.#+Z+: : : : : p q r s : : ",
(char *)"S+f k l m 1.: : : : : : : : : : : : : : : : : : : +@@@@@@@@@@@@@@@@@@@@@#@: : : : : p q r s : : ",
(char *)"$@%@& &@Q.5 = @ @ @ @ @ @ @ @ @ @ @ @ @ @ @ @ @ @ @ @ @ @ @ @ @ @ @ @ @ @ @ @ @ @ @ : : : : : : ",
(char *)"*@=@-@2 ;@i >@= = = = = = = = = = = = = = = = = = = = = = = = = = = = = = = = = = = : : : : : : ",
(char *)"  g ] ,@'@)@!@] ] ] ] ] ] ] ] ] ] ] ] ] ] ] ] ] ] ] ] ] ] ] ] ] ] ] ] ] ] ] ] ] ] ] : : : : :   ",
(char *)"  4.m '@q.C ~@2 2 2 2 2 2 2 2 2 2 2 2 2 2 2 2 2 2 2 2 2 2 2 2 2 2 2 2 2 2 2 2 2 2 2 : : : : :   ",
(char *)"    C ( H O l @ @ @ @ @ @ @ @ @ @ @ @ @ @ @ @ @ @ @ @ @ @ @ @ @ @ @ @ @ @ @ @ @ @ @ : : : :     ",
(char *)"        {@]@> h h h h h h h h h h h h h h h h h h h h h h h h h h h h h h h h h h h : :         "};
