/* XPM */
/* $Id: logo_at_032.xpm 955 2012-10-22 02:26:18Z  $ */
static char * logo_at_032_xpm[] = {
(char *)"32 32 191 2",
(char *)"  	c None",
(char *)". 	c #9F7967",
(char *)"+ 	c #A68574",
(char *)"@ 	c #A17D6B",
(char *)"# 	c #B39586",
(char *)"$ 	c #8E614C",
(char *)"% 	c #B19283",
(char *)"& 	c #CBB6AC",
(char *)"* 	c #C3ACA0",
(char *)"= 	c #A58271",
(char *)"- 	c #BA9F92",
(char *)"; 	c #916752",
(char *)"> 	c #6C3317",
(char *)", 	c #A07967",
(char *)"' 	c #CBB7AD",
(char *)") 	c #E7DDD9",
(char *)"! 	c #A98777",
(char *)"~ 	c #865740",
(char *)"{ 	c #6C3217",
(char *)"] 	c #A78675",
(char *)"^ 	c #C2AB9F",
(char *)"/ 	c #A98877",
(char *)"( 	c #946B57",
(char *)"_ 	c #8A5D46",
(char *)": 	c #733D22",
(char *)"< 	c #B19384",
(char *)"[ 	c #AB8B7B",
(char *)"} 	c #9D7764",
(char *)"| 	c #8E624D",
(char *)"1 	c #875942",
(char *)"2 	c #8B5640",
(char *)"3 	c #A74231",
(char *)"4 	c #764127",
(char *)"5 	c #7E4C33",
(char *)"6 	c #6F371C",
(char *)"7 	c #B13A2B",
(char *)"8 	c #FE0101",
(char *)"9 	c #94503B",
(char *)"0 	c #DE1912",
(char *)"a 	c #FF0000",
(char *)"b 	c #C02E22",
(char *)"c 	c #83533B",
(char *)"d 	c #84543C",
(char *)"e 	c #914B36",
(char *)"f 	c #EE0C08",
(char *)"g 	c #84553D",
(char *)"h 	c #85553E",
(char *)"i 	c #7E4D34",
(char *)"j 	c #B92A1C",
(char *)"k 	c #E1120C",
(char *)"l 	c #FC0201",
(char *)"m 	c #9D3B28",
(char *)"n 	c #7F4D35",
(char *)"o 	c #804E36",
(char *)"p 	c #7A462D",
(char *)"q 	c #79452C",
(char *)"r 	c #E80C08",
(char *)"s 	c #A52E1E",
(char *)"t 	c #D5160E",
(char *)"u 	c #CC1A11",
(char *)"v 	c #7A472E",
(char *)"w 	c #973E2A",
(char *)"x 	c #F70503",
(char *)"y 	c #824B33",
(char *)"z 	c #A63524",
(char *)"A 	c #F90402",
(char *)"B 	c #844831",
(char *)"C 	c #7D4B32",
(char *)"D 	c #8C5F49",
(char *)"E 	c #8B5E48",
(char *)"F 	c #CD281F",
(char *)"G 	c #D1251C",
(char *)"H 	c #8B5D47",
(char *)"I 	c #8C5B45",
(char *)"J 	c #F60705",
(char *)"K 	c #B6392B",
(char *)"L 	c #895C45",
(char *)"M 	c #895B44",
(char *)"N 	c #885A44",
(char *)"O 	c #885943",
(char *)"P 	c #875841",
(char *)"Q 	c #966D59",
(char *)"R 	c #986B58",
(char *)"S 	c #F60908",
(char *)"T 	c #AF5344",
(char *)"U 	c #D32E26",
(char *)"V 	c #E61A15",
(char *)"W 	c #B09283",
(char *)"X 	c #B54D3E",
(char *)"Y 	c #F10E0C",
(char *)"Z 	c #AB5747",
(char *)"` 	c #A55D4C",
(char *)" .	c #956C58",
(char *)"..	c #8D614B",
(char *)"+.	c #82523A",
(char *)"@.	c #753F25",
(char *)"#.	c #84543D",
(char *)"$.	c #8E634D",
(char *)"%.	c #DC241E",
(char *)"&.	c #FA0605",
(char *)"*.	c #EF110E",
(char *)"=.	c #FE6801",
(char *)"-.	c #FCD802",
(char *)";.	c #FBD701",
(char *)">.	c #F5D102",
(char *)",.	c #F5D002",
(char *)"'.	c #E6C004",
(char *)").	c #925843",
(char *)"!.	c #FC0302",
(char *)"~.	c #BE4337",
(char *)"{.	c #B64A3C",
(char *)"].	c #B14334",
(char *)"^.	c #AB3A2B",
(char *)"/.	c #A53222",
(char *)"(.	c #C61B0F",
(char *)"_.	c #FF1700",
(char *)":.	c #B8880B",
(char *)"<.	c #7E4914",
(char *)"[.	c #6D3417",
(char *)"}.	c #E3BC04",
(char *)"|.	c #FFDC00",
(char *)"1.	c #D7AE06",
(char *)"2.	c #804A14",
(char *)"3.	c #C1950A",
(char *)"4.	c #F3CE02",
(char *)"5.	c #6E361B",
(char *)"6.	c #B09182",
(char *)"7.	c #A71E0E",
(char *)"8.	c #E20A05",
(char *)"9.	c #6D3519",
(char *)"0.	c #6D3418",
(char *)"a.	c #823913",
(char *)"b.	c #FF0300",
(char *)"c.	c #962511",
(char *)"d.	c #D8AF06",
(char *)"e.	c #CB9F08",
(char *)"f.	c #CDA208",
(char *)"g.	c #FCD900",
(char *)"h.	c #6D3317",
(char *)"i.	c #E60904",
(char *)"j.	c #B8190B",
(char *)"k.	c #7F4814",
(char *)"l.	c #FF4200",
(char *)"m.	c #CE1108",
(char *)"n.	c #905C11",
(char *)"o.	c #713916",
(char *)"p.	c #6E3217",
(char *)"q.	c #AD1C0D",
(char *)"r.	c #C41509",
(char *)"s.	c #885213",
(char *)"t.	c #F46902",
(char *)"u.	c #FD0100",
(char *)"v.	c #842B13",
(char *)"w.	c #6F3617",
(char *)"x.	c #F8D401",
(char *)"y.	c #7A4415",
(char *)"z.	c #9C7663",
(char *)"A.	c #DB0C06",
(char *)"B.	c #EB0703",
(char *)"C.	c #962410",
(char *)"D.	c #942511",
(char *)"E.	c #E50B04",
(char *)"F.	c #F80201",
(char *)"G.	c #C31509",
(char *)"H.	c #855013",
(char *)"I.	c #703816",
(char *)"J.	c #8B2812",
(char *)"K.	c #912611",
(char *)"L.	c #7A2E15",
(char *)"M.	c #792E15",
(char *)"N.	c #882913",
(char *)"O.	c #AF9081",
(char *)"P.	c #DAB206",
(char *)"Q.	c #CCA208",
(char *)"R.	c #773F15",
(char *)"S.	c #A6760E",
(char *)"T.	c #B4860C",
(char *)"U.	c #B2840C",
(char *)"V.	c #A5740E",
(char *)"W.	c #723A16",
(char *)"X.	c #B6870B",
(char *)"Y.	c #743C16",
(char *)"Z.	c #A88575",
(char *)"`.	c #BCA195",
(char *)" +	c #A27D6C",
(char *)".+	c #956A57",
(char *)"++	c #A88676",
(char *)"@+	c #916652",
(char *)"#+	c #936955",
(char *)"$+	c #804C33",
(char *)"%+	c #79462D",
(char *)"    . + @ @ @ @ @ @ @ @ @ @ @ @ @ @ @ @ @ @ @ @ @ @ @ @ # $     ",
(char *)"  % & * = = = = = = = = = = = = = = = = = = = = = = = = - ; >   ",
(char *)", ' ) * ! ! ! ! ! ! ! ! ! ! ! ! ! ! ! ! ! ! ! ! ! ! ! ! = ~ > { ",
(char *)"] ^ ^ / ( ( ( ( ( ( ( ( ( ( ( ( ( ( ( ( ( ( ( ( ( ( ( ( _ : > > ",
(char *)"< [ } | 1 1 1 1 1 1 2 3 1 1 1 1 1 1 1 1 1 1 1 1 1 1 1 1 4 5 6 > ",
(char *)"< [ } | 1 1 1 1 1 1 7 8 9 1 1 1 1 1 1 1 1 1 1 1 1 1 1 1 4 5 6 > ",
(char *)"< [ } | 1 1 1 1 1 1 0 a b 1 1 1 1 1 1 1 1 1 1 1 1 1 1 1 4 5 6 > ",
(char *)"< [ } | c c c d d e 8 a f d d g g g g g g g g h h h h h 4 5 6 > ",
(char *)"< [ } | 5 5 i i i j k l a m n n n n n n n n n o o o o o 4 5 6 > ",
(char *)"< [ } | p q q q q r s t a u p p p p p p p p v v v v v v 4 5 6 > ",
(char *)"% [ } | i i i i w x y z a A B 5 5 5 5 5 5 C C C C C C C 4 5 6 > ",
(char *)"% [ } | D D E E F G H I J a K L M M M N N N O O 1 1 1 P 4 5 6 > ",
(char *)"% [ } | Q Q Q R S T Q Q U a V Q Q Q Q Q Q Q Q Q Q Q Q Q 4 5 6 > ",
(char *)"W [ } | Q Q Q X Y Q Q Q Z a a ` Q Q  ...+.q 4 @.: p #.$.4 5 6 > ",
(char *)"W [ } | ~ Q Q %.&.*.*.*.*.a a =.-.;.>.;.;.;.,.;.;.;.'.> 4 5 6 > ",
(char *)"W [ } | > 4 ).!.~.{.].^./.(.a _.:.<.[.}.|.1.> 2.3.|.4.> 4 5 5.> ",
(char *)"6.[ } | > > 7.8.9.0.> > > a.b.a c.> > d.|.e.> > > f.g.> 4 5 5.> ",
(char *)"6.[ } | > h.i.j.> > > > > k.l.a m.> > d.|.e.> > > n.|.o.4 5 5.> ",
(char *)"6.[ } | p.q.a r.> > > > > s.t.a u.v.> d.|.e.> > > w.x.y.4 5 5.> ",
(char *)"6.[ z.| A.a a a B.C.> > D.E.a a a F.G.d.|.e.> > > > H.I.4 5 5.> ",
(char *)"6.[ z.| J.K.K.K.K.L.> > M.K.K.K.K.K.N.d.|.e.> > > > > > 4 i 5.> ",
(char *)"6.[ z.| > > > > > > > > > > > > > > > d.|.e.> > > > > > 4 i 5.> ",
(char *)"6.[ z.| > > > > > > > > > > > > > > > d.|.e.> > > > > > 4 i 5.> ",
(char *)"6.[ z.| > > > > > > > > > > > > > > > d.|.e.> > > > > > 4 i 5.> ",
(char *)"6.[ z.| > > > > > > > > > > > > > > > d.|.e.> > > > > > 4 i 5.> ",
(char *)"O.[ z.| > > > > > > > > > > > > > > > P.|.Q.> > > > > > 4 i 5.> ",
(char *)"O.[ z.| > > > > > > > > > > > > R.S.T.;.|.,.U.V.W.> > > 4 i 5.> ",
(char *)"O.[ z.| > > > > > > > > > > > > y.X.X.X.X.X.X.X.Y.> > > 4 i 5.> ",
(char *)"Z.`. +O  +@ @ @ @ @ @ @ @ @ @ @ @ @ @ @ @ @ @ @ @ @ @ @ > > > > ",
(char *)".+!  +..++= = = = = = = = = = = = = = = = = = = = = = = > > > { ",
(char *)"  @+#+O / ! ! ! ! ! ! ! ! ! ! ! ! ! ! ! ! ! ! ! ! ! ! ! > > >   ",
(char *)"    $+%+@+( ( ( ( ( ( ( ( ( ( ( ( ( ( ( ( ( ( ( ( ( ( ( > {     "};
