/* XPM */
/* $Id: logo_hie_016.xpm 955 2012-10-22 02:26:18Z  $ */
static char * logo_hie_016_xpm[] = {
(char *)"16 16 47 1",
(char *)" 	c #100000",
(char *)".	c #070000",
(char *)"+	c #260A00",
(char *)"@	c #FFC900",
(char *)"#	c #0E0000",
(char *)"$	c #120000",
(char *)"%	c #0D0000",
(char *)"&	c #1E0800",
(char *)"*	c #0F0000",
(char *)"=	c #1F0800",
(char *)"-	c #1D0400",
(char *)";	c #110000",
(char *)">	c #412300",
(char *)",	c #412500",
(char *)"'	c #250800",
(char *)")	c #000000",
(char *)"!	c #2A0B00",
(char *)"~	c #060000",
(char *)"{	c #220500",
(char *)"]	c #250D00",
(char *)"^	c #331800",
(char *)"/	c #391400",
(char *)"(	c #260D00",
(char *)"_	c #401900",
(char *)":	c #0A0000",
(char *)"<	c #020000",
(char *)"[	c #1A0100",
(char *)"}	c #0B0000",
(char *)"|	c #2D0D00",
(char *)"1	c #2E0E00",
(char *)"2	c #331200",
(char *)"3	c #2E1000",
(char *)"4	c #090000",
(char *)"5	c #FDC600",
(char *)"6	c #301200",
(char *)"7	c #1D0800",
(char *)"8	c #371600",
(char *)"9	c #150200",
(char *)"0	c #1A0000",
(char *)"a	c #260900",
(char *)"b	c #030000",
(char *)"c	c #170000",
(char *)"d	c #402900",
(char *)"e	c #412401",
(char *)"f	c #321100",
(char *)"g	c #3A1900",
(char *)"h	c #341500",
(char *)" .+@@#$$%@@ $$$$",
(char *)"#@@@#&* @@=**%-;",
(char *)"*#@#;>@@@@@@@@@,",
(char *)";;@##'@).!@)~{@.",
(char *)"#@@@@#@]^/@(^_@:",
(char *)"%<@#~[@@@@@@@@@}",
(char *)"$.@##|@.#1@.#2@}",
(char *)"$@@@#3@###@###@4",
(char *)"$@@@56@@@@@@@@@#",
(char *)";@@#@7@##8#9$$@$",
(char *)"@@@##:0@@a@b:##c",
(char *)"@d@#e#@@##@###@#",
(char *)"@#@# @@@@@@@@@@@",
(char *)";;@#;$$$$f@:$$$$",
(char *)"$;@#;$$$$g@:$$$$",
(char *)"$;@#;$$$$h@}$$$$"};
