/* XPM */
/* $Id: logo_catraeus_button_032.xpm 963 2012-10-24 03:32:21Z  $ */
static char * logo_catraeus_button_032_xpm[] = {
(char *)"32 32 419 2",
(char *)"  	c None",
(char *)". 	c #F5F5F5",
(char *)"+ 	c #F4F4F4",
(char *)"@ 	c #EFEFEF",
(char *)"# 	c #D2D2D2",
(char *)"$ 	c #F2F2F2",
(char *)"% 	c #CECECE",
(char *)"& 	c #B1B1B1",
(char *)"* 	c #949494",
(char *)"= 	c #D7D7D7",
(char *)"- 	c #CACACA",
(char *)"; 	c #C4C4C4",
(char *)"> 	c #C2C2C2",
(char *)", 	c #C0BFBF",
(char *)"' 	c #AD9D91",
(char *)") 	c #A48D7B",
(char *)"! 	c #9D816A",
(char *)"~ 	c #9C806A",
(char *)"{ 	c #A38C7A",
(char *)"] 	c #AC9C92",
(char *)"^ 	c #C8C8C8",
(char *)"/ 	c #BABABA",
(char *)"( 	c #888888",
(char *)"_ 	c #838383",
(char *)": 	c #808080",
(char *)"< 	c #C0C0C0",
(char *)"[ 	c #B5ACA4",
(char *)"} 	c #977457",
(char *)"| 	c #8D6038",
(char *)"1 	c #8B5C33",
(char *)"2 	c #8A5B31",
(char *)"3 	c #89592F",
(char *)"4 	c #86552B",
(char *)"5 	c #835127",
(char *)"6 	c #7F4C23",
(char *)"7 	c #7E4D27",
(char *)"8 	c #8E6A4F",
(char *)"9 	c #B4ABA5",
(char *)"0 	c #A38A75",
(char *)"a 	c #91653D",
(char *)"b 	c #93673E",
(char *)"c 	c #946940",
(char *)"d 	c #92683E",
(char *)"e 	c #8A7438",
(char *)"f 	c #7F842F",
(char *)"g 	c #778728",
(char *)"h 	c #7B6A25",
(char *)"i 	c #7F4F23",
(char *)"j 	c #7B461E",
(char *)"k 	c #784420",
(char *)"l 	c #9D8473",
(char *)"m 	c #ACACAC",
(char *)"n 	c #B6AEA8",
(char *)"o 	c #977150",
(char *)"p 	c #966B43",
(char *)"q 	c #9A714A",
(char *)"r 	c #9D754E",
(char *)"s 	c #9C7D4F",
(char *)"t 	c #8BA847",
(char *)"u 	c #80BC40",
(char *)"v 	c #7ABE3A",
(char *)"w 	c #74BC32",
(char *)"x 	c #6DBA29",
(char *)"y 	c #65B920",
(char *)"z 	c #5EB418",
(char *)"A 	c #619815",
(char *)"B 	c #705B18",
(char *)"C 	c #743E19",
(char *)"D 	c #83593F",
(char *)"E 	c #B5AEAB",
(char *)"F 	c #AFAFAF",
(char *)"G 	c #CBCBCB",
(char *)"H 	c #946942",
(char *)"I 	c #9A7049",
(char *)"J 	c #A07953",
(char *)"K 	c #A5805B",
(char *)"L 	c #A1975E",
(char *)"M 	c #93C15A",
(char *)"N 	c #8FC656",
(char *)"O 	c #8CC451",
(char *)"P 	c #85C248",
(char *)"Q 	c #7DBF3E",
(char *)"R 	c #75BC33",
(char *)"S 	c #6BBA27",
(char *)"T 	c #62B81D",
(char *)"U 	c #58B814",
(char *)"V 	c #50B70C",
(char *)"W 	c #5A880E",
(char *)"X 	c #6D4315",
(char *)"Y 	c #723D20",
(char *)"Z 	c #B3B3B3",
(char *)"` 	c #987352",
(char *)" .	c #9B724B",
(char *)"..	c #A37D58",
(char *)"+.	c #AB8764",
(char *)"@.	c #A3B16A",
(char *)"#.	c #A0CE6E",
(char *)"$.	c #A0CE70",
(char *)"%.	c #9ECD6B",
(char *)"&.	c #98CA63",
(char *)"*.	c #91C157",
(char *)"=.	c #8CB24B",
(char *)"-.	c #81AD3D",
(char *)";.	c #77AA30",
(char *)">.	c #6DA724",
(char *)",.	c #61A819",
(char *)"'.	c #52B70E",
(char *)").	c #49B907",
(char *)"!.	c #46AD05",
(char *)"~.	c #654D13",
(char *)"{.	c #815741",
(char *)"].	c #A48B77",
(char *)"^.	c #AC8A68",
(char *)"/.	c #ACAD74",
(char *)"(.	c #AAD37E",
(char *)"_.	c #B0D688",
(char *)":.	c #B1D789",
(char *)"<.	c #AFCE82",
(char *)"[.	c #B1A979",
(char *)"}.	c #AE8E6C",
(char *)"|.	c #A5815C",
(char *)"1.	c #9D744D",
(char *)"2.	c #94683F",
(char *)"3.	c #8C5D33",
(char *)"4.	c #845329",
(char *)"5.	c #7B5020",
(char *)"6.	c #6A6515",
(char *)"7.	c #58810C",
(char *)"8.	c #479C06",
(char *)"9.	c #5F5611",
(char *)"0.	c #9C8477",
(char *)"a.	c #976C46",
(char *)"b.	c #AA8764",
(char *)"c.	c #B39D76",
(char *)"d.	c #AED384",
(char *)"e.	c #B9DC96",
(char *)"f.	c #C2E1A4",
(char *)"g.	c #C3DAA4",
(char *)"h.	c #C7B69A",
(char *)"i.	c #BEA388",
(char *)"j.	c #AD9686",
(char *)"k.	c #908E9D",
(char *)"l.	c #7E83A2",
(char *)"m.	c #6B79AB",
(char *)"n.	c #5772BA",
(char *)"o.	c #5266AA",
(char *)"p.	c #585981",
(char *)"q.	c #684844",
(char *)"r.	c #723B18",
(char *)"s.	c #6E3617",
(char *)"t.	c #664414",
(char *)"u.	c #6F3A1E",
(char *)"v.	c #B4ACA7",
(char *)"w.	c #9A785B",
(char *)"x.	c #B08F6E",
(char *)"y.	c #AEC47E",
(char *)"z.	c #B9DB95",
(char *)"A.	c #C8E5AF",
(char *)"B.	c #D4EDC3",
(char *)"C.	c #D8D2BD",
(char *)"D.	c #CDB9A5",
(char *)"E.	c #B6ABA7",
(char *)"F.	c #92A3CE",
(char *)"G.	c #7F95CC",
(char *)"H.	c #6F89C9",
(char *)"I.	c #5E7DC8",
(char *)"J.	c #5074CA",
(char *)"K.	c #426BCE",
(char *)"L.	c #3564D5",
(char *)"M.	c #295FDE",
(char *)"N.	c #3951A5",
(char *)"O.	c #633A32",
(char *)"P.	c #6C3417",
(char *)"Q.	c #8A6653",
(char *)"R.	c #CAC9C9",
(char *)"S.	c #946943",
(char *)"T.	c #A7825F",
(char *)"U.	c #ABA870",
(char *)"V.	c #ADD482",
(char *)"W.	c #BEDE9D",
(char *)"X.	c #CDE8B8",
(char *)"Y.	c #DDEACF",
(char *)"Z.	c #D9CABC",
(char *)"`.	c #C2BABA",
(char *)" +	c #9FB0D8",
(char *)".+	c #8DA1D0",
(char *)"++	c #7B93CB",
(char *)"@+	c #6B87C8",
(char *)"#+	c #5C7BC8",
(char *)"$+	c #5171C1",
(char *)"%+	c #4F64A7",
(char *)"&+	c #51578A",
(char *)"*+	c #48518D",
(char *)"=+	c #3252B4",
(char *)"-+	c #2251D2",
(char *)";+	c #533E56",
(char *)">+	c #713D22",
(char *)",+	c #B1AFAF",
(char *)"'+	c #BCAEA4",
(char *)")+	c #9D754F",
(char *)"!+	c #A88360",
(char *)"~+	c #A1C06C",
(char *)"{+	c #ABD480",
(char *)"]+	c #C5E3A9",
(char *)"^+	c #D2CCB2",
(char *)"/+	c #CEBAA7",
(char *)"(+	c #ADB4CD",
(char *)"_+	c #96A9D4",
(char *)":+	c #869BCE",
(char *)"<+	c #768ECA",
(char *)"[+	c #6882C4",
(char *)"}+	c #7A6A70",
(char *)"|+	c #88582E",
(char *)"1+	c #804D24",
(char *)"2+	c #7A451D",
(char *)"3+	c #703817",
(char *)"4+	c #683520",
(char *)"5+	c #A1958F",
(char *)"6+	c #B4A192",
(char *)"7+	c #9C734C",
(char *)"8+	c #A3875B",
(char *)"9+	c #A4D075",
(char *)"0+	c #AFD585",
(char *)"a+	c #B6D790",
(char *)"b+	c #C6AF97",
(char *)"c+	c #BCA99C",
(char *)"d+	c #98A9D5",
(char *)"e+	c #8A9ECF",
(char *)"f+	c #6D87C8",
(char *)"g+	c #797386",
(char *)"h+	c #7D4921",
(char *)"i+	c #803F1A",
(char *)"j+	c #932D11",
(char *)"k+	c #842D12",
(char *)"l+	c #6F3316",
(char *)"m+	c #98877D",
(char *)"n+	c #AF9986",
(char *)"o+	c #91643B",
(char *)"p+	c #996F47",
(char *)"q+	c #979451",
(char *)"r+	c #91C658",
(char *)"s+	c #9ACB66",
(char *)"t+	c #A2CE71",
(char *)"u+	c #A9C579",
(char *)"v+	c #B99B7E",
(char *)"w+	c #A59C9F",
(char *)"x+	c #879CCE",
(char *)"y+	c #6280C8",
(char *)"z+	c #896245",
(char *)"A+	c #87572D",
(char *)"B+	c #814D24",
(char *)"C+	c #AB3014",
(char *)"D+	c #D91205",
(char *)"E+	c #DD0901",
(char *)"F+	c #E10100",
(char *)"G+	c #DF0100",
(char *)"H+	c #CC0904",
(char *)"I+	c #96210F",
(char *)"J+	c #927B70",
(char *)"K+	c #AE9885",
(char *)"L+	c #8E6036",
(char *)"M+	c #956941",
(char *)"N+	c #8E9746",
(char *)"O+	c #87C34B",
(char *)"P+	c #8FC655",
(char *)"Q+	c #94C85C",
(char *)"R+	c #98C161",
(char *)"S+	c #958D95",
(char *)"T+	c #768FCB",
(char *)"U+	c #6D87C9",
(char *)"V+	c #5877C5",
(char *)"W+	c #825027",
(char *)"X+	c #A43718",
(char *)"Y+	c #DA1507",
(char *)"Z+	c #DC0C03",
(char *)"`+	c #DF0400",
(char *)" @	c #E10000",
(char *)".@	c #9A1F0E",
(char *)"+@	c #B3A193",
(char *)"@@	c #8A5A30",
(char *)"#@	c #906239",
(char *)"$@	c #829A3A",
(char *)"%@	c #7DBF3D",
(char *)"&@	c #83C144",
(char *)"*@	c #86C249",
(char *)"=@	c #87C14B",
(char *)"-@	c #A07A54",
(char *)";@	c #867F8C",
(char *)">@	c #6783C8",
(char *)",@	c #5577C9",
(char *)"'@	c #536DB6",
(char *)")@	c #CF1C0B",
(char *)"!@	c #DB0F04",
(char *)"~@	c #C81006",
(char *)"{@	c #AC180A",
(char *)"]@	c #B91208",
(char *)"^@	c #CB0A04",
(char *)"/@	c #BE0F07",
(char *)"(@	c #BAAEA5",
(char *)"_@	c #85542A",
(char *)":@	c #8A5A31",
(char *)"<@	c #7A982E",
(char *)"[@	c #72BB2F",
(char *)"}@	c #76BD34",
(char *)"|@	c #78BD37",
(char *)"1@	c #79BD38",
(char *)"2@	c #937342",
(char *)"3@	c #797282",
(char *)"4@	c #5778C9",
(char *)"5@	c #476FCC",
(char *)"6@	c #4B65B1",
(char *)"7@	c #80401A",
(char *)"8@	c #DB1004",
(char *)"9@	c #DD0801",
(char *)"0@	c #7E2D13",
(char *)"a@	c #703216",
(char *)"b@	c #792E14",
(char *)"c@	c #83532C",
(char *)"d@	c #845229",
(char *)"e@	c #748B25",
(char *)"f@	c #67B922",
(char *)"g@	c #6AB926",
(char *)"h@	c #6CBA28",
(char *)"i@	c #7F822F",
(char *)"j@	c #7C6257",
(char *)"k@	c #486FCC",
(char *)"l@	c #3B68D1",
(char *)"m@	c #3762CD",
(char *)"n@	c #78421B",
(char *)"o@	c #7F3816",
(char *)"p@	c #E00200",
(char *)"q@	c #8A2711",
(char *)"r@	c #906C50",
(char *)"s@	c #7F4B22",
(char *)"t@	c #707C1E",
(char *)"u@	c #5CB817",
(char *)"v@	c #5FB81A",
(char *)"w@	c #60B81B",
(char *)"x@	c #679F1D",
(char *)"y@	c #81512A",
(char *)"z@	c #3F66C7",
(char *)"A@	c #2F61D9",
(char *)"B@	c #285EDF",
(char *)"C@	c #6B3F2C",
(char *)"D@	c #DA0501",
(char *)"E@	c #B4ABA4",
(char *)"F@	c #7B4722",
(char *)"G@	c #76561C",
(char *)"H@	c #53B70E",
(char *)"I@	c #54B80F",
(char *)"J@	c #55B810",
(char *)"K@	c #76541C",
(char *)"L@	c #46589E",
(char *)"M@	c #245DE3",
(char *)"N@	c #1E5AE9",
(char *)"O@	c #574152",
(char *)"P@	c #B81208",
(char *)"Q@	c #9B1F0E",
(char *)"R@	c #6F391E",
(char *)"S@	c #76401A",
(char *)"T@	c #559B0C",
(char *)"U@	c #4BB908",
(char *)"V@	c #4AB908",
(char *)"W@	c #617511",
(char *)"X@	c #5F454C",
(char *)"Y@	c #1F5AE6",
(char *)"Z@	c #1959F0",
(char *)"`@	c #1458F7",
(char *)" #	c #404586",
(char *)".#	c #763015",
(char *)"+#	c #D80402",
(char *)"@#	c #AE170A",
(char *)"##	c #84593E",
(char *)"$#	c #6C4B15",
(char *)"%#	c #47AF05",
(char *)"&#	c #42BB03",
(char *)"*#	c #41BC03",
(char *)"=#	c #40BC02",
(char *)"-#	c #4E9208",
(char *)";#	c #6F3717",
(char *)">#	c #4A436F",
(char *)",#	c #1057FE",
(char *)"'#	c #2D4CB5",
(char *)")#	c #842912",
(char *)"!#	c #D00703",
(char *)"~#	c #C60C05",
(char *)"{#	c #85533E",
(char *)"]#	c #654E13",
(char *)"^#	c #3DB702",
(char *)"/#	c #39C000",
(char *)"(#	c #38C100",
(char *)"_#	c #3BB502",
(char *)":#	c #43447D",
(char *)"<#	c #1555F1",
(char *)"[#	c #1A53E4",
(char *)"}#	c #723216",
(char *)"|#	c #A51B0C",
(char *)"1#	c #D90402",
(char *)"2#	c #BD8F8C",
(char *)"3#	c #605312",
(char *)"4#	c #3FAB04",
(char *)"5#	c #36C200",
(char *)"6#	c #644914",
(char *)"7#	c #663627",
(char *)"8#	c #3D468E",
(char *)"9#	c #673623",
(char *)"0#	c #B5ADAA",
(char *)"a#	c #5B5F10",
(char *)"b#	c #449D06",
(char *)"c#	c #59660F",
(char *)"d#	c #AAAAAA",
(char *)"e#	c #D0D0D0",
(char *)"f#	c #B2B2B2",
(char *)"g#	c #ADADAD",
(char *)"h#	c #9E9E9E",
(char *)"i#	c #E5E5E5",
(char *)"j#	c #A7A7A7",
(char *)"k#	c #828282",
(char *)"l#	c #868686",
(char *)"    . + + + + + + + + + + + + + + + + + + + + + + + + + + .     ",
(char *)"  + + + + + + + + + + + + + + + + + + + + + + + + + + + + @ #   ",
(char *)". + + + + + + + + + + + + + + + + + + + + + + + + + + + $ % & * ",
(char *)"+ + + = - - ; > > > > > , ' ) ! ~ { ] , > > > > > ; - ^ / ( _ : ",
(char *)"+ + + # < < < < < < [ } | 1 2 3 4 5 6 7 8 9 < < < < < < & : : : ",
(char *)"+ + + # < < < < , 0 a b c c d e f g h i j k l , < < < < m : : : ",
(char *)"+ + + % < < < n o p q r s t u v w x y z A B C D E < < < F : : : ",
(char *)"+ + + G < < n H I J K L M N O P Q R S T U V W X Y E < < Z : : : ",
(char *)"+ + + G < , `  ...+.@.#.$.%.&.*.=.-.;.>.,.'.).!.~.{., < Z : : : ",
(char *)"+ + + G < ].q ..^./.(._.:.<.[.}.|.1.2.3.4.5.6.7.8.9.0.< Z : : : ",
(char *)"+ + + G [ a.J b.c.d.e.f.g.h.i.j.k.l.m.n.o.p.q.r.s.t.u.v.Z : : : ",
(char *)"+ + + G w.q K x.y.z.A.B.C.D.E.F.G.H.I.J.K.L.M.N.O.P.P.Q.Z : : : ",
(char *)"+ + + R.S.1.T.U.V.W.X.Y.Z.`. +.+++@+#+$+%+&+*+=+-+;+P.>+,+: : : ",
(char *)"+ + + '+2.)+!+~+{+z.]+^+/+(+_+:+<+[+}+|+1+2+C 3+P.4+P.P.5+: : : ",
(char *)"+ + + 6+b 7+8+&.9+0+a+b+c+d+e+++f+g+3.4.h+i+j+k+l+P.P.P.m+: : : ",
(char *)"+ + + n+o+p+q+r+s+t+u+v+w+x+++H.y+z+A+B+C+D+E+F+G+H+I+P.J+: : : ",
(char *)"+ + + K+L+M+N+O+P+Q+R+^.S+T+U+y+V+3 W+X+Y+Z+`+ @ @ @ @.@J+: : : ",
(char *)"+ + + +@@@#@$@%@&@*@=@-@;@>@I.,@'@5 h+)@!@~@{@]@^@G+ @/@m+: : : ",
(char *)"+ + + (@_@:@<@[@}@|@1@2@3@4@J.5@6@h+7@8@9@0@P.P.P.a@b@P.5+: : : ",
(char *)"+ + + R.c@d@e@f@g@h@h@i@j@k@K.l@m@n@o@E+p@q@P.P.P.P.P.>+,+: : : ",
(char *)"+ + + G r@s@t@u@v@w@w@x@y@z@L.A@B@C@3+D@ @{@P.P.P.P.P.Q.Z : : : ",
(char *)"+ + + G E@F@G@H@I@J@J@H@K@L@M.M@N@O@P.P@ @ @Q@P.P.P.R@v.Z : : : ",
(char *)"+ + + G < l S@T@U@U@V@).W@X@Y@Z@`@ #P..#+# @ @@#l+P.0.< Z : : : ",
(char *)"+ + + G < , ##$#%#&#*#=#-#;#>#,#,#'#P.P.)#!# @ @~#{#, < Z : : : ",
(char *)"+ + + G < < E Y ]#^#/#(#_#P.P.:#<#[#P.P.P.}#|#~#1#2#< < Z : : : ",
(char *)"+ + + % < < < E {.3#4#5#5#6#P.P.7#8#9#P.P.P.P.{.0#< < < F : : : ",
(char *)"+ + + # < < < < , 0.u.a#b#c#P.P.P.P.P.P.P.R@0., < < < < d#: : : ",
(char *)"+ + + e#< < < < < < v.Q.>+P.P.P.P.P.P.>+Q.v.< < < < < < d#: : : ",
(char *)"+ + $ < f#g#F Z Z Z Z Z ,+5+m+J+J+m+5+,+Z Z Z Z Z F d#d#h#: : : ",
(char *)". i#^ ( : : : : : : : : : : : : : : : : : : : : : : : : : : : : ",
(char *)"  ; j#k#: : : : : : : : : : : : : : : : : : : : : : : : : : :   ",
(char *)"    l#: : : : : : : : : : : : : : : : : : : : : : : : : : :     "};
