/* XPM */
/* $Id: op_file_open_bright_064.xpm 1012 2012-11-02 01:07:33Z  $ */
static char * op_file_open_bright_064_xpm[] = {
(char *)"64 64 209 2",
(char *)"  	c None",
(char *)". 	c #C0C0C0",
(char *)"+ 	c #AEAEAE",
(char *)"@ 	c #373737",
(char *)"# 	c #363636",
(char *)"$ 	c #929292",
(char *)"% 	c #5C5C5C",
(char *)"& 	c #010101",
(char *)"* 	c #665A2B",
(char *)"= 	c #776832",
(char *)"- 	c #675B2B",
(char *)"; 	c #15130F",
(char *)"> 	c #BBBBBB",
(char *)", 	c #6C6C6C",
(char *)"' 	c #2D2814",
(char *)") 	c #685B2B",
(char *)"! 	c #EDD063",
(char *)"~ 	c #463E20",
(char *)"{ 	c #626260",
(char *)"] 	c #5D5229",
(char *)"^ 	c #131008",
(char *)"/ 	c #CBB255",
(char *)"( 	c #D0B757",
(char *)"_ 	c #100F0B",
(char *)": 	c #A7A7A7",
(char *)"< 	c #665A2D",
(char *)"[ 	c #7F7035",
(char *)"} 	c #4A411F",
(char *)"| 	c #7A6C35",
(char *)"1 	c #3C3B36",
(char *)"2 	c #E7CB61",
(char *)"3 	c #211D0E",
(char *)"4 	c #B29D4B",
(char *)"5 	c #E6CA60",
(char *)"6 	c #201D12",
(char *)"7 	c #878787",
(char *)"8 	c #A18D43",
(char *)"9 	c #2E2913",
(char *)"0 	c #ECCF63",
(char *)"a 	c #A99447",
(char *)"b 	c #1B1915",
(char *)"c 	c #BABABA",
(char *)"d 	c #3B3318",
(char *)"e 	c #95833E",
(char *)"f 	c #494123",
(char *)"g 	c #605F5D",
(char *)"h 	c #BFA850",
(char *)"i 	c #19160A",
(char *)"j 	c #CFB657",
(char *)"k 	c #0A0907",
(char *)"l 	c #B8B8B8",
(char *)"m 	c #917F3D",
(char *)"n 	c #1D190C",
(char *)"o 	c #CCB355",
(char *)"p 	c #94622E",
(char *)"q 	c #7C2F16",
(char *)"r 	c #853712",
(char *)"s 	c #925528",
(char *)"t 	c #C09C4A",
(char *)"u 	c #030302",
(char *)"v 	c #BDBDBD",
(char *)"w 	c #8F7E3C",
(char *)"x 	c #0F0D06",
(char *)"y 	c #483F1E",
(char *)"z 	c #857538",
(char *)"A 	c #A59145",
(char *)"B 	c #C6AE53",
(char *)"C 	c #E6C960",
(char *)"D 	c #DCBF5B",
(char *)"E 	c #74160A",
(char *)"F 	c #964700",
(char *)"G 	c #9A9000",
(char *)"H 	c #B28E00",
(char *)"I 	c #751108",
(char *)"J 	c #CCAC51",
(char *)"K 	c #C9B054",
(char *)"L 	c #A89446",
(char *)"M 	c #887739",
(char *)"N 	c #2C2717",
(char *)"O 	c #464541",
(char *)"P 	c #E3C75F",
(char *)"Q 	c #988640",
(char *)"R 	c #63572A",
(char *)"S 	c #433B1C",
(char *)"T 	c #221E0E",
(char *)"U 	c #070603",
(char *)"V 	c #3A3318",
(char *)"W 	c #5A4F26",
(char *)"X 	c #7B6C33",
(char *)"Y 	c #9B8841",
(char *)"Z 	c #BDA64F",
(char *)"` 	c #DDC25C",
(char *)" .	c #A6813E",
(char *)"..	c #4B0A05",
(char *)"+.	c #853602",
(char *)"@.	c #791B04",
(char *)"#.	c #732713",
(char *)"$.	c #D8B958",
(char *)"%.	c #DEC35D",
(char *)"&.	c #BEA64F",
(char *)"*.	c #9D8A42",
(char *)"=.	c #7D6E34",
(char *)"-.	c #5D5227",
(char *)";.	c #3C3519",
(char *)">.	c #1C180C",
(char *)",.	c #030301",
(char *)"'.	c #13120D",
(char *)").	c #35332D",
(char *)"!.	c #4E4C49",
(char *)"~.	c #7E7E7E",
(char *)"{.	c #EACE62",
(char *)"].	c #AF9949",
(char *)"^.	c #8E7D3B",
(char *)"/.	c #6E602E",
(char *)"(.	c #4D4420",
(char *)"_.	c #2D2713",
(char *)":.	c #0C0B05",
(char *)"<.	c #100E07",
(char *)"[.	c #302A14",
(char *)"}.	c #514722",
(char *)"|.	c #71642F",
(char *)"1.	c #92803D",
(char *)"2.	c #D3B958",
(char *)"3.	c #C8AF54",
(char *)"4.	c #0D0B05",
(char *)"5.	c #E1C55E",
(char *)"6.	c #D4BA59",
(char *)"7.	c #B39D4B",
(char *)"8.	c #93813D",
(char *)"9.	c #726430",
(char *)"0.	c #524822",
(char *)"a.	c #312B15",
(char *)"b.	c #110F07",
(char *)"c.	c #0A0904",
(char *)"d.	c #2A2511",
(char *)"e.	c #6B5E2D",
(char *)"f.	c #8A7A3A",
(char *)"g.	c #AB9647",
(char *)"h.	c #64582C",
(char *)"i.	c #D9BF5B",
(char *)"j.	c #B9A24D",
(char *)"k.	c #786932",
(char *)"l.	c #574D24",
(char *)"m.	c #373017",
(char *)"n.	c #131208",
(char *)"o.	c #010100",
(char *)"p.	c #393218",
(char *)"q.	c #605428",
(char *)"r.	c #272210",
(char *)"s.	c #080703",
(char *)"t.	c #161409",
(char *)"u.	c #564C24",
(char *)"v.	c #97853F",
(char *)"w.	c #B7A14C",
(char *)"x.	c #D8BD5A",
(char *)"y.	c #000000",
(char *)"z.	c #9C8942",
(char *)"A.	c #A38F44",
(char *)"B.	c #8B7A3A",
(char *)"C.	c #A49044",
(char *)"D.	c #C4AC52",
(char *)"E.	c #E4C85F",
(char *)"F.	c #E9CD61",
(char *)"G.	c #423A1C",
(char *)"H.	c #050402",
(char *)"I.	c #625629",
(char *)"J.	c #020201",
(char *)"K.	c #49401F",
(char *)"L.	c #D7BC5A",
(char *)"M.	c #141209",
(char *)"N.	c #060502",
(char *)"O.	c #5E5227",
(char *)"P.	c #C0A34E",
(char *)"Q.	c #8F5B2B",
(char *)"R.	c #925F2E",
(char *)"S.	c #D1B456",
(char *)"T.	c #A08C43",
(char *)"U.	c #141108",
(char *)"V.	c #120F07",
(char *)"W.	c #C3A44E",
(char *)"X.	c #6D0704",
(char *)"Y.	c #831600",
(char *)"Z.	c #811300",
(char *)"`.	c #6C0E07",
(char *)" +	c #CDAF53",
(char *)".+	c #BCA54E",
(char *)"++	c #2E2813",
(char *)"@+	c #070703",
(char *)"#+	c #B6A04C",
(char *)"$+	c #875428",
(char *)"%+	c #821500",
(char *)"&+	c #9D8E00",
(char *)"*+	c #A19100",
(char *)"=+	c #8E5E2C",
(char *)"-+	c #231F0F",
(char *)";+	c #262110",
(char *)">+	c #AA9547",
(char *)",+	c #867538",
(char *)"'+	c #DAC05B",
(char *)")+	c #040302",
(char *)"!+	c #5F5328",
(char *)"~+	c #907E3C",
(char *)"{+	c #746631",
(char *)"]+	c #5B5026",
(char *)"^+	c #EBCE62",
(char *)"/+	c #70632F",
(char *)"(+	c #64582A",
(char *)"_+	c #2C2715",
(char *)":+	c #B2B2B2",
(char *)". . . . . . . . . . . . . . . . . . . . . . . . . . . . . . . . . . . . . . . . . . . . . . . . . . . . . . . . . . . . . . . . ",
(char *)". . . . . . . . . . . . . . . . . . . . . . . . . . . . . . . . . . . . . . . . . . . . . . . . . . . . . . . . . . . . . . . . ",
(char *)". . . . . . . . . . . . . . . . . . . . . . . . . . . . . . . . . . . . . . . . . . . . . . . . . . . . . . . . . . . . . . . . ",
(char *)". . . . . . . . . . . . . . . . . . . . . . . . . . . . . . . . . . . . . . . . . . . . . . . . . . . . . . . . . . . . . . . . ",
(char *)". . . . . . . . . . . . . . . . . . . . . . . . . . . . . . . . . . . . . . . . . . . . . . . . . . . . . . . . . . . . . . . . ",
(char *)". . . . . . . . . . . . . . . . . . . . . . . . . . . . . . . . . . . . . . . . . . . . . . . . . . . . . . . . . . . . . . . . ",
(char *)". . . . . . . . . . . . . . . . . . . . . . . . . . . . . . . . . . . . . . . . . . . . . . . . . . . . . . . . . . . . . . . . ",
(char *)". . . . . . . + @ # # # # # # # # # # # # # # # # # # # # # # # # # # # # # # # # # # # # # # # # # # # # # # # $ . . . . . . . ",
(char *)". . . . . . . % & * = = = = = = = = = = = = = = = = = = = = = = = = = = = = = = = = = = = = = = = = = = = = = - ; > . . . . . . ",
(char *)". . . . . . . , ' ) ! ! ! ! ! ! ! ! ! ! ! ! ! ! ! ! ! ! ! ! ! ! ! ! ! ! ! ! ! ! ! ! ! ! ! ! ! ! ! ! ! ! ! ! ! ! ~ { . . . . . . ",
(char *)". . . . . . . , ] ^ / ! ! ! ! ! ! ! ! ! ! ! ! ! ! ! ! ! ! ! ! ! ! ! ! ! ! ! ! ! ! ! ! ! ! ! ! ! ! ! ! ! ! ! ! ! ( _ : . . . . . ",
(char *)". . . . . . . , < [ } ! ! ! ! ! ! ! ! ! ! ! ! ! ! ! ! ! ! ! ! ! ! ! ! ! ! ! ! ! ! ! ! ! ! ! ! ! ! ! ! ! ! ! ! ! ! | 1 . . . . . ",
(char *)". . . . . . . , < 2 3 4 ! ! ! ! ! ! ! ! ! ! ! ! ! ! ! ! ! ! ! ! ! ! ! ! ! ! ! ! ! ! ! ! ! ! ! ! ! ! ! ! ! ! ! ! ! 5 6 7 . . . . ",
(char *)". . . . . . . , < ! 8 9 0 ! ! ! ! ! ! ! ! ! ! ! ! ! ! ! ! ! ! ! ! ! ! ! ! ! ! ! ! ! ! ! ! ! ! ! ! ! ! ! ! ! ! ! ! ! a b c . . . ",
(char *)". . . . . . . , < ! ! d e ! ! ! ! ! ! ! ! ! ! ! ! ! ! ! ! ! ! ! ! ! ! ! ! ! ! ! ! ! ! ! ! ! ! ! ! ! ! ! ! ! ! ! ! ! ! f g . . . ",
(char *)". . . . . . . , < ! ! h i j ! ! ! ! ! ! ! ! ! ! ! ! ! ! ! ! ! ! ! ! ! ! ! ! ! ! ! ! ! ! ! ! ! ! ! ! ! ! ! ! ! ! ! ! ! ( k l . . ",
(char *)". . . . . . . , < ! ! ! m n o ! ! ! ! ! ! ! ! ! ! ! ! ! ! ! ! ! ! ! ! p q r s t ! ! ! ! ! ! ! ! ! ! ! ! ! ! ! ! ! ! ! 5 u v . . ",
(char *)". . . . . . . , < ! ! ! ! w x y z A B C ! ! ! ! ! ! ! ! ! ! ! ! ! ! D E F G H I J ! ! ! ! ! ! ! ! ! ! ! ! ! ! 5 K L M N O . . . ",
(char *)". . . . . . . , < ! ! ! ! ! P Q R S T U i V W X Y Z ` ! ! ! ! ! ! ! !  ...+.@.#.$.! ! ! ! ! ! ! %.&.*.=.-.;.>.,.'.).!.~.. . . . ",
(char *)". . . . . . . , < ! ! ! ! ! ! ! ! ! ! {.j ].^./.(._.:.<.[.}.|.1.4 2.3.>.4.a 5.! 0 6.7.8.9.0.a.b.c.d.} e.f.g.o h., . . . . . . . ",
(char *)". . . . . . . , < ! ! ! ! ! ! ! ! ! ! ! ! ! ! ! ! ! ! i.j.Q k.l.m.n.o.,.p.q.y r.s.t.m.u.= v.w.x.! ! ! ! ! ! ! < , . . . . . . . ",
(char *)". . . . . . . , < ! ! ! ! ! ! ! ! ! ! ! ! ! ! ! ! ! ! ! ! ! ! ! ! e y.z.A.B.C.D.E.! ! ! ! ! ! ! ! ! ! ! ! ! ! < , . . . . . . . ",
(char *)". . . . . . . , < ! ! ! ! ! ! ! ! ! ! ! ! ! ! ! ! ! ! ! ! ! ! ! ! 8.y.e ! ! ! ! ! ! ! ! ! ! ! ! ! ! ! ! ! ! ! < , . . . . . . . ",
(char *)". . . . . . . , < ! ! ! ! ! ! ! ! ! ! ! ! ! ! ! ! ! ! ! ! ! ! ! ! F.G.H.I./ ! ! ! ! ! ! ! ! ! ! ! ! ! ! ! ! ! < , . . . . . . . ",
(char *)". . . . . . . , < ! ! ! ! ! ! ! ! ! ! ! ! ! ! ! ! ! ! ! ! ! ! ! ! ! 5.-.U J.K.^.&.2 ! ! ! ! ! ! ! ! ! ! ! ! ! < , . . . . . . . ",
(char *)". . . . . . . , < ! ! ! ! ! ! ! ! ! ! ! ! ! ! ! ! ! ! ! ! ! ! ! ! ! ! ! L.9.M.y.y.N.9 O.w 5.! ! ! ! ! ! ! ! ! < , . . . . . . . ",
(char *)". . . . . . . , < ! ! ! ! ! ! ! ! ! ! ! ! ! ! ! ! ! ! ! ! ! P.Q.R.S.! ! ! ! ! j T.|.S U.y.V.L ! ! ! ! ! ! ! ! < , . . . . . . . ",
(char *)". . . . . . . , < ! ! ! ! ! ! ! ! ! ! ! ! ! ! ! ! ! ! ! ! W.X.Y.Z.`. +! ! ! ! ! ! ! ! ! .+++@+#+! ! ! ! ! ! ! < , . . . . . . . ",
(char *)". . . . . . . , < ! ! ! ! ! ! ! ! ! ! ! ! ! ! ! ! ! ! ! ! $+%+&+*+Z.=+! ! ! ! ! ! ! ! ! ! %.-+;+F.! ! ! ! ! ! < , . . . . . . . ",
(char *)". . . . . . . , < ! ! ! ! ! ! ! ! ! ! ! ! ! ! ! ! ! ! ! ! =+Z.*+&+%+$+! ! ! ! ! ! ! ! ! ! ! >+y.,+! ! ! ! ! ! < , . . . . . . . ",
(char *)". . . . . . . , < ! ! ! ! ! ! ! ! ! ! ! ! ! ! ! ! ! ! ! !  +`.Z.Y.X.W.! ! ! ! ! ! ! ! ! ! ! ! S x '+! ! ! ! ! < , . . . . . . . ",
(char *)". . . . . . . , < ! ! ! ! ! ! ! ! ! ! ! ! ! ! ! ! ! ! ! ! ! S.R.Q.P.! ! ! ! ! ! ! ! ! ! ! ! ! B )+!+! ! ! ! ! < , . . . . . . . ",
(char *)". . . . . . . , < ! ! ! ! ! ! ! ! ! ! ! ! ! ! ! ! ! ! ! ! ! ! ! ! ! ! ! ! ! ! ! ! ! ! ! ! ! ! ! * J.h ! ! ! ! < , . . . . . . . ",
(char *)". . . . . . . , < ! ! ! ! ! ! ! ! ! ! ! ! ! ! ! ! ! ! ! ! ! ! ! ! ! ! ! ! ! ! ! ! ! ! ! ! ! ! ! %.U.m.! ! ! ! < , . . . . . . . ",
(char *)". . . . . . . , < ! ! ! ! ! ! ! ! ! ! ! ! ! ! ! ! ! ! ! ! ! ! ! ! ! ! ! ! ! ! ! ! ! ! ! ! ! ! ! ! ~+y.{+! ! ! < , . . . . . . . ",
(char *)". . . . . . . , < ! ! ! ! ! ! ! ! ! ! ! ! ! ! ! ! ! ! ! ! ! ! ! ! ! ! ! ! ! ! ! ! ! ! ! ! ! ! ! ! 0 ]+y.]+x.! < , . . . . . . . ",
(char *)". . . . . . . , < ! ! ! ! ! ! ! ! ! ! ! ! ! ! ! ! ! ! ! ! ! ! ! ! ! ! ! ! ! ! ! ! ! ! ! ! ! ! ! ! ! ^+/+@+(+! < , . . . . . . . ",
(char *)". . . . . . . , < ! ! ! ! ! ! ! ! ! ! ! ! ! ! ! ! ! ! ! ! ! ! ! ! ! ! ! ! ! ! ! ! ! ! ! ! ! ! ! ! ! ! ! ` 5.! < , . . . . . . . ",
(char *)". . . . . . . , < ! ! ! ! ! ! ! ! ! ! ! ! ! ! ! ! ! ! ! ! ! ! ! ! ! ! ! ! ! ! ! ! ! ! ! ! ! ! ! ! ! ! ! ! ! ! < , . . . . . . . ",
(char *)". . . . . . . , < ! ! ! ! ! ! ! ! ! ! ! ! ! ! ! ! ! ! ! ! ! ! ! ! ! ! ! ! ! ! ! ! ! ! ! ! ! ! ! ! ! ! ! ! ! ! < , . . . . . . . ",
(char *)". . . . . . . , < ! ! ! ! ! ! ! ! ! ! ! ! ! ! ! ! ! ! ! ! ! ! ! ! ! ! ! ! ! ! ! ! ! ! ! ! ! ! ! ! ! ! ! ! ! ! < , . . . . . . . ",
(char *)". . . . . . . , < ! ! ! ! ! ! ! ! ! ! ! ! ! ! ! ! ! ! ! ! ! ! ! ! ! ! ! ! ! ! ! ! ! ! ! ! ! ! ! ! ! ! ! ! ! ! < , . . . . . . . ",
(char *)". . . . . . . , < ! ! ! ! ! ! ! ! ! ! ! ! ! ! ! ! ! ! ! ! ! ! ! ! ! ! ! ! ! ! ! ! ! ! ! ! ! ! ! ! ! ! ! ! ! ! < , . . . . . . . ",
(char *)". . . . . . . , < ! ! ! ! ! ! ! ! ! ! ! ! ! ! ! ! ! ! ! ! ! ! ! ! ! ! ! ! ! ! ! ! ! ! ! ! ! ! ! ! ! ! ! ! ! ! < , . . . . . . . ",
(char *)". . . . . . . , < ! ! ! ! ! ! ! ! ! ! ! ! ! ! ! ! ! ! ! ! ! ! ! ! ! ! ! ! ! ! ! ! ! ! ! ! ! ! ! ! ! ! ! ! ! ! < , . . . . . . . ",
(char *)". . . . . . . , < ! ! ! ! ! ! ! ! ! ! ! ! ! ! ! ! ! ! ! ! ! ! ! ! ! ! ! ! ! ! ! ! ! ! ! ! ! ! ! ! ! ! ! ! ! ! < , . . . . . . . ",
(char *)". . . . . . . , < ! ! ! ! ! ! ! ! ! ! ! ! ! ! ! ! ! ! ! ! ! ! ! ! ! ! ! ! ! ! ! ! ! ! ! ! ! ! ! ! ! ! ! ! ! ! < , . . . . . . . ",
(char *)". . . . . . . , < ! ! ! ! ! ! ! ! ! ! ! ! ! ! ! ! ! ! ! ! ! ! ! ! ! ! ! ! ! ! ! ! ! ! ! ! ! ! ! ! ! ! ! ! ! ! < , . . . . . . . ",
(char *)". . . . . . . , < ! ! ! ! ! ! ! ! ! ! ! ! ! ! ! ! ! ! ! ! ! ! ! ! ! ! ! ! ! ! ! ! ! ! ! ! ! ! ! ! ! ! ! ! ! ! < , . . . . . . . ",
(char *)". . . . . . . , < ! ! ! ! ! ! ! ! ! ! ! ! ! ! ! ! ! ! ! ! ! ! ! ! ! ! ! ! ! ! ! ! ! ! ! ! ! ! ! ! ! ! ! ! ! ! < , . . . . . . . ",
(char *)". . . . . . . , < ! ! ! ! ! ! ! ! ! ! ! ! ! ! ! ! ! ! ! ! ! ! ! ! ! ! ! ! ! ! ! ! ! ! ! ! ! ! ! ! ! ! ! ! ! ! < , . . . . . . . ",
(char *)". . . . . . . , < ! ! ! ! ! ! ! ! ! ! ! ! ! ! ! ! ! ! ! ! ! ! ! ! ! ! ! ! ! ! ! ! ! ! ! ! ! ! ! ! ! ! ! ! ! ! < , . . . . . . . ",
(char *)". . . . . . . , < ! ! ! ! ! ! ! ! ! ! ! ! ! ! ! ! ! ! ! ! ! ! ! ! ! ! ! ! ! ! ! ! ! ! ! ! ! ! ! ! ! ! ! ! ! ! < , . . . . . . . ",
(char *)". . . . . . . , < ! ! ! ! ! ! ! ! ! ! ! ! ! ! ! ! ! ! ! ! ! ! ! ! ! ! ! ! ! ! ! ! ! ! ! ! ! ! ! ! ! ! ! ! ! ! < , . . . . . . . ",
(char *)". . . . . . . , < ! ! ! ! ! ! ! ! ! ! ! ! ! ! ! ! ! ! ! ! ! ! ! ! ! ! ! ! ! ! ! ! ! ! ! ! ! ! ! ! ! ! ! ! ! ! < , . . . . . . . ",
(char *)". . . . . . . , _+< < < < < < < < < < < < < < < < < < < < < < < < < < < < < < < < < < < < < < < < < < < < < < _+, . . . . . . . ",
(char *)". . . . . . . :+, , , , , , , , , , , , , , , , , , , , , , , , , , , , , , , , , , , , , , , , , , , , , , , , :+. . . . . . . ",
(char *)". . . . . . . . . . . . . . . . . . . . . . . . . . . . . . . . . . . . . . . . . . . . . . . . . . . . . . . . . . . . . . . . ",
(char *)". . . . . . . . . . . . . . . . . . . . . . . . . . . . . . . . . . . . . . . . . . . . . . . . . . . . . . . . . . . . . . . . ",
(char *)". . . . . . . . . . . . . . . . . . . . . . . . . . . . . . . . . . . . . . . . . . . . . . . . . . . . . . . . . . . . . . . . ",
(char *)". . . . . . . . . . . . . . . . . . . . . . . . . . . . . . . . . . . . . . . . . . . . . . . . . . . . . . . . . . . . . . . . ",
(char *)". . . . . . . . . . . . . . . . . . . . . . . . . . . . . . . . . . . . . . . . . . . . . . . . . . . . . . . . . . . . . . . . ",
(char *)". . . . . . . . . . . . . . . . . . . . . . . . . . . . . . . . . . . . . . . . . . . . . . . . . . . . . . . . . . . . . . . . ",
(char *)". . . . . . . . . . . . . . . . . . . . . . . . . . . . . . . . . . . . . . . . . . . . . . . . . . . . . . . . . . . . . . . . "};
