/* XPM */
/* $Id: op_file_open_bright_016.xpm 1012 2012-11-02 01:07:33Z  $ */
static char * op_file_open_bright_016_xpm[] = {
(char *)"16 16 45 1",
(char *)" 	c None",
(char *)".	c #C0C0C0",
(char *)"+	c #BEBEBE",
(char *)"@	c #949494",
(char *)"#	c #939393",
(char *)"$	c #BDBDBD",
(char *)"%	c #A7A7A7",
(char *)"&	c #8F7E3C",
(char *)"*	c #CFB657",
(char *)"=	c #8C856D",
(char *)"-	c #A8A8A8",
(char *)";	c #AA9548",
(char *)">	c #D9BE5A",
(char *)",	c #EDD063",
(char *)"'	c #B9A558",
(char *)")	c #B0B0AC",
(char *)"!	c #BDA64F",
(char *)"~	c #B19B4A",
(char *)"{	c #B29C4A",
(char *)"]	c #C9B054",
(char *)"^	c #C2A84F",
(char *)"/	c #875E1D",
(char *)"(	c #DCC15D",
(char *)"_	c #BFA850",
(char *)":	c #A89346",
(char *)"<	c #8D825C",
(char *)"[	c #B8B8B8",
(char *)"}	c #D7BC5A",
(char *)"|	c #6C5F2D",
(char *)"1	c #A38F44",
(char *)"2	c #DEC35D",
(char *)"3	c #D7B455",
(char *)"4	c #D1AF53",
(char *)"5	c #A59145",
(char *)"6	c #917F3D",
(char *)"7	c #B09A49",
(char *)"8	c #A77931",
(char *)"9	c #A67930",
(char *)"0	c #A18D43",
(char *)"a	c #C4AC52",
(char *)"b	c #8D7C3B",
(char *)"c	c #BEA750",
(char *)"d	c #EBCE62",
(char *)"e	c #C4AD53",
(char *)"f	c #B59F4C",
(char *)"................",
(char *)".+@###########$.",
(char *)".%&***********=.",
(char *)".-;>,,,,,,,,,,')",
(char *)".-*!~~{]^/(_~:<[",
(char *)".-*,,,,}|1_2,*-.",
(char *)".-*,,,,34567,*-.",
(char *)".-*,,,,89,,0a*-.",
(char *)".-*,,,,,,,,,bc-.",
(char *)".-*,,,,,,,,,de-.",
(char *)".-*,,,,,,,,,,*-.",
(char *)".-*,,,,,,,,,,*-.",
(char *)".-*,,,,,,,,,,*-.",
(char *)".-f**********f-.",
(char *)".+------------+.",
(char *)"................"};
