/* XPM */
/* $Id: op_file_open_bright_048.xpm 1012 2012-11-02 01:07:33Z  $ */
static char * op_file_open_bright_048_xpm[] = {
(char *)"48 48 152 2",
(char *)"  	c None",
(char *)". 	c #C0C0C0",
(char *)"+ 	c #B5B5B5",
(char *)"@ 	c #505050",
(char *)"# 	c #4F4F4F",
(char *)"$ 	c #A5A5A5",
(char *)"% 	c #757575",
(char *)"& 	c #151209",
(char *)"* 	c #93813D",
(char *)"= 	c #94823E",
(char *)"- 	c #8D7C3B",
(char *)"; 	c #302D24",
(char *)"> 	c #7E7E7E",
(char *)", 	c #4E4421",
(char *)"' 	c #97853F",
(char *)") 	c #EDD063",
(char *)"! 	c #6D6132",
(char *)"~ 	c #80807D",
(char *)"{ 	c #88773A",
(char *)"] 	c #362F17",
(char *)"^ 	c #E4C85F",
(char *)"/ 	c #E5C960",
(char *)"( 	c #322E22",
(char *)"_ 	c #B7B7B7",
(char *)": 	c #8C7B3C",
(char *)"< 	c #998740",
(char *)"[ 	c #776832",
(char *)"} 	c #A38F46",
(char *)"| 	c #595751",
(char *)"1 	c #ECCF63",
(char *)"2 	c #3C3519",
(char *)"3 	c #D3B958",
(char *)"4 	c #453F27",
(char *)"5 	c #9F9F9F",
(char *)"6 	c #B6A04C",
(char *)"7 	c #4E4521",
(char *)"8 	c #CCB355",
(char *)"9 	c #403D33",
(char *)"0 	c #8B7A3A",
(char *)"a 	c #5D5227",
(char *)"b 	c #D9BF5B",
(char *)"c 	c #9A622E",
(char *)"d 	c #83340E",
(char *)"e 	c #8E500F",
(char *)"f 	c #AA7337",
(char *)"g 	c #D1B857",
(char *)"h 	c #3A372D",
(char *)"i 	c #A59145",
(char *)"j 	c #48401E",
(char *)"k 	c #393218",
(char *)"l 	c #4D4420",
(char *)"m 	c #6E602E",
(char *)"n 	c #8E7D3B",
(char *)"o 	c #AF9949",
(char *)"p 	c #CFB657",
(char *)"q 	c #EACE62",
(char *)"r 	c #9C6530",
(char *)"s 	c #853901",
(char *)"t 	c #8F6900",
(char *)"u 	c #791303",
(char *)"v 	c #D0AF53",
(char *)"w 	c #D8BD5A",
(char *)"x 	c #B7A14C",
(char *)"y 	c #97843F",
(char *)"z 	c #71632F",
(char *)"A 	c #4C4426",
(char *)"B 	c #353121",
(char *)"C 	c #343127",
(char *)"D 	c #9C9C9C",
(char *)"E 	c #D9BE5A",
(char *)"F 	c #B9A24D",
(char *)"G 	c #988640",
(char *)"H 	c #786932",
(char *)"I 	c #574D24",
(char *)"J 	c #3A3318",
(char *)"K 	c #433B1C",
(char *)"L 	c #635629",
(char *)"M 	c #837337",
(char *)"N 	c #A49044",
(char *)"O 	c #C4AC52",
(char *)"P 	c #E1C65E",
(char *)"Q 	c #5B5026",
(char *)"R 	c #21160A",
(char *)"S 	c #A97E3C",
(char *)"T 	c #C6A24D",
(char *)"U 	c #E8CC61",
(char *)"V 	c #AB9647",
(char *)"W 	c #6B5E2D",
(char *)"X 	c #4A411F",
(char *)"Y 	c #383117",
(char *)"Z 	c #665A2C",
(char *)"` 	c #6D6D6D",
(char *)" .	c #BDBDBD",
(char *)"..	c #A59045",
(char *)"+.	c #847437",
(char *)"@.	c #63572A",
(char *)"#.	c #1D190C",
(char *)"$.	c #0A0904",
(char *)"%.	c #373017",
(char *)"&.	c #41391B",
(char *)"*.	c #3B3318",
(char *)"=.	c #3F371A",
(char *)"-.	c #5C5126",
(char *)";.	c #7C6C34",
(char *)">.	c #9B8841",
(char *)",.	c #BCA54E",
(char *)"'.	c #DBC15C",
(char *)").	c #2E2813",
(char *)"!.	c #907E3C",
(char *)"~.	c #EBCE62",
(char *)"{.	c #E7CB61",
(char *)"].	c #8A7A3A",
(char *)"^.	c #100E07",
(char *)"/.	c #24200F",
(char *)"(.	c #19160A",
(char *)"_.	c #625629",
(char *)":.	c #92803D",
(char *)"<.	c #C1AA51",
(char *)"[.	c #E9CD61",
(char *)"}.	c #CFB054",
(char *)"|.	c #D2B356",
(char *)"1.	c #A69245",
(char *)"2.	c #64582A",
(char *)"3.	c #070703",
(char *)"4.	c #3D361A",
(char *)"5.	c #9C6531",
(char *)"6.	c #760D03",
(char *)"7.	c #760F05",
(char *)"8.	c #A06E34",
(char *)"9.	c #C8AF53",
(char *)"0.	c #0E0C06",
(char *)"a.	c #AD9848",
(char *)"b.	c #73190C",
(char *)"c.	c #997500",
(char *)"d.	c #987200",
(char *)"e.	c #751D0E",
(char *)"f.	c #151309",
(char *)"g.	c #E0C55E",
(char *)"h.	c #833C1D",
(char *)"i.	c #8C3C00",
(char *)"j.	c #8D3F00",
(char *)"k.	c #82361A",
(char *)"l.	c #3B3419",
(char *)"m.	c #6A5D2C",
(char *)"n.	c #935629",
(char *)"o.	c #925227",
(char *)"p.	c #CBA750",
(char *)"q.	c #CAB154",
(char *)"r.	c #615528",
(char *)"s.	c #71642F",
(char *)"t.	c #332D15",
(char *)"u.	c #534925",
(char *)". . . . . . . . . . . . . . . . . . . . . . . . . . . . . . . . . . . . . . . . . . . . . . . . ",
(char *)". . . . . . . . . . . . . . . . . . . . . . . . . . . . . . . . . . . . . . . . . . . . . . . . ",
(char *)". . . . . . . . . . . . . . . . . . . . . . . . . . . . . . . . . . . . . . . . . . . . . . . . ",
(char *)". . . . . . . . . . . . . . . . . . . . . . . . . . . . . . . . . . . . . . . . . . . . . . . . ",
(char *)". . . . . . . . . . . . . . . . . . . . . . . . . . . . . . . . . . . . . . . . . . . . . . . . ",
(char *)". . . . . + @ # # # # # # # # # # # # # # # # # # # # # # # # # # # # # # # # # # # $ . . . . . ",
(char *)". . . . . % & * = = = = = = = = = = = = = = = = = = = = = = = = = = = = = = = = = - ; . . . . . ",
(char *)". . . . . > , ' ) ) ) ) ) ) ) ) ) ) ) ) ) ) ) ) ) ) ) ) ) ) ) ) ) ) ) ) ) ) ) ) ) ) ! ~ . . . . ",
(char *)". . . . . > { ] ^ ) ) ) ) ) ) ) ) ) ) ) ) ) ) ) ) ) ) ) ) ) ) ) ) ) ) ) ) ) ) ) ) ) / ( _ . . . ",
(char *)". . . . . > : < [ ) ) ) ) ) ) ) ) ) ) ) ) ) ) ) ) ) ) ) ) ) ) ) ) ) ) ) ) ) ) ) ) ) ) } | . . . ",
(char *)". . . . . > : 1 2 3 ) ) ) ) ) ) ) ) ) ) ) ) ) ) ) ) ) ) ) ) ) ) ) ) ) ) ) ) ) ) ) ) ) ) 4 5 . . ",
(char *)". . . . . > : ) 6 7 1 ) ) ) ) ) ) ) ) ) ) ) ) ) ) ) ) ) ) ) ) ) ) ) ) ) ) ) ) ) ) ) ) ) 8 9 . . ",
(char *)". . . . . > : ) ) 0 a b ) ) ) ) ) ) ) ) ) ) ) ) ) ) c d e f ) ) ) ) ) ) ) ) ) ) ) ) ) ) g h . . ",
(char *)". . . . . > : ) ) ) i j k l m n o p q ) ) ) ) ) ) ) r s t u v ) ) ) ) ) ) ) w x y z A B C D . . ",
(char *)". . . . . > : ) ) ) ) ) ) E F G H I 2 J K L M N O P Q R S T U 8 V 0 W X Y Y l m - Z `  .. . . . ",
(char *)". . . . . > : ) ) ) ) ) ) ) ) ) ) ) ) ) ^ O ..+.@.#.$.%.&.*.=.-.;.>.,.'.) ) ) ) ) : > . . . . . ",
(char *)". . . . . > : ) ) ) ) ) ) ) ) ) ) ) ) ) ) ) ) ) ) ).!.~.{.) ) ) ) ) ) ) ) ) ) ) ) : > . . . . . ",
(char *)". . . . . > : ) ) ) ) ) ) ) ) ) ) ) ) ) ) ) ) ) ) ].^.y U ) ) ) ) ) ) ) ) ) ) ) ) : > . . . . . ",
(char *)". . . . . > : ) ) ) ) ) ) ) ) ) ) ) ) ) ) ) ) ) ) ) = /.(._.:.<.[.) ) ) ) ) ) ) ) : > . . . . . ",
(char *)". . . . . > : ) ) ) ) ) ) ) ) ) ) ) ) ) ) ) ) }.|.) ) 1 1.2.] $.3.4.8 ) ) ) ) ) ) : > . . . . . ",
(char *)". . . . . > : ) ) ) ) ) ) ) ) ) ) ) ) ) ) ) 5.6.7.8.) ) ) ) ) ~.9.2.0.a.) ) ) ) ) : > . . . . . ",
(char *)". . . . . > : ) ) ) ) ) ) ) ) ) ) ) ) ) ) q b.c.d.e.q ) ) ) ) ) ) ) - f.g.) ) ) ) : > . . . . . ",
(char *)". . . . . > : ) ) ) ) ) ) ) ) ) ) ) ) ) ) ) h.i.j.k.) ) ) ) ) ) ) ) ) l.m.) ) ) ) : > . . . . . ",
(char *)". . . . . > : ) ) ) ) ) ) ) ) ) ) ) ) ) ) ) }.n.o.p.) ) ) ) ) ) ) ) ) <.3.q.) ) ) : > . . . . . ",
(char *)". . . . . > : ) ) ) ) ) ) ) ) ) ) ) ) ) ) ) ) ) ) ) ) ) ) ) ) ) ) ) ) ) r.&.) ) ) : > . . . . . ",
(char *)". . . . . > : ) ) ) ) ) ) ) ) ) ) ) ) ) ) ) ) ) ) ) ) ) ) ) ) ) ) ) ) ) '.^.!.) ) : > . . . . . ",
(char *)". . . . . > : ) ) ) ) ) ) ) ) ) ) ) ) ) ) ) ) ) ) ) ) ) ) ) ) ) ) ) ) ) ) V 0.s.1 : > . . . . . ",
(char *)". . . . . > : ) ) ) ) ) ) ) ) ) ) ) ) ) ) ) ) ) ) ) ) ) ) ) ) ) ) ) ) ) ) ) 9.t.8 : > . . . . . ",
(char *)". . . . . > : ) ) ) ) ) ) ) ) ) ) ) ) ) ) ) ) ) ) ) ) ) ) ) ) ) ) ) ) ) ) ) ) ) ) : > . . . . . ",
(char *)". . . . . > : ) ) ) ) ) ) ) ) ) ) ) ) ) ) ) ) ) ) ) ) ) ) ) ) ) ) ) ) ) ) ) ) ) ) : > . . . . . ",
(char *)". . . . . > : ) ) ) ) ) ) ) ) ) ) ) ) ) ) ) ) ) ) ) ) ) ) ) ) ) ) ) ) ) ) ) ) ) ) : > . . . . . ",
(char *)". . . . . > : ) ) ) ) ) ) ) ) ) ) ) ) ) ) ) ) ) ) ) ) ) ) ) ) ) ) ) ) ) ) ) ) ) ) : > . . . . . ",
(char *)". . . . . > : ) ) ) ) ) ) ) ) ) ) ) ) ) ) ) ) ) ) ) ) ) ) ) ) ) ) ) ) ) ) ) ) ) ) : > . . . . . ",
(char *)". . . . . > : ) ) ) ) ) ) ) ) ) ) ) ) ) ) ) ) ) ) ) ) ) ) ) ) ) ) ) ) ) ) ) ) ) ) : > . . . . . ",
(char *)". . . . . > : ) ) ) ) ) ) ) ) ) ) ) ) ) ) ) ) ) ) ) ) ) ) ) ) ) ) ) ) ) ) ) ) ) ) : > . . . . . ",
(char *)". . . . . > : ) ) ) ) ) ) ) ) ) ) ) ) ) ) ) ) ) ) ) ) ) ) ) ) ) ) ) ) ) ) ) ) ) ) : > . . . . . ",
(char *)". . . . . > : ) ) ) ) ) ) ) ) ) ) ) ) ) ) ) ) ) ) ) ) ) ) ) ) ) ) ) ) ) ) ) ) ) ) : > . . . . . ",
(char *)". . . . . > : ) ) ) ) ) ) ) ) ) ) ) ) ) ) ) ) ) ) ) ) ) ) ) ) ) ) ) ) ) ) ) ) ) ) : > . . . . . ",
(char *)". . . . . > : ) ) ) ) ) ) ) ) ) ) ) ) ) ) ) ) ) ) ) ) ) ) ) ) ) ) ) ) ) ) ) ) ) ) : > . . . . . ",
(char *)". . . . . > : ) ) ) ) ) ) ) ) ) ) ) ) ) ) ) ) ) ) ) ) ) ) ) ) ) ) ) ) ) ) ) ) ) ) : > . . . . . ",
(char *)". . . . . > : ) ) ) ) ) ) ) ) ) ) ) ) ) ) ) ) ) ) ) ) ) ) ) ) ) ) ) ) ) ) ) ) ) ) : > . . . . . ",
(char *)". . . . . > u.: : : : : : : : : : : : : : : : : : : : : : : : : : : : : : : : : : u.> . . . . . ",
(char *)". . . . . _ > > > > > > > > > > > > > > > > > > > > > > > > > > > > > > > > > > > > _ . . . . . ",
(char *)". . . . . . . . . . . . . . . . . . . . . . . . . . . . . . . . . . . . . . . . . . . . . . . . ",
(char *)". . . . . . . . . . . . . . . . . . . . . . . . . . . . . . . . . . . . . . . . . . . . . . . . ",
(char *)". . . . . . . . . . . . . . . . . . . . . . . . . . . . . . . . . . . . . . . . . . . . . . . . ",
(char *)". . . . . . . . . . . . . . . . . . . . . . . . . . . . . . . . . . . . . . . . . . . . . . . . ",
(char *)". . . . . . . . . . . . . . . . . . . . . . . . . . . . . . . . . . . . . . . . . . . . . . . . "};
