/* XPM */
/* $Id: op_file_open_bright_032.xpm 1012 2012-11-02 01:07:33Z  $ */
static char * op_file_open_bright_032_xpm[] = {
(char *)"32 32 98 2",
(char *)"  	c None",
(char *)". 	c #C0C0C0",
(char *)"+ 	c #BCBCBC",
(char *)"@ 	c #727272",
(char *)"# 	c #707070",
(char *)"$ 	c #717171",
(char *)"% 	c #B5B5B5",
(char *)"& 	c #929292",
(char *)"* 	c #3F371A",
(char *)"= 	c #B29C4A",
(char *)"- 	c #AD9848",
(char *)"; 	c #555141",
(char *)"> 	c #969696",
(char *)", 	c #6F6230",
(char *)"' 	c #BBA44E",
(char *)") 	c #EDD063",
(char *)"! 	c #8C7D41",
(char *)"~ 	c #9B9A97",
(char *)"{ 	c #A89448",
(char *)"] 	c #65592A",
(char *)"^ 	c #ECCF63",
(char *)"/ 	c #5F5940",
(char *)"( 	c #BFBFBF",
(char *)"_ 	c #A99549",
(char *)": 	c #B29D4B",
(char *)"< 	c #998740",
(char *)"[ 	c #C1AA53",
(char *)"} 	c #7F7C72",
(char *)"| 	c #8C7B3B",
(char *)"1 	c #857538",
(char *)"2 	c #C0A950",
(char *)"3 	c #E1C55E",
(char *)"4 	c #AA7E3C",
(char *)"5 	c #824C07",
(char *)"6 	c #9D6E25",
(char *)"7 	c #E7CA60",
(char *)"8 	c #D8BD5A",
(char *)"9 	c #A18E47",
(char *)"0 	c #737066",
(char *)"a 	c #D4BA59",
(char *)"b 	c #A18D43",
(char *)"c 	c #807136",
(char *)"d 	c #746631",
(char *)"e 	c #756731",
(char *)"f 	c #7A6B33",
(char *)"g 	c #97853F",
(char *)"h 	c #B8A24D",
(char *)"i 	c #D9BE5A",
(char *)"j 	c #AA9547",
(char *)"k 	c #714B1E",
(char *)"l 	c #A26930",
(char *)"m 	c #E0C35D",
(char *)"n 	c #CBB255",
(char *)"o 	c #8A7A3A",
(char *)"p 	c #776832",
(char *)"q 	c #786932",
(char *)"r 	c #5F5428",
(char *)"s 	c #615E55",
(char *)"t 	c #929190",
(char *)"u 	c #E8CC61",
(char *)"v 	c #CCB355",
(char *)"w 	c #AB9647",
(char *)"x 	c #7A6C33",
(char *)"y 	c #1C190C",
(char *)"z 	c #70632F",
(char *)"A 	c #7D6D34",
(char *)"B 	c #9A8740",
(char *)"C 	c #BAA34E",
(char *)"D 	c #DAC05B",
(char *)"E 	c #362F17",
(char *)"F 	c #C3AB52",
(char *)"G 	c #C7AF53",
(char *)"H 	c #544923",
(char *)"I 	c #6E602E",
(char *)"J 	c #9B8841",
(char *)"K 	c #D5BB59",
(char *)"L 	c #E2C45D",
(char *)"M 	c #904520",
(char *)"N 	c #904B22",
(char *)"O 	c #E4C75F",
(char *)"P 	c #E6CA60",
(char *)"Q 	c #887739",
(char *)"R 	c #3D361A",
(char *)"S 	c #A38F44",
(char *)"T 	c #B88E44",
(char *)"U 	c #8E5200",
(char *)"V 	c #E7CB61",
(char *)"W 	c #3C3519",
(char *)"X 	c #D1B857",
(char *)"Y 	c #524822",
(char *)"Z 	c #5A4F26",
(char *)"` 	c #B59F4C",
(char *)" .	c #342E16",
(char *)"..	c #DDC25C",
(char *)"+.	c #B9A24D",
(char *)"@.	c #979797",
(char *)"#.	c #796B36",
(char *)"$.	c #BDBDBD",
(char *)". . . . . . . . . . . . . . . . . . . . . . . . . . . . . . . . ",
(char *)". . . . . . . . . . . . . . . . . . . . . . . . . . . . . . . . ",
(char *)". . . . . . . . . . . . . . . . . . . . . . . . . . . . . . . . ",
(char *)". . . + @ # # # # # # # # # # # # # # # # # # # # # # $ % . . . ",
(char *)". . . & * = = = = = = = = = = = = = = = = = = = = = = - ; . . . ",
(char *)". . . > , ' ) ) ) ) ) ) ) ) ) ) ) ) ) ) ) ) ) ) ) ) ) ) ! ~ . . ",
(char *)". . . > { ] ) ) ) ) ) ) ) ) ) ) ) ) ) ) ) ) ) ) ) ) ) ) ^ / ( . ",
(char *)". . . > _ : < ) ) ) ) ) ) ) ) ) ) ) ) ) ) ) ) ) ) ) ) ) ) [ } . ",
(char *)". . . > _ ) | 1 2 3 ) ) ) ) ) ) ) 4 5 6 7 ) ) ) ) ) ) ) 8 9 0 . ",
(char *)". . . > _ ) ) a b c d d e f g h i j k l m n j o p p q r s t . . ",
(char *)". . . > _ ) ) ) ) ) ) ) ) u v w x y z p A B C D ) ) ) _ > . . . ",
(char *)". . . > _ ) ) ) ) ) ) ) ) ) ) ) 8 E F ) ) ) ) ) ) ) ) _ > . . . ",
(char *)". . . > _ ) ) ) ) ) ) ) ) ) ) ) ) G H * I J K ) ) ) ) _ > . . . ",
(char *)". . . > _ ) ) ) ) ) ) ) ) ) L M N O ) P C Q R S ) ) ) _ > . . . ",
(char *)". . . > _ ) ) ) ) ) ) ) ) ) T U U T ) ) ) ) V W X ) ) _ > . . . ",
(char *)". . . > _ ) ) ) ) ) ) ) ) ) O N M L ) ) ) ) ) ' Y ) ) _ > . . . ",
(char *)". . . > _ ) ) ) ) ) ) ) ) ) ) ) ) ) ) ) ) ) ) ) Z ` ) _ > . . . ",
(char *)". . . > _ ) ) ) ) ) ) ) ) ) ) ) ) ) ) ) ) ) ) ) i  .: _ > . . . ",
(char *)". . . > _ ) ) ) ) ) ) ) ) ) ) ) ) ) ) ) ) ) ) ) ) ..+._ > . . . ",
(char *)". . . > _ ) ) ) ) ) ) ) ) ) ) ) ) ) ) ) ) ) ) ) ) ) ) _ > . . . ",
(char *)". . . > _ ) ) ) ) ) ) ) ) ) ) ) ) ) ) ) ) ) ) ) ) ) ) _ > . . . ",
(char *)". . . > _ ) ) ) ) ) ) ) ) ) ) ) ) ) ) ) ) ) ) ) ) ) ) _ > . . . ",
(char *)". . . > _ ) ) ) ) ) ) ) ) ) ) ) ) ) ) ) ) ) ) ) ) ) ) _ > . . . ",
(char *)". . . > _ ) ) ) ) ) ) ) ) ) ) ) ) ) ) ) ) ) ) ) ) ) ) _ > . . . ",
(char *)". . . > _ ) ) ) ) ) ) ) ) ) ) ) ) ) ) ) ) ) ) ) ) ) ) _ > . . . ",
(char *)". . . > _ ) ) ) ) ) ) ) ) ) ) ) ) ) ) ) ) ) ) ) ) ) ) _ > . . . ",
(char *)". . . > _ ) ) ) ) ) ) ) ) ) ) ) ) ) ) ) ) ) ) ) ) ) ) _ > . . . ",
(char *)". . . @.#._ _ _ _ _ _ _ _ _ _ _ _ _ _ _ _ _ _ _ _ _ _ #.@.. . . ",
(char *)". . . $.@.> > > > > > > > > > > > > > > > > > > > > > @.$.. . . ",
(char *)". . . . . . . . . . . . . . . . . . . . . . . . . . . . . . . . ",
(char *)". . . . . . . . . . . . . . . . . . . . . . . . . . . . . . . . ",
(char *)". . . . . . . . . . . . . . . . . . . . . . . . . . . . . . . . "};
