/* XPM */
/* $Id: op_help_016.xpm 1001 2012-11-01 03:12:09Z  $ */
static char * op_help_016_xpm[] = {
(char *)"16 16 113 2",
(char *)"  	c None",
(char *)". 	c #C0C0C0",
(char *)"+ 	c #BEBEBE",
(char *)"@ 	c #A8A8A8",
(char *)"# 	c #363728",
(char *)"$ 	c #4B4335",
(char *)"% 	c #4B4236",
(char *)"& 	c #4A4536",
(char *)"* 	c #4A4537",
(char *)"= 	c #4A4338",
(char *)"- 	c #4A413A",
(char *)"; 	c #4B3D3A",
(char *)"> 	c #4B3D3B",
(char *)", 	c #4B3C3D",
(char *)"' 	c #362D32",
(char *)") 	c #664B45",
(char *)"! 	c #665244",
(char *)"~ 	c #6B6247",
(char *)"{ 	c #9E9B57",
(char *)"] 	c #C5C563",
(char *)"^ 	c #C9C865",
(char *)"/ 	c #ABA55E",
(char *)"( 	c #736450",
(char *)"_ 	c #664E48",
(char *)": 	c #4B3A3E",
(char *)"< 	c #656045",
(char *)"[ 	c #CACC64",
(char *)"} 	c #EBED6D",
(char *)"| 	c #B1B766",
(char *)"1 	c #BCBF69",
(char *)"2 	c #F1F170",
(char *)"3 	c #E6E46D",
(char *)"4 	c #6A5755",
(char *)"5 	c #664D49",
(char *)"6 	c #4B393F",
(char *)"7 	c #655C45",
(char *)"8 	c #70764E",
(char *)"9 	c #F1F26F",
(char *)"0 	c #EDF06F",
(char *)"a 	c #70846E",
(char *)"b 	c #627175",
(char *)"c 	c #D1D272",
(char *)"d 	c #FFFF71",
(char *)"e 	c #B3AB6A",
(char *)"f 	c #654D54",
(char *)"g 	c #4C393E",
(char *)"h 	c #656248",
(char *)"i 	c #637052",
(char *)"j 	c #9DAC68",
(char *)"k 	c #96A974",
(char *)"l 	c #617C89",
(char *)"m 	c #637591",
(char *)"n 	c #E4E576",
(char *)"o 	c #FBFB71",
(char *)"p 	c #978B70",
(char *)"q 	c #674F5A",
(char *)"r 	c #4C393F",
(char *)"s 	c #65644C",
(char *)"t 	c #636F5A",
(char *)"u 	c #62786E",
(char *)"v 	c #607CA8",
(char *)"w 	c #C4CB8A",
(char *)"x 	c #F4F474",
(char *)"y 	c #B2AC80",
(char *)"z 	c #675273",
(char *)"A 	c #6A4F5B",
(char *)"B 	c #4E3A3F",
(char *)"C 	c #65614F",
(char *)"D 	c #636A5F",
(char *)"E 	c #617392",
(char *)"F 	c #A5B096",
(char *)"G 	c #EFEF79",
(char *)"H 	c #989398",
(char *)"I 	c #68568A",
(char *)"J 	c #6C526E",
(char *)"K 	c #6C4F59",
(char *)"L 	c #4F3A3D",
(char *)"M 	c #655B4F",
(char *)"N 	c #63635F",
(char *)"O 	c #626774",
(char *)"P 	c #62678D",
(char *)"Q 	c #CCCD81",
(char *)"R 	c #BFBD89",
(char *)"S 	c #685895",
(char *)"T 	c #6D557B",
(char *)"U 	c #6F5264",
(char *)"V 	c #6E4F52",
(char *)"W 	c #50393B",
(char *)"X 	c #65544D",
(char *)"Y 	c #645A5B",
(char *)"Z 	c #635C6D",
(char *)"` 	c #625B80",
(char *)" .	c #B0AA81",
(char *)"..	c #908283",
(char *)"+.	c #715269",
(char *)"@.	c #705059",
(char *)"#.	c #6D4D4C",
(char *)"$.	c #50393A",
(char *)"%.	c #655254",
(char *)"&.	c #645462",
(char *)"*.	c #7C6F70",
(char *)"=.	c #D7D172",
(char *)"-.	c #BDB270",
(char *)";.	c #6F4E4E",
(char *)">.	c #694C47",
(char *)",.	c #513939",
(char *)"'.	c #9C8C61",
(char *)").	c #F0EE6F",
(char *)"!.	c #DDD66B",
(char *)"~.	c #523938",
(char *)"{.	c #584641",
(char *)"].	c #503C3D",
(char *)"^.	c #402B2B",
(char *)". . . . . . . . . . . . . . . . ",
(char *)". + @ @ @ @ @ @ @ @ @ @ @ @ + . ",
(char *)". @ # $ $ % & * = - ; > , ' @ . ",
(char *)". @ $ ) ! ~ { ] ^ / ( _ ) : @ . ",
(char *)". @ $ ! < [ } | 1 2 3 4 5 6 @ . ",
(char *)". @ % 7 8 9 0 a b c d e f g @ . ",
(char *)". @ & h i j k l m n o p q r @ . ",
(char *)". @ * s t u l v w x y z A B @ . ",
(char *)". @ = C D b E F G H I J K L @ . ",
(char *)". @ - M N O P Q R S T U V W @ . ",
(char *)". @ ; X Y Z `  ...T +.@.#.$.@ . ",
(char *)". @ > _ %.&.*.=.-.U @.;.>.,.@ . ",
(char *)". @ , ) 5 f '.).!.V #.>.) ~.@ . ",
(char *)". @ ' : 6 g r {.].W $.,.~.^.@ . ",
(char *)". + @ @ @ @ @ @ @ @ @ @ @ @ + . ",
(char *)". . . . . . . . . . . . . . . . "};
