/* XPM */
/* $Id: op_help_about_032.xpm 1007 2012-11-01 03:32:57Z  $ */
static char * op_help_about_032_xpm[] = {
(char *)"32 32 359 2",
(char *)"  	c None",
(char *)". 	c #C0C0C0",
(char *)"+ 	c #BDBDBD",
(char *)"@ 	c #979797",
(char *)"# 	c #969696",
(char *)"$ 	c #201C1B",
(char *)"% 	c #3D3230",
(char *)"& 	c #3D322F",
(char *)"* 	c #3D332F",
(char *)"= 	c #3E342E",
(char *)"- 	c #3E342D",
(char *)"; 	c #3D332C",
(char *)"> 	c #3D322B",
(char *)", 	c #3D322A",
(char *)"' 	c #3D3229",
(char *)") 	c #3D3228",
(char *)"! 	c #201C15",
(char *)"~ 	c #664B45",
(char *)"{ 	c #684D46",
(char *)"] 	c #6D534A",
(char *)"^ 	c #72594E",
(char *)"/ 	c #765D50",
(char *)"( 	c #786051",
(char *)"_ 	c #89795A",
(char *)": 	c #826C48",
(char *)"< 	c #78604F",
(char *)"[ 	c #765D4D",
(char *)"} 	c #72594B",
(char *)"| 	c #6D5348",
(char *)"1 	c #684D45",
(char *)"2 	c #3D3227",
(char *)"3 	c #6C524A",
(char *)"4 	c #735B4F",
(char *)"5 	c #796253",
(char *)"6 	c #7E6656",
(char *)"7 	c #957E47",
(char *)"8 	c #D5BF23",
(char *)"9 	c #F1E04A",
(char *)"0 	c #ECD817",
(char *)"a 	c #D3BC11",
(char *)"b 	c #99823E",
(char *)"c 	c #7E6650",
(char *)"d 	c #79624D",
(char *)"e 	c #735B4A",
(char *)"f 	c #6C5247",
(char *)"g 	c #3D3226",
(char *)"h 	c #6E554C",
(char *)"i 	c #775F52",
(char *)"j 	c #7E6657",
(char *)"k 	c #856E5C",
(char *)"l 	c #8A755F",
(char *)"m 	c #C8B323",
(char *)"n 	c #F5E97E",
(char *)"o 	c #FDFAE2",
(char *)"p 	c #F2E357",
(char *)"q 	c #E7D100",
(char *)"r 	c #C7B219",
(char *)"s 	c #8A7556",
(char *)"t 	c #856E52",
(char *)"u 	c #7E664D",
(char *)"v 	c #775F4A",
(char *)"w 	c #6E5547",
(char *)"x 	c #786053",
(char *)"y 	c #806959",
(char *)"z 	c #88725E",
(char *)"A 	c #8F7B63",
(char *)"B 	c #958266",
(char *)"C 	c #E3CC08",
(char *)"D 	c #F1E250",
(char *)"E 	c #F3E66B",
(char *)"F 	c #EDD713",
(char *)"G 	c #E4CE00",
(char *)"H 	c #DAC502",
(char *)"I 	c #968359",
(char *)"J 	c #8F7B55",
(char *)"K 	c #887250",
(char *)"L 	c #80694C",
(char *)"M 	c #786049",
(char *)"N 	c #6E5546",
(char *)"O 	c #3D3225",
(char *)"P 	c #8A7560",
(char *)"Q 	c #927F65",
(char *)"R 	c #9A886B",
(char *)"S 	c #A08F6E",
(char *)"T 	c #D3BE1D",
(char *)"U 	c #E8D100",
(char *)"V 	c #DEC800",
(char *)"W 	c #CDB913",
(char *)"X 	c #A08F5E",
(char *)"Y 	c #9A8859",
(char *)"Z 	c #927F53",
(char *)"` 	c #8A754F",
(char *)" .	c #80694A",
(char *)"..	c #775F48",
(char *)"+.	c #6C5246",
(char *)"@.	c #9B8A6C",
(char *)"#.	c #A49371",
(char *)"$.	c #AB9C74",
(char *)"%.	c #C6B43C",
(char *)"&.	c #DBC500",
(char *)"*.	c #D6C100",
(char *)"=.	c #C2B12E",
(char *)"-.	c #AB9C62",
(char *)";.	c #A4935C",
(char *)">.	c #9B8A56",
(char *)",.	c #927F50",
(char *)"'.	c #88724B",
(char *)").	c #7E6648",
(char *)"!.	c #735B46",
(char *)"~.	c #3D3224",
(char *)"{.	c #AD9F76",
(char *)"].	c #B6A97B",
(char *)"^.	c #ACB450",
(char *)"/.	c #D4BF00",
(char *)"(.	c #D3BF00",
(char *)"_.	c #D1BC00",
(char *)":.	c #CDB800",
(char *)"<.	c #BEB348",
(char *)"[.	c #B6A966",
(char *)"}.	c #AD9F5E",
(char *)"|.	c #A49357",
(char *)"1.	c #9A8851",
(char *)"2.	c #8F7B4C",
(char *)"3.	c #856E48",
(char *)"4.	c #796146",
(char *)"5.	c #6D5344",
(char *)"6.	c #3C3224",
(char *)"7.	c #C0B480",
(char *)"8.	c #81EC68",
(char *)"9.	c #C7B802",
(char *)"0.	c #C9B500",
(char *)"a.	c #C7B300",
(char *)"b.	c #C3B000",
(char *)"c.	c #92CE4B",
(char *)"d.	c #C0B469",
(char *)"e.	c #B6A960",
(char *)"f.	c #AB9C58",
(char *)"g.	c #A08F51",
(char *)"h.	c #95824B",
(char *)"i.	c #8A7448",
(char *)"j.	c #7E6645",
(char *)"k.	c #725945",
(char *)"l.	c #3C3223",
(char *)"m.	c #54CB49",
(char *)"n.	c #DFF4DC",
(char *)"o.	c #36F031",
(char *)"p.	c #29EE23",
(char *)"q.	c #26ED20",
(char *)"r.	c #27EF21",
(char *)"s.	c #29F122",
(char *)"t.	c #85F87D",
(char *)"u.	c #C6FBC0",
(char *)"v.	c #98C005",
(char *)"w.	c #BFAC00",
(char *)"x.	c #BDAA00",
(char *)"y.	c #98B701",
(char *)"z.	c #14ED0D",
(char *)"A.	c #23E618",
(char *)"B.	c #2AEE1F",
(char *)"C.	c #29EC1E",
(char *)"D.	c #27EA1D",
(char *)"E.	c #25E71B",
(char *)"F.	c #26E91E",
(char *)"G.	c #0CE207",
(char *)"H.	c #528C2F",
(char *)"I.	c #3D3223",
(char *)"J.	c #776250",
(char *)"K.	c #30CB20",
(char *)"L.	c #0BF107",
(char *)"M.	c #08FF08",
(char *)"N.	c #10FF10",
(char *)"O.	c #11FF11",
(char *)"P.	c #0DFF0D",
(char *)"Q.	c #60D103",
(char *)"R.	c #B5A300",
(char *)"S.	c #B3A100",
(char *)"T.	c #64C902",
(char *)"U.	c #0EFF0E",
(char *)"V.	c #12FF12",
(char *)"W.	c #0BFF0B",
(char *)"X.	c #01FF01",
(char *)"Y.	c #10F008",
(char *)"Z.	c #3ABE1E",
(char *)"`.	c #786043",
(char *)" +	c #3D3322",
(char *)".+	c #796251",
(char *)"++	c #867059",
(char *)"@+	c #68A445",
(char *)"#+	c #19ED10",
(char *)"$+	c #00FF00",
(char *)"%+	c #04FF04",
(char *)"&+	c #05FF05",
(char *)"*+	c #32E404",
(char *)"=+	c #AB9A00",
(char *)"-+	c #A99800",
(char *)";+	c #37DE03",
(char *)">+	c #02FF02",
(char *)",+	c #19ED0B",
(char *)"'+	c #759637",
(char *)")+	c #856E42",
(char *)"!+	c #796042",
(char *)"~+	c #3D3321",
(char *)"{+	c #867058",
(char *)"]+	c #927F5E",
(char *)"^+	c #969361",
(char *)"/+	c #26E918",
(char *)"(+	c #02FB01",
(char *)"_+	c #20EC04",
(char *)":+	c #A19100",
(char *)"<+	c #9F8F00",
(char *)"[+	c #25E704",
(char *)"}+	c #0AFA04",
(char *)"|+	c #2AE613",
(char *)"1+	c #988F44",
(char *)"2+	c #917C43",
(char *)"3+	c #856D41",
(char *)"4+	c #786042",
(char *)"5+	c #856E56",
(char *)"6+	c #907D5D",
(char *)"7+	c #9D8B62",
(char *)"8+	c #A89A69",
(char *)"9+	c #55D733",
(char *)"0+	c #11F30B",
(char *)"a+	c #17F104",
(char *)"b+	c #978700",
(char *)"c+	c #958600",
(char *)"d+	c #1CEB04",
(char *)"e+	c #19F50B",
(char *)"f+	c #65CD2B",
(char *)"g+	c #A89748",
(char *)"h+	c #9B8843",
(char *)"i+	c #8F7A41",
(char *)"j+	c #836C40",
(char *)"k+	c #775F41",
(char *)"l+	c #3D3220",
(char *)"m+	c #826B53",
(char *)"n+	c #8D7A59",
(char *)"o+	c #9A885F",
(char *)"p+	c #A69564",
(char *)"q+	c #B2A469",
(char *)"r+	c #45DB28",
(char *)"s+	c #0AFF0A",
(char *)"t+	c #0EF705",
(char *)"u+	c #908100",
(char *)"v+	c #15F004",
(char *)"w+	c #6CD12E",
(char *)"x+	c #B0A04A",
(char *)"y+	c #A49244",
(char *)"z+	c #988442",
(char *)"A+	c #8C763F",
(char *)"B+	c #806840",
(char *)"C+	c #755C41",
(char *)"D+	c #3C3220",
(char *)"E+	c #8A7555",
(char *)"F+	c #958259",
(char *)"G+	c #AA9B62",
(char *)"H+	c #1AE512",
(char *)"I+	c #07FD05",
(char *)"J+	c #0FF605",
(char *)"K+	c #2EE813",
(char *)"L+	c #A99845",
(char *)"M+	c #9E8B42",
(char *)"N+	c #937E3F",
(char *)"O+	c #88713F",
(char *)"P+	c #7D643F",
(char *)"Q+	c #715842",
(char *)"R+	c #3C3120",
(char *)"S+	c #856E51",
(char *)"T+	c #939555",
(char *)"U+	c #35F72E",
(char *)"V+	c #8B8500",
(char *)"W+	c #07FC04",
(char *)"X+	c #03FF03",
(char *)"Y+	c #1CEE0C",
(char *)"Z+	c #9F9141",
(char *)"`+	c #978340",
(char *)" @	c #8D773E",
(char *)".@	c #836B3E",
(char *)"+@	c #785F3F",
(char *)"@@	c #6D5342",
(char *)"#@	c #3C3020",
(char *)"$@	c #4EAE30",
(char *)"%@	c #5BFF5B",
(char *)"&@	c #06FF06",
(char *)"*@	c #04FD02",
(char *)"=@	c #26EE12",
(char *)"-@	c #21F00F",
(char *)";@	c #01FC01",
(char *)">@	c #71A52F",
(char *)",@	c #907A3D",
(char *)"'@	c #866F3D",
(char *)")@	c #7D643E",
(char *)"!@	c #725940",
(char *)"~@	c #684D44",
(char *)"{@	c #3C301F",
(char *)"]@	c #1ADF12",
(char *)"^@	c #13FF13",
(char *)"/@	c #13F309",
(char *)"(@	c #4DD124",
(char *)"_@	c #AA9A4D",
(char *)":@	c #A89B49",
(char *)"<@	c #3BDA19",
(char *)"[@	c #0DF405",
(char *)"}@	c #29D911",
(char *)"|@	c #88713D",
(char *)"1@	c #7F663D",
(char *)"2@	c #765D3F",
(char *)"3@	c #6C5143",
(char *)"4@	c #776D46",
(char *)"5@	c #27F321",
(char *)"6@	c #19EA0C",
(char *)"7@	c #809A34",
(char *)"8@	c #B19E17",
(char *)"9@	c #D4C01A",
(char *)"0@	c #D4C009",
(char *)"a@	c #AA9814",
(char *)"b@	c #73A025",
(char *)"c@	c #15EC09",
(char *)"d@	c #17E60B",
(char *)"e@	c #7D683C",
(char *)"f@	c #775E3F",
(char *)"g@	c #6E5442",
(char *)"h@	c #3C301E",
(char *)"i@	c #46922F",
(char *)"j@	c #03FA02",
(char *)"k@	c #24D813",
(char *)"l@	c #867846",
(char *)"m@	c #AD9B06",
(char *)"n@	c #EFDC2D",
(char *)"o@	c #FCF9DC",
(char *)"p@	c #F2E356",
(char *)"q@	c #C8B400",
(char *)"r@	c #908003",
(char *)"s@	c #81783A",
(char *)"t@	c #1BE00D",
(char *)"u@	c #01FA01",
(char *)"v@	c #5A8330",
(char *)"w@	c #3B301E",
(char *)"x@	c #1CD012",
(char *)"y@	c #43A029",
(char *)"z@	c #9E8D06",
(char *)"A@	c #D3BE00",
(char *)"B@	c #E3CD00",
(char *)"C@	c #CAB600",
(char *)"D@	c #9A8A00",
(char *)"E@	c #8F8003",
(char *)"F@	c #78603F",
(char *)"G@	c #35B21E",
(char *)"H@	c #26C217",
(char *)"I@	c #3B301D",
(char *)"J@	c #664C45",
(char *)"K@	c #78623B",
(char *)"L@	c #887616",
(char *)"M@	c #8D7D07",
(char *)"N@	c #8E7E07",
(char *)"O@	c #887614",
(char *)"P@	c #7A6335",
(char *)"Q@	c #654C44",
(char *)"R@	c #1F190D",
(char *)". . . . . . . . . . . . . . . . . . . . . . . . . . . . . . . . ",
(char *)". . . . . . . . . . . . . . . . . . . . . . . . . . . . . . . . ",
(char *)". . . . . . . . . . . . . . . . . . . . . . . . . . . . . . . . ",
(char *)". . . + @ # # # # # # # # # # # # # # # # # # # # # # @ + . . . ",
(char *)". . . @ $ % % % % % % & & * = = - - ; > > , , ' ' ) ) ! @ . . . ",
(char *)". . . # % ~ ~ ~ ~ ~ { ] ^ / ( _ : < [ } | 1 ~ ~ ~ ~ ~ 2 # . . . ",
(char *)". . . # % ~ ~ ~ ~ 3 4 5 6 7 8 9 0 a b c d e f ~ ~ ~ ~ g # . . . ",
(char *)". . . # % ~ ~ ~ h i j k l m n o p q r s t u v w ~ ~ ~ g # . . . ",
(char *)". . . # % ~ ~ h x y z A B C D E F G H I J K L M N ~ ~ O # . . . ",
(char *)". . . # % ~ 3 i y P Q R S T q U G V W X Y Z `  ...+.~ O # . . . ",
(char *)". . . # % { 4 j z Q @.#.$.%.V V &.*.=.-.;.>.,.'.).!.1 ~.# . . . ",
(char *)". . . # & ] 5 k A R #.{.].^./.(._.:.<.[.}.|.1.2.3.4.5.6.# . . . ",
(char *)". . . # & ^ 6 l B S $.].7.8.9.0.a.b.c.d.e.f.g.h.i.j.k.l.# . . . ",
(char *)". . . # * m.n.o.p.q.r.s.t.u.v.w.x.y.z.A.B.C.D.E.F.G.H.I.# . . . ",
(char *)". . . # = J.K.L.M.N.O.O.O.P.Q.R.S.T.M.U.V.O.W.X.Y.Z.`. +# . . . ",
(char *)". . . # = .+++@+#+$+%+&+&+&+*+=+-+;+&+&+%+>+$+,+'+)+!+~+# . . . ",
(char *)". . . # - .+{+]+^+/+(+>+&+&+_+:+<+[+&+%+$+}+|+1+2+3+4+~+# . . . ",
(char *)". . . # - < 5+6+7+8+9+0+&+&+a+b+c+d+&+X.e+f+g+h+i+j+k+l+# . . . ",
(char *)". . . # ; [ m+n+o+p+q+r+s+&+t+u+u+v+&+$+w+x+y+z+A+B+C+D+# . . . ",
(char *)". . . # > } c E+F+X G+H+O.&+I+u+u+J+&+>+K+L+M+N+O+P+Q+R+# . . . ",
(char *)". . . # > | d S+J Y T+U+W.&+>+V+u+W+&+X+Y+Z+`+ @.@+@@@#@# . . . ",
(char *)". . . # , 1 e u K Z $@%@&@X.*@=@-@$+X+&+;@>@,@'@)@!@~@{@# . . . ",
(char *)". . . # , ~ f v L ` ]@^@$+/@(@_@:@<@[@>+X.}@|@1@2@3@~ {@# . . . ",
(char *)". . . # ' ~ ~ w M 4@5@$+6@7@8@9@0@a@b@c@X.d@e@f@g@~ ~ h@# . . . ",
(char *)". . . # ' ~ ~ ~ N i@j@k@l@m@n@o@p@q@r@s@t@u@v@g@~ ~ ~ w@# . . . ",
(char *)". . . # ) ~ ~ ~ ~ x@y@4.j.z@A@B@C@D@E@)@F@G@H@~ ~ ~ ~ I@# . . . ",
(char *)". . . # ) ~ ~ ~ ~ J@1 5.k.K@L@M@N@O@P@Q+@@~@Q@~ ~ ~ ~ I@# . . . ",
(char *)". . . @ ! 2 g g O O ~.6.l.I. +~+~+l+D+R+#@{@{@h@I@I@I@R@@ . . . ",
(char *)". . . + @ # # # # # # # # # # # # # # # # # # # # # # @ + . . . ",
(char *)". . . . . . . . . . . . . . . . . . . . . . . . . . . . . . . . ",
(char *)". . . . . . . . . . . . . . . . . . . . . . . . . . . . . . . . ",
(char *)". . . . . . . . . . . . . . . . . . . . . . . . . . . . . . . . "};
