/* XPM */
/* $Id: op_help_048.xpm 1007 2012-11-01 03:32:57Z  $ */
static char * op_help_048_xpm[] = {
(char *)"48 48 608 2",
(char *)"  	c None",
(char *)". 	c #C0C0C0",
(char *)"+ 	c #B7B7B7",
(char *)"@ 	c #7E7E7E",
(char *)"# 	c #080A06",
(char *)"$ 	c #151810",
(char *)"% 	c #151710",
(char *)"& 	c #151711",
(char *)"* 	c #151611",
(char *)"= 	c #151612",
(char *)"- 	c #151512",
(char *)"; 	c #151513",
(char *)"> 	c #151414",
(char *)", 	c #151315",
(char *)"' 	c #080709",
(char *)") 	c #664B45",
(char *)"! 	c #664D45",
(char *)"~ 	c #665045",
(char *)"{ 	c #665145",
(char *)"] 	c #665345",
(char *)"^ 	c #665446",
(char *)"/ 	c #665445",
(char *)"( 	c #665346",
(char *)"_ 	c #665247",
(char *)": 	c #665146",
(char *)"< 	c #665046",
(char *)"[ 	c #664E46",
(char *)"} 	c #664C45",
(char *)"| 	c #151216",
(char *)"1 	c #665444",
(char *)"2 	c #655645",
(char *)"3 	c #655845",
(char *)"4 	c #655946",
(char *)"5 	c #655947",
(char *)"6 	c #655848",
(char *)"7 	c #655748",
(char *)"8 	c #655649",
(char *)"9 	c #655448",
(char *)"0 	c #655248",
(char *)"a 	c #665048",
(char *)"b 	c #664E47",
(char *)"c 	c #664C46",
(char *)"d 	c #665044",
(char *)"e 	c #655745",
(char *)"f 	c #655A45",
(char *)"g 	c #655B45",
(char *)"h 	c #655D46",
(char *)"i 	c #655E47",
(char *)"j 	c #69634A",
(char *)"k 	c #78724E",
(char *)"l 	c #888353",
(char *)"m 	c #979157",
(char *)"n 	c #8B8454",
(char *)"o 	c #786F50",
(char *)"p 	c #675C4D",
(char *)"q 	c #65574C",
(char *)"r 	c #65554B",
(char *)"s 	c #65544A",
(char *)"t 	c #65524A",
(char *)"u 	c #664D47",
(char *)"v 	c #665244",
(char *)"w 	c #665644",
(char *)"x 	c #655C45",
(char *)"y 	c #655F46",
(char *)"z 	c #75724B",
(char *)"A 	c #AFAE5C",
(char *)"B 	c #EEED6D",
(char *)"C 	c #FFFF71",
(char *)"D 	c #FDFC70",
(char *)"E 	c #F9F970",
(char *)"F 	c #FCFC70",
(char *)"G 	c #FEFE71",
(char *)"H 	c #AEA85F",
(char *)"I 	c #706250",
(char *)"J 	c #65544D",
(char *)"K 	c #65524C",
(char *)"L 	c #66504A",
(char *)"M 	c #664E48",
(char *)"N 	c #665344",
(char *)"O 	c #655844",
(char *)"P 	c #655E45",
(char *)"Q 	c #6C6948",
(char *)"R 	c #CECE64",
(char *)"S 	c #FAFA70",
(char *)"T 	c #FBFA70",
(char *)"U 	c #FBFB70",
(char *)"V 	c #BEB864",
(char *)"W 	c #695851",
(char *)"X 	c #65524E",
(char *)"Y 	c #65504C",
(char *)"Z 	c #664E49",
(char *)"` 	c #151116",
(char *)" .	c #655B44",
(char *)"..	c #656045",
(char *)"+.	c #72704A",
(char *)"@.	c #E5E56A",
(char *)"#.	c #F4F56F",
(char *)"$.	c #D6D86A",
(char *)"%.	c #BCC065",
(char *)"&.	c #D3D56A",
(char *)"*.	c #F1F16F",
(char *)"=.	c #CEC968",
(char *)"-.	c #665452",
(char *)";.	c #65514F",
(char *)">.	c #654F4C",
(char *)",.	c #664D4A",
(char *)"'.	c #151117",
(char *)").	c #656447",
(char *)"!.	c #E4E56A",
(char *)"~.	c #FDFD71",
(char *)"{.	c #E4E76C",
(char *)"].	c #758158",
(char *)"^.	c #637057",
(char *)"/.	c #636F5A",
(char *)"(.	c #636E5B",
(char *)"_.	c #636D5D",
(char *)":.	c #646C5F",
(char *)"<.	c #9FA266",
(char *)"[.	c #C0BA66",
(char *)"}.	c #655254",
(char *)"|.	c #655050",
(char *)"1.	c #654E4D",
(char *)"2.	c #664D49",
(char *)"3.	c #664B46",
(char *)"4.	c #7A7F4F",
(char *)"5.	c #9DA863",
(char *)"6.	c #63735D",
(char *)"7.	c #63735F",
(char *)"8.	c #637162",
(char *)"9.	c #637063",
(char *)"0.	c #636D65",
(char *)"a.	c #636B66",
(char *)"b.	c #999D6A",
(char *)"c.	c #6F5E5A",
(char *)"d.	c #655155",
(char *)"e.	c #654F51",
(char *)"f.	c #664D4C",
(char *)"g.	c #664C48",
(char *)"h.	c #656346",
(char *)"i.	c #646849",
(char *)"j.	c #AAAE5C",
(char *)"k.	c #8C9B67",
(char *)"l.	c #627567",
(char *)"m.	c #627469",
(char *)"n.	c #62726B",
(char *)"o.	c #62706C",
(char *)"p.	c #626C6D",
(char *)"q.	c #63696D",
(char *)"r.	c #F8F871",
(char *)"s.	c #FCFB71",
(char *)"t.	c #948963",
(char *)"u.	c #655158",
(char *)"v.	c #654F55",
(char *)"w.	c #654E51",
(char *)"x.	c #664C4B",
(char *)"y.	c #161116",
(char *)"z.	c #656246",
(char *)"A.	c #656748",
(char *)"B.	c #646A4B",
(char *)"C.	c #A3AA5C",
(char *)"D.	c #FCFC71",
(char *)"E.	c #BFC86F",
(char *)"F.	c #62786E",
(char *)"G.	c #627771",
(char *)"H.	c #627473",
(char *)"I.	c #627175",
(char *)"J.	c #626E75",
(char *)"K.	c #626B75",
(char *)"L.	c #E3E471",
(char *)"M.	c #FDFC71",
(char *)"N.	c #BBB46A",
(char *)"O.	c #65515D",
(char *)"P.	c #654F59",
(char *)"Q.	c #654D54",
(char *)"R.	c #664D4F",
(char *)"S.	c #664C49",
(char *)"T.	c #656448",
(char *)"U.	c #64694A",
(char *)"V.	c #636D4D",
(char *)"W.	c #748154",
(char *)"X.	c #F8F970",
(char *)"Y.	c #FCFD71",
(char *)"Z.	c #8D9F72",
(char *)"`.	c #627A76",
(char *)" +	c #62787A",
(char *)".+	c #62757C",
(char *)"++	c #62727E",
(char *)"@+	c #626F7E",
(char *)"#+	c #626C7C",
(char *)"$+	c #F5F672",
(char *)"%+	c #BAB36C",
(char *)"&+	c #645162",
(char *)"*+	c #654F5D",
(char *)"=+	c #654E56",
(char *)"-+	c #664D50",
(char *)";+	c #656147",
(char *)">+	c #656649",
(char *)",+	c #646B4C",
(char *)"'+	c #636F50",
(char *)")+	c #637253",
(char *)"!+	c #8A985E",
(char *)"~+	c #D9DE6C",
(char *)"{+	c #FBFC71",
(char *)"]+	c #C2CD73",
(char *)"^+	c #627D7A",
(char *)"/+	c #627B7F",
(char *)"(+	c #627983",
(char *)"_+	c #627786",
(char *)":+	c #627387",
(char *)"<+	c #627087",
(char *)"[+	c #767E83",
(char *)"}+	c #FAFA71",
(char *)"|+	c #A1976E",
(char *)"1+	c #645166",
(char *)"2+	c #654F5F",
(char *)"3+	c #664E59",
(char *)"4+	c #674D52",
(char *)"5+	c #674D4D",
(char *)"6+	c #656248",
(char *)"7+	c #64674B",
(char *)"8+	c #636C4E",
(char *)"9+	c #637052",
(char *)"0+	c #637357",
(char *)"a+	c #63765C",
(char *)"b+	c #627962",
(char *)"c+	c #718869",
(char *)"d+	c #8C9F70",
(char *)"e+	c #678275",
(char *)"f+	c #627E7C",
(char *)"g+	c #617E83",
(char *)"h+	c #617C89",
(char *)"i+	c #617A8D",
(char *)"j+	c #617790",
(char *)"k+	c #617392",
(char *)"l+	c #617090",
(char *)"m+	c #CFD27A",
(char *)"n+	c #FBFB72",
(char *)"o+	c #F5F471",
(char *)"p+	c #6A5A70",
(char *)"q+	c #645168",
(char *)"r+	c #655061",
(char *)"s+	c #674F5A",
(char *)"t+	c #674D54",
(char *)"u+	c #674D4E",
(char *)"v+	c #674C49",
(char *)"w+	c #161115",
(char *)"x+	c #656349",
(char *)"y+	c #64684C",
(char *)"z+	c #636D50",
(char *)"A+	c #637055",
(char *)"B+	c #63745A",
(char *)"C+	c #637760",
(char *)"D+	c #627966",
(char *)"E+	c #627B6D",
(char *)"F+	c #627D75",
(char *)"G+	c #617E84",
(char *)"H+	c #617E8C",
(char *)"I+	c #617D93",
(char *)"J+	c #617B98",
(char *)"K+	c #61779C",
(char *)"L+	c #61749C",
(char *)"M+	c #9BA48C",
(char *)"N+	c #FDFD72",
(char *)"O+	c #988E78",
(char *)"P+	c #645272",
(char *)"Q+	c #65516A",
(char *)"R+	c #665062",
(char *)"S+	c #684F5A",
(char *)"T+	c #684E54",
(char *)"U+	c #684D4E",
(char *)"V+	c #171115",
(char *)"W+	c #655E49",
(char *)"X+	c #65644B",
(char *)"Y+	c #64694E",
(char *)"Z+	c #636D52",
(char *)"`+	c #627663",
(char *)" @	c #62796B",
(char *)".@	c #627B72",
(char *)"+@	c #617E95",
(char *)"@@	c #617D9E",
(char *)"#@	c #617BA4",
(char *)"$@	c #6178A7",
(char *)"%@	c #919E97",
(char *)"&@	c #FCFC72",
(char *)"*@	c #F7F672",
(char *)"=@	c #8B8180",
(char *)"-@	c #64537C",
(char *)";@	c #655272",
(char *)">@	c #67526A",
(char *)",@	c #685062",
(char *)"'@	c #694F5B",
(char *)")@	c #694E55",
(char *)"!@	c #684D50",
(char *)"~@	c #684D4B",
(char *)"{@	c #655F49",
(char *)"]@	c #65644C",
(char *)"^@	c #636850",
(char *)"/@	c #636C55",
(char *)"(@	c #637360",
(char *)"_@	c #607CA8",
(char *)":@	c #607BB0",
(char *)"<@	c #8899A4",
(char *)"[@	c #FAFA72",
(char *)"}@	c #E7E677",
(char *)"|@	c #766D8C",
(char *)"1@	c #635586",
(char *)"2@	c #65547C",
(char *)"3@	c #675273",
(char *)"4@	c #68526A",
(char *)"5@	c #695163",
(char *)"6@	c #6A4F5B",
(char *)"7@	c #6A4E55",
(char *)"8@	c #694D4F",
(char *)"9@	c #684D4A",
(char *)"0@	c #655E4A",
(char *)"a@	c #64634E",
(char *)"b@	c #636752",
(char *)"c@	c #636B56",
(char *)"d@	c #636E5C",
(char *)"e@	c #8095AE",
(char *)"f@	c #FAFA74",
(char *)"g@	c #FEFE72",
(char *)"h@	c #CECC80",
(char *)"i@	c #695F98",
(char *)"j@	c #635690",
(char *)"k@	c #665585",
(char *)"l@	c #67547A",
(char *)"m@	c #695372",
(char *)"n@	c #695269",
(char *)"o@	c #6A5162",
(char *)"p@	c #6B505B",
(char *)"q@	c #6A4E54",
(char *)"r@	c #6A4D4F",
(char *)"s@	c #655D4B",
(char *)"t@	c #64624F",
(char *)"u@	c #636653",
(char *)"v@	c #636A57",
(char *)"w@	c #636C5D",
(char *)"x@	c #636F64",
(char *)"y@	c #647BB3",
(char *)"z@	c #EDEF7A",
(char *)"A@	c #ADAC8F",
(char *)"B@	c #6259A4",
(char *)"C@	c #635799",
(char *)"D@	c #66568E",
(char *)"E@	c #685582",
(char *)"F@	c #695479",
(char *)"G@	c #6A5370",
(char *)"H@	c #6B5268",
(char *)"I@	c #6B5161",
(char *)"J@	c #6C505A",
(char *)"K@	c #6B4E54",
(char *)"L@	c #6A4D4E",
(char *)"M@	c #694D4A",
(char *)"N@	c #655C4B",
(char *)"O@	c #65614F",
(char *)"P@	c #636554",
(char *)"Q@	c #636859",
(char *)"R@	c #636A5F",
(char *)"S@	c #61739C",
(char *)"T@	c #6174A8",
(char *)"U@	c #AAB494",
(char *)"V@	c #FAFB73",
(char *)"W@	c #F3F376",
(char *)"X@	c #8785A2",
(char *)"Y@	c #615AAC",
(char *)"Z@	c #6458A0",
(char *)"`@	c #665795",
(char *)" #	c #68568A",
(char *)".#	c #6A5580",
(char *)"+#	c #6B5477",
(char *)"@#	c #6C526E",
(char *)"##	c #6C5266",
(char *)"$#	c #6C515F",
(char *)"%#	c #6C4F59",
(char *)"&#	c #6C4E53",
(char *)"*#	c #6B4D4D",
(char *)"=#	c #694D49",
(char *)"-#	c #181114",
(char *)";#	c #655B4C",
(char *)">#	c #655F4F",
(char *)",#	c #646354",
(char *)"'#	c #636659",
(char *)")#	c #63685F",
(char *)"!#	c #626F88",
(char *)"~#	c #616F91",
(char *)"{#	c #61709B",
(char *)"]#	c #616FA5",
(char *)"^#	c #D9DC80",
(char *)"/#	c #FBFB73",
(char *)"(#	c #7E7CA9",
(char *)"_#	c #615BB0",
(char *)":#	c #6459A6",
(char *)"<#	c #66589B",
(char *)"[#	c #685790",
(char *)"}#	c #6A5686",
(char *)"|#	c #6C557C",
(char *)"1#	c #6C5373",
(char *)"2#	c #6D526B",
(char *)"3#	c #6D5263",
(char *)"4#	c #6D505D",
(char *)"5#	c #6D4F57",
(char *)"6#	c #6C4E52",
(char *)"7#	c #65594C",
(char *)"8#	c #655D4F",
(char *)"9#	c #646054",
(char *)"0#	c #636459",
(char *)"a#	c #63655F",
(char *)"b#	c #636866",
(char *)"c#	c #626B7D",
(char *)"d#	c #626B87",
(char *)"e#	c #626B8F",
(char *)"f#	c #616B99",
(char *)"g#	c #6169A1",
(char *)"h#	c #F4F575",
(char *)"i#	c #B5B490",
(char *)"j#	c #6459A8",
(char *)"k#	c #66589E",
(char *)"l#	c #685794",
(char *)"m#	c #6A578A",
(char *)"n#	c #6C5581",
(char *)"o#	c #6D5478",
(char *)"p#	c #6E5370",
(char *)"q#	c #6E5268",
(char *)"r#	c #6E5161",
(char *)"s#	c #6E505A",
(char *)"t#	c #6E4F54",
(char *)"u#	c #6D4E50",
(char *)"v#	c #6B4D4B",
(char *)"w#	c #694C48",
(char *)"x#	c #655449",
(char *)"y#	c #655B4F",
(char *)"z#	c #645E54",
(char *)"A#	c #636159",
(char *)"B#	c #63635F",
(char *)"C#	c #636465",
(char *)"D#	c #63666C",
(char *)"E#	c #626774",
(char *)"F#	c #62677C",
(char *)"G#	c #626884",
(char *)"H#	c #62678D",
(char *)"I#	c #626695",
(char *)"J#	c #6E7298",
(char *)"K#	c #87819E",
(char *)"L#	c #685895",
(char *)"M#	c #6A578D",
(char *)"N#	c #6C5684",
(char *)"O#	c #6D557B",
(char *)"P#	c #6E5473",
(char *)"Q#	c #6F536B",
(char *)"R#	c #6F5264",
(char *)"S#	c #6F515E",
(char *)"T#	c #6E5058",
(char *)"U#	c #6E4F52",
(char *)"V#	c #6D4D4E",
(char *)"W#	c #6B4D4A",
(char *)"X#	c #684C47",
(char *)"Y#	c #65594F",
(char *)"Z#	c #655C53",
(char *)"`#	c #645E58",
(char *)" $	c #63605E",
(char *)".$	c #636164",
(char *)"+$	c #63626B",
(char *)"@$	c #636372",
(char *)"#$	c #62647A",
(char *)"$$	c #626482",
(char *)"%$	c #626389",
(char *)"&$	c #626291",
(char *)"*$	c #88878E",
(char *)"=$	c #7E7498",
(char *)"-$	c #6C5685",
(char *)";$	c #6D557D",
(char *)">$	c #6F5475",
(char *)",$	c #70536E",
(char *)"'$	c #705267",
(char *)")$	c #705261",
(char *)"!$	c #6F505B",
(char *)"~$	c #6F4F55",
(char *)"{$	c #6E4E50",
(char *)"]$	c #6C4D4C",
(char *)"^$	c #6A4D49",
(char *)"/$	c #684C46",
(char *)"($	c #65544B",
(char *)"_$	c #65564E",
(char *)":$	c #655953",
(char *)"<$	c #645B58",
(char *)"[$	c #635D5D",
(char *)"}$	c #635F63",
(char *)"|$	c #635F69",
(char *)"1$	c #63606F",
(char *)"2$	c #636077",
(char *)"3$	c #62607E",
(char *)"4$	c #625F85",
(char *)"5$	c #625E8B",
(char *)"6$	c #8B8789",
(char *)"7$	c #796B91",
(char *)"8$	c #6F5476",
(char *)"9$	c #70536F",
(char *)"0$	c #705268",
(char *)"a$	c #705262",
(char *)"b$	c #70515C",
(char *)"c$	c #6F5057",
(char *)"d$	c #6F4F52",
(char *)"e$	c #6E4E4E",
(char *)"f$	c #6C4D4A",
(char *)"g$	c #6A4C48",
(char *)"h$	c #674B45",
(char *)"i$	c #191113",
(char *)"j$	c #655651",
(char *)"k$	c #655956",
(char *)"l$	c #645A5B",
(char *)"m$	c #635B61",
(char *)"n$	c #635C67",
(char *)"o$	c #635C6D",
(char *)"p$	c #635C73",
(char *)"q$	c #635C7A",
(char *)"r$	c #625B80",
(char *)"s$	c #625A86",
(char *)"t$	c #736A88",
(char *)"u$	c #A29C83",
(char *)"v$	c #A39B83",
(char *)"w$	c #A49B82",
(char *)"x$	c #6D5C89",
(char *)"y$	c #715269",
(char *)"z$	c #705263",
(char *)"A$	c #71515E",
(char *)"B$	c #705059",
(char *)"C$	c #704F54",
(char *)"D$	c #6F4E50",
(char *)"E$	c #6D4D4C",
(char *)"F$	c #6B4D49",
(char *)"G$	c #655450",
(char *)"H$	c #655654",
(char *)"I$	c #645759",
(char *)"J$	c #64585E",
(char *)"K$	c #635964",
(char *)"L$	c #63596A",
(char *)"M$	c #63596F",
(char *)"N$	c #635876",
(char *)"O$	c #63577B",
(char *)"P$	c #635680",
(char *)"Q$	c #625585",
(char *)"R$	c #645586",
(char *)"S$	c #715055",
(char *)"T$	c #6E4E4D",
(char *)"U$	c #6A4C47",
(char *)"V$	c #65514E",
(char *)"W$	c #655352",
(char *)"X$	c #655456",
(char *)"Y$	c #64565C",
(char *)"Z$	c #645661",
(char *)"`$	c #635766",
(char *)" %	c #63566B",
(char *)".%	c #635570",
(char *)"+%	c #635475",
(char *)"@%	c #63547B",
(char *)"#%	c #83757A",
(char *)"$%	c #B6AD76",
(char *)"%%	c #D3CD74",
(char *)"&%	c #A49876",
(char *)"*%	c #786376",
(char *)"=%	c #6D5373",
(char *)"-%	c #715262",
(char *)";%	c #705056",
(char *)">%	c #704F51",
(char *)",%	c #6D4D4B",
(char *)"'%	c #6B4D48",
(char *)")%	c #655358",
(char *)"!%	c #64545D",
(char *)"~%	c #645462",
(char *)"{%	c #635366",
(char *)"]%	c #63536C",
(char *)"^%	c #635270",
(char *)"/%	c #B7AF71",
(char *)"(%	c #FBFB71",
(char *)"_%	c #FBFA71",
(char *)":%	c #826A6C",
(char *)"<%	c #705260",
(char *)"[%	c #6F4E4E",
(char *)"}%	c #694C47",
(char *)"|%	c #655159",
(char *)"1%	c #645066",
(char *)"2%	c #756469",
(char *)"3%	c #D2C96D",
(char *)"4%	c #6F515D",
(char *)"5%	c #6C4D49",
(char *)"6%	c #1A1112",
(char *)"7%	c #654E4E",
(char *)"8%	c #8E7E65",
(char *)"9%	c #EEEA6F",
(char *)"0%	c #6F515A",
(char *)"a%	c #674F59",
(char *)"b%	c #DFDA6C",
(char *)"c%	c #9E8A5F",
(char *)"d%	c #664C4C",
(char *)"e%	c #674D53",
(char *)"f%	c #806A59",
(char *)"g%	c #C9BF67",
(char *)"h%	c #F7F670",
(char *)"i%	c #E6E16C",
(char *)"j%	c #B1A161",
(char *)"k%	c #6D4F52",
(char *)"l%	c #694D50",
(char *)"m%	c #6B5050",
(char *)"n%	c #775D52",
(char *)"o%	c #1B1111",
(char *)"p%	c #171114",
(char *)"q%	c #0B0707",
(char *)". . . . . . . . . . . . . . . . . . . . . . . . . . . . . . . . . . . . . . . . . . . . . . . . ",
(char *)". . . . . . . . . . . . . . . . . . . . . . . . . . . . . . . . . . . . . . . . . . . . . . . . ",
(char *)". . . . . . . . . . . . . . . . . . . . . . . . . . . . . . . . . . . . . . . . . . . . . . . . ",
(char *)". . . . . . . . . . . . . . . . . . . . . . . . . . . . . . . . . . . . . . . . . . . . . . . . ",
(char *)". . . . . . . . . . . . . . . . . . . . . . . . . . . . . . . . . . . . . . . . . . . . . . . . ",
(char *)". . . . . + @ @ @ @ @ @ @ @ @ @ @ @ @ @ @ @ @ @ @ @ @ @ @ @ @ @ @ @ @ @ @ @ @ @ @ @ + . . . . . ",
(char *)". . . . . @ # $ $ $ $ $ $ $ $ % % & & & & * = = = = - ; ; ; ; > > > > > , , , , , ' @ . . . . . ",
(char *)". . . . . @ $ ) ) ) ) ) ) ) ) ) ) ! ~ { ] ^ / ^ ^ ( _ : < [ } ) ) ) ) ) ) ) ) ) ) | @ . . . . . ",
(char *)". . . . . @ $ ) ) ) ) ) ) ) ) ! { 1 2 3 4 5 5 5 6 7 8 8 9 0 a b c ) ) ) ) ) ) ) ) | @ . . . . . ",
(char *)". . . . . @ $ ) ) ) ) ) ) } d 1 e f g h i j k l m n o p q r s t a u ) ) ) ) ) ) ) | @ . . . . . ",
(char *)". . . . . @ $ ) ) ) ) ) ! v w f x y z A B C C D E F C G B H I J K L M c ) ) ) ) ) | @ . . . . . ",
(char *)". . . . . @ $ ) ) ) ) ! N O g P Q R G S C C C G C C C C C T U V W X Y Z c ) ) ) ) ` @ . . . . . ",
(char *)". . . . . @ $ ) ) ) ! N O  ...+.@.U C U C #.$.%.&.*.U C C C C T =.-.;.>.,.c ) ) ) '.@ . . . . . ",
(char *)". . . . . @ $ ) ) } v O  ...).!.F C ~.{.].^./.(._.:.<.S C C C C U [.}.|.1.2.3.) ) '.@ . . . . . ",
(char *)". . . . . @ $ ) ) d w g ..).4.C C C C ~.5.6.7.8.9.0.a.b.~.C C C C G c.d.e.f.g.) ) ` @ . . . . . ",
(char *)". . . . . @ % ) ! 1 f P h.i.j.S C C C C ~.k.l.m.n.o.p.q.r.C C C C s.t.u.v.w.x.3.) y.@ . . . . . ",
(char *)". . . . . @ % ) { e x z.A.B.C.S C C C C D.E.F.G.H.I.J.K.L.C C C C M.N.O.P.Q.R.S.) y.@ . . . . . ",
(char *)". . . . . @ & ! 1 f y T.U.V.W.X.C C C C Y.Z.`. +.+++@+#+$+C C C C M.%+&+*+=+-+x.3.y.@ . . . . . ",
(char *)". . . . . @ & ~ 2 g ;+>+,+'+)+!+~+G G {+]+^+/+(+_+:+<+[+C C C C C }+|+1+2+3+4+5+g.y.@ . . . . . ",
(char *)". . . . . @ & { e h 6+7+8+9+0+a+b+c+d+e+f+g+h+i+j+k+l+m+n+C C C C o+p+q+r+s+t+u+v+w+@ . . . . . ",
(char *)". . . . . @ & ] 4 i x+y+z+A+B+C+D+E+F+f+G+H+I+J+K+L+M+N+C C C G ~.O+P+Q+R+S+T+U+v+V+@ . . . . . ",
(char *)". . . . . @ * ^ 5 W+X+Y+Z+^.6.`+ @.@^+g+H++@@@#@$@%@N+C C C &@*@=@-@;@>@,@'@)@!@~@V+@ . . . . . ",
(char *)". . . . . @ = / 5 {@]@^@/@/.(@l.F.`./+h+I+@@_@:@<@&@C C C [@}@|@1@2@3@4@5@6@7@8@9@V+@ . . . . . ",
(char *)". . . . . @ = ^ 5 0@a@b@c@d@8.m.G. +(+i+J+#@:@e@f@g@C C &@h@i@j@k@l@m@n@o@p@q@r@9@V+@ . . . . . ",
(char *)". . . . . @ = ^ 6 s@t@u@v@w@x@n.H..+_+j+K+$@y@z@g@C G N+A@B@C@D@E@F@G@H@I@J@K@L@M@V+@ . . . . . ",
(char *)". . . . . @ = ( 7 N@O@P@Q@R@0.o.I.++:+k+S@T@U@V@C N+W@X@Y@Z@`@ #.#+#@###$#%#&#*#=#-#@ . . . . . ",
(char *)". . . . . @ ; _ 8 ;#>#,#'#)#a.p.J.@+!#~#{#]#^#C C /#(#_#:#<#[#}#|#1#2#3#4#5#6#*#=#-#@ . . . . . ",
(char *)". . . . . @ ; : 8 7#8#9#0#a#b#q.K.c#d#e#f#g#h#C /#i#_#j#k#l#m#n#o#p#q#r#s#t#u#v#w#-#@ . . . . . ",
(char *)". . . . . @ ; < x#q y#z#A#B#C#D#E#F#G#H#I#J#C C G K#:#k#L#M#N#O#P#Q#R#S#T#U#V#W#X#-#@ . . . . . ",
(char *)". . . . . @ ; [ 0 r Y#Z#`# $.$+$@$#$$$%$&$*$&@C C =$<#l#M#-$;$>$,$'$)$!$~${$]$^$/$-#@ . . . . . ",
(char *)". . . . . @ ; } a ($_$:$<$[$}$|$1$2$3$4$5$6$G [@C 7$[#m#N#;$8$9$0$a$b$c$d$e$f$g$h$i$@ . . . . . ",
(char *)". . . . . @ > ) b t J j$k$l$m$n$o$p$q$r$s$t$u$v$w$x$}#n#O#>$9$y$z$A$B$C$D$E$F$X#) i$@ . . . . . ",
(char *)". . . . . @ > ) c a K G$H$I$J$K$L$M$N$O$P$Q$R$k@E@.#|#o#P#,$0$z$A$B$S$D$T$f$U$h$) i$@ . . . . . ",
(char *)". . . . . @ > ) ) u L V$W$X$Y$Z$`$ %.%+%@%#%$%%%&%*%=%p#Q#'$-%A$B$;%>%e$,%'%/$) ) i$@ . . . . . ",
(char *)". . . . . @ > ) ) ) M Y ;.}.)%!%~%{%]%^%/%G (%C _%~.:%q#R#<%b$B$S$>%[%,%F$}%) ) ) i$@ . . . . . ",
(char *)". . . . . @ > ) ) ) c Z >.|.d.|%O.&+1%2%s.C C C C s.3%r#4%!$c$C$D$e$,%5%}%h$) ) ) 6%@ . . . . . ",
(char *)". . . . . @ , ) ) ) ) c ,.7%w.v.P.*+2+8%G C C C C C 9%0%T#~$d$D$T$,%F$}%h$) ) ) ) 6%@ . . . . . ",
(char *)". . . . . @ , ) ) ) ) ) c 2.f.w.Q.=+3+a%b%~.C C C D.c%t#U#{$e$E$f$'%}%h$) ) ) ) ) 6%@ . . . . . ",
(char *)". . . . . @ , ) ) ) ) ) ) 3.g.d%R.-+4+e%f%g%h%C i%j%k%u#V#]$f$F$U$/$) ) ) ) ) ) ) 6%@ . . . . . ",
(char *)". . . . . @ , ) ) ) ) ) ) ) ) 3.S.x.5+u+U+l%m%n%L@*#*#v#W#^$g$X#h$) ) ) ) ) ) ) ) 6%@ . . . . . ",
(char *)". . . . . @ , ) ) ) ) ) ) ) ) ) ) 3.g.v+v+~@9@M@M@=#=#w#X#/$h$) ) ) ) ) ) ) ) ) ) o%@ . . . . . ",
(char *)". . . . . @ ' | | | | ` '.'.` y.y.y.y.w+V+V+V+V+p%-#-#-#-#-#i$i$i$i$i$6%6%6%6%6%o%q%@ . . . . . ",
(char *)". . . . . + @ @ @ @ @ @ @ @ @ @ @ @ @ @ @ @ @ @ @ @ @ @ @ @ @ @ @ @ @ @ @ @ @ @ @ @ + . . . . . ",
(char *)". . . . . . . . . . . . . . . . . . . . . . . . . . . . . . . . . . . . . . . . . . . . . . . . ",
(char *)". . . . . . . . . . . . . . . . . . . . . . . . . . . . . . . . . . . . . . . . . . . . . . . . ",
(char *)". . . . . . . . . . . . . . . . . . . . . . . . . . . . . . . . . . . . . . . . . . . . . . . . ",
(char *)". . . . . . . . . . . . . . . . . . . . . . . . . . . . . . . . . . . . . . . . . . . . . . . . ",
(char *)". . . . . . . . . . . . . . . . . . . . . . . . . . . . . . . . . . . . . . . . . . . . . . . . "};
