/* XPM */
/* $Id: op_help_032.xpm 1007 2012-11-01 03:32:57Z  $ */
static char * op_help_032_xpm[] = {
(char *)"32 32 352 2",
(char *)"  	c None",
(char *)". 	c #C0C0C0",
(char *)"+ 	c #BDBDBD",
(char *)"@ 	c #979797",
(char *)"# 	c #969696",
(char *)"$ 	c #161A11",
(char *)"% 	c #2F3022",
(char *)"& 	c #2F2F23",
(char *)"* 	c #2F2E24",
(char *)"= 	c #2E2E24",
(char *)"- 	c #2E2E25",
(char *)"; 	c #2E2D26",
(char *)"> 	c #2E2C26",
(char *)", 	c #2F2C27",
(char *)"' 	c #2F2B27",
(char *)") 	c #2F2A28",
(char *)"! 	c #2F2929",
(char *)"~ 	c #2F282A",
(char *)"{ 	c #2F272B",
(char *)"] 	c #161317",
(char *)"^ 	c #664B45",
(char *)"/ 	c #664D44",
(char *)"( 	c #665144",
(char *)"_ 	c #665545",
(char *)": 	c #655745",
(char *)"< 	c #655946",
(char *)"[ 	c #655947",
(char *)"} 	c #655848",
(char *)"| 	c #655648",
(char *)"1 	c #655448",
(char *)"2 	c #665248",
(char *)"3 	c #664F47",
(char *)"4 	c #664C45",
(char *)"5 	c #2F262C",
(char *)"6 	c #665045",
(char *)"7 	c #655644",
(char *)"8 	c #655B45",
(char *)"9 	c #655D46",
(char *)"0 	c #6C674A",
(char *)"a 	c #848051",
(char *)"b 	c #959156",
(char *)"c 	c #A09B5A",
(char *)"d 	c #908A57",
(char *)"e 	c #7D7453",
(char *)"f 	c #675A4D",
(char *)"g 	c #65544C",
(char *)"h 	c #65514A",
(char *)"i 	c #664D48",
(char *)"j 	c #665344",
(char *)"k 	c #655944",
(char *)"l 	c #655E45",
(char *)"m 	c #807E4E",
(char *)"n 	c #D0D065",
(char *)"o 	c #F2F36E",
(char *)"p 	c #F5F56F",
(char *)"q 	c #FBFB70",
(char *)"r 	c #FDFD71",
(char *)"s 	c #F6F66F",
(char *)"t 	c #F2F16E",
(char *)"u 	c #F1F06E",
(char *)"v 	c #AEA761",
(char *)"w 	c #6B5B50",
(char *)"x 	c #65514D",
(char *)"y 	c #664E49",
(char *)"z 	c #2F252D",
(char *)"A 	c #655B44",
(char *)"B 	c #656045",
(char *)"C 	c #959554",
(char *)"D 	c #FFFF71",
(char *)"E 	c #F3F36F",
(char *)"F 	c #E2E46C",
(char *)"G 	c #C7CA68",
(char *)"H 	c #D8DA6B",
(char *)"I 	c #F1F16F",
(char *)"J 	c #FAFA70",
(char *)"K 	c #E0DD6B",
(char *)"L 	c #695853",
(char *)"M 	c #65504E",
(char *)"N 	c #664D4A",
(char *)"O 	c #6B6D4A",
(char *)"P 	c #F3F46E",
(char *)"Q 	c #F7F86F",
(char *)"R 	c #9EA861",
(char *)"S 	c #63725C",
(char *)"T 	c #63715F",
(char *)"U 	c #636E62",
(char *)"V 	c #6C7465",
(char *)"W 	c #E6E66F",
(char *)"X 	c #FBFA70",
(char *)"Y 	c #C7C169",
(char *)"Z 	c #655154",
(char *)"` 	c #654F4F",
(char *)" .	c #664C49",
(char *)"..	c #656547",
(char *)"+.	c #909556",
(char *)"@.	c #F6F76F",
(char *)"#.	c #F1F370",
(char *)"$.	c #6F8267",
(char *)"%.	c #62756A",
(char *)"&.	c #62726D",
(char *)"*.	c #626E6F",
(char *)"=.	c #919670",
(char *)"-.	c #F7F771",
(char *)";.	c #EFED6F",
(char *)">.	c #65525B",
(char *)",.	c #654F55",
(char *)"'.	c #654D4E",
(char *)").	c #664B46",
(char *)"!.	c #30252D",
(char *)"~.	c #656247",
(char *)"{.	c #64694B",
(char *)"].	c #6F7B52",
(char *)"^.	c #F2F46F",
(char *)"/.	c #F6F871",
(char *)"(.	c #95A671",
(char *)"_.	c #627877",
(char *)":.	c #62757B",
(char *)"<.	c #62707C",
(char *)"[.	c #838A78",
(char *)"}.	c #F4F471",
(char *)"|.	c #F2F170",
(char *)"1.	c #685762",
(char *)"2.	c #654F5B",
(char *)"3.	c #664E52",
(char *)"4.	c #30252C",
(char *)"5.	c #656549",
(char *)"6.	c #636C4D",
(char *)"7.	c #637153",
(char *)"8.	c #A4AF63",
(char *)"9.	c #ECEF6F",
(char *)"0.	c #F1F471",
(char *)"a.	c #CED772",
(char *)"b.	c #637E7E",
(char *)"c.	c #617A85",
(char *)"d.	c #617689",
(char *)"e.	c #627189",
(char *)"f.	c #AAAF7D",
(char *)"g.	c #E2DF71",
(char *)"h.	c #635168",
(char *)"i.	c #664F5E",
(char *)"j.	c #674D54",
(char *)"k.	c #674D4C",
(char *)"l.	c #31252C",
(char *)"m.	c #655F48",
(char *)"n.	c #64674B",
(char *)"o.	c #636D51",
(char *)"p.	c #637358",
(char *)"q.	c #637761",
(char *)"r.	c #627B6A",
(char *)"s.	c #647F75",
(char *)"t.	c #617E81",
(char *)"u.	c #617E8C",
(char *)"v.	c #617B95",
(char *)"w.	c #617799",
(char *)"x.	c #6D7C96",
(char *)"y.	c #F1F274",
(char *)"z.	c #F8F872",
(char *)"A.	c #A39975",
(char *)"B.	c #65526C",
(char *)"C.	c #665060",
(char *)"D.	c #684E56",
(char *)"E.	c #684D4D",
(char *)"F.	c #31252B",
(char *)"G.	c #655846",
(char *)"H.	c #656049",
(char *)"I.	c #64674E",
(char *)"J.	c #636D54",
(char *)"K.	c #627766",
(char *)"L.	c #627A72",
(char *)"M.	c #627D7E",
(char *)"N.	c #617E9A",
(char *)"O.	c #617BA6",
(char *)"P.	c #657AAA",
(char *)"Q.	c #E2E57B",
(char *)"R.	c #FEFE71",
(char *)"S.	c #F4F473",
(char *)"T.	c #B6B07C",
(char *)"U.	c #66547A",
(char *)"V.	c #67526C",
(char *)"W.	c #685061",
(char *)"X.	c #694E57",
(char *)"Y.	c #684D4E",
(char *)"Z.	c #32252B",
(char *)"`.	c #65604A",
(char *)" +	c #646650",
(char *)".+	c #636C57",
(char *)"++	c #637160",
(char *)"@+	c #62756B",
(char *)"#+	c #607BB7",
(char *)"$+	c #CDD489",
(char *)"%+	c #FAFB73",
(char *)"&+	c #F2F275",
(char *)"*+	c #938C8C",
(char *)"=+	c #645588",
(char *)"-+	c #675378",
(char *)";+	c #69526C",
(char *)">+	c #6A5060",
(char *)",+	c #6A4F56",
(char *)"'+	c #694E4E",
(char *)")+	c #32252A",
(char *)"!+	c #655E4C",
(char *)"~+	c #646551",
(char *)"{+	c #636A59",
(char *)"]+	c #6177AB",
(char *)"^+	c #B1BB96",
(char *)"/+	c #F6F776",
(char *)"(+	c #FEFE72",
(char *)"_+	c #EDED78",
(char *)":+	c #79739E",
(char *)"<+	c #645795",
(char *)"[+	c #685585",
(char *)"}+	c #6A5376",
(char *)"|+	c #6B5269",
(char *)"1+	c #6B505E",
(char *)"2+	c #6B4F55",
(char *)"3+	c #6A4E4D",
(char *)"4+	c #33252A",
(char *)"5+	c #655C4D",
(char *)"6+	c #646253",
(char *)"7+	c #63675A",
(char *)"8+	c #636B64",
(char *)"9+	c #62708A",
(char *)"0+	c #617199",
(char *)"a+	c #6C7AA5",
(char *)"b+	c #F4F476",
(char *)"c+	c #FDFD72",
(char *)"d+	c #E8E87B",
(char *)"e+	c #706AA9",
(char *)"f+	c #64589F",
(char *)"g+	c #68578E",
(char *)"h+	c #6B5580",
(char *)"i+	c #6C5372",
(char *)"j+	c #6D5265",
(char *)"k+	c #6D505C",
(char *)"l+	c #6C4E53",
(char *)"m+	c #6A4D4C",
(char *)"n+	c #332529",
(char *)"o+	c #655A4D",
(char *)"p+	c #645F53",
(char *)"q+	c #63645B",
(char *)"r+	c #636664",
(char *)"s+	c #63696F",
(char *)"t+	c #626A7B",
(char *)"u+	c #626B88",
(char *)"v+	c #616A96",
(char *)"w+	c #898E96",
(char *)"x+	c #F6F675",
(char *)"y+	c #F1F176",
(char *)"z+	c #6F69AA",
(char *)"A+	c #6459A3",
(char *)"B+	c #685794",
(char *)"C+	c #6B5686",
(char *)"D+	c #6D5479",
(char *)"E+	c #6E536C",
(char *)"F+	c #6F5262",
(char *)"G+	c #6E5058",
(char *)"H+	c #6D4E51",
(char *)"I+	c #6A4D4A",
(char *)"J+	c #342529",
(char *)"K+	c #65574C",
(char *)"L+	c #655C53",
(char *)"M+	c #635F5A",
(char *)"N+	c #636263",
(char *)"O+	c #63636D",
(char *)"P+	c #626478",
(char *)"Q+	c #626584",
(char *)"R+	c #626390",
(char *)"S+	c #ABAB87",
(char *)"T+	c #EFEE76",
(char *)"U+	c #65589F",
(char *)"V+	c #6B5789",
(char *)"W+	c #6D557D",
(char *)"X+	c #6F5371",
(char *)"Y+	c #705266",
(char *)"Z+	c #6F515D",
(char *)"`+	c #6F4F55",
(char *)" @	c #6D4D4E",
(char *)".@	c #6A4D49",
(char *)"+@	c #342528",
(char *)"@@	c #655852",
(char *)"#@	c #645B59",
(char *)"$@	c #635D61",
(char *)"%@	c #635E6A",
(char *)"&@	c #635F74",
(char *)"*@	c #625F7F",
(char *)"=@	c #625D88",
(char *)"-@	c #B7B480",
(char *)";@	c #F4F374",
(char *)">@	c #E3E177",
(char *)",@	c #6F5472",
(char *)"'@	c #705269",
(char *)")@	c #705260",
(char *)"!@	c #705058",
(char *)"~@	c #6F4E51",
(char *)"{@	c #6C4E4B",
(char *)"]@	c #694C47",
(char *)"^@	c #352528",
(char *)"/@	c #65544F",
(char *)"(@	c #655756",
(char *)"_@	c #64595D",
(char *)":@	c #635A66",
(char *)"<@	c #635A6F",
(char *)"[@	c #635977",
(char *)"}@	c #635781",
(char *)"|@	c #695D87",
(char *)"1@	c #736586",
(char *)"2@	c #716084",
(char *)"3@	c #715261",
(char *)"4@	c #705059",
(char *)"5@	c #704F52",
(char *)"6@	c #6E4D4D",
(char *)"7@	c #6B4D48",
(char *)"8@	c #674B45",
(char *)"9@	c #352527",
(char *)"0@	c #655352",
(char *)"a@	c #65555A",
(char *)"b@	c #645661",
(char *)"c@	c #635669",
(char *)"d@	c #635470",
(char *)"e@	c #695978",
(char *)"f@	c #9D9277",
(char *)"g@	c #CEC873",
(char *)"h@	c #A49674",
(char *)"i@	c #745B72",
(char *)"j@	c #704F54",
(char *)"k@	c #6E4E4E",
(char *)"l@	c #6C4D4A",
(char *)"m@	c #684C47",
(char *)"n@	c #362527",
(char *)"o@	c #645262",
(char *)"p@	c #C2BB6F",
(char *)"q@	c #F9F971",
(char *)"r@	c #FBFA71",
(char *)"s@	c #CFC76D",
(char *)"t@	c #362526",
(char *)"u@	c #654E55",
(char *)"v@	c #654E5B",
(char *)"w@	c #EDEA6F",
(char *)"x@	c #F2EF6F",
(char *)"y@	c #372526",
(char *)"z@	c #2F282B",
(char *)"A@	c #97855F",
(char *)"B@	c #F2F06F",
(char *)"C@	c #F3F16F",
(char *)"D@	c #A18D5E",
(char *)"E@	c #684C46",
(char *)"F@	c #372525",
(char *)"G@	c #6B504F",
(char *)"H@	c #887355",
(char *)"I@	c #6E524E",
(char *)"J@	c #382525",
(char *)"K@	c #1D1212",
(char *)". . . . . . . . . . . . . . . . . . . . . . . . . . . . . . . . ",
(char *)". . . . . . . . . . . . . . . . . . . . . . . . . . . . . . . . ",
(char *)". . . . . . . . . . . . . . . . . . . . . . . . . . . . . . . . ",
(char *)". . . + @ # # # # # # # # # # # # # # # # # # # # # # @ + . . . ",
(char *)". . . @ $ % % % % % & & * * = - ; > , ' ) ) ! ! ~ ~ { ] @ . . . ",
(char *)". . . # % ^ ^ ^ ^ ^ / ( _ : < [ } | 1 2 3 4 ^ ^ ^ ^ ^ 5 # . . . ",
(char *)". . . # % ^ ^ ^ ^ 6 7 8 9 0 a b c d e f g h i ^ ^ ^ ^ 5 # . . . ",
(char *)". . . # % ^ ^ ^ j k l m n o p q r s t u v w x y ^ ^ ^ z # . . . ",
(char *)". . . # % ^ ^ j A B C o D E F G H I q D J K L M N ^ ^ z # . . . ",
(char *)". . . # % ^ 6 k B O P D Q R S T U V W D D X Y Z `  .^ z # . . . ",
(char *)". . . # & / 7 l ..+.@.D D #.$.%.&.*.=.-.D D ;.>.,.'.).!.# . . . ",
(char *)". . . # & ( 8 ~.{.].^.D D /.(._.:.<.[.}.D D |.1.2.3. .4.# . . . ",
(char *)". . . # * _ 9 5.6.7.8.9.0.a.b.c.d.e.f.r D D g.h.i.j.k.l.# . . . ",
(char *)". . . # * : m.n.o.p.q.r.s.t.u.v.w.x.y.D D z.A.B.C.D.E.F.# . . . ",
(char *)". . . # = G.H.I.J.S K.L.M.u.N.O.P.Q.R.D S.T.U.V.W.X.Y.Z.# . . . ",
(char *)". . . # - [ `. +.+++@+_.c.v.O.#+$+%+D &+*+=+-+;+>+,+'+)+# . . . ",
(char *)". . . # ; } !+~+{+U &.:.d.w.]+^+/+(+_+:+<+[+}+|+1+2+3+4+# . . . ",
(char *)". . . # > | 5+6+7+8+*.<.9+0+a+b+c+d+e+f+g+h+i+j+k+l+m+n+# . . . ",
(char *)". . . # , 1 o+p+q+r+s+t+u+v+w+x+y+z+A+B+C+D+E+F+G+H+I+J+# . . . ",
(char *)". . . # ' 2 K+L+M+N+O+P+Q+R+S+R.T+U+B+V+W+X+Y+Z+`+ @.@+@# . . . ",
(char *)". . . # ) 3 g @@#@$@%@&@*@=@-@;@>@g+C+W+,@'@)@!@~@{@]@^@# . . . ",
(char *)". . . # ) 4 h /@(@_@:@<@[@}@|@1@2@h+D+X+'@3@4@5@6@7@8@9@# . . . ",
(char *)". . . # ! ^ i x 0@a@b@c@d@e@f@g@h@i@E+Y+)@4@j@k@l@m@^ n@# . . . ",
(char *)". . . # ! ^ ^ y M Z >.o@h.p@q@D r@s@F+Z+!@5@k@l@]@^ ^ t@# . . . ",
(char *)". . . # ~ ^ ^ ^ N ` u@v@i.w@D D D x@G+`+~@6@l@]@^ ^ ^ y@# . . . ",
(char *)". . . # z@^ ^ ^ ^  .'.3.j.A@B@C@x@D@H+ @{@7@E@^ ^ ^ ^ F@# . . . ",
(char *)". . . # { ^ ^ ^ ^ ^ ). .k.E.G@H@I@m+I+.@]@8@^ ^ ^ ^ ^ J@# . . . ",
(char *)". . . @ ] 5 5 z z z !.4.l.F.Z.)+4+n+J++@^@9@n@t@y@F@J@K@@ . . . ",
(char *)". . . + @ # # # # # # # # # # # # # # # # # # # # # # @ + . . . ",
(char *)". . . . . . . . . . . . . . . . . . . . . . . . . . . . . . . . ",
(char *)". . . . . . . . . . . . . . . . . . . . . . . . . . . . . . . . ",
(char *)". . . . . . . . . . . . . . . . . . . . . . . . . . . . . . . . "};
