/* XPM */
/* $Id: op_help_about_016.xpm 1007 2012-11-01 03:32:57Z  $ */
static char * op_help_about_016_xpm[] = {
(char *)"16 16 119 2",
(char *)"  	c None",
(char *)". 	c #C0C0C0",
(char *)"+ 	c #BEBEBE",
(char *)"@ 	c #A8A8A8",
(char *)"# 	c #473B38",
(char *)"$ 	c #584642",
(char *)"% 	c #584641",
(char *)"& 	c #5B4B43",
(char *)"* 	c #604E42",
(char *)"= 	c #604F40",
(char *)"- 	c #5B4B3F",
(char *)"; 	c #58463D",
(char *)"> 	c #58463B",
(char *)", 	c #58463A",
(char *)"' 	c #473B2D",
(char *)") 	c #664B45",
(char *)"! 	c #6E544B",
(char *)"~ 	c #7C6455",
(char *)"{ 	c #9A8448",
(char *)"] 	c #EEE784",
(char *)"^ 	c #E4D10A",
(char *)"/ 	c #9A8440",
(char *)"( 	c #7C644D",
(char *)"_ 	c #6E5447",
(char *)": 	c #584639",
(char *)"< 	c #816A5A",
(char *)"[ 	c #907D64",
(char *)"} 	c #BAA73F",
(char *)"| 	c #EDD91F",
(char *)"1 	c #E5CF00",
(char *)"2 	c #B6A335",
(char *)"3 	c #907D54",
(char *)"4 	c #816A4C",
(char *)"5 	c #6E5446",
(char *)"6 	c #584637",
(char *)"7 	c #A49472",
(char *)"8 	c #B9AD65",
(char *)"9 	c #D9C400",
(char *)"0 	c #D4BF00",
(char *)"a 	c #B8A951",
(char *)"b 	c #A4945A",
(char *)"c 	c #907D4E",
(char *)"d 	c #7C6447",
(char *)"e 	c #585342",
(char *)"f 	c #7ABB66",
(char *)"g 	c #7ABA63",
(char *)"h 	c #8BCD6F",
(char *)"i 	c #B1EB9A",
(char *)"j 	c #C3B201",
(char *)"k 	c #C0AD00",
(char *)"l 	c #5FCA33",
(char *)"m 	c #71B347",
(char *)"n 	c #66A63F",
(char *)"o 	c #57932F",
(char *)"p 	c #594D34",
(char *)"q 	c #5E4D43",
(char *)"r 	c #51A536",
(char *)"s 	c #0EF30C",
(char *)"t 	c #18FF18",
(char *)"u 	c #17FF17",
(char *)"v 	c #9BAB01",
(char *)"w 	c #9DA500",
(char *)"x 	c #08FF08",
(char *)"y 	c #04FF04",
(char *)"z 	c #12EC08",
(char *)"A 	c #5EA02E",
(char *)"B 	c #5D4C33",
(char *)"C 	c #5E4D41",
(char *)"D 	c #8C775A",
(char *)"E 	c #8FA05B",
(char *)"F 	c #2EE21C",
(char *)"G 	c #05FF05",
(char *)"H 	c #75AB01",
(char *)"I 	c #77A401",
(char *)"J 	c #01FF01",
(char *)"K 	c #3BE61A",
(char *)"L 	c #949B41",
(char *)"M 	c #8B7441",
(char *)"N 	c #5D4C31",
(char *)"O 	c #867054",
(char *)"P 	c #9D8C5E",
(char *)"Q 	c #80B14C",
(char *)"R 	c #09FF09",
(char *)"S 	c #58B301",
(char *)"T 	c #5DAF01",
(char *)"U 	c #92B43C",
(char *)"V 	c #9B8842",
(char *)"W 	c #846D3F",
(char *)"X 	c #5B4931",
(char *)"Y 	c #4DC436",
(char *)"Z 	c #02FF02",
(char *)"` 	c #3FD30D",
(char *)" .	c #3AD209",
(char *)"..	c #57C124",
(char *)"+.	c #8F793E",
(char *)"@.	c #7A613F",
(char *)"#.	c #574432",
(char *)"$.	c #806B4B",
(char *)"%.	c #15DF0E",
(char *)"&.	c #3FCF1E",
(char *)"*.	c #A39827",
(char *)"=.	c #A09822",
(char *)"-.	c #36D114",
(char *)";.	c #22DA0F",
(char *)">.	c #7F673D",
(char *)",.	c #6D5342",
(char *)"'.	c #564331",
(char *)").	c #5A6C3A",
(char *)"!.	c #44A827",
(char *)"~.	c #8E7B1E",
(char *)"{.	c #F1E14D",
(char *)"].	c #8B7A18",
(char *)"^.	c #39B31D",
(char *)"/.	c #5F683A",
(char *)"(.	c #5C4B34",
(char *)"_.	c #75651B",
(char *)":.	c #766619",
(char *)"<.	c #5D4C2F",
(char *)"[.	c #453721",
(char *)". . . . . . . . . . . . . . . . ",
(char *)". + @ @ @ @ @ @ @ @ @ @ @ @ + . ",
(char *)". @ # $ $ % & * = - ; > , ' @ . ",
(char *)". @ $ ) ! ~ { ] ^ / ( _ ) : @ . ",
(char *)". @ $ ! < [ } | 1 2 3 4 5 6 @ . ",
(char *)". @ % ~ [ 7 8 9 0 a b c d 6 @ . ",
(char *)". @ e f g h i j k l m n o p @ . ",
(char *)". @ q r s t u v w x y z A B @ . ",
(char *)". @ C D E F G H I J K L M N @ . ",
(char *)". @ - O P Q R S T J U V W X @ . ",
(char *)". @ ; ( 3 Y Z `  .J ..+.@.#.@ . ",
(char *)". @ > _ $.%.&.*.=.-.;.>.,.'.@ . ",
(char *)". @ , ) ).!.~.{.0 ].^./.) '.@ . ",
(char *)". @ ' : 6 6 (._.:.<.#.'.'.[.@ . ",
(char *)". + @ @ @ @ @ @ @ @ @ @ @ @ + . ",
(char *)". . . . . . . . . . . . . . . . "};
