/* XPM */
/* $Id: op_quit_bright_064.xpm 989 2012-10-30 02:13:35Z  $ */
static char * op_quit_bright_064_xpm[] = {
(char *)"64 64 235 2",
(char *)"  	c None",
(char *)". 	c #C0C0C0",
(char *)"+ 	c #9797CD",
(char *)"@ 	c #7474D9",
(char *)"# 	c #5757E2",
(char *)"$ 	c #3B3BEC",
(char *)"% 	c #2F2FEF",
(char *)"& 	c #3B3BEB",
(char *)"* 	c #5959E2",
(char *)"= 	c #7676D8",
(char *)"- 	c #9898CD",
(char *)"; 	c #A7A7C8",
(char *)"> 	c #3A3AEB",
(char *)", 	c #0000FF",
(char *)"' 	c #0101FA",
(char *)") 	c #0202D9",
(char *)"! 	c #0000C0",
(char *)"~ 	c #0202D8",
(char *)"{ 	c #0101F9",
(char *)"] 	c #3636EC",
(char *)"^ 	c #7878D8",
(char *)"/ 	c #0505FB",
(char *)"( 	c #0202F4",
(char *)"_ 	c #000073",
(char *)": 	c #000020",
(char *)"< 	c #000002",
(char *)"[ 	c #000000",
(char *)"} 	c #00006E",
(char *)"| 	c #0202F2",
(char *)"1 	c #0606FB",
(char *)"2 	c #A9A9C8",
(char *)"3 	c #0606FA",
(char *)"4 	c #0000C1",
(char *)"5 	c #00001A",
(char *)"6 	c #040000",
(char *)"7 	c #5A0000",
(char *)"8 	c #CA0000",
(char *)"9 	c #C80000",
(char *)"0 	c #600000",
(char *)"a 	c #050000",
(char *)"b 	c #000017",
(char *)"c 	c #0101BC",
(char *)"d 	c #0505FC",
(char *)"e 	c #A6A6C8",
(char *)"f 	c #3838EB",
(char *)"g 	c #0202F5",
(char *)"h 	c #00001E",
(char *)"i 	c #620000",
(char *)"j 	c #FF0000",
(char *)"k 	c #610000",
(char *)"l 	c #0202F3",
(char *)"m 	c #3737EC",
(char *)"n 	c #9B9BCC",
(char *)"o 	c #000074",
(char *)"p 	c #C90000",
(char *)"q 	c #CB0000",
(char *)"r 	c #00006F",
(char *)"s 	c #9A9ACD",
(char *)"t 	c #7A7AD7",
(char *)"u 	c #000025",
(char *)"v 	c #FE0000",
(char *)"w 	c #010000",
(char *)"x 	c #7777D8",
(char *)"y 	c #5B5BE1",
(char *)"z 	c #0101FB",
(char *)"A 	c #000004",
(char *)"B 	c #FD0000",
(char *)"C 	c #030000",
(char *)"D 	c #0202DA",
(char *)"E 	c #FA0000",
(char *)"F 	c #F80000",
(char *)"G 	c #070000",
(char *)"H 	c #090000",
(char *)"I 	c #F60000",
(char *)"J 	c #020000",
(char *)"K 	c #6C0000",
(char *)"L 	c #D20000",
(char *)"M 	c #9A0000",
(char *)"N 	c #220000",
(char *)"O 	c #F40000",
(char *)"P 	c #0B0000",
(char *)"Q 	c #210000",
(char *)"R 	c #9B0000",
(char *)"S 	c #F70000",
(char *)"T 	c #CE0000",
(char *)"U 	c #6B0000",
(char *)"V 	c #A50000",
(char *)"W 	c #B00000",
(char *)"X 	c #F20000",
(char *)"Y 	c #0D0000",
(char *)"Z 	c #B10000",
(char *)"` 	c #060000",
(char *)" .	c #AF0000",
(char *)"..	c #FB0000",
(char *)"+.	c #180000",
(char *)"@.	c #F00000",
(char *)"#.	c #0F0000",
(char *)"$.	c #150000",
(char *)"%.	c #B90000",
(char *)"&.	c #0E0000",
(char *)"*.	c #EE0000",
(char *)"=.	c #110000",
(char *)"-.	c #9D0000",
(char *)";.	c #8F0000",
(char *)">.	c #EC0000",
(char *)",.	c #130000",
(char *)"'.	c #910000",
(char *)").	c #9F0000",
(char *)"!.	c #2E0000",
(char *)"~.	c #EA0000",
(char *)"{.	c #330000",
(char *)"].	c #AD0000",
(char *)"^.	c #BF0000",
(char *)"/.	c #0C0000",
(char *)"(.	c #E50000",
(char *)"_.	c #160000",
(char *)":.	c #B50000",
(char *)"<.	c #300000",
(char *)"[.	c #080000",
(char *)"}.	c #D50000",
(char *)"|.	c #E60000",
(char *)"1.	c #390000",
(char *)"2.	c #A90000",
(char *)"3.	c #120000",
(char *)"4.	c #530000",
(char *)"5.	c #7E0000",
(char *)"6.	c #F10000",
(char *)"7.	c #B40000",
(char *)"8.	c #860000",
(char *)"9.	c #740000",
(char *)"0.	c #B80000",
(char *)"a.	c #D60000",
(char *)"b.	c #560000",
(char *)"c.	c #810000",
(char *)"d.	c #F90000",
(char *)"e.	c #100000",
(char *)"f.	c #280000",
(char *)"g.	c #460000",
(char *)"h.	c #C10000",
(char *)"i.	c #4D0000",
(char *)"j.	c #A40000",
(char *)"k.	c #990000",
(char *)"l.	c #720000",
(char *)"m.	c #8B0000",
(char *)"n.	c #7F0000",
(char *)"o.	c #710000",
(char *)"p.	c #930000",
(char *)"q.	c #870000",
(char *)"r.	c #890000",
(char *)"s.	c #760000",
(char *)"t.	c #3B0000",
(char *)"u.	c #D90000",
(char *)"v.	c #C70000",
(char *)"w.	c #450000",
(char *)"x.	c #140000",
(char *)"y.	c #260000",
(char *)"z.	c #1E0000",
(char *)"A.	c #E70000",
(char *)"B.	c #8A0000",
(char *)"C.	c #EF0000",
(char *)"D.	c #900000",
(char *)"E.	c #270000",
(char *)"F.	c #A00000",
(char *)"G.	c #A80000",
(char *)"H.	c #AC0000",
(char *)"I.	c #2A0000",
(char *)"J.	c #A60000",
(char *)"K.	c #170000",
(char *)"L.	c #A10000",
(char *)"M.	c #340000",
(char *)"N.	c #920000",
(char *)"O.	c #F30000",
(char *)"P.	c #7A0000",
(char *)"Q.	c #D70000",
(char *)"R.	c #AE0000",
(char *)"S.	c #840000",
(char *)"T.	c #830000",
(char *)"U.	c #AB0000",
(char *)"V.	c #D30000",
(char *)"W.	c #0A0000",
(char *)"X.	c #C60000",
(char *)"Y.	c #D40000",
(char *)"Z.	c #FC0000",
(char *)"`.	c #9C0000",
(char *)" +	c #2B0000",
(char *)".+	c #B30000",
(char *)"++	c #2D0000",
(char *)"@+	c #3F0000",
(char *)"#+	c #E90000",
(char *)"$+	c #3C3CEB",
(char *)"%+	c #0202DB",
(char *)"&+	c #3C0000",
(char *)"*+	c #660000",
(char *)"=+	c #5C5CE1",
(char *)"-+	c #0101FD",
(char *)";+	c #000006",
(char *)">+	c #0101FC",
(char *)",+	c #7B7BD6",
(char *)"'+	c #00002C",
(char *)")+	c #000027",
(char *)"!+	c #7B7BD7",
(char *)"~+	c #A0A0CA",
(char *)"{+	c #000081",
(char *)"]+	c #00007C",
(char *)"^+	c #9D9DCB",
(char *)"/+	c #4848E7",
(char *)"(+	c #000028",
(char *)"_+	c #000022",
(char *)":+	c #0202F8",
(char *)"<+	c #3E3EEA",
(char *)"[+	c #B2B2C4",
(char *)"}+	c #0E0EF7",
(char *)"|+	c #0202D0",
(char *)"1+	c #0101C6",
(char *)"2+	c #0909F9",
(char *)"3+	c #ADADC6",
(char *)"4+	c #8888D2",
(char *)"5+	c #0B0BF9",
(char *)"6+	c #0202F9",
(char *)"7+	c #00007D",
(char *)"8+	c #000003",
(char *)"9+	c #000021",
(char *)"0+	c #000078",
(char *)"a+	c #0202F7",
(char *)"b+	c #0808FA",
(char *)"c+	c #8181D5",
(char *)"d+	c #B0B0C5",
(char *)"e+	c #0000FE",
(char *)"f+	c #4040EA",
(char *)"g+	c #ACACC6",
(char *)"h+	c #7979D7",
(char *)"i+	c #5A5AE1",
(char *)"j+	c #5A5AE2",
(char *)"k+	c #7878D7",
(char *)"l+	c #9D9DCC",
(char *)". . . . . . . . . . . . . . . . . . . . . . . . . . . . . . . . . . . . . . . . . . . . . . . . . . . . . . . . . . . . . . . . ",
(char *)". . . . . . . . . . . . . . . . . . . . . . . . . . . . . . . . . . . . . . . . . . . . . . . . . . . . . . . . . . . . . . . . ",
(char *)". . . . . . . . . . . . . . . . . . . . . . . . . . . . . . . . . . . . . . . . . . . . . . . . . . . . . . . . . . . . . . . . ",
(char *)". . . . . . . . . . . . . . . . . . . . . . . . . . . . . . . . . . . . . . . . . . . . . . . . . . . . . . . . . . . . . . . . ",
(char *)". . . . . . . . . . . . . . . . . . . . . . . . . . . . . . . . . . . . . . . . . . . . . . . . . . . . . . . . . . . . . . . . ",
(char *)". . . . . . . . . . . . . . . . . . . . . . . . . . . . . . . . . . . . . . . . . . . . . . . . . . . . . . . . . . . . . . . . ",
(char *)". . . . . . . . . . . . . . . . . . . . . . . . . . . . . . . . . . . . . . . . . . . . . . . . . . . . . . . . . . . . . . . . ",
(char *)". . . . . . . . . . . . + @ # $ % % % % % % % % % % % % % % % % % % % % % % % % % % % % % % % % & * = - . . . . . . . . . . . . ",
(char *)". . . . . . . . . . ; > , , ' ) ! ! ! ! ! ! ! ! ! ! ! ! ! ! ! ! ! ! ! ! ! ! ! ! ! ! ! ! ! ! ! ! ~ { , , ] ; . . . . . . . . . . ",
(char *)". . . . . . . . . ^ / ( _ : < [ [ [ [ [ [ [ [ [ [ [ [ [ [ [ [ [ [ [ [ [ [ [ [ [ [ [ [ [ [ [ [ [ [ < : } | 1 = . . . . . . . . . ",
(char *)". . . . . . . . 2 3 4 5 [ [ [ [ [ [ [ [ [ [ [ [ [ [ [ [ [ 6 7 8 9 0 a [ [ [ [ [ [ [ [ [ [ [ [ [ [ [ [ [ b c d e . . . . . . . . ",
(char *)". . . . . . . . f g h [ [ [ [ [ [ [ [ [ [ [ [ [ [ [ [ [ [ i j j j j k [ [ [ [ [ [ [ [ [ [ [ [ [ [ [ [ [ [ 5 l m . . . . . . . . ",
(char *)". . . . . . . n , o [ [ [ [ [ [ [ [ [ [ [ [ [ [ [ [ [ [ [ p j j j j q [ [ [ [ [ [ [ [ [ [ [ [ [ [ [ [ [ [ [ r , s . . . . . . . ",
(char *)". . . . . . . t , u [ [ [ [ [ [ [ [ [ [ [ [ [ [ [ [ [ [ [ v j j j j j w [ [ [ [ [ [ [ [ [ [ [ [ [ [ [ [ [ [ : , x . . . . . . . ",
(char *)". . . . . . . y z A [ [ [ [ [ [ [ [ [ [ [ [ [ [ [ [ [ [ [ B j j j j j C [ [ [ [ [ [ [ [ [ [ [ [ [ [ [ [ [ [ < { * . . . . . . . ",
(char *)". . . . . . . & D [ [ [ [ [ [ [ [ [ [ [ [ [ [ [ [ [ [ [ [ E j j j j j a [ [ [ [ [ [ [ [ [ [ [ [ [ [ [ [ [ [ [ ~ & . . . . . . . ",
(char *)". . . . . . . % ! [ [ [ [ [ [ [ [ [ [ [ [ [ [ [ [ [ [ [ [ F j j j j j G [ [ [ [ [ [ [ [ [ [ [ [ [ [ [ [ [ [ [ ! % . . . . . . . ",
(char *)". . . . . . . % ! [ [ [ [ [ [ [ [ [ [ [ [ [ [ [ H [ [ [ [ I j j j j j H [ [ [ H [ [ [ [ [ [ [ [ [ [ [ [ [ [ [ ! % . . . . . . . ",
(char *)". . . . . . . % ! [ [ [ [ [ [ [ [ [ [ [ [ J K L I M N [ [ O j j j j j P [ Q R S T U J [ [ [ [ [ [ [ [ [ [ [ [ ! % . . . . . . . ",
(char *)". . . . . . . % ! [ [ [ [ [ [ [ [ [ [ [ 6 V j j j j W [ [ X j j j j j Y [ Z j j j j V 6 [ [ [ [ [ [ [ [ [ [ [ ! % . . . . . . . ",
(char *)". . . . . . . % ! [ [ [ [ [ [ [ [ [ [ `  .j j j j j ..+.[ @.j j j j j #.$.E j j j j j  .` [ [ [ [ [ [ [ [ [ [ ! % . . . . . . . ",
(char *)". . . . . . . % ! [ [ [ [ [ [ [ [ [ H %.j j j j j j X &.[ *.j j j j j =.=.O j j j j j j %.H [ [ [ [ [ [ [ [ [ ! % . . . . . . . ",
(char *)". . . . . . . % ! [ [ [ [ [ [ [ [ [ -.j j j j j j j ;.[ [ >.j j j j j ,.[ '.j j j j j j j ).[ [ [ [ [ [ [ [ [ ! % . . . . . . . ",
(char *)". . . . . . . % ! [ [ [ [ [ [ [ [ !.v j j j j j j 9 =.[ [ ~.j j j j j $.[ =.9 j j j j j j j {.[ [ [ [ [ [ [ [ ! % . . . . . . . ",
(char *)". . . . . . . % ! [ [ [ [ [ [ [ [ ].j j j j j j ^./.[ [ [ (.j j j j j _.[ [ /.^.j j j j j j :.[ [ [ [ [ [ [ [ ! % . . . . . . . ",
(char *)". . . . . . . % ! [ [ [ [ [ [ [ <.v j j j j j :.[.[ [ [ [ }.j j j j |.w [ [ [ [.:.j j j j j j 1.[ [ [ [ [ [ [ ! % . . . . . . . ",
(char *)". . . . . . . % ! [ [ [ [ [ [ [ 2.j j j j j X 3.[ [ [ [ [ 4.j j j j 5.[ [ [ [ [ =.6.j j j j j 7.[ [ [ [ [ [ [ ! % . . . . . . . ",
(char *)". . . . . . . % ! [ [ [ [ [ [ C I j j j j j 8.[ [ [ [ [ [ [ 9.0.a.b.[ [ [ [ [ [ [ c.j j j j j d.` [ [ [ [ [ [ ! % . . . . . . . ",
(char *)". . . . . . . % ! [ [ [ [ [ [ Q j j j j j I ,.[ [ [ [ [ [ [ [ [ [ [ [ [ [ [ [ [ [ e.X j j j j j f.[ [ [ [ [ [ ! % . . . . . . . ",
(char *)". . . . . . . % ! [ [ [ [ [ [ g.j j j j j q [ [ [ [ [ [ [ [ [ [ [ [ [ [ [ [ [ [ [ [ h.j j j j j i.[ [ [ [ [ [ ! % . . . . . . . ",
(char *)". . . . . . . % ! [ [ [ [ [ [ K j j j j j j.[ [ [ [ [ [ [ [ [ [ [ [ [ [ [ [ [ [ [ [ k.j j j j j l.[ [ [ [ [ [ ! % . . . . . . . ",
(char *)". . . . . . . % ! [ [ [ [ [ [ m.j j j j j n.[ [ [ [ [ [ [ [ [ [ [ [ [ [ [ [ [ [ [ [ o.j j j j j p.[ [ [ [ [ [ ! % . . . . . . . ",
(char *)". . . . . . . % ! [ [ [ [ [ [ q.j j j j j r.[ [ [ [ [ [ [ [ [ [ [ [ [ [ [ [ [ [ [ [ s.j j j j j '.[ [ [ [ [ [ ! % . . . . . . . ",
(char *)". . . . . . . % ! [ [ [ [ [ [ i j j j j j Z [ [ [ [ [ [ [ [ [ [ [ [ [ [ [ [ [ [ [ [ ).j j j j j K [ [ [ [ [ [ ! % . . . . . . . ",
(char *)". . . . . . . % ! [ [ [ [ [ [ t.j j j j j u.[ [ [ [ [ [ [ [ [ [ [ [ [ [ [ [ [ [ [ [ v.j j j j j w.[ [ [ [ [ [ ! % . . . . . . . ",
(char *)". . . . . . . % ! [ [ [ [ [ [ x.j j j j j B y.[ [ [ [ [ [ [ [ [ [ [ [ [ [ [ [ [ [ +.F j j j j j z.[ [ [ [ [ [ ! % . . . . . . . ",
(char *)". . . . . . . % ! [ [ [ [ [ [ [ A.j j j j j M [ [ [ [ [ [ [ [ [ [ [ [ [ [ [ [ [ [ B.j j j j j C.w [ [ [ [ [ [ ! % . . . . . . . ",
(char *)". . . . . . . % ! [ [ [ [ [ [ [ D.j j j j j F +.[ [ [ [ [ [ [ [ [ [ [ [ [ [ [ [ e.X j j j j j R [ [ [ [ [ [ [ ! % . . . . . . . ",
(char *)". . . . . . . % ! [ [ [ [ [ [ [ z.E j j j j j 0.a [ [ [ [ [ [ [ [ [ [ [ [ [ [ 6 Z j j j j j B E.[ [ [ [ [ [ [ ! % . . . . . . . ",
(char *)". . . . . . . % ! [ [ [ [ [ [ [ [ F.j j j j j j G.J [ [ [ [ [ [ [ [ [ [ [ [ w F.j j j j j j H.[ [ [ [ [ [ [ [ ! % . . . . . . . ",
(char *)". . . . . . . % ! [ [ [ [ [ [ [ [ I.v j j j j j j J.K.[ [ [ [ [ [ [ [ [ [ $.L.j j j j j j j M.[ [ [ [ [ [ [ [ ! % . . . . . . . ",
(char *)". . . . . . . % ! [ [ [ [ [ [ [ [ [ N.j j j j j j j O.5.P [ [ [ [ [ [ H P.6.j j j j j j j R [ [ [ [ [ [ [ [ [ ! % . . . . . . . ",
(char *)". . . . . . . % ! [ [ [ [ [ [ [ [ [ 6 :.j j j j j j j j ..Q.R.S.T.U.V.F j j j j j j j j %.` [ [ [ [ [ [ [ [ [ ! % . . . . . . . ",
(char *)". . . . . . . % ! [ [ [ [ [ [ [ [ [ [ W.X.j j j j j j j j j j j j j j j j j j j j j j 9 P [ [ [ [ [ [ [ [ [ [ ! % . . . . . . . ",
(char *)". . . . . . . % ! [ [ [ [ [ [ [ [ [ [ [ 3.Y.j j j j j j j j j j j j j j j j j j j j Y.,.[ [ [ [ [ [ [ [ [ [ [ ! % . . . . . . . ",
(char *)". . . . . . . % ! [ [ [ [ [ [ [ [ [ [ [ [ #.R Z.j j j j j j j j j j j j j j j j B `.#.[ [ [ [ [ [ [ [ [ [ [ [ ! % . . . . . . . ",
(char *)". . . . . . . % ! [ [ [ [ [ [ [ [ [ [ [ [ [ [  +.+j j j j j j j j j j j j j j 0.++[ [ [ [ [ [ [ [ [ [ [ [ [ [ ! % . . . . . . . ",
(char *)". . . . . . . % ! [ [ [ [ [ [ [ [ [ [ [ [ [ [ [ [ @+].#+j j j j j j j j #+W g.[ [ [ [ [ [ [ [ [ [ [ [ [ [ [ [ ! % . . . . . . . ",
(char *)". . . . . . . $+%+[ [ [ [ [ [ [ [ [ [ [ [ [ [ [ [ [ [ [ ,.&+*+B.B.*+&+,.[ [ [ [ [ [ [ [ [ [ [ [ [ [ [ [ [ [ [ D $+. . . . . . . ",
(char *)". . . . . . . =+-+;+[ [ [ [ [ [ [ [ [ [ [ [ [ [ [ [ [ [ [ [ [ [ [ [ [ [ [ [ [ [ [ [ [ [ [ [ [ [ [ [ [ [ [ [ A >+y . . . . . . . ",
(char *)". . . . . . . ,+, '+[ [ [ [ [ [ [ [ [ [ [ [ [ [ [ [ [ [ [ [ [ [ [ [ [ [ [ [ [ [ [ [ [ [ [ [ [ [ [ [ [ [ [ [ )+, !+. . . . . . . ",
(char *)". . . . . . . ~+, {+[ [ [ [ [ [ [ [ [ [ [ [ [ [ [ [ [ [ [ [ [ [ [ [ [ [ [ [ [ [ [ [ [ [ [ [ [ [ [ [ [ [ [ [ ]+, ^+. . . . . . . ",
(char *)". . . . . . . . /+' (+[ [ [ [ [ [ [ [ [ [ [ [ [ [ [ [ [ [ [ [ [ [ [ [ [ [ [ [ [ [ [ [ [ [ [ [ [ [ [ [ [ [ _+:+<+. . . . . . . . ",
(char *)". . . . . . . . [+}+|+u [ [ [ [ [ [ [ [ [ [ [ [ [ [ [ [ [ [ [ [ [ [ [ [ [ [ [ [ [ [ [ [ [ [ [ [ [ [ [ [ h 1+2+3+. . . . . . . . ",
(char *)". . . . . . . . . 4+5+6+7+)+A [ [ [ [ [ [ [ [ [ [ [ [ [ [ [ [ [ [ [ [ [ [ [ [ [ [ [ [ [ [ [ [ [ [ 8+9+0+a+b+c+. . . . . . . . . ",
(char *)". . . . . . . . . . d+/+e+, >+D ! ! ! ! ! ! ! ! ! ! ! ! ! ! ! ! ! ! ! ! ! ! ! ! ! ! ! ! ! ! ! ! ) ' , , f+g+. . . . . . . . . . ",
(char *)". . . . . . . . . . . . ~+h+i+& % % % % % % % % % % % % % % % % % % % % % % % % % % % % % % % % & j+k+l+. . . . . . . . . . . . ",
(char *)". . . . . . . . . . . . . . . . . . . . . . . . . . . . . . . . . . . . . . . . . . . . . . . . . . . . . . . . . . . . . . . . ",
(char *)". . . . . . . . . . . . . . . . . . . . . . . . . . . . . . . . . . . . . . . . . . . . . . . . . . . . . . . . . . . . . . . . ",
(char *)". . . . . . . . . . . . . . . . . . . . . . . . . . . . . . . . . . . . . . . . . . . . . . . . . . . . . . . . . . . . . . . . ",
(char *)". . . . . . . . . . . . . . . . . . . . . . . . . . . . . . . . . . . . . . . . . . . . . . . . . . . . . . . . . . . . . . . . ",
(char *)". . . . . . . . . . . . . . . . . . . . . . . . . . . . . . . . . . . . . . . . . . . . . . . . . . . . . . . . . . . . . . . . ",
(char *)". . . . . . . . . . . . . . . . . . . . . . . . . . . . . . . . . . . . . . . . . . . . . . . . . . . . . . . . . . . . . . . . ",
(char *)". . . . . . . . . . . . . . . . . . . . . . . . . . . . . . . . . . . . . . . . . . . . . . . . . . . . . . . . . . . . . . . . "};
