/* XPM */
/* $Id: op_quit_bright_016.xpm 988 2012-10-30 02:13:26Z  $ */
static char * op_quit_bright_016_xpm[] = {
(char *)"16 16 53 1",
(char *)" 	c None",
(char *)".	c #C0C0C0",
(char *)"+	c #B4B4C4",
(char *)"@	c #9C9CCC",
(char *)"#	c #B5B5C4",
(char *)"$	c #5050B4",
(char *)"%	c #15156E",
(char *)"&	c #000030",
(char *)"*	c #370026",
(char *)"=	c #360026",
(char *)"-	c #17176C",
(char *)";	c #5353B2",
(char *)">	c #000000",
(char *)",	c #BD0000",
(char *)"'	c #BC0000",
(char *)")	c #151569",
(char *)"!	c #370000",
(char *)"~	c #420000",
(char *)"{	c #C30000",
(char *)"]	c #430000",
(char *)"^	c #340000",
(char *)"/	c #230000",
(char *)"(	c #F00000",
(char *)"_	c #A70000",
(char *)":	c #B90000",
(char *)"<	c #C60000",
(char *)"[	c #CA0000",
(char *)"}	c #EA0000",
(char *)"|	c #1A0000",
(char *)"1	c #8C0000",
(char *)"2	c #990000",
(char *)"3	c #FF0000",
(char *)"4	c #830000",
(char *)"5	c #850000",
(char *)"6	c #840000",
(char *)"7	c #C80000",
(char *)"8	c #150000",
(char *)"9	c #140000",
(char *)"0	c #E80000",
(char *)"a	c #2B0000",
(char *)"b	c #F80000",
(char *)"c	c #E50000",
(char *)"d	c #910000",
(char *)"e	c #B20000",
(char *)"f	c #F90000",
(char *)"g	c #B5B5C3",
(char *)"h	c #171770",
(char *)"i	c #0D0000",
(char *)"j	c #161671",
(char *)"k	c #5656B3",
(char *)"l	c #17176F",
(char *)"m	c #15156D",
(char *)"n	c #5151B4",
(char *)"................",
(char *)"...+@@@@@@@@#...",
(char *)"..$%&&&*=&&&-;..",
(char *)".#->>>>,'>>>>)#.",
(char *)".@&>>!~'{]^>>&@.",
(char *)".@&>/(_:<_(/>&@.",
(char *)".@&>[}|12|}[>&@.",
(char *)".@&>34>>>>43>&@.",
(char *)".@&>35>>>>63>&@.",
(char *)".@&>7}8>>907>&@.",
(char *)".@&>abcddcba>&@.",
(char *)".@&>>]effe]>>&@.",
(char *)".gh>>>>ii>>>>j#.",
(char *)"..kl&&&&&&&&mn..",
(char *)"...#@@@@@@@@#...",
(char *)"................"};
