/* XPM */
/* $Id: op_quit_bright_032.xpm 989 2012-10-30 02:13:35Z  $ */
static char * op_quit_bright_032_xpm[] = {
(char *)"32 32 122 2",
(char *)"  	c None",
(char *)". 	c #C0C0C0",
(char *)"+ 	c #A3A3C9",
(char *)"@ 	c #8585D4",
(char *)"# 	c #7878D8",
(char *)"$ 	c #8686D3",
(char *)"% 	c #A6A6C9",
(char *)"& 	c #AEAEC6",
(char *)"* 	c #2F2FDA",
(char *)"= 	c #1111B5",
(char *)"- 	c #08087C",
(char *)"; 	c #000060",
(char *)"> 	c #08087A",
(char *)", 	c #1010B5",
(char *)"' 	c #2D2DDB",
(char *)") 	c #AFAFC6",
(char *)"! 	c #2B2BDD",
(char *)"~ 	c #00003B",
(char *)"{ 	c #000000",
(char *)"] 	c #1A0000",
(char *)"^ 	c #C50000",
(char *)"/ 	c #C30000",
(char *)"( 	c #110000",
(char *)"_ 	c #000041",
(char *)": 	c #A5A5C9",
(char *)"< 	c #1212B4",
(char *)"[ 	c #780000",
(char *)"} 	c #FF0000",
(char *)"| 	c #700000",
(char *)"1 	c #A2A2CA",
(char *)"2 	c #7E0000",
(char *)"3 	c #810000",
(char *)"4 	c #7D0000",
(char *)"5 	c #820000",
(char *)"6 	c #020000",
(char *)"7 	c #2A0000",
(char *)"8 	c #DA0000",
(char *)"9 	c #E10000",
(char *)"0 	c #2B0000",
(char *)"a 	c #7B0000",
(char *)"b 	c #840000",
(char *)"c 	c #330000",
(char *)"d 	c #C90000",
(char *)"e 	c #300000",
(char *)"f 	c #EB0000",
(char *)"g 	c #7A0000",
(char *)"h 	c #850000",
(char *)"i 	c #7C0000",
(char *)"j 	c #EC0000",
(char *)"k 	c #340000",
(char *)"l 	c #0B0000",
(char *)"m 	c #E50000",
(char *)"n 	c #F20000",
(char *)"o 	c #260000",
(char *)"p 	c #790000",
(char *)"q 	c #860000",
(char *)"r 	c #2E0000",
(char *)"s 	c #F10000",
(char *)"t 	c #E60000",
(char *)"u 	c #0A0000",
(char *)"v 	c #EE0000",
(char *)"w 	c #360000",
(char *)"x 	c #6A0000",
(char *)"y 	c #760000",
(char *)"z 	c #E80000",
(char *)"A 	c #680000",
(char *)"B 	c #150000",
(char *)"C 	c #C40000",
(char *)"D 	c #220000",
(char *)"E 	c #5E0000",
(char *)"F 	c #E90000",
(char *)"G 	c #010000",
(char *)"H 	c #170000",
(char *)"I 	c #050000",
(char *)"J 	c #030000",
(char *)"K 	c #1F0000",
(char *)"L 	c #3D0000",
(char *)"M 	c #C20000",
(char *)"N 	c #450000",
(char *)"O 	c #3B0000",
(char *)"P 	c #CE0000",
(char *)"Q 	c #430000",
(char *)"R 	c #140000",
(char *)"S 	c #F50000",
(char *)"T 	c #090000",
(char *)"U 	c #060000",
(char *)"V 	c #F00000",
(char *)"W 	c #1C0000",
(char *)"X 	c #DE0000",
(char *)"Y 	c #6C0000",
(char *)"Z 	c #640000",
(char *)"` 	c #6F0000",
(char *)" .	c #EF0000",
(char *)"..	c #290000",
(char *)"+.	c #750000",
(char *)"@.	c #620000",
(char *)"#.	c #320000",
(char *)"$.	c #CD0000",
(char *)"%.	c #E40000",
(char *)"&.	c #3E0000",
(char *)"*.	c #7F0000",
(char *)"=.	c #0C0000",
(char *)"-.	c #08087F",
(char *)";.	c #3C0000",
(char *)">.	c #08087E",
(char *)",.	c #A7A7C8",
(char *)"'.	c #1010BF",
(char *)").	c #1111B9",
(char *)"!.	c #A6A6C8",
(char *)"~.	c #3232DA",
(char *)"{.	c #01014F",
(char *)"].	c #010142",
(char *)"^.	c #3434D9",
(char *)"/.	c #B2B2C5",
(char *)"(.	c #3030DB",
(char *)"_.	c #1010BB",
(char *)":.	c #08087B",
(char *)"<.	c #1010B7",
(char *)"[.	c #3131DA",
(char *)"}.	c #B1B1C5",
(char *)"|.	c #A8A8C8",
(char *)"1.	c #8787D3",
(char *)". . . . . . . . . . . . . . . . . . . . . . . . . . . . . . . . ",
(char *)". . . . . . . . . . . . . . . . . . . . . . . . . . . . . . . . ",
(char *)". . . . . . . . . . . . . . . . . . . . . . . . . . . . . . . . ",
(char *)". . . . . . + @ # # # # # # # # # # # # # # # # $ % . . . . . . ",
(char *)". . . . & * = - ; ; ; ; ; ; ; ; ; ; ; ; ; ; ; ; > , ' ) . . . . ",
(char *)". . . . ! ~ { { { { { { { { ] ^ / ( { { { { { { { { _ ' . . . . ",
(char *)". . . : < { { { { { { { { { [ } } | { { { { { { { { { , 1 . . . ",
(char *)". . . $ > { { { { { { { { { 2 } } 3 { { { { { { { { { > @ . . . ",
(char *)". . . # ; { { { { { { { { { 4 } } 5 { 6 { { { { { { { ; # . . . ",
(char *)". . . # ; { { { { { 7 8 9 0 a } } b c 9 d 0 { { { { { ; # . . . ",
(char *)". . . # ; { { { { e f } } 3 g } } h i } } j k { { { { ; # . . . ",
(char *)". . . # ; { { { l m } } n o p } } q r s } } t u { { { ; # . . . ",
(char *)". . . # ; { { { [ } } v w { x } } i { c j } } y { { { ; # . . . ",
(char *)". . . # ; { { { z } } A { { B C d D { { E } } F G { { ; # . . . ",
(char *)". . . # ; { { H } } s I { { { { { { { { J j } } K { { ; # . . . ",
(char *)". . . # ; { { L } } d { { { { { { { { { { M } } N { { ; # . . . ",
(char *)". . . # ; { { O } } P { { { { { { { { { { ^ } } Q { { ; # . . . ",
(char *)". . . # ; { { R } } S T { { { { { { { { U V } } W { { ; # . . . ",
(char *)". . . # ; { { { X } } Y { { { { { { { { Z } } t { { { ; # . . . ",
(char *)". . . # ; { { { ` } }  .r { { { { { { ..j } } +.{ { { ; # . . . ",
(char *)". . . # ; { { { l m } } j Z 6 { { 6 @.F } } m l { { { ; # . . . ",
(char *)". . . # ; { { { { #.n } } } S $.$.S } } } n #.{ { { { ; # . . . ",
(char *)". . . # ; { { { { { L %.} } } } } } } } z &.{ { { { { ; # . . . ",
(char *)". . . # ; { { { { { { u 4 t } } } } t *.=.{ { { { { { ; # . . . ",
(char *)". . . $ -.{ { { { { { { { { R ;.;.R { { { { { { { { { >.$ . . . ",
(char *)". . . ,.'.{ { { { { { { { { { { { { { { { { { { { { { ).!.. . . ",
(char *)". . . . ~.{.{ { { { { { { { { { { { { { { { { { { { ].^.. . . . ",
(char *)". . . . /.(._.:.; ; ; ; ; ; ; ; ; ; ; ; ; ; ; ; :.<.[.}.. . . . ",
(char *)". . . . . . |.1.# # # # # # # # # # # # # # # # @ + . . . . . . ",
(char *)". . . . . . . . . . . . . . . . . . . . . . . . . . . . . . . . ",
(char *)". . . . . . . . . . . . . . . . . . . . . . . . . . . . . . . . ",
(char *)". . . . . . . . . . . . . . . . . . . . . . . . . . . . . . . . "};
