/* XPM */
/* $Id: op_quit_bright_048.xpm 989 2012-10-30 02:13:35Z  $ */
static char * op_quit_bright_048_xpm[] = {
(char *)"48 48 187 2",
(char *)"  	c None",
(char *)". 	c #C0C0C0",
(char *)"+ 	c #9D9DCB",
(char *)"@ 	c #7C7CD6",
(char *)"# 	c #6060E0",
(char *)"$ 	c #5454E4",
(char *)"% 	c #6060DF",
(char *)"& 	c #7F7FD5",
(char *)"* 	c #9F9FCB",
(char *)"= 	c #A7A7C8",
(char *)"- 	c #3636E6",
(char *)"; 	c #0303F7",
(char *)"> 	c #0909D2",
(char *)", 	c #0505A8",
(char *)"' 	c #000090",
(char *)") 	c #0505A7",
(char *)"! 	c #0A0AD2",
(char *)"~ 	c #0404F7",
(char *)"{ 	c #3333E8",
(char *)"] 	c #A9A9C8",
(char *)"^ 	c #0606F9",
(char *)"/ 	c #0404A5",
(char *)"( 	c #000016",
(char *)"_ 	c #000000",
(char *)": 	c #4B0000",
(char *)"< 	c #3A0000",
(char *)"[ 	c #010000",
(char *)"} 	c #000014",
(char *)"| 	c #0404A6",
(char *)"1 	c #3434E6",
(char *)"2 	c #0404A8",
(char *)"3 	c #B20000",
(char *)"4 	c #FF0000",
(char *)"5 	c #AC0000",
(char *)"6 	c #9E9ECB",
(char *)"7 	c #0202FA",
(char *)"8 	c #000015",
(char *)"9 	c #260000",
(char *)"0 	c #FD0000",
(char *)"a 	c #210000",
(char *)"b 	c #7E7ED6",
(char *)"c 	c #0808D7",
(char *)"d 	c #3E0000",
(char *)"e 	c #410000",
(char *)"f 	c #0505AA",
(char *)"g 	c #3C0000",
(char *)"h 	c #430000",
(char *)"i 	c #3B0000",
(char *)"j 	c #440000",
(char *)"k 	c #050000",
(char *)"l 	c #5E0000",
(char *)"m 	c #640000",
(char *)"n 	c #1A0000",
(char *)"o 	c #390000",
(char *)"p 	c #460000",
(char *)"q 	c #0E0000",
(char *)"r 	c #760000",
(char *)"s 	c #480000",
(char *)"t 	c #030000",
(char *)"u 	c #120000",
(char *)"v 	c #CB0000",
(char *)"w 	c #E50000",
(char *)"x 	c #060000",
(char *)"y 	c #370000",
(char *)"z 	c #0B0000",
(char *)"A 	c #EA0000",
(char *)"B 	c #180000",
(char *)"C 	c #D30000",
(char *)"D 	c #520000",
(char *)"E 	c #350000",
(char *)"F 	c #4A0000",
(char *)"G 	c #100000",
(char *)"H 	c #D90000",
(char *)"I 	c #FA0000",
(char *)"J 	c #170000",
(char *)"K 	c #330000",
(char *)"L 	c #4C0000",
(char *)"M 	c #2D0000",
(char *)"N 	c #DA0000",
(char *)"O 	c #110000",
(char *)"P 	c #900000",
(char *)"Q 	c #7E0000",
(char *)"R 	c #320000",
(char *)"S 	c #4D0000",
(char *)"T 	c #7F0000",
(char *)"U 	c #940000",
(char *)"V 	c #F70000",
(char *)"W 	c #270000",
(char *)"X 	c #750000",
(char *)"Y 	c #F80000",
(char *)"Z 	c #1D0000",
(char *)"` 	c #920000",
(char *)" .	c #7D0000",
(char *)"..	c #FB0000",
(char *)"+.	c #130000",
(char *)"@.	c #810000",
(char *)"#.	c #970000",
(char *)"$.	c #EF0000",
(char *)"%.	c #080000",
(char *)"&.	c #380000",
(char *)"*.	c #C60000",
(char *)"=.	c #D00000",
(char *)"-.	c #0A0000",
(char *)";.	c #E70000",
(char *)">.	c #F30000",
(char *)",.	c #740000",
(char *)"'.	c #240000",
(char *)").	c #450000",
(char *)"!.	c #470000",
(char *)"~.	c #690000",
(char *)"{.	c #250000",
(char *)"].	c #1F0000",
(char *)"^.	c #700000",
(char *)"/.	c #6D0000",
(char *)"(.	c #3F0000",
(char *)"_.	c #490000",
(char *)":.	c #8A0000",
(char *)"<.	c #820000",
(char *)"[.	c #F00000",
(char *)"}.	c #EB0000",
(char *)"|.	c #EC0000",
(char *)"1.	c #020000",
(char *)"2.	c #830000",
(char *)"3.	c #860000",
(char *)"4.	c #790000",
(char *)"5.	c #870000",
(char *)"6.	c #140000",
(char *)"7.	c #F40000",
(char *)"8.	c #610000",
(char *)"9.	c #5C0000",
(char *)"0.	c #FE0000",
(char *)"a.	c #8D0000",
(char *)"b.	c #FC0000",
(char *)"c.	c #7C0000",
(char *)"d.	c #0D0000",
(char *)"e.	c #D20000",
(char *)"f.	c #800000",
(char *)"g.	c #510000",
(char *)"h.	c #D70000",
(char *)"i.	c #190000",
(char *)"j.	c #DF0000",
(char *)"k.	c #E20000",
(char *)"l.	c #E30000",
(char *)"m.	c #290000",
(char *)"n.	c #8C0000",
(char *)"o.	c #F90000",
(char *)"p.	c #8F0000",
(char *)"q.	c #1E0000",
(char *)"r.	c #980000",
(char *)"s.	c #E60000",
(char *)"t.	c #ED0000",
(char *)"u.	c #A00000",
(char *)"v.	c #220000",
(char *)"w.	c #6161DF",
(char *)"x.	c #0505A9",
(char *)"y.	c #670000",
(char *)"z.	c #8282D4",
(char *)"A.	c #0909D7",
(char *)"B.	c #0808D8",
(char *)"C.	c #A5A5C9",
(char *)"D.	c #0303FA",
(char *)"E.	c #00001C",
(char *)"F.	c #000018",
(char *)"G.	c #A0A0CA",
(char *)"H.	c #3D3DE4",
(char *)"I.	c #0505B8",
(char *)"J.	c #0505AE",
(char *)"K.	c #3B3BE5",
(char *)"L.	c #AEAEC6",
(char *)"M.	c #0B0BF6",
(char *)"N.	c #0606B1",
(char *)"O.	c #00001B",
(char *)"P.	c #000019",
(char *)"Q.	c #0404AC",
(char *)"R.	c #0909F6",
(char *)"S.	c #AFAFC5",
(char *)"T.	c #4040E5",
(char *)"U.	c #0303F9",
(char *)"V.	c #0A0AD4",
(char *)"W.	c #00008F",
(char *)"X.	c #0A0AD3",
(char *)"Y.	c #0303F8",
(char *)"Z.	c #3A3AE5",
(char *)"`.	c #ACACC7",
(char *)" +	c #A3A3C9",
(char *)".+	c #8080D5",
(char *)"++	c #A2A2CA",
(char *)". . . . . . . . . . . . . . . . . . . . . . . . . . . . . . . . . . . . . . . . . . . . . . . . ",
(char *)". . . . . . . . . . . . . . . . . . . . . . . . . . . . . . . . . . . . . . . . . . . . . . . . ",
(char *)". . . . . . . . . . . . . . . . . . . . . . . . . . . . . . . . . . . . . . . . . . . . . . . . ",
(char *)". . . . . . . . . . . . . . . . . . . . . . . . . . . . . . . . . . . . . . . . . . . . . . . . ",
(char *)". . . . . . . . . . . . . . . . . . . . . . . . . . . . . . . . . . . . . . . . . . . . . . . . ",
(char *)". . . . . . . . . + @ # $ $ $ $ $ $ $ $ $ $ $ $ $ $ $ $ $ $ $ $ $ $ $ $ % & * . . . . . . . . . ",
(char *)". . . . . . . = - ; > , ' ' ' ' ' ' ' ' ' ' ' ' ' ' ' ' ' ' ' ' ' ' ' ' ) ! ~ { = . . . . . . . ",
(char *)". . . . . . ] ^ / ( _ _ _ _ _ _ _ _ _ _ _ _ _ : < [ _ _ _ _ _ _ _ _ _ _ _ _ } | ^ = . . . . . . ",
(char *)". . . . . . 1 2 _ _ _ _ _ _ _ _ _ _ _ _ _ _ 3 4 4 5 _ _ _ _ _ _ _ _ _ _ _ _ _ _ | { . . . . . . ",
(char *)". . . . . 6 7 8 _ _ _ _ _ _ _ _ _ _ _ _ _ 9 4 4 4 0 a _ _ _ _ _ _ _ _ _ _ _ _ _ } ~ * . . . . . ",
(char *)". . . . . b c _ _ _ _ _ _ _ _ _ _ _ _ _ _ d 4 4 4 4 e _ _ _ _ _ _ _ _ _ _ _ _ _ _ ! & . . . . . ",
(char *)". . . . . % f _ _ _ _ _ _ _ _ _ _ _ _ _ _ g 4 4 4 4 h _ _ _ _ _ _ _ _ _ _ _ _ _ _ ) % . . . . . ",
(char *)". . . . . $ ' _ _ _ _ _ _ _ _ _ _ _ _ _ _ i 4 4 4 4 j _ _ _ _ _ _ _ _ _ _ _ _ _ _ ' $ . . . . . ",
(char *)". . . . . $ ' _ _ _ _ _ _ _ _ _ k l m n _ o 4 4 4 4 p _ q r s t _ _ _ _ _ _ _ _ _ ' $ . . . . . ",
(char *)". . . . . $ ' _ _ _ _ _ _ _ _ u v 4 4 w x y 4 4 4 4 s z A 4 4 v u _ _ _ _ _ _ _ _ ' $ . . . . . ",
(char *)". . . . . $ ' _ _ _ _ _ _ _ B C 4 4 4 4 D E 4 4 4 4 F j 4 4 4 4 C B _ _ _ _ _ _ _ ' $ . . . . . ",
(char *)". . . . . $ ' _ _ _ _ _ _ G H 4 4 4 4 I J K 4 4 4 4 L M 0 4 4 4 4 N O _ _ _ _ _ _ ' $ . . . . . ",
(char *)". . . . . $ ' _ _ _ _ _ _ P 4 4 4 4 4 Q _ R 4 4 4 4 S _ T 4 4 4 4 4 U _ _ _ _ _ _ ' $ . . . . . ",
(char *)". . . . . $ ' _ _ _ _ _ n V 4 4 4 4 r _ _ W 4 4 4 4 F _ _ X 4 4 4 4 Y Z _ _ _ _ _ ' $ . . . . . ",
(char *)". . . . . $ ' _ _ _ _ _ ` 4 4 4 4  ._ _ _ G A 4 4 ..+._ _ _ @.4 4 4 4 #._ _ _ _ _ ' $ . . . . . ",
(char *)". . . . . $ ' _ _ _ _ [ $.4 4 4 w %._ _ _ _ &.*.=.: _ _ _ _ -.;.4 4 4 >.t _ _ _ _ ' $ . . . . . ",
(char *)". . . . . $ ' _ _ _ _ Z 4 4 4 4 r _ _ _ _ _ _ _ _ _ _ _ _ _ _ ,.4 4 4 4 '._ _ _ _ ' $ . . . . . ",
(char *)". . . . . $ ' _ _ _ _ ).4 4 4 4 !._ _ _ _ _ _ _ _ _ _ _ _ _ _ e 4 4 4 4 : _ _ _ _ ' $ . . . . . ",
(char *)". . . . . $ ' _ _ _ _ ~.4 4 4 4 {._ _ _ _ _ _ _ _ _ _ _ _ _ _ ].4 4 4 4 ^._ _ _ _ ' $ . . . . . ",
(char *)". . . . . $ ' _ _ _ _ m 4 4 4 4 M _ _ _ _ _ _ _ _ _ _ _ _ _ _ '.4 4 4 4 /._ _ _ _ ' $ . . . . . ",
(char *)". . . . . $ ' _ _ _ _ (.4 4 4 4 D _ _ _ _ _ _ _ _ _ _ _ _ _ _ _.4 4 4 4 s _ _ _ _ ' $ . . . . . ",
(char *)". . . . . $ ' _ _ _ _ J 4 4 4 4 :._ _ _ _ _ _ _ _ _ _ _ _ _ _ <.4 4 4 4 a _ _ _ _ ' $ . . . . . ",
(char *)". . . . . $ ' _ _ _ _ _ ;.4 4 4 [.q _ _ _ _ _ _ _ _ _ _ _ _ -.}.4 4 4 |.1._ _ _ _ ' $ . . . . . ",
(char *)". . . . . $ ' _ _ _ _ _ 2.4 4 4 4 3._ _ _ _ _ _ _ _ _ _ _ _ 4.4 4 4 4 5._ _ _ _ _ ' $ . . . . . ",
(char *)". . . . . $ ' _ _ _ _ _ 6.7.4 4 4 4 8._ _ _ _ _ _ _ _ _ _ 9.0.4 4 4 V J _ _ _ _ _ ' $ . . . . . ",
(char *)". . . . . $ ' _ _ _ _ _ _ a.4 4 4 4 b.@.z _ _ _ _ _ _ -.c.b.4 4 4 4 U _ _ _ _ _ _ ' $ . . . . . ",
(char *)". . . . . $ ' _ _ _ _ _ _ d.e.4 4 4 4 4 ;.f.g.{.{.g.f.w 4 4 4 4 4 h.O _ _ _ _ _ _ ' $ . . . . . ",
(char *)". . . . . $ ' _ _ _ _ _ _ _ i.j.4 4 4 4 4 4 4 4 4 4 4 4 4 4 4 4 k.Z _ _ _ _ _ _ _ ' $ . . . . . ",
(char *)". . . . . $ ' _ _ _ _ _ _ _ _ '.l.4 4 4 4 4 4 4 4 4 4 4 4 4 4 w m._ _ _ _ _ _ _ _ ' $ . . . . . ",
(char *)". . . . . $ ' _ _ _ _ _ _ _ _ _ u n.Y 4 4 4 4 4 4 4 4 4 4 o.p.u _ _ _ _ _ _ _ _ _ ' $ . . . . . ",
(char *)". . . . . $ ' _ _ _ _ _ _ _ _ _ _ _ q.r.s.4 4 4 4 4 4 t.u.v._ _ _ _ _ _ _ _ _ _ _ ' $ . . . . . ",
(char *)". . . . . w.x._ _ _ _ _ _ _ _ _ _ _ _ _ _ u d y.y.e J _ _ _ _ _ _ _ _ _ _ _ _ _ _ f % . . . . . ",
(char *)". . . . . z.A._ _ _ _ _ _ _ _ _ _ _ _ _ _ _ _ _ _ _ _ _ _ _ _ _ _ _ _ _ _ _ _ _ _ B.& . . . . . ",
(char *)". . . . . C.D.E._ _ _ _ _ _ _ _ _ _ _ _ _ _ _ _ _ _ _ _ _ _ _ _ _ _ _ _ _ _ _ _ F.7 G.. . . . . ",
(char *)". . . . . . H.I._ _ _ _ _ _ _ _ _ _ _ _ _ _ _ _ _ _ _ _ _ _ _ _ _ _ _ _ _ _ _ _ J.K.. . . . . . ",
(char *)". . . . . . L.M.N.O._ _ _ _ _ _ _ _ _ _ _ _ _ _ _ _ _ _ _ _ _ _ _ _ _ _ _ _ P.Q.R.L.. . . . . . ",
(char *)". . . . . . . S.T.U.V., ' ' ' ' ' ' ' ' ' ' ' ' ' ' ' ' ' ' ' ' ' ' ' W., X.Y.Z.`.. . . . . . . ",
(char *)". . . . . . . . .  +.+w.$ $ $ $ $ $ $ $ $ $ $ $ $ $ $ $ $ $ $ $ $ $ $ $ w..+++. . . . . . . . . ",
(char *)". . . . . . . . . . . . . . . . . . . . . . . . . . . . . . . . . . . . . . . . . . . . . . . . ",
(char *)". . . . . . . . . . . . . . . . . . . . . . . . . . . . . . . . . . . . . . . . . . . . . . . . ",
(char *)". . . . . . . . . . . . . . . . . . . . . . . . . . . . . . . . . . . . . . . . . . . . . . . . ",
(char *)". . . . . . . . . . . . . . . . . . . . . . . . . . . . . . . . . . . . . . . . . . . . . . . . ",
(char *)". . . . . . . . . . . . . . . . . . . . . . . . . . . . . . . . . . . . . . . . . . . . . . . . "};
