/* XPM */
/* $Id: pn_LED_Grn_On_016.xpm 1018 2012-11-05 01:17:52Z  $ */
static char * pn_LED_Grn_On_016_xpm[] = {
(char *)"16 16 112 2",
(char *)"  	c None",
(char *)". 	c #898989",
(char *)"+ 	c #8C8C8C",
(char *)"@ 	c #888888",
(char *)"# 	c #818181",
(char *)"$ 	c #767676",
(char *)"% 	c #6A6A6A",
(char *)"& 	c #9B9B9B",
(char *)"* 	c #A2A2A2",
(char *)"= 	c #9D9D9D",
(char *)"- 	c #939393",
(char *)"; 	c #868686",
(char *)"> 	c #777777",
(char *)", 	c #666666",
(char *)"' 	c #9A9A9A",
(char *)") 	c #A8A8A8",
(char *)"! 	c #B3B3B3",
(char *)"~ 	c #8AD58A",
(char *)"{ 	c #6BEA6B",
(char *)"] 	c #53F753",
(char *)"^ 	c #4AF64A",
(char *)"/ 	c #4EDF4E",
(char *)"( 	c #59B359",
(char *)"_ 	c #6E6F6E",
(char *)": 	c #5A5A5A",
(char *)"< 	c #464646",
(char *)"[ 	c #ACACAC",
(char *)"} 	c #AFC4AF",
(char *)"| 	c #6CF26C",
(char *)"1 	c #5EFF5E",
(char *)"2 	c #69FF69",
(char *)"3 	c #60FF60",
(char *)"4 	c #4FFF4F",
(char *)"5 	c #3AFF3A",
(char *)"6 	c #24FF24",
(char *)"7 	c #27DC27",
(char *)"8 	c #546E54",
(char *)"9 	c #494949",
(char *)"0 	c #A5A5A5",
(char *)"a 	c #B9BAB9",
(char *)"b 	c #69F369",
(char *)"c 	c #5FFF5F",
(char *)"d 	c #91FF91",
(char *)"e 	c #AAFFAA",
(char *)"f 	c #77FF77",
(char *)"g 	c #54FF54",
(char *)"h 	c #3BFF3B",
(char *)"i 	c #23FF23",
(char *)"j 	c #0AFF0A",
(char *)"k 	c #18D718",
(char *)"l 	c #484948",
(char *)"m 	c #424242",
(char *)"n 	c #979797",
(char *)"o 	c #ADADAD",
(char *)"p 	c #8BDB8B",
(char *)"q 	c #4DFF4D",
(char *)"r 	c #65FF65",
(char *)"s 	c #96FF96",
(char *)"t 	c #93FF93",
(char *)"u 	c #63FF63",
(char *)"v 	c #4BFF4B",
(char *)"w 	c #33FF33",
(char *)"x 	c #1BFF1B",
(char *)"y 	c #02FF02",
(char *)"z 	c #00FF00",
(char *)"A 	c #2A8F2A",
(char *)"B 	c #989898",
(char *)"C 	c #AFAFAF",
(char *)"D 	c #5EED5E",
(char *)"E 	c #47FF47",
(char *)"F 	c #58FF58",
(char *)"G 	c #5CFF5C",
(char *)"H 	c #39FF39",
(char *)"I 	c #0DFF0D",
(char *)"J 	c #14C714",
(char *)"K 	c #969696",
(char *)"L 	c #AAAAAA",
(char *)"M 	c #37F837",
(char *)"N 	c #38FF38",
(char *)"O 	c #42FF42",
(char *)"P 	c #45FF45",
(char *)"Q 	c #40FF40",
(char *)"R 	c #34FF34",
(char *)"S 	c #0FFF0F",
(char *)"T 	c #06EC06",
(char *)"U 	c #434343",
(char *)"V 	c #8E8E8E",
(char *)"W 	c #9F9F9F",
(char *)"X 	c #27F727",
(char *)"Y 	c #29FF29",
(char *)"Z 	c #2AFF2A",
(char *)"` 	c #19FF19",
(char *)" .	c #828282",
(char *)"..	c #909090",
(char *)"+.	c #30E130",
(char *)"@.	c #0BFF0B",
(char *)"#.	c #0EFF0E",
(char *)"$.	c #08FF08",
(char *)"%.	c #747474",
(char *)"&.	c #7F7F7F",
(char *)"*.	c #52B752",
(char *)"=.	c #288D28",
(char *)"-.	c #6C6C6C",
(char *)";.	c #727372",
(char *)">.	c #1EDD1E",
(char *)",.	c #11D011",
(char *)"'.	c #424342",
(char *)").	c #5D5D5D",
(char *)"!.	c #556F55",
(char *)"~.	c #3B553B",
(char *)"{.	c #484848",
(char *)"].	c #474847",
(char *)"          . + @ # $ %           ",
(char *)"        & * * = - ; > ,         ",
(char *)"    ' ) ! ~ { ] ^ / ( _ : <     ",
(char *)"    [ } | 1 2 3 4 5 6 7 8 9     ",
(char *)"  0 a b c d e f g h i j k l m   ",
(char *)"n o p q r s t u v w x y z A m m ",
(char *)"B C D E F 3 G q H i I z z J m m ",
(char *)"K L M N O P Q R i S z z z T m U ",
(char *)"V W X i Y Z 6 ` j z z z z T m U ",
(char *)" ...+.@.S #.$.z z z z z z J m m ",
(char *)"%.&.*.z z z z z z z z z z =.m m ",
(char *)"  -.;.>.z z z z z z z z ,.'.m   ",
(char *)"    ).!.k z z z z z z ,.~.m     ",
(char *)"    < {.].=.J T T J =.'.m m     ",
(char *)"        m m m m m m m m         ",
(char *)"          m m U U m m           "};
