/* XPM */
/* $Id: pn_LED_Grn_Off_024.xpm 1018 2012-11-05 01:17:52Z  $ */
static char * pn_LED_Grn_Off_024_xpm[] = {
(char *)"24 24 207 2",
(char *)"  	c None",
(char *)". 	c #878787",
(char *)"+ 	c #848484",
(char *)"@ 	c #808080",
(char *)"# 	c #787878",
(char *)"$ 	c #727272",
(char *)"% 	c #8F8F8F",
(char *)"& 	c #949494",
(char *)"* 	c #969696",
(char *)"= 	c #979797",
(char *)"- 	c #959595",
(char *)"; 	c #919191",
(char *)"> 	c #8C8C8C",
(char *)", 	c #858585",
(char *)"' 	c #7C7C7C",
(char *)") 	c #737373",
(char *)"! 	c #696969",
(char *)"~ 	c #5E5E5E",
(char *)"{ 	c #989898",
(char *)"] 	c #9F9F9F",
(char *)"^ 	c #A4A4A4",
(char *)"/ 	c #A6A6A6",
(char *)"( 	c #A3A3A3",
(char *)"_ 	c #909090",
(char *)": 	c #868686",
(char *)"< 	c #7B7B7B",
(char *)"[ 	c #707070",
(char *)"} 	c #646464",
(char *)"| 	c #585858",
(char *)"1 	c #9E9E9E",
(char *)"2 	c #A7A7A7",
(char *)"3 	c #AEAEAE",
(char *)"4 	c #B3B3B3",
(char *)"5 	c #94AE95",
(char *)"6 	c #6EA66F",
(char *)"7 	c #4F9F50",
(char *)"8 	c #319632",
(char *)"9 	c #2E922F",
(char *)"0 	c #448F44",
(char *)"a 	c #568957",
(char *)"b 	c #6B826B",
(char *)"c 	c #767676",
(char *)"d 	c #6A6A6A",
(char *)"e 	c #5D5D5D",
(char *)"f 	c #4F4F4F",
(char *)"g 	c #A0A0A0",
(char *)"h 	c #ABABAB",
(char *)"i 	c #B5B5B5",
(char *)"j 	c #B4BBB4",
(char *)"k 	c #62AA62",
(char *)"l 	c #289E29",
(char *)"m 	c #29A02A",
(char *)"n 	c #289F29",
(char *)"o 	c #269B27",
(char *)"p 	c #239524",
(char *)"q 	c #208F21",
(char *)"r 	c #1D871D",
(char *)"s 	c #19801A",
(char *)"t 	c #3C793C",
(char *)"u 	c #696E69",
(char *)"v 	c #606060",
(char *)"w 	c #525252",
(char *)"x 	c #444444",
(char *)"y 	c #B8B8B8",
(char *)"z 	c #9EB89E",
(char *)"A 	c #38A139",
(char *)"B 	c #2AA32B",
(char *)"C 	c #30B031",
(char *)"D 	c #33B534",
(char *)"E 	c #2DA82E",
(char *)"F 	c #259926",
(char *)"G 	c #219122",
(char *)"H 	c #1E891E",
(char *)"I 	c #1A811A",
(char *)"J 	c #167816",
(char *)"K 	c #1B701C",
(char *)"L 	c #4E634F",
(char *)"M 	c #545454",
(char *)"N 	c #454545",
(char *)"O 	c #424242",
(char *)"P 	c #999999",
(char *)"Q 	c #B9BFB9",
(char *)"R 	c #38A039",
(char *)"S 	c #2AA22B",
(char *)"T 	c #36BC37",
(char *)"U 	c #43D745",
(char *)"V 	c #269A27",
(char *)"W 	c #229122",
(char *)"X 	c #1D891E",
(char *)"Y 	c #157716",
(char *)"Z 	c #116E11",
(char *)"` 	c #166616",
(char *)" .	c #505550",
(char *)"..	c #BCBCBC",
(char *)"+.	c #63AA64",
(char *)"@.	c #279D28",
(char *)"#.	c #2EAB2F",
(char *)"$.	c #40D141",
(char *)"%.	c #52F654",
(char *)"&.	c #48E149",
(char *)"*.	c #35BB37",
(char *)"=.	c #29A12A",
(char *)"-.	c #259826",
(char *)";.	c #219022",
(char *)">.	c #187E19",
(char *)",.	c #147515",
(char *)"'.	c #106C10",
(char *)").	c #0C630C",
(char *)"!.	c #245824",
(char *)"~.	c #434343",
(char *)"{.	c #B2B2B2",
(char *)"].	c #9CB59C",
(char *)"^.	c #249625",
(char *)"/.	c #3CC93D",
(char *)"(.	c #42D644",
(char *)"_.	c #3AC53C",
(char *)":.	c #2BA52C",
(char *)"<.	c #1F8C20",
(char *)"[.	c #1B831C",
(char *)"}.	c #177B17",
(char *)"|.	c #137213",
(char *)"1.	c #0E690F",
(char *)"2.	c #0A600A",
(char *)"3.	c #065806",
(char *)"4.	c #344534",
(char *)"5.	c #73A873",
(char *)"6.	c #279C28",
(char *)"7.	c #2EAC2F",
(char *)"8.	c #2FAE31",
(char *)"9.	c #2AA42B",
(char *)"0.	c #249725",
(char *)"a.	c #218F21",
(char *)"b.	c #197F19",
(char *)"c.	c #157615",
(char *)"d.	c #0D650D",
(char *)"e.	c #085D09",
(char *)"f.	c #045404",
(char *)"g.	c #224622",
(char *)"h.	c #B0B0B0",
(char *)"i.	c #4F9B50",
(char *)"j.	c #229223",
(char *)"k.	c #259825",
(char *)"l.	c #167917",
(char *)"m.	c #127113",
(char *)"n.	c #025002",
(char *)"o.	c #144814",
(char *)"p.	c #929292",
(char *)"q.	c #2D8C2D",
(char *)"r.	c #1F8D20",
(char *)"s.	c #208D20",
(char *)"t.	c #1D881E",
(char *)"u.	c #1A811B",
(char *)"v.	c #177A17",
(char *)"w.	c #137313",
(char *)"x.	c #0F6B10",
(char *)"y.	c #085B08",
(char *)"z.	c #045304",
(char *)"A.	c #004B00",
(char *)"B.	c #074A07",
(char *)"C.	c #8D8D8D",
(char *)"D.	c #29862A",
(char *)"E.	c #1E8A1F",
(char *)"F.	c #1C851C",
(char *)"G.	c #197F1A",
(char *)"H.	c #0C640C",
(char *)"I.	c #095D09",
(char *)"J.	c #055505",
(char *)"K.	c #014D01",
(char *)"L.	c #9A9A9A",
(char *)"M.	c #428843",
(char *)"N.	c #1A821B",
(char *)"O.	c #1B841C",
(char *)"P.	c #177C18",
(char *)"Q.	c #157715",
(char *)"R.	c #055605",
(char *)"S.	c #024F02",
(char *)"T.	c #578658",
(char *)"U.	c #177B18",
(char *)"V.	c #6F846F",
(char *)"W.	c #127012",
(char *)"X.	c #106D11",
(char *)"Y.	c #0F6A0F",
(char *)"Z.	c #024E02",
(char *)"`.	c #334433",
(char *)" +	c #717171",
(char *)".+	c #777777",
(char *)"++	c #397139",
(char *)"@+	c #0F690F",
(char *)"#+	c #0D670E",
(char *)"$+	c #0A610B",
(char *)"%+	c #045204",
(char *)"&+	c #194819",
(char *)"*+	c #6E6E6E",
(char *)"=+	c #6B706B",
(char *)"-+	c #156316",
(char *)";+	c #095E09",
(char *)">+	c #3E433E",
(char *)",+	c #5C5C5C",
(char *)"'+	c #626262",
(char *)")+	c #4D604D",
(char *)"!+	c #105910",
(char *)"~+	c #055606",
(char *)"{+	c #035203",
(char *)"]+	c #515151",
(char *)"^+	c #535353",
(char *)"/+	c #4E534E",
(char *)"(+	c #1F4F1F",
(char *)"                  . . + @ # $                   ",
(char *)"            % & * = - ; > , ' ) ! ~             ",
(char *)"          { ] ^ / / ( ] { _ : < [ } |           ",
(char *)"        1 2 3 4 5 6 7 8 9 0 a b c d e f         ",
(char *)"      g h i j k l m n o p q r s t u v w x       ",
(char *)"    1 h y z A B C D E m F G H I J K L M N O     ",
(char *)"  P 2 i Q R S T U U T S V W X s Y Z `  .N O O   ",
(char *)"  ] 3 ..+.@.#.$.%.&.*.=.-.;.r >.,.'.).!.~.O O   ",
(char *)"  ( {.].^.l #./.(._.:.@.p <.[.}.|.1.2.3.4.O O   ",
(char *)"= ^ 4 5.p 6.S 7.8.9.l 0.a.r b.c.Z d.e.f.g.O O O ",
(char *)"- ( h.i.j.k.6.l l o ^.;.X I l.m.1.2.3.n.o.O O O ",
(char *)"p.] h q.r.W p ^.p j.s.t.u.v.w.x.).y.z.A.B.O O ~.",
(char *)"C.P ^ D.r E.<.r.<.H F.G.l.w.'.H.I.J.K.A.B.O O ~.",
(char *)". ; L.M.s N.O.O.N.s P.Q.m.x.H.I.R.S.A.A.o.O O O ",
(char *)"' . _ T.J v.U.}.l.Q.w.Z 1.).e.R.S.A.A.A.g.O O O ",
(char *)"  ' + V.W.|.|.|.W.X.Y.d.2.y.J.Z.A.A.A.A.`.O O   ",
(char *)"   +.+' ++@+Y.1.#+H.$+e.3.%+K.A.A.A.A.&+O O O   ",
(char *)"  } d *+=+-+$+2.;+y.3.f.S.A.A.A.A.A.B.>+O O O   ",
(char *)"    ,+v '+)+!+~+J.{+S.A.A.A.A.A.A.B.`.O O O     ",
(char *)"      ]+^+M /+(+A.A.A.A.A.A.A.A.&+>+O O O       ",
(char *)"        x x ~.O `.g.o.B.B.o.g.`.O O O O         ",
(char *)"          O O O O O O O O O O O O O O           ",
(char *)"            O O O O O O O O O O O O             ",
(char *)"                  O O ~.~.O O                   "};
