/* XPM */
/* $Id: pn_LED_Grn_On_024.xpm 1018 2012-11-05 01:17:52Z  $ */
static char * pn_LED_Grn_On_024_xpm[] = {
(char *)"24 24 181 2",
(char *)"  	c None",
(char *)". 	c #878787",
(char *)"+ 	c #848484",
(char *)"@ 	c #808080",
(char *)"# 	c #787878",
(char *)"$ 	c #727272",
(char *)"% 	c #8F8F8F",
(char *)"& 	c #949494",
(char *)"* 	c #969696",
(char *)"= 	c #979797",
(char *)"- 	c #959595",
(char *)"; 	c #919191",
(char *)"> 	c #8C8C8C",
(char *)", 	c #858585",
(char *)"' 	c #7C7C7C",
(char *)") 	c #737373",
(char *)"! 	c #696969",
(char *)"~ 	c #5E5E5E",
(char *)"{ 	c #989898",
(char *)"] 	c #9F9F9F",
(char *)"^ 	c #A4A4A4",
(char *)"/ 	c #A6A6A6",
(char *)"( 	c #A3A3A3",
(char *)"_ 	c #909090",
(char *)": 	c #868686",
(char *)"< 	c #7B7B7B",
(char *)"[ 	c #707070",
(char *)"} 	c #646464",
(char *)"| 	c #585858",
(char *)"1 	c #9E9E9E",
(char *)"2 	c #A7A7A7",
(char *)"3 	c #AEAEAE",
(char *)"4 	c #B3B3B3",
(char *)"5 	c #9BC69B",
(char *)"6 	c #7FD97F",
(char *)"7 	c #67E767",
(char *)"8 	c #4FF64F",
(char *)"9 	c #48F648",
(char *)"0 	c #54E054",
(char *)"a 	c #5EC55E",
(char *)"b 	c #6D9F6D",
(char *)"c 	c #767676",
(char *)"d 	c #6A6A6A",
(char *)"e 	c #5D5D5D",
(char *)"f 	c #4F4F4F",
(char *)"g 	c #A0A0A0",
(char *)"h 	c #ABABAB",
(char *)"i 	c #B5B5B5",
(char *)"j 	c #B5C1B5",
(char *)"k 	c #77E877",
(char *)"l 	c #52FF52",
(char *)"m 	c #58FF58",
(char *)"n 	c #54FF54",
(char *)"o 	c #4BFF4B",
(char *)"p 	c #40FF40",
(char *)"q 	c #33FF33",
(char *)"r 	c #25FF25",
(char *)"s 	c #3DCD3D",
(char *)"t 	c #687768",
(char *)"u 	c #606060",
(char *)"v 	c #525252",
(char *)"w 	c #444444",
(char *)"x 	c #B8B8B8",
(char *)"y 	c #A4D1A4",
(char *)"z 	c #5AFA5A",
(char *)"A 	c #5AFF5A",
(char *)"B 	c #65FF65",
(char *)"C 	c #74FF74",
(char *)"D 	c #70FF70",
(char *)"E 	c #60FF60",
(char *)"F 	c #46FF46",
(char *)"G 	c #38FF38",
(char *)"H 	c #28FF28",
(char *)"I 	c #19FF19",
(char *)"J 	c #14F014",
(char *)"K 	c #4B864B",
(char *)"L 	c #545454",
(char *)"M 	c #454545",
(char *)"N 	c #424242",
(char *)"O 	c #999999",
(char *)"P 	c #BAC6BA",
(char *)"Q 	c #57FA57",
(char *)"R 	c #6EFF6E",
(char *)"S 	c #90FF90",
(char *)"T 	c #A2FFA2",
(char *)"U 	c #8FFF8F",
(char *)"V 	c #6DFF6D",
(char *)"W 	c #48FF48",
(char *)"X 	c #17FF17",
(char *)"Y 	c #07FF07",
(char *)"Z 	c #0AEE0A",
(char *)"` 	c #4F5E4F",
(char *)" .	c #BCBCBC",
(char *)"..	c #74EB74",
(char *)"+.	c #4FFF4F",
(char *)"@.	c #83FF83",
(char *)"#.	c #ABFFAB",
(char *)"$.	c #B9FFB9",
(char *)"%.	c #91FF91",
(char *)"&.	c #68FF68",
(char *)"*.	c #55FF55",
(char *)"=.	c #45FF45",
(char *)"-.	c #34FF34",
(char *)";.	c #24FF24",
(char *)">.	c #13FF13",
(char *)",.	c #03FF03",
(char *)"'.	c #00FF00",
(char *)").	c #1FBD1F",
(char *)"!.	c #434343",
(char *)"~.	c #B2B2B2",
(char *)"{.	c #A0CEA0",
(char *)"].	c #41FF41",
(char *)"^.	c #51FF51",
(char *)"/.	c #7CFF7C",
(char *)"(.	c #92FF92",
(char *)"_.	c #8EFF8E",
(char *)":.	c #73FF73",
(char *)"<.	c #5CFF5C",
(char *)"[.	c #4DFF4D",
(char *)"}.	c #3DFF3D",
(char *)"|.	c #2DFF2D",
(char *)"1.	c #1DFF1D",
(char *)"2.	c #0CFF0C",
(char *)"3.	c #336C33",
(char *)"4.	c #7ADF7A",
(char *)"5.	c #3FFF3F",
(char *)"6.	c #4CFF4C",
(char *)"7.	c #61FF61",
(char *)"8.	c #67FF67",
(char *)"9.	c #62FF62",
(char *)"0.	c #4EFF4E",
(char *)"a.	c #32FF32",
(char *)"b.	c #23FF23",
(char *)"c.	c #229E22",
(char *)"d.	c #B0B0B0",
(char *)"e.	c #58EB58",
(char *)"f.	c #43FF43",
(char *)"g.	c #53FF53",
(char *)"h.	c #3EFF3E",
(char *)"i.	c #16FF16",
(char *)"j.	c #08FF08",
(char *)"k.	c #14C514",
(char *)"l.	c #929292",
(char *)"m.	c #32F832",
(char *)"n.	c #2EFF2E",
(char *)"o.	c #37FF37",
(char *)"p.	c #36FF36",
(char *)"q.	c #22FF22",
(char *)"r.	c #07EC07",
(char *)"s.	c #8D8D8D",
(char *)"t.	c #28F728",
(char *)"u.	c #21FF21",
(char *)"v.	c #2FFF2F",
(char *)"w.	c #2AFF2A",
(char *)"x.	c #1BFF1B",
(char *)"y.	c #11FF11",
(char *)"z.	c #06FF06",
(char *)"A.	c #9A9A9A",
(char *)"B.	c #3AE33A",
(char *)"C.	c #1CFF1C",
(char *)"D.	c #09FF09",
(char *)"E.	c #4ECA4E",
(char *)"F.	c #04FF04",
(char *)"G.	c #0AFF0A",
(char *)"H.	c #6BA46B",
(char *)"I.	c #717171",
(char *)"J.	c #777777",
(char *)"K.	c #31CF31",
(char *)"L.	c #19B719",
(char *)"M.	c #6E6E6E",
(char *)"N.	c #6A796A",
(char *)"O.	c #0CF00C",
(char *)"P.	c #07EB07",
(char *)"Q.	c #3E4D3E",
(char *)"R.	c #5C5C5C",
(char *)"S.	c #626262",
(char *)"T.	c #4C874C",
(char *)"U.	c #336E33",
(char *)"V.	c #515151",
(char *)"W.	c #535353",
(char *)"X.	c #4E5D4E",
(char *)"                  . . + @ # $                   ",
(char *)"            % & * = - ; > , ' ) ! ~             ",
(char *)"          { ] ^ / / ( ] { _ : < [ } |           ",
(char *)"        1 2 3 4 5 6 7 8 9 0 a b c d e f         ",
(char *)"      g h i j k l m m n o p q r s t u v w       ",
(char *)"    1 h x y z A B C D E n F G H I J K L M N     ",
(char *)"  O 2 i P Q m R S T U V m W G H X Y Z ` M N N   ",
(char *)"  ] 3  ...+.E @.#.$.%.&.*.=.-.;.>.,.'.).!.N N   ",
(char *)"  ( ~.{.].^.E /.(._.:.<.[.}.|.1.2.'.'.'.3.N N   ",
(char *)"= ^ 4 4.5.6.m 7.8.9.A 0.p a.b.>.,.'.'.'.c.N N N ",
(char *)"- ( d.e.G f.6.l g.+.W h.a.;.i.j.'.'.'.'.k.N N N ",
(char *)"l.] h m.n.o.}.].p }.p.|.q.i.j.'.'.'.'.'.r.N N !.",
(char *)"s.O ^ t.u.H |.v.n.w.b.x.y.z.'.'.'.'.'.'.r.N N !.",
(char *)". ; A.B.>.I C.C.x.X y.D.'.'.'.'.'.'.'.'.k.N N N ",
(char *)"' . _ E.F.j.G.G.j.F.'.'.'.'.'.'.'.'.'.'.c.N N N ",
(char *)"  ' + H.'.'.'.'.'.'.'.'.'.'.'.'.'.'.'.'.3.N N   ",
(char *)"  I.J.' K.'.'.'.'.'.'.'.'.'.'.'.'.'.'.L.N N N   ",
(char *)"  } d M.N.O.'.'.'.'.'.'.'.'.'.'.'.'.P.Q.N N N   ",
(char *)"    R.u S.T.Z '.'.'.'.'.'.'.'.'.'.P.U.N N N     ",
(char *)"      V.W.L X.).'.'.'.'.'.'.'.'.L.Q.N N N       ",
(char *)"        w w !.N 3.c.k.r.r.k.c.3.N N N N         ",
(char *)"          N N N N N N N N N N N N N N           ",
(char *)"            N N N N N N N N N N N N             ",
(char *)"                  N N !.!.N N                   "};
