/* XPM */
/* $Id: pn_LED_Grn_Off_016.xpm 1018 2012-11-05 01:17:52Z  $ */
static char * pn_LED_Grn_Off_016_xpm[] = {
(char *)"16 16 135 2",
(char *)"  	c None",
(char *)". 	c #898989",
(char *)"+ 	c #8C8C8C",
(char *)"@ 	c #888888",
(char *)"# 	c #818181",
(char *)"$ 	c #767676",
(char *)"% 	c #6A6A6A",
(char *)"& 	c #9B9B9B",
(char *)"* 	c #A2A2A2",
(char *)"= 	c #9D9D9D",
(char *)"- 	c #939393",
(char *)"; 	c #868686",
(char *)"> 	c #777777",
(char *)", 	c #666666",
(char *)"' 	c #9A9A9A",
(char *)") 	c #A8A8A8",
(char *)"! 	c #B2B3B2",
(char *)"~ 	c #7EAC7E",
(char *)"{ 	c #51A252",
(char *)"] 	c #329933",
(char *)"^ 	c #2E922F",
(char *)"/ 	c #408B40",
(char *)"( 	c #577F57",
(char *)"_ 	c #6E6E6E",
(char *)": 	c #5A5A5A",
(char *)"< 	c #464646",
(char *)"[ 	c #ACACAC",
(char *)"} 	c #ADB9AD",
(char *)"| 	c #50A851",
(char *)"1 	c #2BA42C",
(char *)"2 	c #2EAB2F",
(char *)"3 	c #29A02A",
(char *)"4 	c #249625",
(char *)"5 	c #1E8B1F",
(char *)"6 	c #197E19",
(char *)"7 	c #2A722B",
(char *)"8 	c #565F56",
(char *)"9 	c #494949",
(char *)"0 	c #A5A5A5",
(char *)"a 	c #B9BAB9",
(char *)"b 	c #50A750",
(char *)"c 	c #2CA82D",
(char *)"d 	c #45DA46",
(char *)"e 	c #43D744",
(char *)"f 	c #259825",
(char *)"g 	c #1E8A1F",
(char *)"h 	c #187D19",
(char *)"i 	c #127012",
(char *)"j 	c #206221",
(char *)"k 	c #484848",
(char *)"l 	c #424242",
(char *)"m 	c #979797",
(char *)"n 	c #ADADAD",
(char *)"o 	c #83AF83",
(char *)"p 	c #279C28",
(char *)"q 	c #33B534",
(char *)"r 	c #46DE48",
(char *)"s 	c #3BC63C",
(char *)"t 	c #239423",
(char *)"u 	c #1C871D",
(char *)"v 	c #167917",
(char *)"w 	c #106C10",
(char *)"x 	c #0A5F0A",
(char *)"y 	c #2B4A2B",
(char *)"z 	c #989898",
(char *)"A 	c #AFAFAF",
(char *)"B 	c #519F52",
(char *)"C 	c #269A26",
(char *)"D 	c #2AA22B",
(char *)"E 	c #2BA52C",
(char *)"F 	c #249725",
(char *)"G 	c #1F8C20",
(char *)"H 	c #19801A",
(char *)"I 	c #137314",
(char *)"J 	c #0D660D",
(char *)"K 	c #075907",
(char *)"L 	c #144914",
(char *)"M 	c #969696",
(char *)"N 	c #AAAAAA",
(char *)"O 	c #2D8F2E",
(char *)"P 	c #229223",
(char *)"Q 	c #259725",
(char *)"R 	c #229323",
(char *)"S 	c #1F8B1F",
(char *)"T 	c #1A811B",
(char *)"U 	c #157615",
(char *)"V 	c #0F6B0F",
(char *)"W 	c #095E0A",
(char *)"X 	c #035203",
(char *)"Y 	c #064A06",
(char *)"Z 	c #434343",
(char *)"` 	c #8E8E8E",
(char *)" .	c #9F9F9F",
(char *)"..	c #288629",
(char *)"+.	c #1D881E",
(char *)"@.	c #1C861D",
(char *)"#.	c #197F19",
(char *)"$.	c #147615",
(char *)"%.	c #0A610B",
(char *)"&.	c #055505",
(char *)"*.	c #004B00",
(char *)"=.	c #828282",
(char *)"-.	c #909090",
(char *)";.	c #3D823E",
(char *)">.	c #177C18",
(char *)",.	c #157816",
(char *)"'.	c #127213",
(char *)").	c #0F6A0F",
(char *)"!.	c #0A600A",
(char *)"~.	c #055606",
(char *)"{.	c #144814",
(char *)"].	c #747474",
(char *)"^.	c #7F7F7F",
(char *)"/.	c #587D58",
(char *)"(.	c #117012",
(char *)"_.	c #116E11",
(char *)":.	c #0C640C",
(char *)"<.	c #095D09",
(char *)"[.	c #045405",
(char *)"}.	c #284628",
(char *)"|.	c #6C6C6C",
(char *)"1.	c #727272",
(char *)"2.	c #266827",
(char *)"3.	c #0B630C",
(char *)"4.	c #085D09",
(char *)"5.	c #065706",
(char *)"6.	c #025002",
(char *)"7.	c #114911",
(char *)"8.	c #5D5D5D",
(char *)"9.	c #565E56",
(char *)"0.	c #1B571B",
(char *)"a.	c #045304",
(char *)"b.	c #024F02",
(char *)"c.	c #3B433B",
(char *)"d.	c #474747",
(char *)"          . + @ # $ %           ",
(char *)"        & * * = - ; > ,         ",
(char *)"    ' ) ! ~ { ] ^ / ( _ : <     ",
(char *)"    [ } | 1 2 3 4 5 6 7 8 9     ",
(char *)"  0 a b c d e 1 f g h i j k l   ",
(char *)"m n o p q r s 3 t u v w x y l l ",
(char *)"z A B C D E 3 F G H I J K L l l ",
(char *)"M N O P F Q R S T U V W X Y l Z ",
(char *)"`  ...+.5 g @.#.$.w %.&.*.Y l Z ",
(char *)"=.-.;.>.h >.,.'.).!.~.*.*.{.l l ",
(char *)"].^./.(.i _.).:.<.[.*.*.*.}.l l ",
(char *)"  |.1.2.3.%.4.5.6.*.*.*.7.l l   ",
(char *)"    8.9.0.a.b.*.*.*.*.7.c.l     ",
(char *)"    < k d.}.{.Y Y {.}.l l l     ",
(char *)"        l l l l l l l l         ",
(char *)"          l l Z Z l l           "};
