/* XPM */
static char * xprt_stop_dim_064_xpm[] = {
(char *)"64 64 146 2",
(char *)"  	c None",
(char *)". 	c #C0C0C0",
(char *)"+ 	c #9797CD",
(char *)"@ 	c #7474D9",
(char *)"# 	c #5757E2",
(char *)"$ 	c #3B3BEC",
(char *)"% 	c #2F2FEF",
(char *)"& 	c #3B3BEB",
(char *)"* 	c #5959E2",
(char *)"= 	c #7676D8",
(char *)"- 	c #9898CD",
(char *)"; 	c #A7A7C8",
(char *)"> 	c #3A3AEB",
(char *)", 	c #0000FF",
(char *)"' 	c #0101FA",
(char *)") 	c #0202D9",
(char *)"! 	c #0000C0",
(char *)"~ 	c #0202D8",
(char *)"{ 	c #0101F9",
(char *)"] 	c #3636EC",
(char *)"^ 	c #7878D8",
(char *)"/ 	c #0505FB",
(char *)"( 	c #0202F4",
(char *)"_ 	c #000073",
(char *)": 	c #000020",
(char *)"< 	c #000002",
(char *)"[ 	c #000000",
(char *)"} 	c #00006E",
(char *)"| 	c #0202F2",
(char *)"1 	c #0606FB",
(char *)"2 	c #A9A9C8",
(char *)"3 	c #0606FA",
(char *)"4 	c #0000C1",
(char *)"5 	c #00001A",
(char *)"6 	c #000017",
(char *)"7 	c #0101BC",
(char *)"8 	c #0505FC",
(char *)"9 	c #A6A6C8",
(char *)"0 	c #3838EB",
(char *)"a 	c #0202F5",
(char *)"b 	c #00001E",
(char *)"c 	c #0202F3",
(char *)"d 	c #3737EC",
(char *)"e 	c #9B9BCC",
(char *)"f 	c #000074",
(char *)"g 	c #00006F",
(char *)"h 	c #9A9ACD",
(char *)"i 	c #7A7AD7",
(char *)"j 	c #000025",
(char *)"k 	c #7777D8",
(char *)"l 	c #5B5BE1",
(char *)"m 	c #0101FB",
(char *)"n 	c #000004",
(char *)"o 	c #0202DA",
(char *)"p 	c #080505",
(char *)"q 	c #251616",
(char *)"r 	c #291818",
(char *)"s 	c #2D1B1B",
(char *)"t 	c #311D1D",
(char *)"u 	c #351F1F",
(char *)"v 	c #392222",
(char *)"w 	c #3D2424",
(char *)"x 	c #412626",
(char *)"y 	c #452929",
(char *)"z 	c #472A2A",
(char *)"A 	c #422727",
(char *)"B 	c #3E2525",
(char *)"C 	c #3A2222",
(char *)"D 	c #362020",
(char *)"E 	c #331E1E",
(char *)"F 	c #2F1C1C",
(char *)"G 	c #2C1A1A",
(char *)"H 	c #1E1212",
(char *)"I 	c #0D0707",
(char *)"J 	c #382121",
(char *)"K 	c #442828",
(char *)"L 	c #4A2C2C",
(char *)"M 	c #503030",
(char *)"N 	c #563333",
(char *)"O 	c #5C3636",
(char *)"P 	c #623A3A",
(char *)"Q 	c #683E3E",
(char *)"R 	c #6C4040",
(char *)"S 	c #693E3E",
(char *)"T 	c #643B3B",
(char *)"U 	c #5E3838",
(char *)"V 	c #583434",
(char *)"W 	c #533131",
(char *)"X 	c #4E2E2E",
(char *)"Y 	c #482B2B",
(char *)"Z 	c #2E1B1B",
(char *)"` 	c #0A0606",
(char *)" .	c #352020",
(char *)"..	c #432828",
(char *)"+.	c #4C2D2D",
(char *)"@.	c #523131",
(char *)"#.	c #4F2F2F",
(char *)"$.	c #4B2D2D",
(char *)"%.	c #3F2525",
(char *)"&.	c #3A2323",
(char *)"*.	c #321E1E",
(char *)"=.	c #211414",
(char *)"-.	c #3C3CEB",
(char *)";.	c #0202DB",
(char *)">.	c #5C5CE1",
(char *)",.	c #0101FD",
(char *)"'.	c #000006",
(char *)").	c #0101FC",
(char *)"!.	c #7B7BD6",
(char *)"~.	c #00002C",
(char *)"{.	c #000027",
(char *)"].	c #7B7BD7",
(char *)"^.	c #A0A0CA",
(char *)"/.	c #000081",
(char *)"(.	c #00007C",
(char *)"_.	c #9D9DCB",
(char *)":.	c #4848E7",
(char *)"<.	c #000028",
(char *)"[.	c #000022",
(char *)"}.	c #0202F8",
(char *)"|.	c #3E3EEA",
(char *)"1.	c #B2B2C4",
(char *)"2.	c #0E0EF7",
(char *)"3.	c #0202D0",
(char *)"4.	c #0101C6",
(char *)"5.	c #0909F9",
(char *)"6.	c #ADADC6",
(char *)"7.	c #8888D2",
(char *)"8.	c #0B0BF9",
(char *)"9.	c #0202F9",
(char *)"0.	c #00007D",
(char *)"a.	c #000003",
(char *)"b.	c #000021",
(char *)"c.	c #000078",
(char *)"d.	c #0202F7",
(char *)"e.	c #0808FA",
(char *)"f.	c #8181D5",
(char *)"g.	c #B0B0C5",
(char *)"h.	c #0000FE",
(char *)"i.	c #4040EA",
(char *)"j.	c #ACACC6",
(char *)"k.	c #7979D7",
(char *)"l.	c #5A5AE1",
(char *)"m.	c #5A5AE2",
(char *)"n.	c #7878D7",
(char *)"o.	c #9D9DCC",
(char *)". . . . . . . . . . . . . . . . . . . . . . . . . . . . . . . . . . . . . . . . . . . . . . . . . . . . . . . . . . . . . . . . ",
(char *)". . . . . . . . . . . . . . . . . . . . . . . . . . . . . . . . . . . . . . . . . . . . . . . . . . . . . . . . . . . . . . . . ",
(char *)". . . . . . . . . . . . . . . . . . . . . . . . . . . . . . . . . . . . . . . . . . . . . . . . . . . . . . . . . . . . . . . . ",
(char *)". . . . . . . . . . . . . . . . . . . . . . . . . . . . . . . . . . . . . . . . . . . . . . . . . . . . . . . . . . . . . . . . ",
(char *)". . . . . . . . . . . . . . . . . . . . . . . . . . . . . . . . . . . . . . . . . . . . . . . . . . . . . . . . . . . . . . . . ",
(char *)". . . . . . . . . . . . . . . . . . . . . . . . . . . . . . . . . . . . . . . . . . . . . . . . . . . . . . . . . . . . . . . . ",
(char *)". . . . . . . . . . . . . . . . . . . . . . . . . . . . . . . . . . . . . . . . . . . . . . . . . . . . . . . . . . . . . . . . ",
(char *)". . . . . . . . . . . . + @ # $ % % % % % % % % % % % % % % % % % % % % % % % % % % % % % % % % & * = - . . . . . . . . . . . . ",
(char *)". . . . . . . . . . ; > , , ' ) ! ! ! ! ! ! ! ! ! ! ! ! ! ! ! ! ! ! ! ! ! ! ! ! ! ! ! ! ! ! ! ! ~ { , , ] ; . . . . . . . . . . ",
(char *)". . . . . . . . . ^ / ( _ : < [ [ [ [ [ [ [ [ [ [ [ [ [ [ [ [ [ [ [ [ [ [ [ [ [ [ [ [ [ [ [ [ [ [ < : } | 1 = . . . . . . . . . ",
(char *)". . . . . . . . 2 3 4 5 [ [ [ [ [ [ [ [ [ [ [ [ [ [ [ [ [ [ [ [ [ [ [ [ [ [ [ [ [ [ [ [ [ [ [ [ [ [ [ [ 6 7 8 9 . . . . . . . . ",
(char *)". . . . . . . . 0 a b [ [ [ [ [ [ [ [ [ [ [ [ [ [ [ [ [ [ [ [ [ [ [ [ [ [ [ [ [ [ [ [ [ [ [ [ [ [ [ [ [ [ 5 c d . . . . . . . . ",
(char *)". . . . . . . e , f [ [ [ [ [ [ [ [ [ [ [ [ [ [ [ [ [ [ [ [ [ [ [ [ [ [ [ [ [ [ [ [ [ [ [ [ [ [ [ [ [ [ [ [ g , h . . . . . . . ",
(char *)". . . . . . . i , j [ [ [ [ [ [ [ [ [ [ [ [ [ [ [ [ [ [ [ [ [ [ [ [ [ [ [ [ [ [ [ [ [ [ [ [ [ [ [ [ [ [ [ [ : , k . . . . . . . ",
(char *)". . . . . . . l m n [ [ [ [ [ [ [ [ [ [ [ [ [ [ [ [ [ [ [ [ [ [ [ [ [ [ [ [ [ [ [ [ [ [ [ [ [ [ [ [ [ [ [ [ < { * . . . . . . . ",
(char *)". . . . . . . & o [ [ [ [ [ [ p q r s t u v w x y z z z z z z z z z z z z z z z y A B C D E F G H [ [ [ [ [ [ ~ & . . . . . . . ",
(char *)". . . . . . . % ! [ [ [ [ [ [ I J B K L M N O P Q R R R R R R R R R R R R R R R S T U V W X Y A Z [ [ [ [ [ [ ! % . . . . . . . ",
(char *)". . . . . . . % ! [ [ [ [ [ [ I J B K L M N O P Q R R R R R R R R R R R R R R R S T U V W X Y A Z [ [ [ [ [ [ ! % . . . . . . . ",
(char *)". . . . . . . % ! [ [ [ [ [ [ I J B K L M N O P Q R R R R R R R R R R R R R R R S T U V W X Y A Z [ [ [ [ [ [ ! % . . . . . . . ",
(char *)". . . . . . . % ! [ [ [ [ [ [ I J B K L M N O P Q R R R R R R R R R R R R R R R S T U V W X Y A s [ [ [ [ [ [ ! % . . . . . . . ",
(char *)". . . . . . . % ! [ [ [ [ [ [ I J B K L M N O P Q R R R R R R R R R R R R R R R S T U V W X Y A s [ [ [ [ [ [ ! % . . . . . . . ",
(char *)". . . . . . . % ! [ [ [ [ [ [ I J B K L M N O P Q R R R R R R R R R R R R R R R S T U V W X Y A s [ [ [ [ [ [ ! % . . . . . . . ",
(char *)". . . . . . . % ! [ [ [ [ [ [ I J B K L M N O P Q R R R R R R R R R R R R R R R S T U V W X Y A s [ [ [ [ [ [ ! % . . . . . . . ",
(char *)". . . . . . . % ! [ [ [ [ [ [ I J B K L M N O P Q R R R R R R R R R R R R R R R S T U V W X Y A s [ [ [ [ [ [ ! % . . . . . . . ",
(char *)". . . . . . . % ! [ [ [ [ [ [ I J B K L M N O P Q R R R R R R R R R R R R R R R S T U V W X Y A s [ [ [ [ [ [ ! % . . . . . . . ",
(char *)". . . . . . . % ! [ [ [ [ [ [ I J B K L M N O P Q R R R R R R R R R R R R R R R S T U V W X Y A s [ [ [ [ [ [ ! % . . . . . . . ",
(char *)". . . . . . . % ! [ [ [ [ [ [ I J B K L M N O P Q R R R R R R R R R R R R R R R S T U V W X Y A s [ [ [ [ [ [ ! % . . . . . . . ",
(char *)". . . . . . . % ! [ [ [ [ [ [ I J B K L M N O P Q R R R R R R R R R R R R R R R S T U V W X Y A s [ [ [ [ [ [ ! % . . . . . . . ",
(char *)". . . . . . . % ! [ [ [ [ [ [ I J B K L M N O P Q R R R R R R R R R R R R R R R S T U V W X Y A s [ [ [ [ [ [ ! % . . . . . . . ",
(char *)". . . . . . . % ! [ [ [ [ [ [ I J B K L M N O P Q R R R R R R R R R R R R R R R S T U V W X Y A s [ [ [ [ [ [ ! % . . . . . . . ",
(char *)". . . . . . . % ! [ [ [ [ [ [ I J B K L M N O P Q R R R R R R R R R R R R R R R S T U V W X Y A s [ [ [ [ [ [ ! % . . . . . . . ",
(char *)". . . . . . . % ! [ [ [ [ [ [ I J B K L M N O P Q R R R R R R R R R R R R R R R S T U V W X Y A s [ [ [ [ [ [ ! % . . . . . . . ",
(char *)". . . . . . . % ! [ [ [ [ [ [ I J B K L M N O P Q R R R R R R R R R R R R R R R S T U V W X Y A s [ [ [ [ [ [ ! % . . . . . . . ",
(char *)". . . . . . . % ! [ [ [ [ [ [ I J B K L M N O P Q R R R R R R R R R R R R R R R S T U V W X Y A s [ [ [ [ [ [ ! % . . . . . . . ",
(char *)". . . . . . . % ! [ [ [ [ [ [ I J B K L M N O P Q R R R R R R R R R R R R R R R S T U V W X Y A s [ [ [ [ [ [ ! % . . . . . . . ",
(char *)". . . . . . . % ! [ [ [ [ [ [ I J B K L M N O P Q R R R R R R R R R R R R R R R S T U V W X Y A s [ [ [ [ [ [ ! % . . . . . . . ",
(char *)". . . . . . . % ! [ [ [ [ [ [ I J B K L M N O P Q R R R R R R R R R R R R R R R S T U V W X Y A G [ [ [ [ [ [ ! % . . . . . . . ",
(char *)". . . . . . . % ! [ [ [ [ [ [ I J B K L M N O P Q R R R R R R R R R R R R R R R S T U V W X Y A G [ [ [ [ [ [ ! % . . . . . . . ",
(char *)". . . . . . . % ! [ [ [ [ [ [ I J B K L M N O P Q R R R R R R R R R R R R R R R S T U V W X Y A G [ [ [ [ [ [ ! % . . . . . . . ",
(char *)". . . . . . . % ! [ [ [ [ [ [ I J B K L M N O P Q R R R R R R R R R R R R R R R S T U V W X Y A G [ [ [ [ [ [ ! % . . . . . . . ",
(char *)". . . . . . . % ! [ [ [ [ [ [ I J B K L M N O P Q R R R R R R R R R R R R R R R S T U V W X Y A G [ [ [ [ [ [ ! % . . . . . . . ",
(char *)". . . . . . . % ! [ [ [ [ [ [ I J B K L M N O P Q R R R R R R R R R R R R R R R S T U V W X Y A G [ [ [ [ [ [ ! % . . . . . . . ",
(char *)". . . . . . . % ! [ [ [ [ [ [ I J B K L M N O P Q R R R R R R R R R R R R R R R S T U V W X Y A G [ [ [ [ [ [ ! % . . . . . . . ",
(char *)". . . . . . . % ! [ [ [ [ [ [ I J B K L M N O P Q R R R R R R R R R R R R R R R S T U V W X Y A G [ [ [ [ [ [ ! % . . . . . . . ",
(char *)". . . . . . . % ! [ [ [ [ [ [ I J B K L M N O P Q R R R R R R R R R R R R R R R S T U V W X Y A G [ [ [ [ [ [ ! % . . . . . . . ",
(char *)". . . . . . . % ! [ [ [ [ [ [ I J B K L M N O P Q R R R R R R R R R R R R R R R S T U V W X Y A G [ [ [ [ [ [ ! % . . . . . . . ",
(char *)". . . . . . . % ! [ [ [ [ [ [ I J B K L M N O P Q R R R R R R R R R R R R R R R S T U V W X Y A G [ [ [ [ [ [ ! % . . . . . . . ",
(char *)". . . . . . . % ! [ [ [ [ [ [ ` G t  .C B ..z +.M W W W W W W W W W W W @.@.@.@.#.$.z ..%.&.D *.=.[ [ [ [ [ [ ! % . . . . . . . ",
(char *)". . . . . . . -.;.[ [ [ [ [ [ [ [ [ [ [ [ [ [ [ [ [ [ [ [ [ [ [ [ [ [ [ [ [ [ [ [ [ [ [ [ [ [ [ [ [ [ [ [ [ [ o -.. . . . . . . ",
(char *)". . . . . . . >.,.'.[ [ [ [ [ [ [ [ [ [ [ [ [ [ [ [ [ [ [ [ [ [ [ [ [ [ [ [ [ [ [ [ [ [ [ [ [ [ [ [ [ [ [ [ n ).l . . . . . . . ",
(char *)". . . . . . . !., ~.[ [ [ [ [ [ [ [ [ [ [ [ [ [ [ [ [ [ [ [ [ [ [ [ [ [ [ [ [ [ [ [ [ [ [ [ [ [ [ [ [ [ [ [ {., ].. . . . . . . ",
(char *)". . . . . . . ^., /.[ [ [ [ [ [ [ [ [ [ [ [ [ [ [ [ [ [ [ [ [ [ [ [ [ [ [ [ [ [ [ [ [ [ [ [ [ [ [ [ [ [ [ [ (., _.. . . . . . . ",
(char *)". . . . . . . . :.' <.[ [ [ [ [ [ [ [ [ [ [ [ [ [ [ [ [ [ [ [ [ [ [ [ [ [ [ [ [ [ [ [ [ [ [ [ [ [ [ [ [ [ [.}.|.. . . . . . . . ",
(char *)". . . . . . . . 1.2.3.j [ [ [ [ [ [ [ [ [ [ [ [ [ [ [ [ [ [ [ [ [ [ [ [ [ [ [ [ [ [ [ [ [ [ [ [ [ [ [ [ b 4.5.6.. . . . . . . . ",
(char *)". . . . . . . . . 7.8.9.0.{.n [ [ [ [ [ [ [ [ [ [ [ [ [ [ [ [ [ [ [ [ [ [ [ [ [ [ [ [ [ [ [ [ [ [ a.b.c.d.e.f.. . . . . . . . . ",
(char *)". . . . . . . . . . g.:.h., ).o ! ! ! ! ! ! ! ! ! ! ! ! ! ! ! ! ! ! ! ! ! ! ! ! ! ! ! ! ! ! ! ! ) ' , , i.j.. . . . . . . . . . ",
(char *)". . . . . . . . . . . . ^.k.l.& % % % % % % % % % % % % % % % % % % % % % % % % % % % % % % % % & m.n.o.. . . . . . . . . . . . ",
(char *)". . . . . . . . . . . . . . . . . . . . . . . . . . . . . . . . . . . . . . . . . . . . . . . . . . . . . . . . . . . . . . . . ",
(char *)". . . . . . . . . . . . . . . . . . . . . . . . . . . . . . . . . . . . . . . . . . . . . . . . . . . . . . . . . . . . . . . . ",
(char *)". . . . . . . . . . . . . . . . . . . . . . . . . . . . . . . . . . . . . . . . . . . . . . . . . . . . . . . . . . . . . . . . ",
(char *)". . . . . . . . . . . . . . . . . . . . . . . . . . . . . . . . . . . . . . . . . . . . . . . . . . . . . . . . . . . . . . . . ",
(char *)". . . . . . . . . . . . . . . . . . . . . . . . . . . . . . . . . . . . . . . . . . . . . . . . . . . . . . . . . . . . . . . . ",
(char *)". . . . . . . . . . . . . . . . . . . . . . . . . . . . . . . . . . . . . . . . . . . . . . . . . . . . . . . . . . . . . . . . ",
(char *)". . . . . . . . . . . . . . . . . . . . . . . . . . . . . . . . . . . . . . . . . . . . . . . . . . . . . . . . . . . . . . . . "};
