/* XPM */
static char * xprt_start_dim_032_xpm[] = {
(char *)"32 32 87 1",
(char *)" 	c None",
(char *)".	c #C0C0C0",
(char *)"+	c #A3A3C9",
(char *)"@	c #8585D4",
(char *)"#	c #7878D8",
(char *)"$	c #8686D3",
(char *)"%	c #A6A6C9",
(char *)"&	c #AEAEC6",
(char *)"*	c #2F2FDA",
(char *)"=	c #1111B5",
(char *)"-	c #08087C",
(char *)";	c #000060",
(char *)">	c #08087A",
(char *)",	c #1010B5",
(char *)"'	c #2D2DDB",
(char *)")	c #AFAFC6",
(char *)"!	c #2B2BDD",
(char *)"~	c #00003B",
(char *)"{	c #000000",
(char *)"]	c #000041",
(char *)"^	c #A5A5C9",
(char *)"/	c #1212B4",
(char *)"(	c #A2A2CA",
(char *)"_	c #020302",
(char *)":	c #040704",
(char *)"<	c #233A23",
(char *)"[	c #1B2D1B",
(char *)"}	c #080E08",
(char *)"|	c #233B23",
(char *)"1	c #2A472A",
(char *)"2	c #315331",
(char *)"3	c #284328",
(char *)"4	c #0F190F",
(char *)"5	c #385F38",
(char *)"6	c #3F6B3F",
(char *)"7	c #142114",
(char *)"8	c #406C40",
(char *)"9	c #355A35",
(char *)"0	c #182818",
(char *)"a	c #010201",
(char *)"b	c #396039",
(char *)"c	c #1C2F1C",
(char *)"d	c #030503",
(char *)"e	c #3B643B",
(char *)"f	c #1F341F",
(char *)"g	c #3C663C",
(char *)"h	c #345834",
(char *)"i	c #1B2E1B",
(char *)"j	c #050905",
(char *)"k	c #365B36",
(char *)"l	c #2F502F",
(char *)"m	c #284428",
(char *)"n	c #162416",
(char *)"o	c #2D4D2D",
(char *)"p	c #172617",
(char *)"q	c #040604",
(char *)"r	c #385E38",
(char *)"s	c #030603",
(char *)"t	c #030403",
(char *)"u	c #182918",
(char *)"v	c #335633",
(char *)"w	c #142214",
(char *)"x	c #2E4E2E",
(char *)"y	c #111C11",
(char *)"z	c #213821",
(char *)"A	c #0B130B",
(char *)"B	c #152415",
(char *)"C	c #060B06",
(char *)"D	c #08087F",
(char *)"E	c #08087E",
(char *)"F	c #A7A7C8",
(char *)"G	c #1010BF",
(char *)"H	c #1111B9",
(char *)"I	c #A6A6C8",
(char *)"J	c #3232DA",
(char *)"K	c #01014F",
(char *)"L	c #010142",
(char *)"M	c #3434D9",
(char *)"N	c #B2B2C5",
(char *)"O	c #3030DB",
(char *)"P	c #1010BB",
(char *)"Q	c #08087B",
(char *)"R	c #1010B7",
(char *)"S	c #3131DA",
(char *)"T	c #B1B1C5",
(char *)"U	c #A8A8C8",
(char *)"V	c #8787D3",
(char *)"................................",
(char *)"................................",
(char *)"................................",
(char *)"......+@################$%......",
(char *)"....&*=-;;;;;;;;;;;;;;;;>,')....",
(char *)"....!~{{{{{{{{{{{{{{{{{{{{]'....",
(char *)"...^/{{{{{{{{{{{{{{{{{{{{{{,(...",
(char *)"...$>{{_:{{{{{{{{{{{{{{{{{{>@...",
(char *)"...#;{{:<[}{{{{{{{{{{{{{{{{;#...",
(char *)"...#;{{:|1234{{{{{{{{{{{{{{;#...",
(char *)"...#;{{:|125627{{{{{{{{{{{{;#...",
(char *)"...#;{{:|12568890a{{{{{{{{{;#...",
(char *)"...#;{{:|12568888bcd{{{{{{{;#...",
(char *)"...#;{{:|1256888888ef:{{{{{;#...",
(char *)"...#;{{:|12568888888ghij{{{;#...",
(char *)"...#;{{:|12568888888gklmna{;#...",
(char *)"...#;{{:|12568888888gkopq{{;#...",
(char *)"...#;{{:|12568888888r[s{{{{;#...",
(char *)"...#;{{q|125688888bct{{{{{{;#...",
(char *)"...#;{{q|1256888kua{{{{{{{{;#...",
(char *)"...#;{{q|12568vw{{{{{{{{{{{;#...",
(char *)"...#;{{q|125xy{{{{{{{{{{{{{;#...",
(char *)"...#;{{q|1zA{{{{{{{{{{{{{{{;#...",
(char *)"...#;{{dBC{{{{{{{{{{{{{{{{{;#...",
(char *)"...$D{{{{{{{{{{{{{{{{{{{{{{E$...",
(char *)"...FG{{{{{{{{{{{{{{{{{{{{{{HI...",
(char *)"....JK{{{{{{{{{{{{{{{{{{{{LM....",
(char *)"....NOPQ;;;;;;;;;;;;;;;;QRST....",
(char *)"......UV################@+......",
(char *)"................................",
(char *)"................................",
(char *)"................................"};
