/* XPM */
static char * xprt_stop_bright_016_xpm[] = {
(char *)"16 16 38 1",
(char *)" 	c None",
(char *)".	c #C0C0C0",
(char *)"+	c #B4B4C4",
(char *)"@	c #9C9CCC",
(char *)"#	c #B5B5C4",
(char *)"$	c #5050B4",
(char *)"%	c #15156E",
(char *)"&	c #000030",
(char *)"*	c #17176C",
(char *)"=	c #5353B2",
(char *)"-	c #010000",
(char *)";	c #180000",
(char *)">	c #210000",
(char *)",	c #280000",
(char *)"'	c #240000",
(char *)")	c #1C0000",
(char *)"!	c #030000",
(char *)"~	c #151569",
(char *)"{	c #060000",
(char *)"]	c #9A0000",
(char *)"^	c #D20000",
(char *)"/	c #FF0000",
(char *)"(	c #E40000",
(char *)"_	c #B00000",
(char *)":	c #910000",
(char *)"<	c #C60000",
(char *)"[	c #F00000",
(char *)"}	c #D70000",
(char *)"|	c #A60000",
(char *)"1	c #160000",
(char *)"2	c #B5B5C3",
(char *)"3	c #171770",
(char *)"4	c #000000",
(char *)"5	c #161671",
(char *)"6	c #5656B3",
(char *)"7	c #17176F",
(char *)"8	c #15156D",
(char *)"9	c #5151B4",
(char *)"................",
(char *)"...+@@@@@@@@#...",
(char *)"..$%&&&&&&&&*=..",
(char *)".#*-;>,,,,')!~#.",
(char *)".@&{]^////(_;&@.",
(char *)".@&{]^////(_;&@.",
(char *)".@&{]^////(_;&@.",
(char *)".@&{]^////(_;&@.",
(char *)".@&{]^////(_;&@.",
(char *)".@&{]^////(_;&@.",
(char *)".@&{]^////(_;&@.",
(char *)".@&{:<[[[[}|1&@.",
(char *)".2344444444445#.",
(char *)"..67&&&&&&&&89..",
(char *)"...#@@@@@@@@#...",
(char *)"................"};
