/* XPM */
static char * xprt_start_bright_064_xpm[] = {
(char *)"64 64 192 2",
(char *)"  	c None",
(char *)". 	c #C0C0C0",
(char *)"+ 	c #9797CD",
(char *)"@ 	c #7474D9",
(char *)"# 	c #5757E2",
(char *)"$ 	c #3B3BEC",
(char *)"% 	c #2F2FEF",
(char *)"& 	c #3B3BEB",
(char *)"* 	c #5959E2",
(char *)"= 	c #7676D8",
(char *)"- 	c #9898CD",
(char *)"; 	c #A7A7C8",
(char *)"> 	c #3A3AEB",
(char *)", 	c #0000FF",
(char *)"' 	c #0101FA",
(char *)") 	c #0202D9",
(char *)"! 	c #0000C0",
(char *)"~ 	c #0202D8",
(char *)"{ 	c #0101F9",
(char *)"] 	c #3636EC",
(char *)"^ 	c #7878D8",
(char *)"/ 	c #0505FB",
(char *)"( 	c #0202F4",
(char *)"_ 	c #000073",
(char *)": 	c #000020",
(char *)"< 	c #000002",
(char *)"[ 	c #000000",
(char *)"} 	c #00006E",
(char *)"| 	c #0202F2",
(char *)"1 	c #0606FB",
(char *)"2 	c #A9A9C8",
(char *)"3 	c #0606FA",
(char *)"4 	c #0000C1",
(char *)"5 	c #00001A",
(char *)"6 	c #000017",
(char *)"7 	c #0101BC",
(char *)"8 	c #0505FC",
(char *)"9 	c #A6A6C8",
(char *)"0 	c #3838EB",
(char *)"a 	c #0202F5",
(char *)"b 	c #00001E",
(char *)"c 	c #0202F3",
(char *)"d 	c #3737EC",
(char *)"e 	c #9B9BCC",
(char *)"f 	c #000074",
(char *)"g 	c #00006F",
(char *)"h 	c #9A9ACD",
(char *)"i 	c #7A7AD7",
(char *)"j 	c #000025",
(char *)"k 	c #7777D8",
(char *)"l 	c #5B5BE1",
(char *)"m 	c #0101FB",
(char *)"n 	c #000004",
(char *)"o 	c #0202DA",
(char *)"p 	c #001C00",
(char *)"q 	c #003A00",
(char *)"r 	c #000600",
(char *)"s 	c #002500",
(char *)"t 	c #008500",
(char *)"u 	c #008800",
(char *)"v 	c #005100",
(char *)"w 	c #000D00",
(char *)"x 	c #002400",
(char *)"y 	c #009300",
(char *)"z 	c #00A100",
(char *)"A 	c #00A800",
(char *)"B 	c #006C00",
(char *)"C 	c #001900",
(char *)"D 	c #00AF00",
(char *)"E 	c #00BE00",
(char *)"F 	c #00C800",
(char *)"G 	c #008B00",
(char *)"H 	c #002900",
(char *)"I 	c #00CB00",
(char *)"J 	c #00D900",
(char *)"K 	c #00E700",
(char *)"L 	c #00AE00",
(char *)"M 	c #003D00",
(char *)"N 	c #00E800",
(char *)"O 	c #00F600",
(char *)"P 	c #00FF00",
(char *)"Q 	c #00C600",
(char *)"R 	c #004E00",
(char *)"S 	c #000100",
(char *)"T 	c #002300",
(char *)"U 	c #00D600",
(char *)"V 	c #006000",
(char *)"W 	c #000500",
(char *)"X 	c #00E300",
(char *)"Y 	c #007100",
(char *)"Z 	c #000C00",
(char *)"` 	c #00EE00",
(char *)" .	c #008300",
(char *)"..	c #001500",
(char *)"+.	c #009400",
(char *)"@.	c #002100",
(char *)"#.	c #00FC00",
(char *)"$.	c #00A600",
(char *)"%.	c #002F00",
(char *)"&.	c #00B700",
(char *)"*.	c #003E00",
(char *)"=.	c #002200",
(char *)"-.	c #00F700",
(char *)";.	c #00B800",
(char *)">.	c #004700",
(char *)",.	c #000200",
(char *)"'.	c #00EB00",
(char *)").	c #00DE00",
(char *)"!.	c #00B000",
(char *)"~.	c #004C00",
(char *)"{.	c #000400",
(char *)"].	c #00D000",
(char *)"^.	c #00C300",
(char *)"/.	c #00A400",
(char *)"(.	c #004D00",
(char *)"_.	c #000800",
(char *)":.	c #00AA00",
(char *)"<.	c #009D00",
(char *)"[.	c #009000",
(char *)"}.	c #007300",
(char *)"|.	c #001100",
(char *)"1.	c #008700",
(char *)"2.	c #009500",
(char *)"3.	c #003B00",
(char *)"4.	c #003700",
(char *)"5.	c #00A300",
(char *)"6.	c #003200",
(char *)"7.	c #002000",
(char *)"8.	c #00FB00",
(char *)"9.	c #00F500",
(char *)"0.	c #009100",
(char *)"a.	c #001E00",
(char *)"b.	c #008200",
(char *)"c.	c #001400",
(char *)"d.	c #00E400",
(char *)"e.	c #007200",
(char *)"f.	c #001F00",
(char *)"g.	c #00D800",
(char *)"h.	c #006300",
(char *)"i.	c #005300",
(char *)"j.	c #00BB00",
(char *)"k.	c #004300",
(char *)"l.	c #00E600",
(char *)"m.	c #003400",
(char *)"n.	c #00A700",
(char *)"o.	c #006900",
(char *)"p.	c #004F00",
(char *)"q.	c #003900",
(char *)"r.	c #3C3CEB",
(char *)"s.	c #0202DB",
(char *)"t.	c #5C5CE1",
(char *)"u.	c #0101FD",
(char *)"v.	c #000006",
(char *)"w.	c #0101FC",
(char *)"x.	c #7B7BD6",
(char *)"y.	c #00002C",
(char *)"z.	c #000027",
(char *)"A.	c #7B7BD7",
(char *)"B.	c #A0A0CA",
(char *)"C.	c #000081",
(char *)"D.	c #00007C",
(char *)"E.	c #9D9DCB",
(char *)"F.	c #4848E7",
(char *)"G.	c #000028",
(char *)"H.	c #000022",
(char *)"I.	c #0202F8",
(char *)"J.	c #3E3EEA",
(char *)"K.	c #B2B2C4",
(char *)"L.	c #0E0EF7",
(char *)"M.	c #0202D0",
(char *)"N.	c #0101C6",
(char *)"O.	c #0909F9",
(char *)"P.	c #ADADC6",
(char *)"Q.	c #8888D2",
(char *)"R.	c #0B0BF9",
(char *)"S.	c #0202F9",
(char *)"T.	c #00007D",
(char *)"U.	c #000003",
(char *)"V.	c #000021",
(char *)"W.	c #000078",
(char *)"X.	c #0202F7",
(char *)"Y.	c #0808FA",
(char *)"Z.	c #8181D5",
(char *)"`.	c #B0B0C5",
(char *)" +	c #0000FE",
(char *)".+	c #4040EA",
(char *)"++	c #ACACC6",
(char *)"@+	c #7979D7",
(char *)"#+	c #5A5AE1",
(char *)"$+	c #5A5AE2",
(char *)"%+	c #7878D7",
(char *)"&+	c #9D9DCC",
(char *)". . . . . . . . . . . . . . . . . . . . . . . . . . . . . . . . . . . . . . . . . . . . . . . . . . . . . . . . . . . . . . . . ",
(char *)". . . . . . . . . . . . . . . . . . . . . . . . . . . . . . . . . . . . . . . . . . . . . . . . . . . . . . . . . . . . . . . . ",
(char *)". . . . . . . . . . . . . . . . . . . . . . . . . . . . . . . . . . . . . . . . . . . . . . . . . . . . . . . . . . . . . . . . ",
(char *)". . . . . . . . . . . . . . . . . . . . . . . . . . . . . . . . . . . . . . . . . . . . . . . . . . . . . . . . . . . . . . . . ",
(char *)". . . . . . . . . . . . . . . . . . . . . . . . . . . . . . . . . . . . . . . . . . . . . . . . . . . . . . . . . . . . . . . . ",
(char *)". . . . . . . . . . . . . . . . . . . . . . . . . . . . . . . . . . . . . . . . . . . . . . . . . . . . . . . . . . . . . . . . ",
(char *)". . . . . . . . . . . . . . . . . . . . . . . . . . . . . . . . . . . . . . . . . . . . . . . . . . . . . . . . . . . . . . . . ",
(char *)". . . . . . . . . . . . + @ # $ % % % % % % % % % % % % % % % % % % % % % % % % % % % % % % % % & * = - . . . . . . . . . . . . ",
(char *)". . . . . . . . . . ; > , , ' ) ! ! ! ! ! ! ! ! ! ! ! ! ! ! ! ! ! ! ! ! ! ! ! ! ! ! ! ! ! ! ! ! ~ { , , ] ; . . . . . . . . . . ",
(char *)". . . . . . . . . ^ / ( _ : < [ [ [ [ [ [ [ [ [ [ [ [ [ [ [ [ [ [ [ [ [ [ [ [ [ [ [ [ [ [ [ [ [ [ < : } | 1 = . . . . . . . . . ",
(char *)". . . . . . . . 2 3 4 5 [ [ [ [ [ [ [ [ [ [ [ [ [ [ [ [ [ [ [ [ [ [ [ [ [ [ [ [ [ [ [ [ [ [ [ [ [ [ [ [ 6 7 8 9 . . . . . . . . ",
(char *)". . . . . . . . 0 a b [ [ [ [ [ [ [ [ [ [ [ [ [ [ [ [ [ [ [ [ [ [ [ [ [ [ [ [ [ [ [ [ [ [ [ [ [ [ [ [ [ [ 5 c d . . . . . . . . ",
(char *)". . . . . . . e , f [ [ [ [ [ [ [ [ [ [ [ [ [ [ [ [ [ [ [ [ [ [ [ [ [ [ [ [ [ [ [ [ [ [ [ [ [ [ [ [ [ [ [ [ g , h . . . . . . . ",
(char *)". . . . . . . i , j [ [ [ [ [ [ [ [ [ [ [ [ [ [ [ [ [ [ [ [ [ [ [ [ [ [ [ [ [ [ [ [ [ [ [ [ [ [ [ [ [ [ [ [ : , k . . . . . . . ",
(char *)". . . . . . . l m n [ [ [ [ [ [ [ [ [ [ [ [ [ [ [ [ [ [ [ [ [ [ [ [ [ [ [ [ [ [ [ [ [ [ [ [ [ [ [ [ [ [ [ [ < { * . . . . . . . ",
(char *)". . . . . . . & o [ [ [ [ [ [ p q r [ [ [ [ [ [ [ [ [ [ [ [ [ [ [ [ [ [ [ [ [ [ [ [ [ [ [ [ [ [ [ [ [ [ [ [ [ ~ & . . . . . . . ",
(char *)". . . . . . . % ! [ [ [ [ [ [ s t u v w [ [ [ [ [ [ [ [ [ [ [ [ [ [ [ [ [ [ [ [ [ [ [ [ [ [ [ [ [ [ [ [ [ [ [ ! % . . . . . . . ",
(char *)". . . . . . . % ! [ [ [ [ [ [ x t y z A B C [ [ [ [ [ [ [ [ [ [ [ [ [ [ [ [ [ [ [ [ [ [ [ [ [ [ [ [ [ [ [ [ [ ! % . . . . . . . ",
(char *)". . . . . . . % ! [ [ [ [ [ [ x t y z D E F G H [ [ [ [ [ [ [ [ [ [ [ [ [ [ [ [ [ [ [ [ [ [ [ [ [ [ [ [ [ [ [ ! % . . . . . . . ",
(char *)". . . . . . . % ! [ [ [ [ [ [ x t y z D E I J K L M [ [ [ [ [ [ [ [ [ [ [ [ [ [ [ [ [ [ [ [ [ [ [ [ [ [ [ [ [ ! % . . . . . . . ",
(char *)". . . . . . . % ! [ [ [ [ [ [ x t y z D E I J N O P Q R S [ [ [ [ [ [ [ [ [ [ [ [ [ [ [ [ [ [ [ [ [ [ [ [ [ [ ! % . . . . . . . ",
(char *)". . . . . . . % ! [ [ [ [ [ [ T t y z D E I J N O P P P U V W [ [ [ [ [ [ [ [ [ [ [ [ [ [ [ [ [ [ [ [ [ [ [ [ ! % . . . . . . . ",
(char *)". . . . . . . % ! [ [ [ [ [ [ T t y z D E I J N O P P P P P X Y Z [ [ [ [ [ [ [ [ [ [ [ [ [ [ [ [ [ [ [ [ [ [ ! % . . . . . . . ",
(char *)". . . . . . . % ! [ [ [ [ [ [ T t y z D E I J N O P P P P P P P `  ...[ [ [ [ [ [ [ [ [ [ [ [ [ [ [ [ [ [ [ [ ! % . . . . . . . ",
(char *)". . . . . . . % ! [ [ [ [ [ [ T t y z D E I J N O P P P P P P P P P O +.@.[ [ [ [ [ [ [ [ [ [ [ [ [ [ [ [ [ [ ! % . . . . . . . ",
(char *)". . . . . . . % ! [ [ [ [ [ [ T t y z D E I J N O P P P P P P P P P P P #.$.%.[ [ [ [ [ [ [ [ [ [ [ [ [ [ [ [ ! % . . . . . . . ",
(char *)". . . . . . . % ! [ [ [ [ [ [ T t y z D E I J N O P P P P P P P P P P P P P P &.*.[ [ [ [ [ [ [ [ [ [ [ [ [ [ ! % . . . . . . . ",
(char *)". . . . . . . % ! [ [ [ [ [ [ =.t y z D E I J N O P P P P P P P P P P P P P P P -.;.>.,.[ [ [ [ [ [ [ [ [ [ [ ! % . . . . . . . ",
(char *)". . . . . . . % ! [ [ [ [ [ [ =.t y z D E I J N O P P P P P P P P P P P P P P P -.'.).!.~.{.[ [ [ [ [ [ [ [ [ ! % . . . . . . . ",
(char *)". . . . . . . % ! [ [ [ [ [ [ =.t y z D E I J N O P P P P P P P P P P P P P P P -.'.).].^./.(._.[ [ [ [ [ [ [ ! % . . . . . . . ",
(char *)". . . . . . . % ! [ [ [ [ [ [ =.t y z D E I J N O P P P P P P P P P P P P P P P -.'.).].^.&.:.y ~.Z [ [ [ [ [ ! % . . . . . . . ",
(char *)". . . . . . . % ! [ [ [ [ [ [ @.t y z D E I J N O P P P P P P P P P P P P P P P -.'.).].^.&.:.<.[.}.|.[ [ [ [ ! % . . . . . . . ",
(char *)". . . . . . . % ! [ [ [ [ [ [ @.t y z D E I J N O P P P P P P P P P P P P P P P -.'.).].^.&.:.1.q {.[ [ [ [ [ ! % . . . . . . . ",
(char *)". . . . . . . % ! [ [ [ [ [ [ @.t y z D E I J N O P P P P P P P P P P P P P P P -.'.).].^.2.3.,.[ [ [ [ [ [ [ ! % . . . . . . . ",
(char *)". . . . . . . % ! [ [ [ [ [ [ @.t y z D E I J N O P P P P P P P P P P P P P P P -.'.).<.4.[ [ [ [ [ [ [ [ [ [ ! % . . . . . . . ",
(char *)". . . . . . . % ! [ [ [ [ [ [ @.t y z D E I J N O P P P P P P P P P P P P P P P O 5.6.[ [ [ [ [ [ [ [ [ [ [ [ ! % . . . . . . . ",
(char *)". . . . . . . % ! [ [ [ [ [ [ 7.t y z D E I J N O P P P P P P P P P P P P P 8.z H [ [ [ [ [ [ [ [ [ [ [ [ [ [ ! % . . . . . . . ",
(char *)". . . . . . . % ! [ [ [ [ [ [ 7.t y z D E I J N O P P P P P P P P P P P 9.0.a.[ [ [ [ [ [ [ [ [ [ [ [ [ [ [ [ ! % . . . . . . . ",
(char *)". . . . . . . % ! [ [ [ [ [ [ 7.t y z D E I J N O P P P P P P P P P ` b.c.[ [ [ [ [ [ [ [ [ [ [ [ [ [ [ [ [ [ ! % . . . . . . . ",
(char *)". . . . . . . % ! [ [ [ [ [ [ 7.t y z D E I J N O P P P P P P P d.e.Z [ [ [ [ [ [ [ [ [ [ [ [ [ [ [ [ [ [ [ [ ! % . . . . . . . ",
(char *)". . . . . . . % ! [ [ [ [ [ [ f.t y z D E I J N O P P P P P g.h.r [ [ [ [ [ [ [ [ [ [ [ [ [ [ [ [ [ [ [ [ [ [ ! % . . . . . . . ",
(char *)". . . . . . . % ! [ [ [ [ [ [ f.t y z D E I J N O P P P I i.,.[ [ [ [ [ [ [ [ [ [ [ [ [ [ [ [ [ [ [ [ [ [ [ [ ! % . . . . . . . ",
(char *)". . . . . . . % ! [ [ [ [ [ [ f.t y z D E I J N O P j.k.[ [ [ [ [ [ [ [ [ [ [ [ [ [ [ [ [ [ [ [ [ [ [ [ [ [ [ ! % . . . . . . . ",
(char *)". . . . . . . % ! [ [ [ [ [ [ f.t y z D E I J l.$.m.[ [ [ [ [ [ [ [ [ [ [ [ [ [ [ [ [ [ [ [ [ [ [ [ [ [ [ [ [ ! % . . . . . . . ",
(char *)". . . . . . . % ! [ [ [ [ [ [ a.t y z D E Q t T [ [ [ [ [ [ [ [ [ [ [ [ [ [ [ [ [ [ [ [ [ [ [ [ [ [ [ [ [ [ [ ! % . . . . . . . ",
(char *)". . . . . . . % ! [ [ [ [ [ [ a.t y z n.o...[ [ [ [ [ [ [ [ [ [ [ [ [ [ [ [ [ [ [ [ [ [ [ [ [ [ [ [ [ [ [ [ [ ! % . . . . . . . ",
(char *)". . . . . . . % ! [ [ [ [ [ [ a.t 1.p.Z [ [ [ [ [ [ [ [ [ [ [ [ [ [ [ [ [ [ [ [ [ [ [ [ [ [ [ [ [ [ [ [ [ [ [ ! % . . . . . . . ",
(char *)". . . . . . . % ! [ [ [ [ [ [ ..q.r [ [ [ [ [ [ [ [ [ [ [ [ [ [ [ [ [ [ [ [ [ [ [ [ [ [ [ [ [ [ [ [ [ [ [ [ [ ! % . . . . . . . ",
(char *)". . . . . . . r.s.[ [ [ [ [ [ [ [ [ [ [ [ [ [ [ [ [ [ [ [ [ [ [ [ [ [ [ [ [ [ [ [ [ [ [ [ [ [ [ [ [ [ [ [ [ [ o r.. . . . . . . ",
(char *)". . . . . . . t.u.v.[ [ [ [ [ [ [ [ [ [ [ [ [ [ [ [ [ [ [ [ [ [ [ [ [ [ [ [ [ [ [ [ [ [ [ [ [ [ [ [ [ [ [ [ n w.l . . . . . . . ",
(char *)". . . . . . . x., y.[ [ [ [ [ [ [ [ [ [ [ [ [ [ [ [ [ [ [ [ [ [ [ [ [ [ [ [ [ [ [ [ [ [ [ [ [ [ [ [ [ [ [ [ z., A.. . . . . . . ",
(char *)". . . . . . . B., C.[ [ [ [ [ [ [ [ [ [ [ [ [ [ [ [ [ [ [ [ [ [ [ [ [ [ [ [ [ [ [ [ [ [ [ [ [ [ [ [ [ [ [ [ D., E.. . . . . . . ",
(char *)". . . . . . . . F.' G.[ [ [ [ [ [ [ [ [ [ [ [ [ [ [ [ [ [ [ [ [ [ [ [ [ [ [ [ [ [ [ [ [ [ [ [ [ [ [ [ [ [ H.I.J.. . . . . . . . ",
(char *)". . . . . . . . K.L.M.j [ [ [ [ [ [ [ [ [ [ [ [ [ [ [ [ [ [ [ [ [ [ [ [ [ [ [ [ [ [ [ [ [ [ [ [ [ [ [ [ b N.O.P.. . . . . . . . ",
(char *)". . . . . . . . . Q.R.S.T.z.n [ [ [ [ [ [ [ [ [ [ [ [ [ [ [ [ [ [ [ [ [ [ [ [ [ [ [ [ [ [ [ [ [ [ U.V.W.X.Y.Z.. . . . . . . . . ",
(char *)". . . . . . . . . . `.F. +, w.o ! ! ! ! ! ! ! ! ! ! ! ! ! ! ! ! ! ! ! ! ! ! ! ! ! ! ! ! ! ! ! ! ) ' , , .+++. . . . . . . . . . ",
(char *)". . . . . . . . . . . . B.@+#+& % % % % % % % % % % % % % % % % % % % % % % % % % % % % % % % % & $+%+&+. . . . . . . . . . . . ",
(char *)". . . . . . . . . . . . . . . . . . . . . . . . . . . . . . . . . . . . . . . . . . . . . . . . . . . . . . . . . . . . . . . . ",
(char *)". . . . . . . . . . . . . . . . . . . . . . . . . . . . . . . . . . . . . . . . . . . . . . . . . . . . . . . . . . . . . . . . ",
(char *)". . . . . . . . . . . . . . . . . . . . . . . . . . . . . . . . . . . . . . . . . . . . . . . . . . . . . . . . . . . . . . . . ",
(char *)". . . . . . . . . . . . . . . . . . . . . . . . . . . . . . . . . . . . . . . . . . . . . . . . . . . . . . . . . . . . . . . . ",
(char *)". . . . . . . . . . . . . . . . . . . . . . . . . . . . . . . . . . . . . . . . . . . . . . . . . . . . . . . . . . . . . . . . ",
(char *)". . . . . . . . . . . . . . . . . . . . . . . . . . . . . . . . . . . . . . . . . . . . . . . . . . . . . . . . . . . . . . . . ",
(char *)". . . . . . . . . . . . . . . . . . . . . . . . . . . . . . . . . . . . . . . . . . . . . . . . . . . . . . . . . . . . . . . . "};
