/* XPM */
static char * xprt_stop_dim_048_xpm[] = {
(char *)"48 48 106 2",
(char *)"  	c None",
(char *)". 	c #C0C0C0",
(char *)"+ 	c #9D9DCB",
(char *)"@ 	c #7C7CD6",
(char *)"# 	c #6060E0",
(char *)"$ 	c #5454E4",
(char *)"% 	c #6060DF",
(char *)"& 	c #7F7FD5",
(char *)"* 	c #9F9FCB",
(char *)"= 	c #A7A7C8",
(char *)"- 	c #3636E6",
(char *)"; 	c #0303F7",
(char *)"> 	c #0909D2",
(char *)", 	c #0505A8",
(char *)"' 	c #000090",
(char *)") 	c #0505A7",
(char *)"! 	c #0A0AD2",
(char *)"~ 	c #0404F7",
(char *)"{ 	c #3333E8",
(char *)"] 	c #A9A9C8",
(char *)"^ 	c #0606F9",
(char *)"/ 	c #0404A5",
(char *)"( 	c #000016",
(char *)"_ 	c #000000",
(char *)": 	c #000014",
(char *)"< 	c #0404A6",
(char *)"[ 	c #3434E6",
(char *)"} 	c #0404A8",
(char *)"| 	c #9E9ECB",
(char *)"1 	c #0202FA",
(char *)"2 	c #000015",
(char *)"3 	c #7E7ED6",
(char *)"4 	c #0808D7",
(char *)"5 	c #0505AA",
(char *)"6 	c #050303",
(char *)"7 	c #1D1111",
(char *)"8 	c #211313",
(char *)"9 	c #251616",
(char *)"0 	c #291818",
(char *)"a 	c #2D1A1A",
(char *)"b 	c #311D1D",
(char *)"c 	c #351F1F",
(char *)"d 	c #362020",
(char *)"e 	c #341F1F",
(char *)"f 	c #301D1D",
(char *)"g 	c #2D1B1B",
(char *)"h 	c #221414",
(char *)"i 	c #110A0A",
(char *)"j 	c #090606",
(char *)"k 	c #392222",
(char *)"l 	c #412727",
(char *)"m 	c #492B2B",
(char *)"n 	c #513030",
(char *)"o 	c #593535",
(char *)"p 	c #613939",
(char *)"q 	c #693E3E",
(char *)"r 	c #6C4040",
(char *)"s 	c #683D3D",
(char *)"t 	c #523030",
(char *)"u 	c #4B2C2C",
(char *)"v 	c #432828",
(char *)"w 	c #211414",
(char *)"x 	c #201313",
(char *)"y 	c #080505",
(char *)"z 	c #372121",
(char *)"A 	c #3E2525",
(char *)"B 	c #442828",
(char *)"C 	c #583434",
(char *)"D 	c #5A3535",
(char *)"E 	c #553232",
(char *)"F 	c #4F2F2F",
(char *)"G 	c #3D2424",
(char *)"H 	c #1A0F0F",
(char *)"I 	c #6161DF",
(char *)"J 	c #0505A9",
(char *)"K 	c #8282D4",
(char *)"L 	c #0909D7",
(char *)"M 	c #0808D8",
(char *)"N 	c #A5A5C9",
(char *)"O 	c #0303FA",
(char *)"P 	c #00001C",
(char *)"Q 	c #000018",
(char *)"R 	c #A0A0CA",
(char *)"S 	c #3D3DE4",
(char *)"T 	c #0505B8",
(char *)"U 	c #0505AE",
(char *)"V 	c #3B3BE5",
(char *)"W 	c #AEAEC6",
(char *)"X 	c #0B0BF6",
(char *)"Y 	c #0606B1",
(char *)"Z 	c #00001B",
(char *)"` 	c #000019",
(char *)" .	c #0404AC",
(char *)"..	c #0909F6",
(char *)"+.	c #AFAFC5",
(char *)"@.	c #4040E5",
(char *)"#.	c #0303F9",
(char *)"$.	c #0A0AD4",
(char *)"%.	c #00008F",
(char *)"&.	c #0A0AD3",
(char *)"*.	c #0303F8",
(char *)"=.	c #3A3AE5",
(char *)"-.	c #ACACC7",
(char *)";.	c #A3A3C9",
(char *)">.	c #8080D5",
(char *)",.	c #A2A2CA",
(char *)". . . . . . . . . . . . . . . . . . . . . . . . . . . . . . . . . . . . . . . . . . . . . . . . ",
(char *)". . . . . . . . . . . . . . . . . . . . . . . . . . . . . . . . . . . . . . . . . . . . . . . . ",
(char *)". . . . . . . . . . . . . . . . . . . . . . . . . . . . . . . . . . . . . . . . . . . . . . . . ",
(char *)". . . . . . . . . . . . . . . . . . . . . . . . . . . . . . . . . . . . . . . . . . . . . . . . ",
(char *)". . . . . . . . . . . . . . . . . . . . . . . . . . . . . . . . . . . . . . . . . . . . . . . . ",
(char *)". . . . . . . . . + @ # $ $ $ $ $ $ $ $ $ $ $ $ $ $ $ $ $ $ $ $ $ $ $ $ % & * . . . . . . . . . ",
(char *)". . . . . . . = - ; > , ' ' ' ' ' ' ' ' ' ' ' ' ' ' ' ' ' ' ' ' ' ' ' ' ) ! ~ { = . . . . . . . ",
(char *)". . . . . . ] ^ / ( _ _ _ _ _ _ _ _ _ _ _ _ _ _ _ _ _ _ _ _ _ _ _ _ _ _ _ _ : < ^ = . . . . . . ",
(char *)". . . . . . [ } _ _ _ _ _ _ _ _ _ _ _ _ _ _ _ _ _ _ _ _ _ _ _ _ _ _ _ _ _ _ _ _ < { . . . . . . ",
(char *)". . . . . | 1 2 _ _ _ _ _ _ _ _ _ _ _ _ _ _ _ _ _ _ _ _ _ _ _ _ _ _ _ _ _ _ _ _ : ~ * . . . . . ",
(char *)". . . . . 3 4 _ _ _ _ _ _ _ _ _ _ _ _ _ _ _ _ _ _ _ _ _ _ _ _ _ _ _ _ _ _ _ _ _ _ ! & . . . . . ",
(char *)". . . . . % 5 _ _ _ _ 6 7 8 9 0 a b c d d d d d d d d d d d e f g 0 9 h i _ _ _ _ ) % . . . . . ",
(char *)". . . . . $ ' _ _ _ _ j k l m n o p q r r r r r r r r r r r s p o t u v w _ _ _ _ ' $ . . . . . ",
(char *)". . . . . $ ' _ _ _ _ j k l m n o p q r r r r r r r r r r r s p o t u v w _ _ _ _ ' $ . . . . . ",
(char *)". . . . . $ ' _ _ _ _ j k l m n o p q r r r r r r r r r r r s p o t u v w _ _ _ _ ' $ . . . . . ",
(char *)". . . . . $ ' _ _ _ _ j k l m n o p q r r r r r r r r r r r s p o t u v w _ _ _ _ ' $ . . . . . ",
(char *)". . . . . $ ' _ _ _ _ j k l m n o p q r r r r r r r r r r r s p o t u v w _ _ _ _ ' $ . . . . . ",
(char *)". . . . . $ ' _ _ _ _ j k l m n o p q r r r r r r r r r r r s p o t u v w _ _ _ _ ' $ . . . . . ",
(char *)". . . . . $ ' _ _ _ _ j k l m n o p q r r r r r r r r r r r s p o t u v w _ _ _ _ ' $ . . . . . ",
(char *)". . . . . $ ' _ _ _ _ j k l m n o p q r r r r r r r r r r r s p o t u v w _ _ _ _ ' $ . . . . . ",
(char *)". . . . . $ ' _ _ _ _ j k l m n o p q r r r r r r r r r r r s p o t u v w _ _ _ _ ' $ . . . . . ",
(char *)". . . . . $ ' _ _ _ _ j k l m n o p q r r r r r r r r r r r s p o t u v 8 _ _ _ _ ' $ . . . . . ",
(char *)". . . . . $ ' _ _ _ _ j k l m n o p q r r r r r r r r r r r s p o t u v 8 _ _ _ _ ' $ . . . . . ",
(char *)". . . . . $ ' _ _ _ _ j k l m n o p q r r r r r r r r r r r s p o t u v 8 _ _ _ _ ' $ . . . . . ",
(char *)". . . . . $ ' _ _ _ _ j k l m n o p q r r r r r r r r r r r s p o t u v 8 _ _ _ _ ' $ . . . . . ",
(char *)". . . . . $ ' _ _ _ _ j k l m n o p q r r r r r r r r r r r s p o t u v 8 _ _ _ _ ' $ . . . . . ",
(char *)". . . . . $ ' _ _ _ _ j k l m n o p q r r r r r r r r r r r s p o t u v 8 _ _ _ _ ' $ . . . . . ",
(char *)". . . . . $ ' _ _ _ _ j k l m n o p q r r r r r r r r r r r s p o t u v x _ _ _ _ ' $ . . . . . ",
(char *)". . . . . $ ' _ _ _ _ j k l m n o p q r r r r r r r r r r r s p o t u v x _ _ _ _ ' $ . . . . . ",
(char *)". . . . . $ ' _ _ _ _ j k l m n o p q r r r r r r r r r r r s p o t u v x _ _ _ _ ' $ . . . . . ",
(char *)". . . . . $ ' _ _ _ _ j k l m n o p q r r r r r r r r r r r s p o t u v x _ _ _ _ ' $ . . . . . ",
(char *)". . . . . $ ' _ _ _ _ j k l m n o p q r r r r r r r r r r r s p o t u v x _ _ _ _ ' $ . . . . . ",
(char *)". . . . . $ ' _ _ _ _ j k l m n o p q r r r r r r r r r r r s p o t u v x _ _ _ _ ' $ . . . . . ",
(char *)". . . . . $ ' _ _ _ _ j k l m n o p q r r r r r r r r r r r s p o t u v x _ _ _ _ ' $ . . . . . ",
(char *)". . . . . $ ' _ _ _ _ j k l m n o p q r r r r r r r r r r r s p o t u v x _ _ _ _ ' $ . . . . . ",
(char *)". . . . . $ ' _ _ _ _ y f z A B u n C D D D D D o o o o o o E F m v G z H _ _ _ _ ' $ . . . . . ",
(char *)". . . . . I J _ _ _ _ _ _ _ _ _ _ _ _ _ _ _ _ _ _ _ _ _ _ _ _ _ _ _ _ _ _ _ _ _ _ 5 % . . . . . ",
(char *)". . . . . K L _ _ _ _ _ _ _ _ _ _ _ _ _ _ _ _ _ _ _ _ _ _ _ _ _ _ _ _ _ _ _ _ _ _ M & . . . . . ",
(char *)". . . . . N O P _ _ _ _ _ _ _ _ _ _ _ _ _ _ _ _ _ _ _ _ _ _ _ _ _ _ _ _ _ _ _ _ Q 1 R . . . . . ",
(char *)". . . . . . S T _ _ _ _ _ _ _ _ _ _ _ _ _ _ _ _ _ _ _ _ _ _ _ _ _ _ _ _ _ _ _ _ U V . . . . . . ",
(char *)". . . . . . W X Y Z _ _ _ _ _ _ _ _ _ _ _ _ _ _ _ _ _ _ _ _ _ _ _ _ _ _ _ _ `  ...W . . . . . . ",
(char *)". . . . . . . +.@.#.$., ' ' ' ' ' ' ' ' ' ' ' ' ' ' ' ' ' ' ' ' ' ' ' %., &.*.=.-.. . . . . . . ",
(char *)". . . . . . . . . ;.>.I $ $ $ $ $ $ $ $ $ $ $ $ $ $ $ $ $ $ $ $ $ $ $ $ I >.,.. . . . . . . . . ",
(char *)". . . . . . . . . . . . . . . . . . . . . . . . . . . . . . . . . . . . . . . . . . . . . . . . ",
(char *)". . . . . . . . . . . . . . . . . . . . . . . . . . . . . . . . . . . . . . . . . . . . . . . . ",
(char *)". . . . . . . . . . . . . . . . . . . . . . . . . . . . . . . . . . . . . . . . . . . . . . . . ",
(char *)". . . . . . . . . . . . . . . . . . . . . . . . . . . . . . . . . . . . . . . . . . . . . . . . ",
(char *)". . . . . . . . . . . . . . . . . . . . . . . . . . . . . . . . . . . . . . . . . . . . . . . . "};
