/* XPM */
static char * xprt_start_bright_032_xpm[] = {
(char *)"32 32 94 2",
(char *)"  	c None",
(char *)". 	c #C0C0C0",
(char *)"+ 	c #A3A3C9",
(char *)"@ 	c #8585D4",
(char *)"# 	c #7878D8",
(char *)"$ 	c #8686D3",
(char *)"% 	c #A6A6C9",
(char *)"& 	c #AEAEC6",
(char *)"* 	c #2F2FDA",
(char *)"= 	c #1111B5",
(char *)"- 	c #08087C",
(char *)"; 	c #000060",
(char *)"> 	c #08087A",
(char *)", 	c #1010B5",
(char *)"' 	c #2D2DDB",
(char *)") 	c #AFAFC6",
(char *)"! 	c #2B2BDD",
(char *)"~ 	c #00003B",
(char *)"{ 	c #000000",
(char *)"] 	c #000041",
(char *)"^ 	c #A5A5C9",
(char *)"/ 	c #1212B4",
(char *)"( 	c #A2A2CA",
(char *)"_ 	c #000600",
(char *)": 	c #001000",
(char *)"< 	c #001100",
(char *)"[ 	c #008A00",
(char *)"} 	c #006B00",
(char *)"| 	c #002200",
(char *)"1 	c #008C00",
(char *)"2 	c #00A800",
(char *)"3 	c #00C300",
(char *)"4 	c #009E00",
(char *)"5 	c #003B00",
(char *)"6 	c #00C400",
(char *)"7 	c #00E100",
(char *)"8 	c #00FC00",
(char *)"9 	c #00C500",
(char *)"0 	c #004E00",
(char *)"a 	c #000100",
(char *)"b 	c #00FF00",
(char *)"c 	c #00D500",
(char *)"d 	c #005F00",
(char *)"e 	c #000500",
(char *)"f 	c #00E200",
(char *)"g 	c #007000",
(char *)"h 	c #000B00",
(char *)"i 	c #00ED00",
(char *)"j 	c #007B00",
(char *)"k 	c #00F100",
(char *)"l 	c #00CF00",
(char *)"m 	c #006D00",
(char *)"n 	c #001400",
(char *)"o 	c #00D700",
(char *)"p 	c #00BD00",
(char *)"q 	c #00A000",
(char *)"r 	c #005600",
(char *)"s 	c #000400",
(char *)"t 	c #000F00",
(char *)"u 	c #00B500",
(char *)"v 	c #005B00",
(char *)"w 	c #00DF00",
(char *)"x 	c #000D00",
(char *)"y 	c #000A00",
(char *)"z 	c #006000",
(char *)"A 	c #000E00",
(char *)"B 	c #00CA00",
(char *)"C 	c #005100",
(char *)"D 	c #00B900",
(char *)"E 	c #004200",
(char *)"F 	c #00A700",
(char *)"G 	c #008300",
(char *)"H 	c #002D00",
(char *)"I 	c #000C00",
(char *)"J 	c #001900",
(char *)"K 	c #08087F",
(char *)"L 	c #08087E",
(char *)"M 	c #A7A7C8",
(char *)"N 	c #1010BF",
(char *)"O 	c #1111B9",
(char *)"P 	c #A6A6C8",
(char *)"Q 	c #3232DA",
(char *)"R 	c #01014F",
(char *)"S 	c #010142",
(char *)"T 	c #3434D9",
(char *)"U 	c #B2B2C5",
(char *)"V 	c #3030DB",
(char *)"W 	c #1010BB",
(char *)"X 	c #08087B",
(char *)"Y 	c #1010B7",
(char *)"Z 	c #3131DA",
(char *)"` 	c #B1B1C5",
(char *)" .	c #A8A8C8",
(char *)"..	c #8787D3",
(char *)". . . . . . . . . . . . . . . . . . . . . . . . . . . . . . . . ",
(char *)". . . . . . . . . . . . . . . . . . . . . . . . . . . . . . . . ",
(char *)". . . . . . . . . . . . . . . . . . . . . . . . . . . . . . . . ",
(char *)". . . . . . + @ # # # # # # # # # # # # # # # # $ % . . . . . . ",
(char *)". . . . & * = - ; ; ; ; ; ; ; ; ; ; ; ; ; ; ; ; > , ' ) . . . . ",
(char *)". . . . ! ~ { { { { { { { { { { { { { { { { { { { { ] ' . . . . ",
(char *)". . . ^ / { { { { { { { { { { { { { { { { { { { { { { , ( . . . ",
(char *)". . . $ > { { _ : { { { { { { { { { { { { { { { { { { > @ . . . ",
(char *)". . . # ; { { < [ } | { { { { { { { { { { { { { { { { ; # . . . ",
(char *)". . . # ; { { < 1 2 3 4 5 { { { { { { { { { { { { { { ; # . . . ",
(char *)". . . # ; { { < 1 2 6 7 8 9 0 a { { { { { { { { { { { ; # . . . ",
(char *)". . . # ; { { < 1 2 6 7 8 b b c d e { { { { { { { { { ; # . . . ",
(char *)". . . # ; { { : 1 2 6 7 8 b b b b f g h { { { { { { { ; # . . . ",
(char *)". . . # ; { { : 1 2 6 7 8 b b b b b b i j < { { { { { ; # . . . ",
(char *)". . . # ; { { : 1 2 6 7 8 b b b b b b b k l m n { { { ; # . . . ",
(char *)". . . # ; { { : 1 2 6 7 8 b b b b b b b k o p q r s { ; # . . . ",
(char *)". . . # ; { { t 1 2 6 7 8 b b b b b b b k o u v t { { ; # . . . ",
(char *)". . . # ; { { t 1 2 6 7 8 b b b b b b b w } x { { { { ; # . . . ",
(char *)". . . # ; { { t 1 2 6 7 8 b b b b b f g y { { { { { { ; # . . . ",
(char *)". . . # ; { { t 1 2 6 7 8 b b b o z e { { { { { { { { ; # . . . ",
(char *)". . . # ; { { A 1 2 6 7 8 b B C a { { { { { { { { { { ; # . . . ",
(char *)". . . # ; { { A 1 2 6 7 D E { { { { { { { { { { { { { ; # . . . ",
(char *)". . . # ; { { A 1 F G H { { { { { { { { { { { { { { { ; # . . . ",
(char *)". . . # ; { { I r J { { { { { { { { { { { { { { { { { ; # . . . ",
(char *)". . . $ K { { { { { { { { { { { { { { { { { { { { { { L $ . . . ",
(char *)". . . M N { { { { { { { { { { { { { { { { { { { { { { O P . . . ",
(char *)". . . . Q R { { { { { { { { { { { { { { { { { { { { S T . . . . ",
(char *)". . . . U V W X ; ; ; ; ; ; ; ; ; ; ; ; ; ; ; ; X Y Z ` . . . . ",
(char *)". . . . . .  ...# # # # # # # # # # # # # # # # @ + . . . . . . ",
(char *)". . . . . . . . . . . . . . . . . . . . . . . . . . . . . . . . ",
(char *)". . . . . . . . . . . . . . . . . . . . . . . . . . . . . . . . ",
(char *)". . . . . . . . . . . . . . . . . . . . . . . . . . . . . . . . "};
