/* XPM */
static char * xprt_stop_bright_064_xpm[] = {
(char *)"64 64 154 2",
(char *)"  	c None",
(char *)". 	c #C0C0C0",
(char *)"+ 	c #9797CD",
(char *)"@ 	c #7474D9",
(char *)"# 	c #5757E2",
(char *)"$ 	c #3B3BEC",
(char *)"% 	c #2F2FEF",
(char *)"& 	c #3B3BEB",
(char *)"* 	c #5959E2",
(char *)"= 	c #7676D8",
(char *)"- 	c #9898CD",
(char *)"; 	c #A7A7C8",
(char *)"> 	c #3A3AEB",
(char *)", 	c #0000FF",
(char *)"' 	c #0101FA",
(char *)") 	c #0202D9",
(char *)"! 	c #0000C0",
(char *)"~ 	c #0202D8",
(char *)"{ 	c #0101F9",
(char *)"] 	c #3636EC",
(char *)"^ 	c #7878D8",
(char *)"/ 	c #0505FB",
(char *)"( 	c #0202F4",
(char *)"_ 	c #000073",
(char *)": 	c #000020",
(char *)"< 	c #000002",
(char *)"[ 	c #000000",
(char *)"} 	c #00006E",
(char *)"| 	c #0202F2",
(char *)"1 	c #0606FB",
(char *)"2 	c #A9A9C8",
(char *)"3 	c #0606FA",
(char *)"4 	c #0000C1",
(char *)"5 	c #00001A",
(char *)"6 	c #000017",
(char *)"7 	c #0101BC",
(char *)"8 	c #0505FC",
(char *)"9 	c #A6A6C8",
(char *)"0 	c #3838EB",
(char *)"a 	c #0202F5",
(char *)"b 	c #00001E",
(char *)"c 	c #0202F3",
(char *)"d 	c #3737EC",
(char *)"e 	c #9B9BCC",
(char *)"f 	c #000074",
(char *)"g 	c #00006F",
(char *)"h 	c #9A9ACD",
(char *)"i 	c #7A7AD7",
(char *)"j 	c #000025",
(char *)"k 	c #7777D8",
(char *)"l 	c #5B5BE1",
(char *)"m 	c #0101FB",
(char *)"n 	c #000004",
(char *)"o 	c #0202DA",
(char *)"p 	c #140000",
(char *)"q 	c #580000",
(char *)"r 	c #610000",
(char *)"s 	c #6A0000",
(char *)"t 	c #730000",
(char *)"u 	c #7D0000",
(char *)"v 	c #860000",
(char *)"w 	c #8F0000",
(char *)"x 	c #990000",
(char *)"y 	c #A20000",
(char *)"z 	c #A80000",
(char *)"A 	c #A30000",
(char *)"B 	c #9B0000",
(char *)"C 	c #920000",
(char *)"D 	c #890000",
(char *)"E 	c #800000",
(char *)"F 	c #790000",
(char *)"G 	c #700000",
(char *)"H 	c #670000",
(char *)"I 	c #470000",
(char *)"J 	c #1E0000",
(char *)"K 	c #850000",
(char *)"L 	c #930000",
(char *)"M 	c #A10000",
(char *)"N 	c #AF0000",
(char *)"O 	c #BE0000",
(char *)"P 	c #CB0000",
(char *)"Q 	c #D90000",
(char *)"R 	c #E80000",
(char *)"S 	c #F60000",
(char *)"T 	c #FF0000",
(char *)"U 	c #F70000",
(char *)"V 	c #EB0000",
(char *)"W 	c #DE0000",
(char *)"X 	c #D00000",
(char *)"Y 	c #C30000",
(char *)"Z 	c #B70000",
(char *)"` 	c #AA0000",
(char *)" .	c #9D0000",
(char *)"..	c #6C0000",
(char *)"+.	c #6B0000",
(char *)"@.	c #690000",
(char *)"#.	c #680000",
(char *)"$.	c #170000",
(char *)"%.	c #7E0000",
(char *)"&.	c #940000",
(char *)"*.	c #9E0000",
(char *)"=.	c #B40000",
(char *)"-.	c #C50000",
(char *)";.	c #C40000",
(char *)">.	c #C20000",
(char *)",.	c #BB0000",
(char *)"'.	c #B20000",
(char *)").	c #8A0000",
(char *)"!.	c #760000",
(char *)"~.	c #4E0000",
(char *)"{.	c #3C3CEB",
(char *)"].	c #0202DB",
(char *)"^.	c #5C5CE1",
(char *)"/.	c #0101FD",
(char *)"(.	c #000006",
(char *)"_.	c #0101FC",
(char *)":.	c #7B7BD6",
(char *)"<.	c #00002C",
(char *)"[.	c #000027",
(char *)"}.	c #7B7BD7",
(char *)"|.	c #A0A0CA",
(char *)"1.	c #000081",
(char *)"2.	c #00007C",
(char *)"3.	c #9D9DCB",
(char *)"4.	c #4848E7",
(char *)"5.	c #000028",
(char *)"6.	c #000022",
(char *)"7.	c #0202F8",
(char *)"8.	c #3E3EEA",
(char *)"9.	c #B2B2C4",
(char *)"0.	c #0E0EF7",
(char *)"a.	c #0202D0",
(char *)"b.	c #0101C6",
(char *)"c.	c #0909F9",
(char *)"d.	c #ADADC6",
(char *)"e.	c #8888D2",
(char *)"f.	c #0B0BF9",
(char *)"g.	c #0202F9",
(char *)"h.	c #00007D",
(char *)"i.	c #000003",
(char *)"j.	c #000021",
(char *)"k.	c #000078",
(char *)"l.	c #0202F7",
(char *)"m.	c #0808FA",
(char *)"n.	c #8181D5",
(char *)"o.	c #B0B0C5",
(char *)"p.	c #0000FE",
(char *)"q.	c #4040EA",
(char *)"r.	c #ACACC6",
(char *)"s.	c #7979D7",
(char *)"t.	c #5A5AE1",
(char *)"u.	c #5A5AE2",
(char *)"v.	c #7878D7",
(char *)"w.	c #9D9DCC",
(char *)". . . . . . . . . . . . . . . . . . . . . . . . . . . . . . . . . . . . . . . . . . . . . . . . . . . . . . . . . . . . . . . . ",
(char *)". . . . . . . . . . . . . . . . . . . . . . . . . . . . . . . . . . . . . . . . . . . . . . . . . . . . . . . . . . . . . . . . ",
(char *)". . . . . . . . . . . . . . . . . . . . . . . . . . . . . . . . . . . . . . . . . . . . . . . . . . . . . . . . . . . . . . . . ",
(char *)". . . . . . . . . . . . . . . . . . . . . . . . . . . . . . . . . . . . . . . . . . . . . . . . . . . . . . . . . . . . . . . . ",
(char *)". . . . . . . . . . . . . . . . . . . . . . . . . . . . . . . . . . . . . . . . . . . . . . . . . . . . . . . . . . . . . . . . ",
(char *)". . . . . . . . . . . . . . . . . . . . . . . . . . . . . . . . . . . . . . . . . . . . . . . . . . . . . . . . . . . . . . . . ",
(char *)". . . . . . . . . . . . . . . . . . . . . . . . . . . . . . . . . . . . . . . . . . . . . . . . . . . . . . . . . . . . . . . . ",
(char *)". . . . . . . . . . . . + @ # $ % % % % % % % % % % % % % % % % % % % % % % % % % % % % % % % % & * = - . . . . . . . . . . . . ",
(char *)". . . . . . . . . . ; > , , ' ) ! ! ! ! ! ! ! ! ! ! ! ! ! ! ! ! ! ! ! ! ! ! ! ! ! ! ! ! ! ! ! ! ~ { , , ] ; . . . . . . . . . . ",
(char *)". . . . . . . . . ^ / ( _ : < [ [ [ [ [ [ [ [ [ [ [ [ [ [ [ [ [ [ [ [ [ [ [ [ [ [ [ [ [ [ [ [ [ [ < : } | 1 = . . . . . . . . . ",
(char *)". . . . . . . . 2 3 4 5 [ [ [ [ [ [ [ [ [ [ [ [ [ [ [ [ [ [ [ [ [ [ [ [ [ [ [ [ [ [ [ [ [ [ [ [ [ [ [ [ 6 7 8 9 . . . . . . . . ",
(char *)". . . . . . . . 0 a b [ [ [ [ [ [ [ [ [ [ [ [ [ [ [ [ [ [ [ [ [ [ [ [ [ [ [ [ [ [ [ [ [ [ [ [ [ [ [ [ [ [ 5 c d . . . . . . . . ",
(char *)". . . . . . . e , f [ [ [ [ [ [ [ [ [ [ [ [ [ [ [ [ [ [ [ [ [ [ [ [ [ [ [ [ [ [ [ [ [ [ [ [ [ [ [ [ [ [ [ [ g , h . . . . . . . ",
(char *)". . . . . . . i , j [ [ [ [ [ [ [ [ [ [ [ [ [ [ [ [ [ [ [ [ [ [ [ [ [ [ [ [ [ [ [ [ [ [ [ [ [ [ [ [ [ [ [ [ : , k . . . . . . . ",
(char *)". . . . . . . l m n [ [ [ [ [ [ [ [ [ [ [ [ [ [ [ [ [ [ [ [ [ [ [ [ [ [ [ [ [ [ [ [ [ [ [ [ [ [ [ [ [ [ [ [ < { * . . . . . . . ",
(char *)". . . . . . . & o [ [ [ [ [ [ p q r s t u v w x y z z z z z z z z z z z z z z z A B C D E F G H I [ [ [ [ [ [ ~ & . . . . . . . ",
(char *)". . . . . . . % ! [ [ [ [ [ [ J K L M N O P Q R S T T T T T T T T T T T T T T T U V W X Y Z `  ...[ [ [ [ [ [ ! % . . . . . . . ",
(char *)". . . . . . . % ! [ [ [ [ [ [ J K L M N O P Q R S T T T T T T T T T T T T T T T U V W X Y Z `  ...[ [ [ [ [ [ ! % . . . . . . . ",
(char *)". . . . . . . % ! [ [ [ [ [ [ J K L M N O P Q R S T T T T T T T T T T T T T T T U V W X Y Z `  ...[ [ [ [ [ [ ! % . . . . . . . ",
(char *)". . . . . . . % ! [ [ [ [ [ [ J K L M N O P Q R S T T T T T T T T T T T T T T T U V W X Y Z `  .+.[ [ [ [ [ [ ! % . . . . . . . ",
(char *)". . . . . . . % ! [ [ [ [ [ [ J K L M N O P Q R S T T T T T T T T T T T T T T T U V W X Y Z `  .+.[ [ [ [ [ [ ! % . . . . . . . ",
(char *)". . . . . . . % ! [ [ [ [ [ [ J K L M N O P Q R S T T T T T T T T T T T T T T T U V W X Y Z `  .+.[ [ [ [ [ [ ! % . . . . . . . ",
(char *)". . . . . . . % ! [ [ [ [ [ [ J K L M N O P Q R S T T T T T T T T T T T T T T T U V W X Y Z `  .+.[ [ [ [ [ [ ! % . . . . . . . ",
(char *)". . . . . . . % ! [ [ [ [ [ [ J K L M N O P Q R S T T T T T T T T T T T T T T T U V W X Y Z `  .+.[ [ [ [ [ [ ! % . . . . . . . ",
(char *)". . . . . . . % ! [ [ [ [ [ [ J K L M N O P Q R S T T T T T T T T T T T T T T T U V W X Y Z `  .+.[ [ [ [ [ [ ! % . . . . . . . ",
(char *)". . . . . . . % ! [ [ [ [ [ [ J K L M N O P Q R S T T T T T T T T T T T T T T T U V W X Y Z `  .+.[ [ [ [ [ [ ! % . . . . . . . ",
(char *)". . . . . . . % ! [ [ [ [ [ [ J K L M N O P Q R S T T T T T T T T T T T T T T T U V W X Y Z `  .+.[ [ [ [ [ [ ! % . . . . . . . ",
(char *)". . . . . . . % ! [ [ [ [ [ [ J K L M N O P Q R S T T T T T T T T T T T T T T T U V W X Y Z `  .s [ [ [ [ [ [ ! % . . . . . . . ",
(char *)". . . . . . . % ! [ [ [ [ [ [ J K L M N O P Q R S T T T T T T T T T T T T T T T U V W X Y Z `  .s [ [ [ [ [ [ ! % . . . . . . . ",
(char *)". . . . . . . % ! [ [ [ [ [ [ J K L M N O P Q R S T T T T T T T T T T T T T T T U V W X Y Z `  .s [ [ [ [ [ [ ! % . . . . . . . ",
(char *)". . . . . . . % ! [ [ [ [ [ [ J K L M N O P Q R S T T T T T T T T T T T T T T T U V W X Y Z `  .s [ [ [ [ [ [ ! % . . . . . . . ",
(char *)". . . . . . . % ! [ [ [ [ [ [ J K L M N O P Q R S T T T T T T T T T T T T T T T U V W X Y Z `  .s [ [ [ [ [ [ ! % . . . . . . . ",
(char *)". . . . . . . % ! [ [ [ [ [ [ J K L M N O P Q R S T T T T T T T T T T T T T T T U V W X Y Z `  .s [ [ [ [ [ [ ! % . . . . . . . ",
(char *)". . . . . . . % ! [ [ [ [ [ [ J K L M N O P Q R S T T T T T T T T T T T T T T T U V W X Y Z `  .s [ [ [ [ [ [ ! % . . . . . . . ",
(char *)". . . . . . . % ! [ [ [ [ [ [ J K L M N O P Q R S T T T T T T T T T T T T T T T U V W X Y Z `  .s [ [ [ [ [ [ ! % . . . . . . . ",
(char *)". . . . . . . % ! [ [ [ [ [ [ J K L M N O P Q R S T T T T T T T T T T T T T T T U V W X Y Z `  .s [ [ [ [ [ [ ! % . . . . . . . ",
(char *)". . . . . . . % ! [ [ [ [ [ [ J K L M N O P Q R S T T T T T T T T T T T T T T T U V W X Y Z `  .@.[ [ [ [ [ [ ! % . . . . . . . ",
(char *)". . . . . . . % ! [ [ [ [ [ [ J K L M N O P Q R S T T T T T T T T T T T T T T T U V W X Y Z `  .@.[ [ [ [ [ [ ! % . . . . . . . ",
(char *)". . . . . . . % ! [ [ [ [ [ [ J K L M N O P Q R S T T T T T T T T T T T T T T T U V W X Y Z `  .@.[ [ [ [ [ [ ! % . . . . . . . ",
(char *)". . . . . . . % ! [ [ [ [ [ [ J K L M N O P Q R S T T T T T T T T T T T T T T T U V W X Y Z `  .@.[ [ [ [ [ [ ! % . . . . . . . ",
(char *)". . . . . . . % ! [ [ [ [ [ [ J K L M N O P Q R S T T T T T T T T T T T T T T T U V W X Y Z `  .#.[ [ [ [ [ [ ! % . . . . . . . ",
(char *)". . . . . . . % ! [ [ [ [ [ [ J K L M N O P Q R S T T T T T T T T T T T T T T T U V W X Y Z `  .#.[ [ [ [ [ [ ! % . . . . . . . ",
(char *)". . . . . . . % ! [ [ [ [ [ [ J K L M N O P Q R S T T T T T T T T T T T T T T T U V W X Y Z `  .#.[ [ [ [ [ [ ! % . . . . . . . ",
(char *)". . . . . . . % ! [ [ [ [ [ [ J K L M N O P Q R S T T T T T T T T T T T T T T T U V W X Y Z `  .#.[ [ [ [ [ [ ! % . . . . . . . ",
(char *)". . . . . . . % ! [ [ [ [ [ [ J K L M N O P Q R S T T T T T T T T T T T T T T T U V W X Y Z `  .#.[ [ [ [ [ [ ! % . . . . . . . ",
(char *)". . . . . . . % ! [ [ [ [ [ [ J K L M N O P Q R S T T T T T T T T T T T T T T T U V W X Y Z `  .#.[ [ [ [ [ [ ! % . . . . . . . ",
(char *)". . . . . . . % ! [ [ [ [ [ [ J K L M N O P Q R S T T T T T T T T T T T T T T T U V W X Y Z `  .#.[ [ [ [ [ [ ! % . . . . . . . ",
(char *)". . . . . . . % ! [ [ [ [ [ [ $.#.t %.D &.*.z =.O -.-.-.;.;.;.;.Y Y Y Y >.>.>.>.,.'.z  .&.).E !.~.[ [ [ [ [ [ ! % . . . . . . . ",
(char *)". . . . . . . {.].[ [ [ [ [ [ [ [ [ [ [ [ [ [ [ [ [ [ [ [ [ [ [ [ [ [ [ [ [ [ [ [ [ [ [ [ [ [ [ [ [ [ [ [ [ [ o {.. . . . . . . ",
(char *)". . . . . . . ^./.(.[ [ [ [ [ [ [ [ [ [ [ [ [ [ [ [ [ [ [ [ [ [ [ [ [ [ [ [ [ [ [ [ [ [ [ [ [ [ [ [ [ [ [ [ n _.l . . . . . . . ",
(char *)". . . . . . . :., <.[ [ [ [ [ [ [ [ [ [ [ [ [ [ [ [ [ [ [ [ [ [ [ [ [ [ [ [ [ [ [ [ [ [ [ [ [ [ [ [ [ [ [ [ [., }.. . . . . . . ",
(char *)". . . . . . . |., 1.[ [ [ [ [ [ [ [ [ [ [ [ [ [ [ [ [ [ [ [ [ [ [ [ [ [ [ [ [ [ [ [ [ [ [ [ [ [ [ [ [ [ [ [ 2., 3.. . . . . . . ",
(char *)". . . . . . . . 4.' 5.[ [ [ [ [ [ [ [ [ [ [ [ [ [ [ [ [ [ [ [ [ [ [ [ [ [ [ [ [ [ [ [ [ [ [ [ [ [ [ [ [ [ 6.7.8.. . . . . . . . ",
(char *)". . . . . . . . 9.0.a.j [ [ [ [ [ [ [ [ [ [ [ [ [ [ [ [ [ [ [ [ [ [ [ [ [ [ [ [ [ [ [ [ [ [ [ [ [ [ [ [ b b.c.d.. . . . . . . . ",
(char *)". . . . . . . . . e.f.g.h.[.n [ [ [ [ [ [ [ [ [ [ [ [ [ [ [ [ [ [ [ [ [ [ [ [ [ [ [ [ [ [ [ [ [ [ i.j.k.l.m.n.. . . . . . . . . ",
(char *)". . . . . . . . . . o.4.p., _.o ! ! ! ! ! ! ! ! ! ! ! ! ! ! ! ! ! ! ! ! ! ! ! ! ! ! ! ! ! ! ! ! ) ' , , q.r.. . . . . . . . . . ",
(char *)". . . . . . . . . . . . |.s.t.& % % % % % % % % % % % % % % % % % % % % % % % % % % % % % % % % & u.v.w.. . . . . . . . . . . . ",
(char *)". . . . . . . . . . . . . . . . . . . . . . . . . . . . . . . . . . . . . . . . . . . . . . . . . . . . . . . . . . . . . . . . ",
(char *)". . . . . . . . . . . . . . . . . . . . . . . . . . . . . . . . . . . . . . . . . . . . . . . . . . . . . . . . . . . . . . . . ",
(char *)". . . . . . . . . . . . . . . . . . . . . . . . . . . . . . . . . . . . . . . . . . . . . . . . . . . . . . . . . . . . . . . . ",
(char *)". . . . . . . . . . . . . . . . . . . . . . . . . . . . . . . . . . . . . . . . . . . . . . . . . . . . . . . . . . . . . . . . ",
(char *)". . . . . . . . . . . . . . . . . . . . . . . . . . . . . . . . . . . . . . . . . . . . . . . . . . . . . . . . . . . . . . . . ",
(char *)". . . . . . . . . . . . . . . . . . . . . . . . . . . . . . . . . . . . . . . . . . . . . . . . . . . . . . . . . . . . . . . . ",
(char *)". . . . . . . . . . . . . . . . . . . . . . . . . . . . . . . . . . . . . . . . . . . . . . . . . . . . . . . . . . . . . . . . "};
