/* XPM */
static char * xprt_start_dim_016_xpm[] = {
(char *)"16 16 47 1",
(char *)" 	c None",
(char *)".	c #C0C0C0",
(char *)"+	c #B4B4C4",
(char *)"@	c #9C9CCC",
(char *)"#	c #B5B5C4",
(char *)"$	c #5050B4",
(char *)"%	c #15156E",
(char *)"&	c #000030",
(char *)"*	c #17176C",
(char *)"=	c #5353B2",
(char *)"-	c #000000",
(char *)";	c #010101",
(char *)">	c #151569",
(char *)",	c #020402",
(char *)"'	c #233A23",
(char *)")	c #182818",
(char *)"!	c #030603",
(char *)"~	c #274127",
(char *)"{	c #355935",
(char *)"]	c #3C663C",
(char *)"^	c #223A22",
(char *)"/	c #060B06",
(char *)"(	c #020302",
(char *)"_	c #406C40",
(char *)":	c #3E693E",
(char *)"<	c #274227",
(char *)"[	c #090F09",
(char *)"}	c #396039",
(char *)"|	c #1E331E",
(char *)"1	c #050905",
(char *)"2	c #305230",
(char *)"3	c #111D11",
(char *)"4	c #335633",
(char *)"5	c #152315",
(char *)"6	c #000100",
(char *)"7	c #2F4F2F",
(char *)"8	c #111C11",
(char *)"9	c #010201",
(char *)"0	c #1A2C1A",
(char *)"a	c #0B120B",
(char *)"b	c #B5B5C3",
(char *)"c	c #171770",
(char *)"d	c #161671",
(char *)"e	c #5656B3",
(char *)"f	c #17176F",
(char *)"g	c #15156D",
(char *)"h	c #5151B4",
(char *)"................",
(char *)"...+@@@@@@@@#...",
(char *)"..$%&&&&&&&&*=..",
(char *)".#*-;-------->#.",
(char *)".@&,')!------&@.",
(char *)".@&,~{]^/----&@.",
(char *)".@&(~{__:<[--&@.",
(char *)".@&(~{____}|1&@.",
(char *)".@&(~{____23;&@.",
(char *)".@&(~{__456--&@.",
(char *)".@&(~{78-----&@.",
(char *)".@&90a-------&@.",
(char *)".bc----------d#.",
(char *)"..ef&&&&&&&&gh..",
(char *)"...#@@@@@@@@#...",
(char *)"................"};
