/* XPM */
static char * xprt_stop_dim_032_xpm[] = {
(char *)"32 32 79 1",
(char *)" 	c None",
(char *)".	c #C0C0C0",
(char *)"+	c #A3A3C9",
(char *)"@	c #8585D4",
(char *)"#	c #7878D8",
(char *)"$	c #8686D3",
(char *)"%	c #A6A6C9",
(char *)"&	c #AEAEC6",
(char *)"*	c #2F2FDA",
(char *)"=	c #1111B5",
(char *)"-	c #08087C",
(char *)";	c #000060",
(char *)">	c #08087A",
(char *)",	c #1010B5",
(char *)"'	c #2D2DDB",
(char *)")	c #AFAFC6",
(char *)"!	c #2B2BDD",
(char *)"~	c #00003B",
(char *)"{	c #000000",
(char *)"]	c #000041",
(char *)"^	c #A5A5C9",
(char *)"/	c #1212B4",
(char *)"(	c #A2A2CA",
(char *)"_	c #020101",
(char *)":	c #140C0C",
(char *)"<	c #190F0F",
(char *)"[	c #1D1111",
(char *)"}	c #211313",
(char *)"|	c #251616",
(char *)"1	c #231515",
(char *)"2	c #1F1313",
(char *)"3	c #1C1010",
(char *)"4	c #180E0E",
(char *)"5	c #070404",
(char *)"6	c #060404",
(char *)"7	c #3B2323",
(char *)"8	c #472A2A",
(char *)"9	c #533131",
(char *)"0	c #5F3838",
(char *)"a	c #6B3F3F",
(char *)"b	c #6C4040",
(char *)"c	c #663C3C",
(char *)"d	c #5B3636",
(char *)"e	c #502F2F",
(char *)"f	c #452929",
(char *)"g	c #160D0D",
(char *)"h	c #150D0D",
(char *)"i	c #150C0C",
(char *)"j	c #050303",
(char *)"k	c #362020",
(char *)"l	c #402626",
(char *)"m	c #4B2C2C",
(char *)"n	c #563333",
(char *)"o	c #603939",
(char *)"p	c #613939",
(char *)"q	c #5A3535",
(char *)"r	c #503030",
(char *)"s	c #462A2A",
(char *)"t	c #3D2424",
(char *)"u	c #120A0A",
(char *)"v	c #08087F",
(char *)"w	c #08087E",
(char *)"x	c #A7A7C8",
(char *)"y	c #1010BF",
(char *)"z	c #1111B9",
(char *)"A	c #A6A6C8",
(char *)"B	c #3232DA",
(char *)"C	c #01014F",
(char *)"D	c #010142",
(char *)"E	c #3434D9",
(char *)"F	c #B2B2C5",
(char *)"G	c #3030DB",
(char *)"H	c #1010BB",
(char *)"I	c #08087B",
(char *)"J	c #1010B7",
(char *)"K	c #3131DA",
(char *)"L	c #B1B1C5",
(char *)"M	c #A8A8C8",
(char *)"N	c #8787D3",
(char *)"................................",
(char *)"................................",
(char *)"................................",
(char *)"......+@################$%......",
(char *)"....&*=-;;;;;;;;;;;;;;;;>,')....",
(char *)"....!~{{{{{{{{{{{{{{{{{{{{]'....",
(char *)"...^/{{{{{{{{{{{{{{{{{{{{{{,(...",
(char *)"...$>{{_:<[}||||||||12345{{>@...",
(char *)"...#;{{67890abbbbbbbcdefg{{;#...",
(char *)"...#;{{67890abbbbbbbcdefg{{;#...",
(char *)"...#;{{67890abbbbbbbcdefg{{;#...",
(char *)"...#;{{67890abbbbbbbcdefg{{;#...",
(char *)"...#;{{67890abbbbbbbcdefh{{;#...",
(char *)"...#;{{67890abbbbbbbcdefh{{;#...",
(char *)"...#;{{67890abbbbbbbcdefi{{;#...",
(char *)"...#;{{67890abbbbbbbcdefi{{;#...",
(char *)"...#;{{67890abbbbbbbcdefi{{;#...",
(char *)"...#;{{67890abbbbbbbcdefi{{;#...",
(char *)"...#;{{67890abbbbbbbcdefi{{;#...",
(char *)"...#;{{67890abbbbbbbcdefi{{;#...",
(char *)"...#;{{67890abbbbbbbcdef:{{;#...",
(char *)"...#;{{67890abbbbbbbcdef:{{;#...",
(char *)"...#;{{67890abbbbbbbcdef:{{;#...",
(char *)"...#;{{jklmnopppooooqrstu{{;#...",
(char *)"...$v{{{{{{{{{{{{{{{{{{{{{{w$...",
(char *)"...xy{{{{{{{{{{{{{{{{{{{{{{zA...",
(char *)"....BC{{{{{{{{{{{{{{{{{{{{DE....",
(char *)"....FGHI;;;;;;;;;;;;;;;;IJKL....",
(char *)"......MN################@+......",
(char *)"................................",
(char *)"................................",
(char *)"................................"};
