/* XPM */
static char * xprt_stop_bright_048_xpm[] = {
(char *)"48 48 114 2",
(char *)"  	c None",
(char *)". 	c #C0C0C0",
(char *)"+ 	c #9D9DCB",
(char *)"@ 	c #7C7CD6",
(char *)"# 	c #6060E0",
(char *)"$ 	c #5454E4",
(char *)"% 	c #6060DF",
(char *)"& 	c #7F7FD5",
(char *)"* 	c #9F9FCB",
(char *)"= 	c #A7A7C8",
(char *)"- 	c #3636E6",
(char *)"; 	c #0303F7",
(char *)"> 	c #0909D2",
(char *)", 	c #0505A8",
(char *)"' 	c #000090",
(char *)") 	c #0505A7",
(char *)"! 	c #0A0AD2",
(char *)"~ 	c #0404F7",
(char *)"{ 	c #3333E8",
(char *)"] 	c #A9A9C8",
(char *)"^ 	c #0606F9",
(char *)"/ 	c #0404A5",
(char *)"( 	c #000016",
(char *)"_ 	c #000000",
(char *)": 	c #000014",
(char *)"< 	c #0404A6",
(char *)"[ 	c #3434E6",
(char *)"} 	c #0404A8",
(char *)"| 	c #9E9ECB",
(char *)"1 	c #0202FA",
(char *)"2 	c #000015",
(char *)"3 	c #7E7ED6",
(char *)"4 	c #0808D7",
(char *)"5 	c #0505AA",
(char *)"6 	c #0B0000",
(char *)"7 	c #440000",
(char *)"8 	c #4D0000",
(char *)"9 	c #570000",
(char *)"0 	c #600000",
(char *)"a 	c #690000",
(char *)"b 	c #730000",
(char *)"c 	c #7C0000",
(char *)"d 	c #800000",
(char *)"e 	c #7B0000",
(char *)"f 	c #720000",
(char *)"g 	c #6A0000",
(char *)"h 	c #610000",
(char *)"i 	c #580000",
(char *)"j 	c #500000",
(char *)"k 	c #270000",
(char *)"l 	c #160000",
(char *)"m 	c #870000",
(char *)"n 	c #9A0000",
(char *)"o 	c #AD0000",
(char *)"p 	c #C00000",
(char *)"q 	c #D20000",
(char *)"r 	c #E50000",
(char *)"s 	c #F80000",
(char *)"t 	c #FF0000",
(char *)"u 	c #F50000",
(char *)"v 	c #E40000",
(char *)"w 	c #D30000",
(char *)"x 	c #C10000",
(char *)"y 	c #B00000",
(char *)"z 	c #9F0000",
(char *)"A 	c #4F0000",
(char *)"B 	c #4E0000",
(char *)"C 	c #4C0000",
(char *)"D 	c #4B0000",
(char *)"E 	c #120000",
(char *)"F 	c #820000",
(char *)"G 	c #920000",
(char *)"H 	c #A10000",
(char *)"I 	c #CF0000",
(char *)"J 	c #D50000",
(char *)"K 	c #D40000",
(char *)"L 	c #C90000",
(char *)"M 	c #BB0000",
(char *)"N 	c #9D0000",
(char *)"O 	c #900000",
(char *)"P 	c #3D0000",
(char *)"Q 	c #6161DF",
(char *)"R 	c #0505A9",
(char *)"S 	c #8282D4",
(char *)"T 	c #0909D7",
(char *)"U 	c #0808D8",
(char *)"V 	c #A5A5C9",
(char *)"W 	c #0303FA",
(char *)"X 	c #00001C",
(char *)"Y 	c #000018",
(char *)"Z 	c #A0A0CA",
(char *)"` 	c #3D3DE4",
(char *)" .	c #0505B8",
(char *)"..	c #0505AE",
(char *)"+.	c #3B3BE5",
(char *)"@.	c #AEAEC6",
(char *)"#.	c #0B0BF6",
(char *)"$.	c #0606B1",
(char *)"%.	c #00001B",
(char *)"&.	c #000019",
(char *)"*.	c #0404AC",
(char *)"=.	c #0909F6",
(char *)"-.	c #AFAFC5",
(char *)";.	c #4040E5",
(char *)">.	c #0303F9",
(char *)",.	c #0A0AD4",
(char *)"'.	c #00008F",
(char *)").	c #0A0AD3",
(char *)"!.	c #0303F8",
(char *)"~.	c #3A3AE5",
(char *)"{.	c #ACACC7",
(char *)"].	c #A3A3C9",
(char *)"^.	c #8080D5",
(char *)"/.	c #A2A2CA",
(char *)". . . . . . . . . . . . . . . . . . . . . . . . . . . . . . . . . . . . . . . . . . . . . . . . ",
(char *)". . . . . . . . . . . . . . . . . . . . . . . . . . . . . . . . . . . . . . . . . . . . . . . . ",
(char *)". . . . . . . . . . . . . . . . . . . . . . . . . . . . . . . . . . . . . . . . . . . . . . . . ",
(char *)". . . . . . . . . . . . . . . . . . . . . . . . . . . . . . . . . . . . . . . . . . . . . . . . ",
(char *)". . . . . . . . . . . . . . . . . . . . . . . . . . . . . . . . . . . . . . . . . . . . . . . . ",
(char *)". . . . . . . . . + @ # $ $ $ $ $ $ $ $ $ $ $ $ $ $ $ $ $ $ $ $ $ $ $ $ % & * . . . . . . . . . ",
(char *)". . . . . . . = - ; > , ' ' ' ' ' ' ' ' ' ' ' ' ' ' ' ' ' ' ' ' ' ' ' ' ) ! ~ { = . . . . . . . ",
(char *)". . . . . . ] ^ / ( _ _ _ _ _ _ _ _ _ _ _ _ _ _ _ _ _ _ _ _ _ _ _ _ _ _ _ _ : < ^ = . . . . . . ",
(char *)". . . . . . [ } _ _ _ _ _ _ _ _ _ _ _ _ _ _ _ _ _ _ _ _ _ _ _ _ _ _ _ _ _ _ _ _ < { . . . . . . ",
(char *)". . . . . | 1 2 _ _ _ _ _ _ _ _ _ _ _ _ _ _ _ _ _ _ _ _ _ _ _ _ _ _ _ _ _ _ _ _ : ~ * . . . . . ",
(char *)". . . . . 3 4 _ _ _ _ _ _ _ _ _ _ _ _ _ _ _ _ _ _ _ _ _ _ _ _ _ _ _ _ _ _ _ _ _ _ ! & . . . . . ",
(char *)". . . . . % 5 _ _ _ _ 6 7 8 9 0 a b c d d d d d d d d d d d e f g h i j k _ _ _ _ ) % . . . . . ",
(char *)". . . . . $ ' _ _ _ _ l m n o p q r s t t t t t t t t t t t u v w x y z A _ _ _ _ ' $ . . . . . ",
(char *)". . . . . $ ' _ _ _ _ l m n o p q r s t t t t t t t t t t t u v w x y z A _ _ _ _ ' $ . . . . . ",
(char *)". . . . . $ ' _ _ _ _ l m n o p q r s t t t t t t t t t t t u v w x y z A _ _ _ _ ' $ . . . . . ",
(char *)". . . . . $ ' _ _ _ _ l m n o p q r s t t t t t t t t t t t u v w x y z A _ _ _ _ ' $ . . . . . ",
(char *)". . . . . $ ' _ _ _ _ l m n o p q r s t t t t t t t t t t t u v w x y z A _ _ _ _ ' $ . . . . . ",
(char *)". . . . . $ ' _ _ _ _ l m n o p q r s t t t t t t t t t t t u v w x y z A _ _ _ _ ' $ . . . . . ",
(char *)". . . . . $ ' _ _ _ _ l m n o p q r s t t t t t t t t t t t u v w x y z B _ _ _ _ ' $ . . . . . ",
(char *)". . . . . $ ' _ _ _ _ l m n o p q r s t t t t t t t t t t t u v w x y z B _ _ _ _ ' $ . . . . . ",
(char *)". . . . . $ ' _ _ _ _ l m n o p q r s t t t t t t t t t t t u v w x y z B _ _ _ _ ' $ . . . . . ",
(char *)". . . . . $ ' _ _ _ _ l m n o p q r s t t t t t t t t t t t u v w x y z 8 _ _ _ _ ' $ . . . . . ",
(char *)". . . . . $ ' _ _ _ _ l m n o p q r s t t t t t t t t t t t u v w x y z 8 _ _ _ _ ' $ . . . . . ",
(char *)". . . . . $ ' _ _ _ _ l m n o p q r s t t t t t t t t t t t u v w x y z 8 _ _ _ _ ' $ . . . . . ",
(char *)". . . . . $ ' _ _ _ _ l m n o p q r s t t t t t t t t t t t u v w x y z 8 _ _ _ _ ' $ . . . . . ",
(char *)". . . . . $ ' _ _ _ _ l m n o p q r s t t t t t t t t t t t u v w x y z 8 _ _ _ _ ' $ . . . . . ",
(char *)". . . . . $ ' _ _ _ _ l m n o p q r s t t t t t t t t t t t u v w x y z 8 _ _ _ _ ' $ . . . . . ",
(char *)". . . . . $ ' _ _ _ _ l m n o p q r s t t t t t t t t t t t u v w x y z C _ _ _ _ ' $ . . . . . ",
(char *)". . . . . $ ' _ _ _ _ l m n o p q r s t t t t t t t t t t t u v w x y z C _ _ _ _ ' $ . . . . . ",
(char *)". . . . . $ ' _ _ _ _ l m n o p q r s t t t t t t t t t t t u v w x y z C _ _ _ _ ' $ . . . . . ",
(char *)". . . . . $ ' _ _ _ _ l m n o p q r s t t t t t t t t t t t u v w x y z C _ _ _ _ ' $ . . . . . ",
(char *)". . . . . $ ' _ _ _ _ l m n o p q r s t t t t t t t t t t t u v w x y z C _ _ _ _ ' $ . . . . . ",
(char *)". . . . . $ ' _ _ _ _ l m n o p q r s t t t t t t t t t t t u v w x y z C _ _ _ _ ' $ . . . . . ",
(char *)". . . . . $ ' _ _ _ _ l m n o p q r s t t t t t t t t t t t u v w x y z D _ _ _ _ ' $ . . . . . ",
(char *)". . . . . $ ' _ _ _ _ l m n o p q r s t t t t t t t t t t t u v w x y z D _ _ _ _ ' $ . . . . . ",
(char *)". . . . . $ ' _ _ _ _ E f F G H y p I J J K K K w w w q q q L M o N O F P _ _ _ _ ' $ . . . . . ",
(char *)". . . . . Q R _ _ _ _ _ _ _ _ _ _ _ _ _ _ _ _ _ _ _ _ _ _ _ _ _ _ _ _ _ _ _ _ _ _ 5 % . . . . . ",
(char *)". . . . . S T _ _ _ _ _ _ _ _ _ _ _ _ _ _ _ _ _ _ _ _ _ _ _ _ _ _ _ _ _ _ _ _ _ _ U & . . . . . ",
(char *)". . . . . V W X _ _ _ _ _ _ _ _ _ _ _ _ _ _ _ _ _ _ _ _ _ _ _ _ _ _ _ _ _ _ _ _ Y 1 Z . . . . . ",
(char *)". . . . . . `  ._ _ _ _ _ _ _ _ _ _ _ _ _ _ _ _ _ _ _ _ _ _ _ _ _ _ _ _ _ _ _ _ ..+.. . . . . . ",
(char *)". . . . . . @.#.$.%._ _ _ _ _ _ _ _ _ _ _ _ _ _ _ _ _ _ _ _ _ _ _ _ _ _ _ _ &.*.=.@.. . . . . . ",
(char *)". . . . . . . -.;.>.,., ' ' ' ' ' ' ' ' ' ' ' ' ' ' ' ' ' ' ' ' ' ' ' '., ).!.~.{.. . . . . . . ",
(char *)". . . . . . . . . ].^.Q $ $ $ $ $ $ $ $ $ $ $ $ $ $ $ $ $ $ $ $ $ $ $ $ Q ^./.. . . . . . . . . ",
(char *)". . . . . . . . . . . . . . . . . . . . . . . . . . . . . . . . . . . . . . . . . . . . . . . . ",
(char *)". . . . . . . . . . . . . . . . . . . . . . . . . . . . . . . . . . . . . . . . . . . . . . . . ",
(char *)". . . . . . . . . . . . . . . . . . . . . . . . . . . . . . . . . . . . . . . . . . . . . . . . ",
(char *)". . . . . . . . . . . . . . . . . . . . . . . . . . . . . . . . . . . . . . . . . . . . . . . . ",
(char *)". . . . . . . . . . . . . . . . . . . . . . . . . . . . . . . . . . . . . . . . . . . . . . . . "};
