/* XPM */
static char * xprt_start_dim_048_xpm[] = {
(char *)"48 48 127 2",
(char *)"  	c None",
(char *)". 	c #C0C0C0",
(char *)"+ 	c #9D9DCB",
(char *)"@ 	c #7C7CD6",
(char *)"# 	c #6060E0",
(char *)"$ 	c #5454E4",
(char *)"% 	c #6060DF",
(char *)"& 	c #7F7FD5",
(char *)"* 	c #9F9FCB",
(char *)"= 	c #A7A7C8",
(char *)"- 	c #3636E6",
(char *)"; 	c #0303F7",
(char *)"> 	c #0909D2",
(char *)", 	c #0505A8",
(char *)"' 	c #000090",
(char *)") 	c #0505A7",
(char *)"! 	c #0A0AD2",
(char *)"~ 	c #0404F7",
(char *)"{ 	c #3333E8",
(char *)"] 	c #A9A9C8",
(char *)"^ 	c #0606F9",
(char *)"/ 	c #0404A5",
(char *)"( 	c #000016",
(char *)"_ 	c #000000",
(char *)": 	c #000014",
(char *)"< 	c #0404A6",
(char *)"[ 	c #3434E6",
(char *)"} 	c #0404A8",
(char *)"| 	c #9E9ECB",
(char *)"1 	c #0202FA",
(char *)"2 	c #000015",
(char *)"3 	c #7E7ED6",
(char *)"4 	c #0808D7",
(char *)"5 	c #0505AA",
(char *)"6 	c #040704",
(char *)"7 	c #080E08",
(char *)"8 	c #070C07",
(char *)"9 	c #223922",
(char *)"0 	c #1E331E",
(char *)"a 	c #0E170E",
(char *)"b 	c #274127",
(char *)"c 	c #2B492B",
(char *)"d 	c #294529",
(char *)"e 	c #142314",
(char *)"f 	c #010201",
(char *)"g 	c #305130",
(char *)"h 	c #355935",
(char *)"i 	c #345734",
(char *)"j 	c #1D301D",
(char *)"k 	c #040604",
(char *)"l 	c #396139",
(char *)"m 	c #3E693E",
(char *)"n 	c #3C663C",
(char *)"o 	c #223A22",
(char *)"p 	c #060A06",
(char *)"q 	c #406C40",
(char *)"r 	c #0A100A",
(char *)"s 	c #3F6B3F",
(char *)"t 	c #070B07",
(char *)"u 	c #121E12",
(char *)"v 	c #345834",
(char *)"w 	c #172617",
(char *)"x 	c #365B36",
(char *)"y 	c #182918",
(char *)"z 	c #020402",
(char *)"A 	c #3D683D",
(char *)"B 	c #315231",
(char *)"C 	c #030603",
(char *)"D 	c #060B06",
(char *)"E 	c #305230",
(char *)"F 	c #2A482A",
(char *)"G 	c #2C4B2C",
(char *)"H 	c #284328",
(char *)"I 	c #233B23",
(char *)"J 	c #0D160D",
(char *)"K 	c #1C301C",
(char *)"L 	c #203520",
(char *)"M 	c #080D08",
(char *)"N 	c #3C653C",
(char *)"O 	c #060906",
(char *)"P 	c #3A623A",
(char *)"Q 	c #375E37",
(char *)"R 	c #1A2C1A",
(char *)"S 	c #020302",
(char *)"T 	c #345934",
(char *)"U 	c #162616",
(char *)"V 	c #010101",
(char *)"W 	c #131F13",
(char *)"X 	c #2C4A2C",
(char *)"Y 	c #0F190F",
(char *)"Z 	c #2F502F",
(char *)"` 	c #0A110A",
(char *)" .	c #253F25",
(char *)"..	c #192B19",
(char *)"+.	c #6161DF",
(char *)"@.	c #0505A9",
(char *)"#.	c #8282D4",
(char *)"$.	c #0909D7",
(char *)"%.	c #0808D8",
(char *)"&.	c #A5A5C9",
(char *)"*.	c #0303FA",
(char *)"=.	c #00001C",
(char *)"-.	c #000018",
(char *)";.	c #A0A0CA",
(char *)">.	c #3D3DE4",
(char *)",.	c #0505B8",
(char *)"'.	c #0505AE",
(char *)").	c #3B3BE5",
(char *)"!.	c #AEAEC6",
(char *)"~.	c #0B0BF6",
(char *)"{.	c #0606B1",
(char *)"].	c #00001B",
(char *)"^.	c #000019",
(char *)"/.	c #0404AC",
(char *)"(.	c #0909F6",
(char *)"_.	c #AFAFC5",
(char *)":.	c #4040E5",
(char *)"<.	c #0303F9",
(char *)"[.	c #0A0AD4",
(char *)"}.	c #00008F",
(char *)"|.	c #0A0AD3",
(char *)"1.	c #0303F8",
(char *)"2.	c #3A3AE5",
(char *)"3.	c #ACACC7",
(char *)"4.	c #A3A3C9",
(char *)"5.	c #8080D5",
(char *)"6.	c #A2A2CA",
(char *)". . . . . . . . . . . . . . . . . . . . . . . . . . . . . . . . . . . . . . . . . . . . . . . . ",
(char *)". . . . . . . . . . . . . . . . . . . . . . . . . . . . . . . . . . . . . . . . . . . . . . . . ",
(char *)". . . . . . . . . . . . . . . . . . . . . . . . . . . . . . . . . . . . . . . . . . . . . . . . ",
(char *)". . . . . . . . . . . . . . . . . . . . . . . . . . . . . . . . . . . . . . . . . . . . . . . . ",
(char *)". . . . . . . . . . . . . . . . . . . . . . . . . . . . . . . . . . . . . . . . . . . . . . . . ",
(char *)". . . . . . . . . + @ # $ $ $ $ $ $ $ $ $ $ $ $ $ $ $ $ $ $ $ $ $ $ $ $ % & * . . . . . . . . . ",
(char *)". . . . . . . = - ; > , ' ' ' ' ' ' ' ' ' ' ' ' ' ' ' ' ' ' ' ' ' ' ' ' ) ! ~ { = . . . . . . . ",
(char *)". . . . . . ] ^ / ( _ _ _ _ _ _ _ _ _ _ _ _ _ _ _ _ _ _ _ _ _ _ _ _ _ _ _ _ : < ^ = . . . . . . ",
(char *)". . . . . . [ } _ _ _ _ _ _ _ _ _ _ _ _ _ _ _ _ _ _ _ _ _ _ _ _ _ _ _ _ _ _ _ _ < { . . . . . . ",
(char *)". . . . . | 1 2 _ _ _ _ _ _ _ _ _ _ _ _ _ _ _ _ _ _ _ _ _ _ _ _ _ _ _ _ _ _ _ _ : ~ * . . . . . ",
(char *)". . . . . 3 4 _ _ _ _ _ _ _ _ _ _ _ _ _ _ _ _ _ _ _ _ _ _ _ _ _ _ _ _ _ _ _ _ _ _ ! & . . . . . ",
(char *)". . . . . % 5 _ _ _ _ 6 7 _ _ _ _ _ _ _ _ _ _ _ _ _ _ _ _ _ _ _ _ _ _ _ _ _ _ _ _ ) % . . . . . ",
(char *)". . . . . $ ' _ _ _ _ 8 9 0 a _ _ _ _ _ _ _ _ _ _ _ _ _ _ _ _ _ _ _ _ _ _ _ _ _ _ ' $ . . . . . ",
(char *)". . . . . $ ' _ _ _ _ 8 9 b c d e f _ _ _ _ _ _ _ _ _ _ _ _ _ _ _ _ _ _ _ _ _ _ _ ' $ . . . . . ",
(char *)". . . . . $ ' _ _ _ _ 8 9 b c g h i j k _ _ _ _ _ _ _ _ _ _ _ _ _ _ _ _ _ _ _ _ _ ' $ . . . . . ",
(char *)". . . . . $ ' _ _ _ _ 8 9 b c g h l m n o p _ _ _ _ _ _ _ _ _ _ _ _ _ _ _ _ _ _ _ ' $ . . . . . ",
(char *)". . . . . $ ' _ _ _ _ 8 9 b c g h l m q q m b r _ _ _ _ _ _ _ _ _ _ _ _ _ _ _ _ _ ' $ . . . . . ",
(char *)". . . . . $ ' _ _ _ _ 8 9 b c g h l m q q q q s c a _ _ _ _ _ _ _ _ _ _ _ _ _ _ _ ' $ . . . . . ",
(char *)". . . . . $ ' _ _ _ _ t 9 b c g h l m q q q q q q q g u _ _ _ _ _ _ _ _ _ _ _ _ _ ' $ . . . . . ",
(char *)". . . . . $ ' _ _ _ _ t 9 b c g h l m q q q q q q q q q v w f _ _ _ _ _ _ _ _ _ _ ' $ . . . . . ",
(char *)". . . . . $ ' _ _ _ _ t 9 b c g h l m q q q q q q q q q q q x y z _ _ _ _ _ _ _ _ ' $ . . . . . ",
(char *)". . . . . $ ' _ _ _ _ t 9 b c g h l m q q q q q q q q q q q A l B y C _ _ _ _ _ _ ' $ . . . . . ",
(char *)". . . . . $ ' _ _ _ _ D 9 b c g h l m q q q q q q q q q q q A l h E F w 6 _ _ _ _ ' $ . . . . . ",
(char *)". . . . . $ ' _ _ _ _ D 9 b c g h l m q q q q q q q q q q q A l h E G H I J _ _ _ ' $ . . . . . ",
(char *)". . . . . $ ' _ _ _ _ D 9 b c g h l m q q q q q q q q q q q A l h E G K 7 _ _ _ _ ' $ . . . . . ",
(char *)". . . . . $ ' _ _ _ _ p 9 b c g h l m q q q q q q q q q q q A l v L M _ _ _ _ _ _ ' $ . . . . . ",
(char *)". . . . . $ ' _ _ _ _ p 9 b c g h l m q q q q q q q q q q q N 9 8 _ _ _ _ _ _ _ _ ' $ . . . . . ",
(char *)". . . . . $ ' _ _ _ _ p 9 b c g h l m q q q q q q q q q n 9 O _ _ _ _ _ _ _ _ _ _ ' $ . . . . . ",
(char *)". . . . . $ ' _ _ _ _ p 9 b c g h l m q q q q q q q P 0 k _ _ _ _ _ _ _ _ _ _ _ _ ' $ . . . . . ",
(char *)". . . . . $ ' _ _ _ _ p 9 b c g h l m q q q q q Q R S _ _ _ _ _ _ _ _ _ _ _ _ _ _ ' $ . . . . . ",
(char *)". . . . . $ ' _ _ _ _ p 9 b c g h l m q q q T U V _ _ _ _ _ _ _ _ _ _ _ _ _ _ _ _ ' $ . . . . . ",
(char *)". . . . . $ ' _ _ _ _ p 9 b c g h l m q B W _ _ _ _ _ _ _ _ _ _ _ _ _ _ _ _ _ _ _ ' $ . . . . . ",
(char *)". . . . . $ ' _ _ _ _ p 9 b c g h l X Y _ _ _ _ _ _ _ _ _ _ _ _ _ _ _ _ _ _ _ _ _ ' $ . . . . . ",
(char *)". . . . . $ ' _ _ _ _ p 9 b c Z 9 ` _ _ _ _ _ _ _ _ _ _ _ _ _ _ _ _ _ _ _ _ _ _ _ ' $ . . . . . ",
(char *)". . . . . $ ' _ _ _ _ O 9  ...p _ _ _ _ _ _ _ _ _ _ _ _ _ _ _ _ _ _ _ _ _ _ _ _ _ ' $ . . . . . ",
(char *)". . . . . $ ' _ _ _ _ 6 u C _ _ _ _ _ _ _ _ _ _ _ _ _ _ _ _ _ _ _ _ _ _ _ _ _ _ _ ' $ . . . . . ",
(char *)". . . . . +.@._ _ _ _ _ _ _ _ _ _ _ _ _ _ _ _ _ _ _ _ _ _ _ _ _ _ _ _ _ _ _ _ _ _ 5 % . . . . . ",
(char *)". . . . . #.$._ _ _ _ _ _ _ _ _ _ _ _ _ _ _ _ _ _ _ _ _ _ _ _ _ _ _ _ _ _ _ _ _ _ %.& . . . . . ",
(char *)". . . . . &.*.=._ _ _ _ _ _ _ _ _ _ _ _ _ _ _ _ _ _ _ _ _ _ _ _ _ _ _ _ _ _ _ _ -.1 ;.. . . . . ",
(char *)". . . . . . >.,._ _ _ _ _ _ _ _ _ _ _ _ _ _ _ _ _ _ _ _ _ _ _ _ _ _ _ _ _ _ _ _ '.).. . . . . . ",
(char *)". . . . . . !.~.{.]._ _ _ _ _ _ _ _ _ _ _ _ _ _ _ _ _ _ _ _ _ _ _ _ _ _ _ _ ^./.(.!.. . . . . . ",
(char *)". . . . . . . _.:.<.[., ' ' ' ' ' ' ' ' ' ' ' ' ' ' ' ' ' ' ' ' ' ' ' }., |.1.2.3.. . . . . . . ",
(char *)". . . . . . . . . 4.5.+.$ $ $ $ $ $ $ $ $ $ $ $ $ $ $ $ $ $ $ $ $ $ $ $ +.5.6.. . . . . . . . . ",
(char *)". . . . . . . . . . . . . . . . . . . . . . . . . . . . . . . . . . . . . . . . . . . . . . . . ",
(char *)". . . . . . . . . . . . . . . . . . . . . . . . . . . . . . . . . . . . . . . . . . . . . . . . ",
(char *)". . . . . . . . . . . . . . . . . . . . . . . . . . . . . . . . . . . . . . . . . . . . . . . . ",
(char *)". . . . . . . . . . . . . . . . . . . . . . . . . . . . . . . . . . . . . . . . . . . . . . . . ",
(char *)". . . . . . . . . . . . . . . . . . . . . . . . . . . . . . . . . . . . . . . . . . . . . . . . "};
