/* XPM */
static char * xprt_stop_dim_016_xpm[] = {
(char *)"16 16 38 1",
(char *)" 	c None",
(char *)".	c #C0C0C0",
(char *)"+	c #B4B4C4",
(char *)"@	c #9C9CCC",
(char *)"#	c #B5B5C4",
(char *)"$	c #5050B4",
(char *)"%	c #15156E",
(char *)"&	c #000030",
(char *)"*	c #17176C",
(char *)"=	c #5353B2",
(char *)"-	c #000000",
(char *)";	c #0A0606",
(char *)">	c #0E0808",
(char *)",	c #110A0A",
(char *)"'	c #0F0909",
(char *)")	c #0C0707",
(char *)"!	c #010101",
(char *)"~	c #151569",
(char *)"{	c #030202",
(char *)"]	c #412727",
(char *)"^	c #593535",
(char *)"/	c #6C4040",
(char *)"(	c #613939",
(char *)"_	c #4B2C2C",
(char *)":	c #020101",
(char *)"<	c #3D2424",
(char *)"[	c #543232",
(char *)"}	c #663C3C",
(char *)"|	c #5B3636",
(char *)"1	c #462A2A",
(char *)"2	c #090606",
(char *)"3	c #B5B5C3",
(char *)"4	c #171770",
(char *)"5	c #161671",
(char *)"6	c #5656B3",
(char *)"7	c #17176F",
(char *)"8	c #15156D",
(char *)"9	c #5151B4",
(char *)"................",
(char *)"...+@@@@@@@@#...",
(char *)"..$%&&&&&&&&*=..",
(char *)".#*-;>,,,,')!~#.",
(char *)".@&{]^////(_;&@.",
(char *)".@&{]^////(_;&@.",
(char *)".@&{]^////(_;&@.",
(char *)".@&{]^////(_;&@.",
(char *)".@&{]^////(_;&@.",
(char *)".@&{]^////(_;&@.",
(char *)".@&{]^////(_;&@.",
(char *)".@&:<[}}}}|12&@.",
(char *)".34----------5#.",
(char *)"..67&&&&&&&&89..",
(char *)"...#@@@@@@@@#...",
(char *)"................"};
