/* XPM */
static char * xprt_start_bright_048_xpm[] = {
(char *)"48 48 140 2",
(char *)"  	c None",
(char *)". 	c #C0C0C0",
(char *)"+ 	c #9D9DCB",
(char *)"@ 	c #7C7CD6",
(char *)"# 	c #6060E0",
(char *)"$ 	c #5454E4",
(char *)"% 	c #6060DF",
(char *)"& 	c #7F7FD5",
(char *)"* 	c #9F9FCB",
(char *)"= 	c #A7A7C8",
(char *)"- 	c #3636E6",
(char *)"; 	c #0303F7",
(char *)"> 	c #0909D2",
(char *)", 	c #0505A8",
(char *)"' 	c #000090",
(char *)") 	c #0505A7",
(char *)"! 	c #0A0AD2",
(char *)"~ 	c #0404F7",
(char *)"{ 	c #3333E8",
(char *)"] 	c #A9A9C8",
(char *)"^ 	c #0606F9",
(char *)"/ 	c #0404A5",
(char *)"( 	c #000016",
(char *)"_ 	c #000000",
(char *)": 	c #000014",
(char *)"< 	c #0404A6",
(char *)"[ 	c #3434E6",
(char *)"} 	c #0404A8",
(char *)"| 	c #9E9ECB",
(char *)"1 	c #0202FA",
(char *)"2 	c #000015",
(char *)"3 	c #7E7ED6",
(char *)"4 	c #0808D7",
(char *)"5 	c #0505AA",
(char *)"6 	c #001000",
(char *)"7 	c #002100",
(char *)"8 	c #001D00",
(char *)"9 	c #008700",
(char *)"0 	c #007800",
(char *)"a 	c #003700",
(char *)"b 	c #000100",
(char *)"c 	c #001C00",
(char *)"d 	c #009A00",
(char *)"e 	c #00AD00",
(char *)"f 	c #00A300",
(char *)"g 	c #005200",
(char *)"h 	c #000500",
(char *)"i 	c #00C000",
(char *)"j 	c #00D200",
(char *)"k 	c #00CE00",
(char *)"l 	c #007200",
(char *)"m 	c #000E00",
(char *)"n 	c #00E500",
(char *)"o 	c #00F800",
(char *)"p 	c #00F000",
(char *)"q 	c #008800",
(char *)"r 	c #001800",
(char *)"s 	c #00FF00",
(char *)"t 	c #002600",
(char *)"u 	c #00FD00",
(char *)"v 	c #00AC00",
(char *)"w 	c #003600",
(char *)"x 	c #001B00",
(char *)"y 	c #00BF00",
(char *)"z 	c #004800",
(char *)"A 	c #00D000",
(char *)"B 	c #005A00",
(char *)"C 	c #000400",
(char *)"D 	c #00D600",
(char *)"E 	c #006100",
(char *)"F 	c #000800",
(char *)"G 	c #001A00",
(char *)"H 	c #00F500",
(char *)"I 	c #00E400",
(char *)"J 	c #00C200",
(char *)"K 	c #006000",
(char *)"L 	c #000D00",
(char *)"M 	c #00D300",
(char *)"N 	c #00C100",
(char *)"O 	c #00A900",
(char *)"P 	c #001100",
(char *)"Q 	c #00B000",
(char *)"R 	c #009F00",
(char *)"S 	c #008B00",
(char *)"T 	c #003300",
(char *)"U 	c #001900",
(char *)"V 	c #007100",
(char *)"W 	c #00D100",
(char *)"X 	c #007E00",
(char *)"Y 	c #002000",
(char *)"Z 	c #00ED00",
(char *)"` 	c #008600",
(char *)" .	c #001600",
(char *)"..	c #00E800",
(char *)"+.	c #00DD00",
(char *)"@.	c #006800",
(char *)"#.	c #001700",
(char *)"$.	c #005900",
(char *)"%.	c #000300",
(char *)"&.	c #004A00",
(char *)"*.	c #00AE00",
(char *)"=.	c #003A00",
(char *)"-.	c #00BD00",
(char *)";.	c #002800",
(char *)">.	c #009500",
(char *)",.	c #006400",
(char *)"'.	c #004600",
(char *)").	c #6161DF",
(char *)"!.	c #0505A9",
(char *)"~.	c #8282D4",
(char *)"{.	c #0909D7",
(char *)"].	c #0808D8",
(char *)"^.	c #A5A5C9",
(char *)"/.	c #0303FA",
(char *)"(.	c #00001C",
(char *)"_.	c #000018",
(char *)":.	c #A0A0CA",
(char *)"<.	c #3D3DE4",
(char *)"[.	c #0505B8",
(char *)"}.	c #0505AE",
(char *)"|.	c #3B3BE5",
(char *)"1.	c #AEAEC6",
(char *)"2.	c #0B0BF6",
(char *)"3.	c #0606B1",
(char *)"4.	c #00001B",
(char *)"5.	c #000019",
(char *)"6.	c #0404AC",
(char *)"7.	c #0909F6",
(char *)"8.	c #AFAFC5",
(char *)"9.	c #4040E5",
(char *)"0.	c #0303F9",
(char *)"a.	c #0A0AD4",
(char *)"b.	c #00008F",
(char *)"c.	c #0A0AD3",
(char *)"d.	c #0303F8",
(char *)"e.	c #3A3AE5",
(char *)"f.	c #ACACC7",
(char *)"g.	c #A3A3C9",
(char *)"h.	c #8080D5",
(char *)"i.	c #A2A2CA",
(char *)". . . . . . . . . . . . . . . . . . . . . . . . . . . . . . . . . . . . . . . . . . . . . . . . ",
(char *)". . . . . . . . . . . . . . . . . . . . . . . . . . . . . . . . . . . . . . . . . . . . . . . . ",
(char *)". . . . . . . . . . . . . . . . . . . . . . . . . . . . . . . . . . . . . . . . . . . . . . . . ",
(char *)". . . . . . . . . . . . . . . . . . . . . . . . . . . . . . . . . . . . . . . . . . . . . . . . ",
(char *)". . . . . . . . . . . . . . . . . . . . . . . . . . . . . . . . . . . . . . . . . . . . . . . . ",
(char *)". . . . . . . . . + @ # $ $ $ $ $ $ $ $ $ $ $ $ $ $ $ $ $ $ $ $ $ $ $ $ % & * . . . . . . . . . ",
(char *)". . . . . . . = - ; > , ' ' ' ' ' ' ' ' ' ' ' ' ' ' ' ' ' ' ' ' ' ' ' ' ) ! ~ { = . . . . . . . ",
(char *)". . . . . . ] ^ / ( _ _ _ _ _ _ _ _ _ _ _ _ _ _ _ _ _ _ _ _ _ _ _ _ _ _ _ _ : < ^ = . . . . . . ",
(char *)". . . . . . [ } _ _ _ _ _ _ _ _ _ _ _ _ _ _ _ _ _ _ _ _ _ _ _ _ _ _ _ _ _ _ _ _ < { . . . . . . ",
(char *)". . . . . | 1 2 _ _ _ _ _ _ _ _ _ _ _ _ _ _ _ _ _ _ _ _ _ _ _ _ _ _ _ _ _ _ _ _ : ~ * . . . . . ",
(char *)". . . . . 3 4 _ _ _ _ _ _ _ _ _ _ _ _ _ _ _ _ _ _ _ _ _ _ _ _ _ _ _ _ _ _ _ _ _ _ ! & . . . . . ",
(char *)". . . . . % 5 _ _ _ _ 6 7 _ _ _ _ _ _ _ _ _ _ _ _ _ _ _ _ _ _ _ _ _ _ _ _ _ _ _ _ ) % . . . . . ",
(char *)". . . . . $ ' _ _ _ _ 8 9 0 a b _ _ _ _ _ _ _ _ _ _ _ _ _ _ _ _ _ _ _ _ _ _ _ _ _ ' $ . . . . . ",
(char *)". . . . . $ ' _ _ _ _ c 9 d e f g h _ _ _ _ _ _ _ _ _ _ _ _ _ _ _ _ _ _ _ _ _ _ _ ' $ . . . . . ",
(char *)". . . . . $ ' _ _ _ _ c 9 d e i j k l m _ _ _ _ _ _ _ _ _ _ _ _ _ _ _ _ _ _ _ _ _ ' $ . . . . . ",
(char *)". . . . . $ ' _ _ _ _ c 9 d e i j n o p q r _ _ _ _ _ _ _ _ _ _ _ _ _ _ _ _ _ _ _ ' $ . . . . . ",
(char *)". . . . . $ ' _ _ _ _ c 9 d e i j n o s s o d t _ _ _ _ _ _ _ _ _ _ _ _ _ _ _ _ _ ' $ . . . . . ",
(char *)". . . . . $ ' _ _ _ _ c 9 d e i j n o s s s s u v w _ _ _ _ _ _ _ _ _ _ _ _ _ _ _ ' $ . . . . . ",
(char *)". . . . . $ ' _ _ _ _ x 9 d e i j n o s s s s s s s y z _ _ _ _ _ _ _ _ _ _ _ _ _ ' $ . . . . . ",
(char *)". . . . . $ ' _ _ _ _ x 9 d e i j n o s s s s s s s s s A B C _ _ _ _ _ _ _ _ _ _ ' $ . . . . . ",
(char *)". . . . . $ ' _ _ _ _ x 9 d e i j n o s s s s s s s s s s s D E F _ _ _ _ _ _ _ _ ' $ . . . . . ",
(char *)". . . . . $ ' _ _ _ _ G 9 d e i j n o s s s s s s s s s s s H I J K L _ _ _ _ _ _ ' $ . . . . . ",
(char *)". . . . . $ ' _ _ _ _ G 9 d e i j n o s s s s s s s s s s s H I M N O B P _ _ _ _ ' $ . . . . . ",
(char *)". . . . . $ ' _ _ _ _ G 9 d e i j n o s s s s s s s s s s s H I M N Q R S T _ _ _ ' $ . . . . . ",
(char *)". . . . . $ ' _ _ _ _ U 9 d e i j n o s s s s s s s s s s s H I M N Q V 7 _ _ _ _ ' $ . . . . . ",
(char *)". . . . . $ ' _ _ _ _ U 9 d e i j n o s s s s s s s s s s s H I W X Y _ _ _ _ _ _ ' $ . . . . . ",
(char *)". . . . . $ ' _ _ _ _ U 9 d e i j n o s s s s s s s s s s s Z ` c _ _ _ _ _ _ _ _ ' $ . . . . . ",
(char *)". . . . . $ ' _ _ _ _ r 9 d e i j n o s s s s s s s s s p 9  ._ _ _ _ _ _ _ _ _ _ ' $ . . . . . ",
(char *)". . . . . $ ' _ _ _ _ r 9 d e i j n o s s s s s s s ..0 m _ _ _ _ _ _ _ _ _ _ _ _ ' $ . . . . . ",
(char *)". . . . . $ ' _ _ _ _ r 9 d e i j n o s s s s s +.@.F _ _ _ _ _ _ _ _ _ _ _ _ _ _ ' $ . . . . . ",
(char *)". . . . . $ ' _ _ _ _ #.9 d e i j n o s s s W $.%._ _ _ _ _ _ _ _ _ _ _ _ _ _ _ _ ' $ . . . . . ",
(char *)". . . . . $ ' _ _ _ _ #.9 d e i j n o s J &._ _ _ _ _ _ _ _ _ _ _ _ _ _ _ _ _ _ _ ' $ . . . . . ",
(char *)". . . . . $ ' _ _ _ _ #.9 d e i j I *.=._ _ _ _ _ _ _ _ _ _ _ _ _ _ _ _ _ _ _ _ _ ' $ . . . . . ",
(char *)". . . . . $ ' _ _ _ _  .9 d e -.` ;._ _ _ _ _ _ _ _ _ _ _ _ _ _ _ _ _ _ _ _ _ _ _ ' $ . . . . . ",
(char *)". . . . . $ ' _ _ _ _  .9 >.,.r _ _ _ _ _ _ _ _ _ _ _ _ _ _ _ _ _ _ _ _ _ _ _ _ _ ' $ . . . . . ",
(char *)". . . . . $ ' _ _ _ _ P '.L _ _ _ _ _ _ _ _ _ _ _ _ _ _ _ _ _ _ _ _ _ _ _ _ _ _ _ ' $ . . . . . ",
(char *)". . . . . ).!._ _ _ _ _ _ _ _ _ _ _ _ _ _ _ _ _ _ _ _ _ _ _ _ _ _ _ _ _ _ _ _ _ _ 5 % . . . . . ",
(char *)". . . . . ~.{._ _ _ _ _ _ _ _ _ _ _ _ _ _ _ _ _ _ _ _ _ _ _ _ _ _ _ _ _ _ _ _ _ _ ].& . . . . . ",
(char *)". . . . . ^./.(._ _ _ _ _ _ _ _ _ _ _ _ _ _ _ _ _ _ _ _ _ _ _ _ _ _ _ _ _ _ _ _ _.1 :.. . . . . ",
(char *)". . . . . . <.[._ _ _ _ _ _ _ _ _ _ _ _ _ _ _ _ _ _ _ _ _ _ _ _ _ _ _ _ _ _ _ _ }.|.. . . . . . ",
(char *)". . . . . . 1.2.3.4._ _ _ _ _ _ _ _ _ _ _ _ _ _ _ _ _ _ _ _ _ _ _ _ _ _ _ _ 5.6.7.1.. . . . . . ",
(char *)". . . . . . . 8.9.0.a., ' ' ' ' ' ' ' ' ' ' ' ' ' ' ' ' ' ' ' ' ' ' ' b., c.d.e.f.. . . . . . . ",
(char *)". . . . . . . . . g.h.).$ $ $ $ $ $ $ $ $ $ $ $ $ $ $ $ $ $ $ $ $ $ $ $ ).h.i.. . . . . . . . . ",
(char *)". . . . . . . . . . . . . . . . . . . . . . . . . . . . . . . . . . . . . . . . . . . . . . . . ",
(char *)". . . . . . . . . . . . . . . . . . . . . . . . . . . . . . . . . . . . . . . . . . . . . . . . ",
(char *)". . . . . . . . . . . . . . . . . . . . . . . . . . . . . . . . . . . . . . . . . . . . . . . . ",
(char *)". . . . . . . . . . . . . . . . . . . . . . . . . . . . . . . . . . . . . . . . . . . . . . . . ",
(char *)". . . . . . . . . . . . . . . . . . . . . . . . . . . . . . . . . . . . . . . . . . . . . . . . "};
