/* XPM */
static char * xprt_start_dim_064_xpm[] = {
(char *)"64 64 178 2",
(char *)"  	c None",
(char *)". 	c #C0C0C0",
(char *)"+ 	c #9797CD",
(char *)"@ 	c #7474D9",
(char *)"# 	c #5757E2",
(char *)"$ 	c #3B3BEC",
(char *)"% 	c #2F2FEF",
(char *)"& 	c #3B3BEB",
(char *)"* 	c #5959E2",
(char *)"= 	c #7676D8",
(char *)"- 	c #9898CD",
(char *)"; 	c #A7A7C8",
(char *)"> 	c #3A3AEB",
(char *)", 	c #0000FF",
(char *)"' 	c #0101FA",
(char *)") 	c #0202D9",
(char *)"! 	c #0000C0",
(char *)"~ 	c #0202D8",
(char *)"{ 	c #0101F9",
(char *)"] 	c #3636EC",
(char *)"^ 	c #7878D8",
(char *)"/ 	c #0505FB",
(char *)"( 	c #0202F4",
(char *)"_ 	c #000073",
(char *)": 	c #000020",
(char *)"< 	c #000002",
(char *)"[ 	c #000000",
(char *)"} 	c #00006E",
(char *)"| 	c #0202F2",
(char *)"1 	c #0606FB",
(char *)"2 	c #A9A9C8",
(char *)"3 	c #0606FA",
(char *)"4 	c #0000C1",
(char *)"5 	c #00001A",
(char *)"6 	c #000017",
(char *)"7 	c #0101BC",
(char *)"8 	c #0505FC",
(char *)"9 	c #A6A6C8",
(char *)"0 	c #3838EB",
(char *)"a 	c #0202F5",
(char *)"b 	c #00001E",
(char *)"c 	c #0202F3",
(char *)"d 	c #3737EC",
(char *)"e 	c #9B9BCC",
(char *)"f 	c #000074",
(char *)"g 	c #00006F",
(char *)"h 	c #9A9ACD",
(char *)"i 	c #7A7AD7",
(char *)"j 	c #000025",
(char *)"k 	c #7777D8",
(char *)"l 	c #5B5BE1",
(char *)"m 	c #0101FB",
(char *)"n 	c #000004",
(char *)"o 	c #0202DA",
(char *)"p 	c #070C07",
(char *)"q 	c #0F190F",
(char *)"r 	c #020302",
(char *)"s 	c #091009",
(char *)"t 	c #213821",
(char *)"u 	c #223A22",
(char *)"v 	c #142214",
(char *)"w 	c #030603",
(char *)"x 	c #090F09",
(char *)"y 	c #253E25",
(char *)"z 	c #284428",
(char *)"A 	c #2A472A",
(char *)"B 	c #1B2E1B",
(char *)"C 	c #060A06",
(char *)"D 	c #2C4A2C",
(char *)"E 	c #305030",
(char *)"F 	c #325532",
(char *)"G 	c #233B23",
(char *)"H 	c #0A110A",
(char *)"I 	c #335633",
(char *)"J 	c #365C36",
(char *)"K 	c #3A623A",
(char *)"L 	c #0F1A0F",
(char *)"M 	c #3E683E",
(char *)"N 	c #406C40",
(char *)"O 	c #325432",
(char *)"P 	c #142114",
(char *)"Q 	c #365B36",
(char *)"R 	c #182918",
(char *)"S 	c #010201",
(char *)"T 	c #396039",
(char *)"U 	c #1C301C",
(char *)"V 	c #030503",
(char *)"W 	c #3C653C",
(char *)"X 	c #213721",
(char *)"Y 	c #050905",
(char *)"Z 	c #253F25",
(char *)"` 	c #080E08",
(char *)" .	c #3F6B3F",
(char *)"..	c #2A462A",
(char *)"+.	c #0C140C",
(char *)"@.	c #2E4E2E",
(char *)"#.	c #101A10",
(char *)"$.	c #090E09",
(char *)"%.	c #3E693E",
(char *)"&.	c #121E12",
(char *)"*.	c #000100",
(char *)"=.	c #3B643B",
(char *)"-.	c #385E38",
(char *)";.	c #2C4B2C",
(char *)">.	c #132013",
(char *)",.	c #345834",
(char *)"'.	c #315331",
(char *)").	c #294629",
(char *)"!.	c #132113",
(char *)"~.	c #2B482B",
(char *)"{.	c #274227",
(char *)"].	c #243D24",
(char *)"^.	c #1D311D",
(char *)"/.	c #040704",
(char *)"(.	c #223922",
(char *)"_.	c #0E170E",
(char *)":.	c #294529",
(char *)"<.	c #0C150C",
(char *)"[.	c #3F6A3F",
(char *)"}.	c #3D683D",
(char *)"|.	c #080D08",
(char *)"1.	c #050805",
(char *)"2.	c #396139",
(char *)"3.	c #1D301D",
(char *)"4.	c #192A19",
(char *)"5.	c #152315",
(char *)"6.	c #010101",
(char *)"7.	c #2F4F2F",
(char *)"8.	c #111C11",
(char *)"9.	c #3A613A",
(char *)"0.	c #0D160D",
(char *)"a.	c #1A2C1A",
(char *)"b.	c #070D07",
(char *)"c.	c #0E180E",
(char *)"d.	c #3C3CEB",
(char *)"e.	c #0202DB",
(char *)"f.	c #5C5CE1",
(char *)"g.	c #0101FD",
(char *)"h.	c #000006",
(char *)"i.	c #0101FC",
(char *)"j.	c #7B7BD6",
(char *)"k.	c #00002C",
(char *)"l.	c #000027",
(char *)"m.	c #7B7BD7",
(char *)"n.	c #A0A0CA",
(char *)"o.	c #000081",
(char *)"p.	c #00007C",
(char *)"q.	c #9D9DCB",
(char *)"r.	c #4848E7",
(char *)"s.	c #000028",
(char *)"t.	c #000022",
(char *)"u.	c #0202F8",
(char *)"v.	c #3E3EEA",
(char *)"w.	c #B2B2C4",
(char *)"x.	c #0E0EF7",
(char *)"y.	c #0202D0",
(char *)"z.	c #0101C6",
(char *)"A.	c #0909F9",
(char *)"B.	c #ADADC6",
(char *)"C.	c #8888D2",
(char *)"D.	c #0B0BF9",
(char *)"E.	c #0202F9",
(char *)"F.	c #00007D",
(char *)"G.	c #000003",
(char *)"H.	c #000021",
(char *)"I.	c #000078",
(char *)"J.	c #0202F7",
(char *)"K.	c #0808FA",
(char *)"L.	c #8181D5",
(char *)"M.	c #B0B0C5",
(char *)"N.	c #0000FE",
(char *)"O.	c #4040EA",
(char *)"P.	c #ACACC6",
(char *)"Q.	c #7979D7",
(char *)"R.	c #5A5AE1",
(char *)"S.	c #5A5AE2",
(char *)"T.	c #7878D7",
(char *)"U.	c #9D9DCC",
(char *)". . . . . . . . . . . . . . . . . . . . . . . . . . . . . . . . . . . . . . . . . . . . . . . . . . . . . . . . . . . . . . . . ",
(char *)". . . . . . . . . . . . . . . . . . . . . . . . . . . . . . . . . . . . . . . . . . . . . . . . . . . . . . . . . . . . . . . . ",
(char *)". . . . . . . . . . . . . . . . . . . . . . . . . . . . . . . . . . . . . . . . . . . . . . . . . . . . . . . . . . . . . . . . ",
(char *)". . . . . . . . . . . . . . . . . . . . . . . . . . . . . . . . . . . . . . . . . . . . . . . . . . . . . . . . . . . . . . . . ",
(char *)". . . . . . . . . . . . . . . . . . . . . . . . . . . . . . . . . . . . . . . . . . . . . . . . . . . . . . . . . . . . . . . . ",
(char *)". . . . . . . . . . . . . . . . . . . . . . . . . . . . . . . . . . . . . . . . . . . . . . . . . . . . . . . . . . . . . . . . ",
(char *)". . . . . . . . . . . . . . . . . . . . . . . . . . . . . . . . . . . . . . . . . . . . . . . . . . . . . . . . . . . . . . . . ",
(char *)". . . . . . . . . . . . + @ # $ % % % % % % % % % % % % % % % % % % % % % % % % % % % % % % % % & * = - . . . . . . . . . . . . ",
(char *)". . . . . . . . . . ; > , , ' ) ! ! ! ! ! ! ! ! ! ! ! ! ! ! ! ! ! ! ! ! ! ! ! ! ! ! ! ! ! ! ! ! ~ { , , ] ; . . . . . . . . . . ",
(char *)". . . . . . . . . ^ / ( _ : < [ [ [ [ [ [ [ [ [ [ [ [ [ [ [ [ [ [ [ [ [ [ [ [ [ [ [ [ [ [ [ [ [ [ < : } | 1 = . . . . . . . . . ",
(char *)". . . . . . . . 2 3 4 5 [ [ [ [ [ [ [ [ [ [ [ [ [ [ [ [ [ [ [ [ [ [ [ [ [ [ [ [ [ [ [ [ [ [ [ [ [ [ [ [ 6 7 8 9 . . . . . . . . ",
(char *)". . . . . . . . 0 a b [ [ [ [ [ [ [ [ [ [ [ [ [ [ [ [ [ [ [ [ [ [ [ [ [ [ [ [ [ [ [ [ [ [ [ [ [ [ [ [ [ [ 5 c d . . . . . . . . ",
(char *)". . . . . . . e , f [ [ [ [ [ [ [ [ [ [ [ [ [ [ [ [ [ [ [ [ [ [ [ [ [ [ [ [ [ [ [ [ [ [ [ [ [ [ [ [ [ [ [ [ g , h . . . . . . . ",
(char *)". . . . . . . i , j [ [ [ [ [ [ [ [ [ [ [ [ [ [ [ [ [ [ [ [ [ [ [ [ [ [ [ [ [ [ [ [ [ [ [ [ [ [ [ [ [ [ [ [ : , k . . . . . . . ",
(char *)". . . . . . . l m n [ [ [ [ [ [ [ [ [ [ [ [ [ [ [ [ [ [ [ [ [ [ [ [ [ [ [ [ [ [ [ [ [ [ [ [ [ [ [ [ [ [ [ [ < { * . . . . . . . ",
(char *)". . . . . . . & o [ [ [ [ [ [ p q r [ [ [ [ [ [ [ [ [ [ [ [ [ [ [ [ [ [ [ [ [ [ [ [ [ [ [ [ [ [ [ [ [ [ [ [ [ ~ & . . . . . . . ",
(char *)". . . . . . . % ! [ [ [ [ [ [ s t u v w [ [ [ [ [ [ [ [ [ [ [ [ [ [ [ [ [ [ [ [ [ [ [ [ [ [ [ [ [ [ [ [ [ [ [ ! % . . . . . . . ",
(char *)". . . . . . . % ! [ [ [ [ [ [ x t y z A B C [ [ [ [ [ [ [ [ [ [ [ [ [ [ [ [ [ [ [ [ [ [ [ [ [ [ [ [ [ [ [ [ [ ! % . . . . . . . ",
(char *)". . . . . . . % ! [ [ [ [ [ [ x t y z D E F G H [ [ [ [ [ [ [ [ [ [ [ [ [ [ [ [ [ [ [ [ [ [ [ [ [ [ [ [ [ [ [ ! % . . . . . . . ",
(char *)". . . . . . . % ! [ [ [ [ [ [ x t y z D E I J K D L [ [ [ [ [ [ [ [ [ [ [ [ [ [ [ [ [ [ [ [ [ [ [ [ [ [ [ [ [ ! % . . . . . . . ",
(char *)". . . . . . . % ! [ [ [ [ [ [ x t y z D E I J K M N O P [ [ [ [ [ [ [ [ [ [ [ [ [ [ [ [ [ [ [ [ [ [ [ [ [ [ [ ! % . . . . . . . ",
(char *)". . . . . . . % ! [ [ [ [ [ [ x t y z D E I J K M N N N Q R S [ [ [ [ [ [ [ [ [ [ [ [ [ [ [ [ [ [ [ [ [ [ [ [ ! % . . . . . . . ",
(char *)". . . . . . . % ! [ [ [ [ [ [ x t y z D E I J K M N N N N N T U V [ [ [ [ [ [ [ [ [ [ [ [ [ [ [ [ [ [ [ [ [ [ ! % . . . . . . . ",
(char *)". . . . . . . % ! [ [ [ [ [ [ x t y z D E I J K M N N N N N N N W X Y [ [ [ [ [ [ [ [ [ [ [ [ [ [ [ [ [ [ [ [ ! % . . . . . . . ",
(char *)". . . . . . . % ! [ [ [ [ [ [ x t y z D E I J K M N N N N N N N N N M Z ` [ [ [ [ [ [ [ [ [ [ [ [ [ [ [ [ [ [ ! % . . . . . . . ",
(char *)". . . . . . . % ! [ [ [ [ [ [ x t y z D E I J K M N N N N N N N N N N N  ...+.[ [ [ [ [ [ [ [ [ [ [ [ [ [ [ [ ! % . . . . . . . ",
(char *)". . . . . . . % ! [ [ [ [ [ [ x t y z D E I J K M N N N N N N N N N N N N N N @.#.[ [ [ [ [ [ [ [ [ [ [ [ [ [ ! % . . . . . . . ",
(char *)". . . . . . . % ! [ [ [ [ [ [ $.t y z D E I J K M N N N N N N N N N N N N N N N %.@.&.*.[ [ [ [ [ [ [ [ [ [ [ ! % . . . . . . . ",
(char *)". . . . . . . % ! [ [ [ [ [ [ $.t y z D E I J K M N N N N N N N N N N N N N N N %.=.-.;.>.S [ [ [ [ [ [ [ [ [ ! % . . . . . . . ",
(char *)". . . . . . . % ! [ [ [ [ [ [ ` t y z D E I J K M N N N N N N N N N N N N N N N %.=.-.,.'.).!.r [ [ [ [ [ [ [ ! % . . . . . . . ",
(char *)". . . . . . . % ! [ [ [ [ [ [ ` t y z D E I J K M N N N N N N N N N N N N N N N %.=.-.,.'.@.~.y >.V [ [ [ [ [ ! % . . . . . . . ",
(char *)". . . . . . . % ! [ [ [ [ [ [ ` t y z D E I J K M N N N N N N N N N N N N N N N %.=.-.,.'.@.~.{.].^./.[ [ [ [ ! % . . . . . . . ",
(char *)". . . . . . . % ! [ [ [ [ [ [ ` t y z D E I J K M N N N N N N N N N N N N N N N %.=.-.,.'.@.~.(.q S [ [ [ [ [ ! % . . . . . . . ",
(char *)". . . . . . . % ! [ [ [ [ [ [ ` t y z D E I J K M N N N N N N N N N N N N N N N %.=.-.,.'.Z q *.[ [ [ [ [ [ [ ! % . . . . . . . ",
(char *)". . . . . . . % ! [ [ [ [ [ [ ` t y z D E I J K M N N N N N N N N N N N N N N N %.=.-.{._.[ [ [ [ [ [ [ [ [ [ ! % . . . . . . . ",
(char *)". . . . . . . % ! [ [ [ [ [ [ ` t y z D E I J K M N N N N N N N N N N N N N N N M :.<.[ [ [ [ [ [ [ [ [ [ [ [ ! % . . . . . . . ",
(char *)". . . . . . . % ! [ [ [ [ [ [ ` t y z D E I J K M N N N N N N N N N N N N N [.z H [ [ [ [ [ [ [ [ [ [ [ [ [ [ ! % . . . . . . . ",
(char *)". . . . . . . % ! [ [ [ [ [ [ ` t y z D E I J K M N N N N N N N N N N N }.].|.[ [ [ [ [ [ [ [ [ [ [ [ [ [ [ [ ! % . . . . . . . ",
(char *)". . . . . . . % ! [ [ [ [ [ [ |.t y z D E I J K M N N N N N N N N N W X 1.[ [ [ [ [ [ [ [ [ [ [ [ [ [ [ [ [ [ ! % . . . . . . . ",
(char *)". . . . . . . % ! [ [ [ [ [ [ |.t y z D E I J K M N N N N N N N 2.3.V [ [ [ [ [ [ [ [ [ [ [ [ [ [ [ [ [ [ [ [ ! % . . . . . . . ",
(char *)". . . . . . . % ! [ [ [ [ [ [ |.t y z D E I J K M N N N N N Q 4.r [ [ [ [ [ [ [ [ [ [ [ [ [ [ [ [ [ [ [ [ [ [ ! % . . . . . . . ",
(char *)". . . . . . . % ! [ [ [ [ [ [ |.t y z D E I J K M N N N I 5.6.[ [ [ [ [ [ [ [ [ [ [ [ [ [ [ [ [ [ [ [ [ [ [ [ ! % . . . . . . . ",
(char *)". . . . . . . % ! [ [ [ [ [ [ |.t y z D E I J K M N 7.8.[ [ [ [ [ [ [ [ [ [ [ [ [ [ [ [ [ [ [ [ [ [ [ [ [ [ [ ! % . . . . . . . ",
(char *)". . . . . . . % ! [ [ [ [ [ [ |.t y z D E I J 9...0.[ [ [ [ [ [ [ [ [ [ [ [ [ [ [ [ [ [ [ [ [ [ [ [ [ [ [ [ [ ! % . . . . . . . ",
(char *)". . . . . . . % ! [ [ [ [ [ [ |.t y z D E O t x [ [ [ [ [ [ [ [ [ [ [ [ [ [ [ [ [ [ [ [ [ [ [ [ [ [ [ [ [ [ [ ! % . . . . . . . ",
(char *)". . . . . . . % ! [ [ [ [ [ [ |.t y z A a.Y [ [ [ [ [ [ [ [ [ [ [ [ [ [ [ [ [ [ [ [ [ [ [ [ [ [ [ [ [ [ [ [ [ ! % . . . . . . . ",
(char *)". . . . . . . % ! [ [ [ [ [ [ b.t (.P V [ [ [ [ [ [ [ [ [ [ [ [ [ [ [ [ [ [ [ [ [ [ [ [ [ [ [ [ [ [ [ [ [ [ [ ! % . . . . . . . ",
(char *)". . . . . . . % ! [ [ [ [ [ [ Y c.S [ [ [ [ [ [ [ [ [ [ [ [ [ [ [ [ [ [ [ [ [ [ [ [ [ [ [ [ [ [ [ [ [ [ [ [ [ ! % . . . . . . . ",
(char *)". . . . . . . d.e.[ [ [ [ [ [ [ [ [ [ [ [ [ [ [ [ [ [ [ [ [ [ [ [ [ [ [ [ [ [ [ [ [ [ [ [ [ [ [ [ [ [ [ [ [ [ o d.. . . . . . . ",
(char *)". . . . . . . f.g.h.[ [ [ [ [ [ [ [ [ [ [ [ [ [ [ [ [ [ [ [ [ [ [ [ [ [ [ [ [ [ [ [ [ [ [ [ [ [ [ [ [ [ [ [ n i.l . . . . . . . ",
(char *)". . . . . . . j., k.[ [ [ [ [ [ [ [ [ [ [ [ [ [ [ [ [ [ [ [ [ [ [ [ [ [ [ [ [ [ [ [ [ [ [ [ [ [ [ [ [ [ [ [ l., m.. . . . . . . ",
(char *)". . . . . . . n., o.[ [ [ [ [ [ [ [ [ [ [ [ [ [ [ [ [ [ [ [ [ [ [ [ [ [ [ [ [ [ [ [ [ [ [ [ [ [ [ [ [ [ [ [ p., q.. . . . . . . ",
(char *)". . . . . . . . r.' s.[ [ [ [ [ [ [ [ [ [ [ [ [ [ [ [ [ [ [ [ [ [ [ [ [ [ [ [ [ [ [ [ [ [ [ [ [ [ [ [ [ [ t.u.v.. . . . . . . . ",
(char *)". . . . . . . . w.x.y.j [ [ [ [ [ [ [ [ [ [ [ [ [ [ [ [ [ [ [ [ [ [ [ [ [ [ [ [ [ [ [ [ [ [ [ [ [ [ [ [ b z.A.B.. . . . . . . . ",
(char *)". . . . . . . . . C.D.E.F.l.n [ [ [ [ [ [ [ [ [ [ [ [ [ [ [ [ [ [ [ [ [ [ [ [ [ [ [ [ [ [ [ [ [ [ G.H.I.J.K.L.. . . . . . . . . ",
(char *)". . . . . . . . . . M.r.N., i.o ! ! ! ! ! ! ! ! ! ! ! ! ! ! ! ! ! ! ! ! ! ! ! ! ! ! ! ! ! ! ! ! ) ' , , O.P.. . . . . . . . . . ",
(char *)". . . . . . . . . . . . n.Q.R.& % % % % % % % % % % % % % % % % % % % % % % % % % % % % % % % % & S.T.U.. . . . . . . . . . . . ",
(char *)". . . . . . . . . . . . . . . . . . . . . . . . . . . . . . . . . . . . . . . . . . . . . . . . . . . . . . . . . . . . . . . . ",
(char *)". . . . . . . . . . . . . . . . . . . . . . . . . . . . . . . . . . . . . . . . . . . . . . . . . . . . . . . . . . . . . . . . ",
(char *)". . . . . . . . . . . . . . . . . . . . . . . . . . . . . . . . . . . . . . . . . . . . . . . . . . . . . . . . . . . . . . . . ",
(char *)". . . . . . . . . . . . . . . . . . . . . . . . . . . . . . . . . . . . . . . . . . . . . . . . . . . . . . . . . . . . . . . . ",
(char *)". . . . . . . . . . . . . . . . . . . . . . . . . . . . . . . . . . . . . . . . . . . . . . . . . . . . . . . . . . . . . . . . ",
(char *)". . . . . . . . . . . . . . . . . . . . . . . . . . . . . . . . . . . . . . . . . . . . . . . . . . . . . . . . . . . . . . . . ",
(char *)". . . . . . . . . . . . . . . . . . . . . . . . . . . . . . . . . . . . . . . . . . . . . . . . . . . . . . . . . . . . . . . . "};
