/* XPM */
static char * xprt_stop_bright_032_xpm[] = {
(char *)"32 32 82 1",
(char *)" 	c None",
(char *)".	c #C0C0C0",
(char *)"+	c #A3A3C9",
(char *)"@	c #8585D4",
(char *)"#	c #7878D8",
(char *)"$	c #8686D3",
(char *)"%	c #A6A6C9",
(char *)"&	c #AEAEC6",
(char *)"*	c #2F2FDA",
(char *)"=	c #1111B5",
(char *)"-	c #08087C",
(char *)";	c #000060",
(char *)">	c #08087A",
(char *)",	c #1010B5",
(char *)"'	c #2D2DDB",
(char *)")	c #AFAFC6",
(char *)"!	c #2B2BDD",
(char *)"~	c #00003B",
(char *)"{	c #000000",
(char *)"]	c #000041",
(char *)"^	c #A5A5C9",
(char *)"/	c #1212B4",
(char *)"(	c #A2A2CA",
(char *)"_	c #050000",
(char *)":	c #300000",
(char *)"<	c #3A0000",
(char *)"[	c #440000",
(char *)"}	c #4E0000",
(char *)"|	c #570000",
(char *)"1	c #580000",
(char *)"2	c #530000",
(char *)"3	c #4A0000",
(char *)"4	c #410000",
(char *)"5	c #380000",
(char *)"6	c #110000",
(char *)"7	c #0E0000",
(char *)"8	c #8C0000",
(char *)"9	c #A80000",
(char *)"0	c #C40000",
(char *)"a	c #E10000",
(char *)"b	c #FC0000",
(char *)"c	c #FF0000",
(char *)"d	c #F10000",
(char *)"e	c #D70000",
(char *)"f	c #BD0000",
(char *)"g	c #A30000",
(char *)"h	c #330000",
(char *)"i	c #320000",
(char *)"j	c #310000",
(char *)"k	c #0C0000",
(char *)"l	c #7F0000",
(char *)"m	c #980000",
(char *)"n	c #B10000",
(char *)"o	c #CB0000",
(char *)"p	c #E20000",
(char *)"q	c #E50000",
(char *)"r	c #E40000",
(char *)"s	c #E30000",
(char *)"t	c #D50000",
(char *)"u	c #BE0000",
(char *)"v	c #A60000",
(char *)"w	c #8F0000",
(char *)"x	c #2A0000",
(char *)"y	c #08087F",
(char *)"z	c #08087E",
(char *)"A	c #A7A7C8",
(char *)"B	c #1010BF",
(char *)"C	c #1111B9",
(char *)"D	c #A6A6C8",
(char *)"E	c #3232DA",
(char *)"F	c #01014F",
(char *)"G	c #010142",
(char *)"H	c #3434D9",
(char *)"I	c #B2B2C5",
(char *)"J	c #3030DB",
(char *)"K	c #1010BB",
(char *)"L	c #08087B",
(char *)"M	c #1010B7",
(char *)"N	c #3131DA",
(char *)"O	c #B1B1C5",
(char *)"P	c #A8A8C8",
(char *)"Q	c #8787D3",
(char *)"................................",
(char *)"................................",
(char *)"................................",
(char *)"......+@################$%......",
(char *)"....&*=-;;;;;;;;;;;;;;;;>,')....",
(char *)"....!~{{{{{{{{{{{{{{{{{{{{]'....",
(char *)"...^/{{{{{{{{{{{{{{{{{{{{{{,(...",
(char *)"...$>{{_:<[}|111111123456{{>@...",
(char *)"...#;{{7890abcccccccdefgh{{;#...",
(char *)"...#;{{7890abcccccccdefgh{{;#...",
(char *)"...#;{{7890abcccccccdefgh{{;#...",
(char *)"...#;{{7890abcccccccdefgh{{;#...",
(char *)"...#;{{7890abcccccccdefgi{{;#...",
(char *)"...#;{{7890abcccccccdefgi{{;#...",
(char *)"...#;{{7890abcccccccdefgi{{;#...",
(char *)"...#;{{7890abcccccccdefgi{{;#...",
(char *)"...#;{{7890abcccccccdefgj{{;#...",
(char *)"...#;{{7890abcccccccdefgj{{;#...",
(char *)"...#;{{7890abcccccccdefgj{{;#...",
(char *)"...#;{{7890abcccccccdefgj{{;#...",
(char *)"...#;{{7890abcccccccdefg:{{;#...",
(char *)"...#;{{7890abcccccccdefg:{{;#...",
(char *)"...#;{{7890abcccccccdefg:{{;#...",
(char *)"...#;{{klmnopqrrsspptuvwx{{;#...",
(char *)"...$y{{{{{{{{{{{{{{{{{{{{{{z$...",
(char *)"...AB{{{{{{{{{{{{{{{{{{{{{{CD...",
(char *)"....EF{{{{{{{{{{{{{{{{{{{{GH....",
(char *)"....IJKL;;;;;;;;;;;;;;;;LMNO....",
(char *)"......PQ################@+......",
(char *)"................................",
(char *)"................................",
(char *)"................................"};
