/* XPM */
static char * xprt_start_bright_016_xpm[] = {
(char *)"16 16 49 1",
(char *)" 	c None",
(char *)".	c #C0C0C0",
(char *)"+	c #B4B4C4",
(char *)"@	c #9C9CCC",
(char *)"#	c #B5B5C4",
(char *)"$	c #5050B4",
(char *)"%	c #15156E",
(char *)"&	c #000030",
(char *)"*	c #17176C",
(char *)"=	c #5353B2",
(char *)"-	c #000100",
(char *)";	c #000300",
(char *)">	c #000000",
(char *)",	c #151569",
(char *)"'	c #000900",
(char *)")	c #008A00",
(char *)"!	c #006000",
(char *)"~	c #000D00",
(char *)"{	c #000800",
(char *)"]	c #009A00",
(char *)"^	c #00D200",
(char *)"/	c #00F000",
(char *)"(	c #008800",
(char *)"_	c #001900",
(char *)":	c #00FF00",
(char *)"<	c #00F800",
(char *)"[	c #009C00",
(char *)"}	c #002400",
(char *)"|	c #00E300",
(char *)"1	c #007900",
(char *)"2	c #001600",
(char *)"3	c #000700",
(char *)"4	c #00C100",
(char *)"5	c #004400",
(char *)"6	c #00CB00",
(char *)"7	c #005300",
(char *)"8	c #000200",
(char *)"9	c #00BB00",
(char *)"0	c #004300",
(char *)"a	c #000600",
(char *)"b	c #006800",
(char *)"c	c #002B00",
(char *)"d	c #B5B5C3",
(char *)"e	c #171770",
(char *)"f	c #161671",
(char *)"g	c #5656B3",
(char *)"h	c #17176F",
(char *)"i	c #15156D",
(char *)"j	c #5151B4",
(char *)"................",
(char *)"...+@@@@@@@@#...",
(char *)"..$%&&&&&&&&*=..",
(char *)".#*-;>>>>>>>>,#.",
(char *)".@&')!~>>>>>>&@.",
(char *)".@&{]^/(_>>>>&@.",
(char *)".@&{]^::<[}>>&@.",
(char *)".@&{]^::::|12&@.",
(char *)".@&3]^::::45;&@.",
(char *)".@&3]^::678>>&@.",
(char *)".@&3]^90>>>>>&@.",
(char *)".@&abc>>>>>>>&@.",
(char *)".de>>>>>>>>>>f#.",
(char *)"..gh&&&&&&&&ij..",
(char *)"...#@@@@@@@@#...",
(char *)"................"};
